<svg xmlns="http://www.w3.org/2000/svg" width="73.827" height="73.771" viewBox="0 0 73.827 73.771">
  <g id="Group_1882" data-name="Group 1882" transform="translate(-1160.05 -836.27)">
    <path id="Path_2450" data-name="Path 2450" d="M1233.82,908.24a1.4,1.4,0,0,0-1.3-1.07,2.361,2.361,0,0,0-.65,0c-.7.11-.9-.12-.9-.87q.045-21.075.02-42.16c0-1.58-.41-1.98-2.01-1.99h-6.99c-1.53.01-1.96.43-1.96,1.98v42.09a4.127,4.127,0,0,0,.01.5c.04.35-.1.46-.45.45a14.443,14.443,0,0,0-2.08.01c-.69.06-.81-.2-.81-.83q.03-12.615.02-25.22c0-1.29-.51-1.79-1.8-1.79h-7.35c-1.33,0-1.81.5-1.81,1.84v8.44c0,5.62-.01,11.24.01,16.86.01.58-.16.74-.71.69a11.107,11.107,0,0,0-1.73,0c-.69.07-.91-.1-.91-.86.04-5.82.02-11.63.02-17.44,0-1.43-.47-1.89-1.91-1.89h-7.14c-1.44,0-1.9.46-1.9,1.89-.01,5.26,0,10.52-.01,15.78,0,.81.29,1.92-.13,2.36-.47.5-1.58.08-2.41.16-.62.06-.79-.11-.79-.76.03-8.41.02-16.82.02-25.23,0-1.34-.49-1.84-1.81-1.84h-7.28c-1.39,0-1.87.48-1.87,1.86v15.64c0,3.24-.01,6.48.01,9.73,0,.45-.08.64-.58.6a16.2,16.2,0,0,0-2.09,0c-.54.04-.67-.12-.67-.66.03-4.06.01-8.12.01-12.18,0-1.32-.5-1.83-1.83-1.83-2.43-.01-4.85-.01-7.28,0-1.33,0-1.84.5-1.84,1.82-.01,3.96,0,7.92,0,11.89,0,.95-.01,1-.93.94a1.872,1.872,0,0,0-1.96,1.02v.87a1.128,1.128,0,0,0,1.01,1h71.81c.13-.09.27-.18.4-.28A1.362,1.362,0,0,0,1233.82,908.24Zm-62.8-1.59c0,.41-.12.53-.52.52q-2.085-.03-4.17,0c-.41.01-.52-.12-.52-.52.02-1.8.01-3.6.01-5.39s.01-3.55-.01-5.33c-.01-.43.1-.57.56-.56,1.36.03,2.73.03,4.1,0,.46-.01.55.14.55.57Q1170.99,901.3,1171.02,906.65Zm14.27,0c0,.4-.1.53-.51.52-1.37-.02-2.74-.03-4.11,0-.48.02-.59-.13-.59-.59.02-3.99.01-7.97.01-11.96,0-3.91.02-7.83-.01-11.74,0-.53.12-.69.67-.67,1.34.04,2.68.03,4.03.01.41-.01.51.12.51.52Q1185.275,894.7,1185.29,906.65Zm14.28-.03c0,.45-.12.56-.56.55-1.37-.03-2.74-.03-4.1,0-.46.01-.55-.13-.55-.56.02-2.71.01-5.43.01-8.14,0-2.66.01-5.33-.01-7.99-.01-.51.12-.64.63-.63,1.34.04,2.69.04,4.03,0,.46-.01.55.14.55.57Q1199.54,898.52,1199.57,906.62Zm13.62.56c-1.34-.05-2.69-.03-4.03-.01-.41.01-.53-.1-.53-.51q.03-11.955.01-23.91c-.01-.4.08-.54.5-.53,1.37.02,2.74.04,4.11-.01.56-.02.59.21.59.67q-.015,5.895-.01,11.81c0,3.93-.01,7.87.02,11.81C1213.85,907.02,1213.75,907.2,1213.19,907.18Zm14.93-.6c0,.46-.11.61-.59.59-1.32-.03-2.64-.04-3.96.01-.55.01-.67-.15-.66-.68q.015-10.185.01-20.38t-.01-20.38c-.01-.56.12-.74.7-.72,1.31.05,2.64.04,3.96.01.45-.01.55.13.55.56Q1228.1,886.08,1228.12,906.58Z" fill="#c20c17"/>
    <path id="Path_2451" data-name="Path 2451" d="M1160.051,874.586a5.161,5.161,0,0,1,.847-1.057q13.719-13.7,27.428-27.413c1.128-1.127,1.718-1.128,2.843,0q6.17,6.167,12.326,12.342c.4.408.6.38.989-.009q7.193-7.23,14.426-14.42c.386-.384.423-.605-.008-.934a6.3,6.3,0,0,1-.717-.708,1.442,1.442,0,0,1,.694-2.547c2.843-.778,5.693-1.532,8.541-2.295,1.505-.4,3.008-.816,4.516-1.206a1.433,1.433,0,0,1,1.861,1.814q-1.743,6.567-3.522,13.123a1.438,1.438,0,0,1-2.515.684c-.986-.916-.986-.916-1.948.046q-2.448,2.446-4.9,4.89a1.416,1.416,0,0,1-1.568.428,1.433,1.433,0,0,1-.534-2.394c2.309-2.312,4.611-4.63,6.936-6.926.716-.707,1.338-.647,2.291.119.222-.123.19-.36.243-.557q.967-3.573,1.93-7.148c.081-.3.22-.7-.354-.545-2.616.692-5.227,1.4-7.815,2.1-.078.2.057.251.128.328.907.965.9,1.632-.063,2.59q-7.365,7.365-14.732,14.727-1.02,1.019-2.039,2.038c-1.011,1.006-1.693,1.011-2.691.013q-6.2-6.189-12.376-12.393c-.429-.433-.629-.411-1.047.008q-12.6,12.631-25.232,25.225c-.365.363-.441.554-.019.938.853.775,1.671,1.593,2.447,2.444.392.429.6.369.978-.013q10.254-10.285,20.535-20.545c1.662-1.662,1.966-1.664,3.607-.023q5.991,5.986,11.971,11.983c.368.371.552.413.941.014,1.981-2.028,4-4.017,6-6.028a1.528,1.528,0,0,1,1.616-.515,1.417,1.417,0,0,1,.634,2.322c-.4.475-.87.9-1.312,1.338q-3.057,3.058-6.118,6.114a1.551,1.551,0,0,1-2.588-.008q-6.2-6.189-12.377-12.393c-.427-.43-.636-.488-1.1-.019q-10.4,10.449-20.837,20.854c-1.191,1.191-1.735,1.186-2.942-.02q-2.268-2.266-4.534-4.537c-.3-.3-.562-.638-.842-.958Z" fill="#c20c17"/>
    <path id="Path_2452" data-name="Path 2452" d="M1215.721,858.6a1.446,1.446,0,0,1,1.433,1.476,1.422,1.422,0,0,1-1.429,1.4,1.448,1.448,0,0,1-1.445-1.464A1.481,1.481,0,0,1,1215.721,858.6Z" fill="#c20d18"/>
  </g>
</svg>
