<svg xmlns="http://www.w3.org/2000/svg" width="85.8" height="79.102" viewBox="0 0 85.8 79.102">
  <g id="Group_1880" data-name="Group 1880" transform="translate(-1172.56 -798.398)">
    <path id="Path_2445" data-name="Path 2445" d="M1256.09,874.12c-.45.05-.9-.04-1.34.02-.78.11-.95-.2-.94-.95q.03-18.675.01-37.35c0-1.51-.58-2.09-2.07-2.1h-11.22c-1.56,0-2.12.57-2.12,2.12v15.75c0,7.17-.02,14.35.02,21.53.01.88-.26,1.06-1.06,1.01a28.115,28.115,0,0,0-3.18-.01c-.65.04-.82-.15-.82-.81.02-7.4.01-14.8.01-22.2,0-1.63-.53-2.17-2.14-2.17q-5.445-.015-10.89,0c-1.93,0-2.38.45-2.38,2.35,0,7.34-.01,14.68.01,22.03.01.67-.19.83-.83.8a29.545,29.545,0,0,0-3.26.01c-.74.04-.98-.14-.97-.93.05-3.3.03-6.59.02-9.89a1.671,1.671,0,0,0-2.13-1.78,1.73,1.73,0,0,0-1.22,1.87c0,3.35-.01,6.71.01,10.06.01.48-.07.67-.62.66-2.49-.03-4.97-.02-7.46,0-.5.01-.65-.11-.65-.64q.015-17.88,0-35.77c0-.51.12-.65.64-.65,2.46.03,4.92.04,7.37,0,.61-.01.73.17.73.74-.03,3.3-.02,6.59-.02,9.89.01,1.29.65,2.03,1.71,2.01,1.04-.02,1.64-.75,1.64-2,.01-3.96.01-7.93,0-11.89,0-1.51-.57-2.08-2.07-2.09h-11.22c-1.55,0-2.12.58-2.12,2.13V852.7c0,6.9-.01,13.8.01,20.69,0,.56-.1.78-.71.76-1.2-.06-2.41-.05-3.61-.01-.59.03-.73-.15-.73-.73.03-3.47.02-6.93.02-10.39q0-6.075-.01-12.15c0-1.19-.56-1.89-1.63-1.9q-6.075-.03-12.15,0a1.594,1.594,0,0,0-1.62,1.59c-.02.25-.01.5-.01.75,0,7.32-.02,14.63.02,21.95,0,.77-.22.94-.93.88a13.259,13.259,0,0,0-2.09.01,1.655,1.655,0,0,0-1.53,1.68,1.7,1.7,0,0,0,1.51,1.64c.25.02.5.01.75.01q40.635,0,81.26.02a2.309,2.309,0,0,0,2.28-1.19V875.3A2.127,2.127,0,0,0,1256.09,874.12Zm-66.94-10.88c0,3.41-.01,6.81.02,10.21,0,.55-.14.7-.69.69q-3.69-.045-7.36,0c-.56.01-.69-.15-.69-.69q.03-10.215,0-20.42c-.01-.58.14-.75.73-.74,2.43.04,4.85.04,7.28,0,.6-.01.73.17.73.75C1189.14,856.44,1189.15,859.84,1189.15,863.24Zm40.89,10.21c.01.54-.13.7-.68.69-2.46-.03-4.91-.03-7.37,0-.55.01-.69-.14-.68-.69.02-3.4.01-6.8.01-10.21s.01-6.8-.01-10.21c-.01-.57.13-.75.72-.74,2.46.04,4.91.03,7.37,0,.52,0,.65.15.64.66Q1230.025,863.2,1230.04,873.45Zm20.43-17.84c0,5.92-.01,11.84.02,17.75,0,.62-.14.8-.78.79q-3.63-.06-7.28-.01c-.56.01-.68-.16-.68-.69q.015-17.835,0-35.67c0-.54.12-.71.68-.7,2.43.03,4.86.04,7.28,0,.64-.01.78.16.78.78C1250.46,843.78,1250.47,849.7,1250.47,855.61Z" fill="#c20c17"/>
    <path id="Path_2446" data-name="Path 2446" d="M1249.05,798.98a7.684,7.684,0,0,0-8.59,1.9,7.572,7.572,0,0,0-1.2,8.7.871.871,0,0,1-.22,1.24c-2.92,2.88-5.82,5.79-8.71,8.7a.777.777,0,0,1-1.11.21,7.3,7.3,0,0,0-7.13.02c-.5.26-.71.13-1.04-.2-2.93-2.95-5.87-5.9-8.83-8.82a.767.767,0,0,1-.15-1.11,7.691,7.691,0,1,0-13.66.01.776.776,0,0,1-.16,1.11q-4.35,4.3-8.65,8.66a1.028,1.028,0,0,1-1.45.22,7.6,7.6,0,0,0-8.56,1.25,7.685,7.685,0,0,0-1.95,8.51,7.706,7.706,0,1,0,14.02-6.36c-.17-.33-.42-.58,0-.99,3.05-2.99,6.06-6.02,9.07-9.05a.575.575,0,0,1,.84-.12,7.451,7.451,0,0,0,7.29.02.634.634,0,0,1,.91.12q4.485,4.53,9.01,9a.629.629,0,0,1,.11.92,7.176,7.176,0,0,0-.92,3.6,7.737,7.737,0,0,0,4.94,7.21,7.643,7.643,0,0,0,8.48-2.05,7.563,7.563,0,0,0,1.12-8.64.8.8,0,0,1,.2-1.17q4.38-4.335,8.7-8.72a.892.892,0,0,1,1.25-.19,7.691,7.691,0,1,0,6.39-13.98Zm-64.26,31.91a4.35,4.35,0,0,1-.02-8.7,4.35,4.35,0,1,1,.02,8.7Zm20.37-20.43a4.355,4.355,0,1,1,4.43-4.31A4.383,4.383,0,0,1,1205.16,810.46Zm20.51,20.43a4.35,4.35,0,1,1,4.36-4.37A4.366,4.366,0,0,1,1225.67,830.89Zm20.48-20.43a4.355,4.355,0,1,1,4.32-4.34A4.358,4.358,0,0,1,1246.15,810.46Z" fill="#c20c17"/>
    <path id="Path_2447" data-name="Path 2447" d="M1211.259,853.951a1.656,1.656,0,1,1-1.661,1.629A1.665,1.665,0,0,1,1211.259,853.951Z" fill="#c20d18"/>
  </g>
</svg>
