<svg xmlns="http://www.w3.org/2000/svg" width="75.737" height="75.77" viewBox="0 0 75.737 75.77">
  <g id="Group_1885" data-name="Group 1885" transform="translate(-1407.181 -823.99)">
    <path id="Path_2518" data-name="Path 2518" d="M1432.37,838.964c0-1.2,0-1.2,1.237-1.2,1.2,0,1.2,0,1.2,1.236,0,1.2,0,1.2-1.226,1.2S1432.37,840.2,1432.37,838.964Z" transform="translate(1.658 0.906)" fill="#c20c17"/>
    <path id="Path_2519" data-name="Path 2519" d="M1432.37,834.364c0-1.194,0-1.194,1.183-1.194,1.258,0,1.258,0,1.258,1.258,0,1.194,0,1.194-1.172,1.194C1432.37,835.621,1432.37,835.621,1432.37,834.364Z" transform="translate(1.658 0.604)" fill="#c20c17"/>
    <path id="Path_2520" data-name="Path 2520" d="M1421.061,850.51c0,1.151,0,1.151-1.141,1.151-1.3,0-1.3,0-1.3-1.29,0-1.151,0-1.151,1.13-1.151C1421.061,849.22,1421.061,849.22,1421.061,850.51Z" transform="translate(0.753 1.661)" fill="#c20c17"/>
    <path id="Path_2521" data-name="Path 2521" d="M1425.641,850.5c0,1.162,0,1.162-1.2,1.162-1.236,0-1.236,0-1.236-1.2,0-1.236,0-1.236,1.2-1.236C1425.641,849.22,1425.641,849.22,1425.641,850.5Z" transform="translate(1.055 1.661)" fill="#c20c17"/>
    <path id="Path_2522" data-name="Path 2522" d="M1430.231,850.52c0,1.141,0,1.141-1.14,1.141-1.3,0-1.3,0-1.3-1.29,0-1.151,0-1.151,1.14-1.151C1430.231,849.22,1430.231,849.22,1430.231,850.52Z" transform="translate(1.357 1.661)" fill="#c20c17"/>
    <path id="Path_2523" data-name="Path 2523" d="M1435.337,844.62c-3.411.032-6.821.021-10.232.021-3.464,0-6.928.011-10.381-.021-.576,0-.714.128-.7.7q.032,5.42,0,10.839c-.011.576.128.7.7.7q10.3-.032,20.613,0c.565,0,.7-.128.7-.7q-.048-5.42,0-10.839C1436.04,844.759,1435.912,844.62,1435.337,844.62Zm-1.748,9.283c.011.49-.192.512-.576.512-2.675-.011-5.34,0-8.015,0-2.654,0-5.3-.021-7.94.011-.458,0-.608-.1-.6-.586.032-2.078.021-4.167.01-6.256-.01-.384.085-.512.49-.512q8.058.016,16.115,0c.384,0,.522.085.512.5Q1433.557,850.738,1433.589,853.9Z" transform="translate(0.45 1.358)" fill="#c20c17"/>
    <path id="Path_2524" data-name="Path 2524" d="M1414.769,866.527c-.149-.2-1.034.117-1.578.2-.149.021-.3.032-.448.053s-.266.1-.224.245a7.132,7.132,0,0,0,.586,2.164c.171.288.906-.149,1.375-.266.224-.043.437-.117.661-.171.192-.043.266-.128.234-.224A6.532,6.532,0,0,0,1414.769,866.527Zm1.471,4.679a.506.506,0,0,0-.075-.128c-.043-.053-.117-.128-.149-.117a16.8,16.8,0,0,0-2.036.8c-.266.139.064.49.149.725a7.8,7.8,0,0,0,.746,1.6c.107-.043.149-.064.192-.085.618-.33,1.535-.437,1.8-1C1417.092,872.507,1416.431,871.835,1416.24,871.206Zm1.972,4.029c-.128-.181-.266,0-.394.064-1.876.927-1.908,1.044-.672,2.718.064.085.117.171.181.245.075.128.181.181.309.085.554-.405,1.109-.8,1.652-1.215.053-.032.064-.128.085-.181C1418.979,876.365,1418.606,875.789,1418.211,875.235Zm0,0c-.128-.181-.266,0-.394.064-1.876.927-1.908,1.044-.672,2.718.064.085.117.171.181.245.075.128.181.181.309.085.554-.405,1.109-.8,1.652-1.215.053-.032.064-.128.085-.181C1418.979,876.365,1418.606,875.789,1418.211,875.235Zm-1.972-4.029a.506.506,0,0,0-.075-.128c-.043-.053-.117-.128-.149-.117a16.8,16.8,0,0,0-2.036.8c-.266.139.064.49.149.725a7.8,7.8,0,0,0,.746,1.6c.107-.043.149-.064.192-.085.618-.33,1.535-.437,1.8-1C1417.092,872.507,1416.431,871.835,1416.24,871.206Zm-1.471-4.679c-.149-.2-1.034.117-1.578.2-.149.021-.3.032-.448.053s-.266.1-.224.245a7.132,7.132,0,0,0,.586,2.164c.171.288.906-.149,1.375-.266.224-.043.437-.117.661-.171.192-.043.266-.128.234-.224A6.532,6.532,0,0,0,1414.769,866.527Zm0,0c-.149-.2-1.034.117-1.578.2-.149.021-.3.032-.448.053s-.266.1-.224.245a7.132,7.132,0,0,0,.586,2.164c.171.288.906-.149,1.375-.266.224-.043.437-.117.661-.171.192-.043.266-.128.234-.224A6.532,6.532,0,0,0,1414.769,866.527Zm1.471,4.679a.506.506,0,0,0-.075-.128c-.043-.053-.117-.128-.149-.117a16.8,16.8,0,0,0-2.036.8c-.266.139.064.49.149.725a7.8,7.8,0,0,0,.746,1.6c.107-.043.149-.064.192-.085.618-.33,1.535-.437,1.8-1C1417.092,872.507,1416.431,871.835,1416.24,871.206Zm1.972,4.029c-.128-.181-.266,0-.394.064-1.876.927-1.908,1.044-.672,2.718.064.085.117.171.181.245.075.128.181.181.309.085.554-.405,1.109-.8,1.652-1.215.053-.032.064-.128.085-.181C1418.979,876.365,1418.606,875.789,1418.211,875.235Zm8.164,8.527c-.416-.405-.821-1.108-1.258-1.119-.405-.021-.81.725-1.258,1.087s-.405.6,0,.991c1.279,1.226,1.258,1.247,2.537-.053.139-.139.266-.288.416-.448C1426.653,884.049,1426.525,883.9,1426.375,883.762Zm3.443-3.464c-1.247-1.268-1.226-1.247-2.483-.053-.426.405-.469.661,0,1.023s.778,1.119,1.279,1.087c.416-.021.8-.7,1.194-1.087.149-.16.3-.33.458-.512C1430.1,880.586,1429.967,880.436,1429.818,880.3Zm2.622-4.125c-.16-.16-.33-.3-.49-.448a1.014,1.014,0,0,0-.213.149c-.458.469-1.1.874-1.29,1.439-.117.352.65.735,1,1.14.064.075.149.138.2.213.266.384.479.277.767-.011C1433.687,877.409,1433.7,877.42,1432.44,876.173Zm0,0c-.16-.16-.33-.3-.49-.448a1.014,1.014,0,0,0-.213.149c-.458.469-1.1.874-1.29,1.439-.117.352.65.735,1,1.14.064.075.149.138.2.213.266.384.479.277.767-.011C1433.687,877.409,1433.7,877.42,1432.44,876.173Zm-2.622,4.125c-1.247-1.268-1.226-1.247-2.483-.053-.426.405-.469.661,0,1.023s.778,1.119,1.279,1.087c.416-.021.8-.7,1.194-1.087.149-.16.3-.33.458-.512C1430.1,880.586,1429.967,880.436,1429.818,880.3Zm-3.443,3.464c-.416-.405-.821-1.108-1.258-1.119-.405-.021-.81.725-1.258,1.087s-.405.6,0,.991c1.279,1.226,1.258,1.247,2.537-.053.139-.139.266-.288.416-.448C1426.653,884.049,1426.525,883.9,1426.375,883.762Zm-8.164-8.527c-.128-.181-.266,0-.394.064-1.876.927-1.908,1.044-.672,2.718.064.085.117.171.181.245.075.128.181.181.309.085.554-.405,1.109-.8,1.652-1.215.053-.032.064-.128.085-.181C1418.979,876.365,1418.606,875.789,1418.211,875.235Zm-1.972-4.029a.506.506,0,0,0-.075-.128c-.043-.053-.117-.128-.149-.117a16.8,16.8,0,0,0-2.036.8c-.266.139.064.49.149.725a7.8,7.8,0,0,0,.746,1.6c.107-.043.149-.064.192-.085.618-.33,1.535-.437,1.8-1C1417.092,872.507,1416.431,871.835,1416.24,871.206Zm-1.471-4.679c-.149-.2-1.034.117-1.578.2-.149.021-.3.032-.448.053s-.266.1-.224.245a7.132,7.132,0,0,0,.586,2.164c.171.288.906-.149,1.375-.266.224-.043.437-.117.661-.171.192-.043.266-.128.234-.224A6.532,6.532,0,0,0,1414.769,866.527Zm0,0c-.149-.2-1.034.117-1.578.2-.149.021-.3.032-.448.053s-.266.1-.224.245a7.132,7.132,0,0,0,.586,2.164c.171.288.906-.149,1.375-.266.224-.043.437-.117.661-.171.192-.043.266-.128.234-.224A6.532,6.532,0,0,0,1414.769,866.527Zm1.471,4.679a.506.506,0,0,0-.075-.128c-.043-.053-.117-.128-.149-.117a16.8,16.8,0,0,0-2.036.8c-.266.139.064.49.149.725a7.8,7.8,0,0,0,.746,1.6c.107-.043.149-.064.192-.085.618-.33,1.535-.437,1.8-1C1417.092,872.507,1416.431,871.835,1416.24,871.206Zm1.972,4.029c-.128-.181-.266,0-.394.064-1.876.927-1.908,1.044-.672,2.718.064.085.117.171.181.245.075.128.181.181.309.085.554-.405,1.109-.8,1.652-1.215.053-.032.064-.128.085-.181C1418.979,876.365,1418.606,875.789,1418.211,875.235Zm8.164,8.527c-.416-.405-.821-1.108-1.258-1.119-.405-.021-.81.725-1.258,1.087s-.405.6,0,.991c1.279,1.226,1.258,1.247,2.537-.053.139-.139.266-.288.416-.448C1426.653,884.049,1426.525,883.9,1426.375,883.762Zm3.443-3.464c-1.247-1.268-1.226-1.247-2.483-.053-.426.405-.469.661,0,1.023s.778,1.119,1.279,1.087c.416-.021.8-.7,1.194-1.087.149-.16.3-.33.458-.512C1430.1,880.586,1429.967,880.436,1429.818,880.3Zm2.622-4.125c-.16-.16-.33-.3-.49-.448a1.014,1.014,0,0,0-.213.149c-.458.469-1.1.874-1.29,1.439-.117.352.65.735,1,1.14.064.075.149.138.2.213.266.384.479.277.767-.011C1433.687,877.409,1433.7,877.42,1432.44,876.173Zm33.371-29.673a5.019,5.019,0,0,0-5.031-5.414,2.335,2.335,0,0,1-2.292-2.142c-.064-.789-.011-1.578-.032-2.366,0-.256.064-.362.341-.362.81.021,1.631-.043,2.441.043a1.939,1.939,0,0,1,1.833,1.386c.234,1.119.906,1.1,1.727,1.023a2.1,2.1,0,0,1,.448,0c.522.1.6-.171.522-.6a4.741,4.741,0,0,0-2.963-3.858c-.544-.224-.746-.469-.693-1.045s.224-1.343-.075-1.695c-.341-.405-1.141-.064-1.737-.139-.49-.064-.661.1-.629.608.043.576.213,1.354-.075,1.695-.341.416-1.14.075-1.62.139-.554,0-.98.032-1.417,0-.416-.043-.554.1-.544.533.021,1.322,0,2.643.011,3.965a4.892,4.892,0,0,0,4.967,5.286,2.409,2.409,0,0,1,2.345,2.345c.011.831.373,1.972-.139,2.409-.49.416-1.6.149-2.43.107a2,2,0,0,1-2.036-1.439c-.224-1.077-.831-1.034-1.6-.991a2.323,2.323,0,0,1-.608,0c-.479-.075-.544.16-.49.565a4.03,4.03,0,0,0,2.1,3.357,2.387,2.387,0,0,1,1.545,2.984c-.043.33.085.426.416.437,2,.117,2,.128,2.036-1.876v-.075c-.064-.384.075-.522.49-.512.885.032,1.78-.011,2.665.021.394.011.522-.085.522-.5C1465.779,849.09,1465.747,847.79,1465.811,846.5Zm7.781-4.626a1.839,1.839,0,0,1-.117-.192c-.149-.309-.3-.3-.586-.128-1.759,1.066-1.769,1.055-.682,2.729.043.064.075.128.117.2a.2.2,0,0,0,.245.117l.128-.064C1474.657,843.825,1474.732,843.612,1473.592,841.875Zm2.057,4.071c-.192-.245-.863.288-1.322.458a5.425,5.425,0,0,0-.618.277c-.1.043-.256.075-.181.256.234.618.3,1.417.735,1.791.512.437,1.172-.256,1.791-.362.17-.021.5-.011.469-.48A7.159,7.159,0,0,0,1475.649,845.946Zm1.78,5.393c-.032-.128-.042-.256-.064-.384-.032-.213-.171-.277-.384-.234-.586.149-1.311.117-1.737.458-.661.522.1,1.247.032,1.9-.032.266.075.448.384.384C1477.674,853.481,1477.834,853.29,1477.429,851.339Zm0,0c-.032-.128-.042-.256-.064-.384-.032-.213-.171-.277-.384-.234-.586.149-1.311.117-1.737.458-.661.522.1,1.247.032,1.9-.032.266.075.448.384.384C1477.674,853.481,1477.834,853.29,1477.429,851.339Zm-.906-3.453a7.159,7.159,0,0,0-.874-1.94c-.192-.245-.863.288-1.322.458a5.425,5.425,0,0,0-.618.277c-.1.043-.256.075-.181.256.234.618.3,1.417.735,1.791.512.437,1.172-.256,1.791-.362C1476.224,848.344,1476.555,848.355,1476.523,847.886Zm-2.931-6.011a1.839,1.839,0,0,1-.117-.192c-.149-.309-.3-.3-.586-.128-1.759,1.066-1.769,1.055-.682,2.729.043.064.075.128.117.2a.2.2,0,0,0,.245.117l.128-.064C1474.657,843.825,1474.732,843.612,1473.592,841.875Zm-12.811-.789a2.335,2.335,0,0,1-2.292-2.142c-.064-.789-.011-1.578-.032-2.366,0-.256.064-.362.341-.362.81.021,1.631-.043,2.441.043a1.939,1.939,0,0,1,1.833,1.386c.234,1.119.906,1.1,1.727,1.023a2.1,2.1,0,0,1,.448,0c.522.1.6-.171.522-.6a4.741,4.741,0,0,0-2.963-3.858c-.544-.224-.746-.469-.693-1.045s.224-1.343-.075-1.695c-.341-.405-1.141-.064-1.737-.139-.49-.064-.661.1-.629.608.043.576.213,1.354-.075,1.695-.341.416-1.14.075-1.62.139-.554,0-.98.032-1.417,0-.416-.043-.554.1-.544.533.021,1.322,0,2.643.011,3.965a4.892,4.892,0,0,0,4.967,5.286,2.409,2.409,0,0,1,2.345,2.345c.011.831.373,1.972-.139,2.409-.49.416-1.6.149-2.43.107a2,2,0,0,1-2.036-1.439c-.224-1.077-.831-1.034-1.6-.991a2.323,2.323,0,0,1-.608,0c-.479-.075-.544.16-.49.565a4.03,4.03,0,0,0,2.1,3.357,2.387,2.387,0,0,1,1.545,2.984c-.043.33.085.426.416.437,2,.117,2,.128,2.036-1.876v-.075c-.064-.384.075-.522.49-.512.885.032,1.78-.011,2.665.021.394.011.522-.085.522-.5-.032-1.3-.064-2.6,0-3.89A5.019,5.019,0,0,0,1460.78,841.086Zm-28.34,35.087c-.16-.16-.33-.3-.49-.448a1.014,1.014,0,0,0-.213.149c-.458.469-1.1.874-1.29,1.439-.117.352.65.735,1,1.14.064.075.149.138.2.213.266.384.479.277.767-.011C1433.687,877.409,1433.7,877.42,1432.44,876.173Zm-5.105,4.071c-.426.405-.469.661,0,1.023s.778,1.119,1.279,1.087c.416-.021.8-.7,1.194-1.087.149-.16.3-.33.458-.512-.171-.171-.3-.32-.448-.458C1428.571,879.029,1428.592,879.051,1427.335,880.244Zm-2.217,2.4c-.405-.021-.81.725-1.258,1.087s-.405.6,0,.991c1.279,1.226,1.258,1.247,2.537-.053.139-.139.266-.288.416-.448-.16-.17-.288-.32-.437-.458C1425.96,883.357,1425.555,882.653,1425.118,882.643Zm-6.906-7.408c-.128-.181-.266,0-.394.064-1.876.927-1.908,1.044-.672,2.718.064.085.117.171.181.245.075.128.181.181.309.085.554-.405,1.109-.8,1.652-1.215.053-.032.064-.128.085-.181C1418.979,876.365,1418.606,875.789,1418.211,875.235ZM1416.868,873c.224-.49-.437-1.162-.629-1.791a.506.506,0,0,0-.075-.128c-.043-.053-.117-.128-.149-.117a16.8,16.8,0,0,0-2.036.8c-.266.139.064.49.149.725a7.8,7.8,0,0,0,.746,1.6c.107-.043.149-.064.192-.085C1415.685,873.668,1416.6,873.562,1416.868,873Zm-1.727-4.242c.192-.043.266-.128.234-.224a6.532,6.532,0,0,0-.607-2c-.149-.2-1.034.117-1.578.2-.149.021-.3.032-.448.053s-.266.1-.224.245a7.132,7.132,0,0,0,.586,2.164c.171.288.906-.149,1.375-.266C1414.7,868.883,1414.918,868.808,1415.142,868.755Zm66.188-21.817a33.051,33.051,0,0,0-31.964-22.947c-.608,0-.682.181-.682.714q.016,16.419-.011,32.838c0,.6.181.682.725.682,4.839-.021,9.667-.011,14.506-.011.33,0,.682-.139.682.469-.021,4.743,0,9.475-.021,14.208a2.326,2.326,0,0,1-2.132,2.387c-2.121.075-4.253.021-6.512.021.224-.256.373-.416.512-.586a8.3,8.3,0,0,0,2.025-5.148,8.538,8.538,0,0,0-8.559-8.9c-2.537-.032-5.084-.053-7.631.011-.8.021-.927-.213-.927-.949.032-10.029.011-20.059.043-30.088,0-.65-.181-.767-.8-.767a35.4,35.4,0,0,0-7.045.682,32.948,32.948,0,0,0-26.251,34.863,32.348,32.348,0,0,0,11.649,22.628,31.523,31.523,0,0,0,14.485,7.1c.458.1.639.266.629.789-.053,1.364.011,2.739-.032,4.114-.021.554.1.714.693.714q12.134-.032,24.28,0c.554,0,.714-.1.714-.693-.032-3.741-.021-7.482-.011-11.223a1.811,1.811,0,0,1,1.641-2.025c1.045-.213,2.1-.405,3.155-.576a9.819,9.819,0,0,0,8.633-10.157q.016-8.09-.011-16.179c0-.565.117-.714.693-.714,2.824.043,5.66.011,8.484.021.394,0,.629.011.629-.533A33.364,33.364,0,0,0,1481.33,846.937ZM1449.92,863.1a6.107,6.107,0,1,1-6.118,6.107A6.118,6.118,0,0,1,1449.92,863.1Zm1.151,24.759a2.854,2.854,0,0,1-1.1,1.524c-.256.043-1.258-1.066-1.226-1.407.224-3.293.479-6.576.7-9.87.021-.426.277-.32.522-.352.362-.043.394.171.405.458.107,1.641.234,3.293.352,4.935C1450.847,884.721,1450.964,886.288,1451.071,887.854Zm-31.6-48.41a30.077,30.077,0,0,1,18.961-8.079c.629-.043.49.32.49.65v14.048c0,4.626-.011,9.262.011,13.888,0,.533-.085.725-.682.725-9.315-.032-18.631-.021-27.946-.021-.352,0-.714.128-.672-.544A30.178,30.178,0,0,1,1419.469,839.444Zm-1.332,42.729c-.416.416-.554.171-.789-.107a30.565,30.565,0,0,1-7.141-14.346,33.6,33.6,0,0,1-.522-4c-.043-.5.053-.65.565-.64,2.057.032,4.125.011,6.182.011h20.762C1430.745,869.544,1424.425,875.843,1418.137,882.174Zm15.934,9.6a30.323,30.323,0,0,1-14.6-7.525c1.588-1.577,3.144-3.123,4.69-4.668q7.994-7.978,15.966-15.977a1.514,1.514,0,0,1,1.258-.522c.789.043,1.577.011,2.462.011-3.485,4.679-3.379,7.525.341,12.556C1436.469,878.262,1433.442,883.847,1434.071,891.777Zm36.611-25.527c0,3.006.011,6,0,9.006a7.36,7.36,0,0,1-6.4,7.535c-1.172.2-2.355.416-3.528.629a4.258,4.258,0,0,0-3.506,4.21c-.021,2.952-.021,5.894,0,8.846.011.629-.075.853-.789.853q-6.571-.064-13.131-.011c-.672.011-.767-.192-.767-.8.032-3.965.011-7.94.032-11.905,0-.554-.085-.789-.725-.767-1.737.053-1.737.011-1.737,1.716,0,3.666-.011,7.333.011,11,.011.554-.075.81-.714.757-.842-.064-1.684-.021-2.515-.011-.234,0-.458.032-.448-.331.085-3.283-.245-6.576.16-9.838a10.948,10.948,0,0,1,9.912-9.358c.565-.043.48.266.458.6q-.256,3.533-.512,7.077a8.634,8.634,0,0,1-.128,1.588,3.336,3.336,0,0,0,1.45,3.794,15.54,15.54,0,0,1,1.727,1.727c.256.256.416.362.725.032q1.5-1.567,3.07-3.07a.984.984,0,0,0,.245-.906c-.245-3.3-.48-6.6-.725-9.891-.075-.97-.075-.97.9-.97h8.175a4.889,4.889,0,0,0,5.095-5.084c.011-5.372,0-10.743.011-16.115a1.835,1.835,0,1,1,3.656-.011Zm9.326-10.477q-3.245-.016-6.491,0c-.341,0-.458-.1-.554-.437a4.235,4.235,0,0,0-8.228,0c-.1.341-.213.437-.554.437-4.2-.011-8.4-.021-12.588.011-.575,0-.458-.32-.458-.629V841.182c0-4.679.011-9.358-.011-14.037,0-.49.032-.7.64-.661a30.263,30.263,0,0,1,23.128,12.982,29.882,29.882,0,0,1,5.532,15.817C1480.445,855.624,1480.413,855.784,1480.008,855.773Zm-2.643-4.818c-.032-.213-.171-.277-.384-.234-.586.149-1.311.117-1.737.458-.661.522.1,1.247.032,1.9-.032.266.075.448.384.384,2.014.021,2.174-.171,1.769-2.121C1477.4,851.211,1477.386,851.083,1477.365,850.955Zm-.842-3.07a7.159,7.159,0,0,0-.874-1.94c-.192-.245-.863.288-1.322.458a5.425,5.425,0,0,0-.618.277c-.1.043-.256.075-.181.256.234.618.3,1.417.735,1.791.512.437,1.172-.256,1.791-.362C1476.224,848.344,1476.555,848.355,1476.523,847.886Zm-2.931-6.011a1.839,1.839,0,0,1-.117-.192c-.149-.309-.3-.3-.586-.128-1.759,1.066-1.769,1.055-.682,2.729.043.064.075.128.117.2a.2.2,0,0,0,.245.117l.128-.064C1474.657,843.825,1474.732,843.612,1473.592,841.875Zm-12.811-.789a2.335,2.335,0,0,1-2.292-2.142c-.064-.789-.011-1.578-.032-2.366,0-.256.064-.362.341-.362.81.021,1.631-.043,2.441.043a1.939,1.939,0,0,1,1.833,1.386c.234,1.119.906,1.1,1.727,1.023a2.1,2.1,0,0,1,.448,0c.522.1.6-.171.522-.6a4.741,4.741,0,0,0-2.963-3.858c-.544-.224-.746-.469-.693-1.045s.224-1.343-.075-1.695c-.341-.405-1.141-.064-1.737-.139-.49-.064-.661.1-.629.608.043.576.213,1.354-.075,1.695-.341.416-1.14.075-1.62.139-.554,0-.98.032-1.417,0-.416-.043-.554.1-.544.533.021,1.322,0,2.643.011,3.965a4.892,4.892,0,0,0,4.967,5.286,2.409,2.409,0,0,1,2.345,2.345c.011.831.373,1.972-.139,2.409-.49.416-1.6.149-2.43.107a2,2,0,0,1-2.036-1.439c-.224-1.077-.831-1.034-1.6-.991a2.323,2.323,0,0,1-.608,0c-.479-.075-.544.16-.49.565a4.03,4.03,0,0,0,2.1,3.357,2.387,2.387,0,0,1,1.545,2.984c-.043.33.085.426.416.437,2,.117,2,.128,2.036-1.876v-.075c-.064-.384.075-.522.49-.512.885.032,1.78-.011,2.665.021.394.011.522-.085.522-.5-.032-1.3-.064-2.6,0-3.89A5.019,5.019,0,0,0,1460.78,841.086Zm-28.831,34.639a1.014,1.014,0,0,0-.213.149c-.458.469-1.1.874-1.29,1.439-.117.352.65.735,1,1.14.064.075.149.138.2.213.266.384.479.277.767-.011,1.268-1.247,1.279-1.236.021-2.483C1432.28,876.013,1432.11,875.875,1431.95,875.725Zm-4.615,4.519c-.426.405-.469.661,0,1.023s.778,1.119,1.279,1.087c.416-.021.8-.7,1.194-1.087.149-.16.3-.33.458-.512-.171-.171-.3-.32-.448-.458C1428.571,879.029,1428.592,879.051,1427.335,880.244Zm-2.217,2.4c-.405-.021-.81.725-1.258,1.087s-.405.6,0,.991c1.279,1.226,1.258,1.247,2.537-.053.139-.139.266-.288.416-.448-.16-.17-.288-.32-.437-.458C1425.96,883.357,1425.555,882.653,1425.118,882.643Zm-7.3-7.344c-1.876.927-1.908,1.044-.672,2.718.064.085.117.171.181.245.075.128.181.181.309.085.554-.405,1.109-.8,1.652-1.215.053-.032.064-.128.085-.181-.394-.586-.767-1.162-1.162-1.716C1418.083,875.054,1417.945,875.235,1417.817,875.3Zm-.949-2.3c.224-.49-.437-1.162-.629-1.791a.506.506,0,0,0-.075-.128c-.043-.053-.117-.128-.149-.117a16.8,16.8,0,0,0-2.036.8c-.266.139.064.49.149.725a7.8,7.8,0,0,0,.746,1.6c.107-.043.149-.064.192-.085C1415.685,873.668,1416.6,873.562,1416.868,873Zm-1.727-4.242c.192-.043.266-.128.234-.224a6.532,6.532,0,0,0-.607-2c-.149-.2-1.034.117-1.578.2-.149.021-.3.032-.448.053s-.266.1-.224.245a7.132,7.132,0,0,0,.586,2.164c.171.288.906-.149,1.375-.266C1414.7,868.883,1414.918,868.808,1415.142,868.755Zm-.373-2.228c-.149-.2-1.034.117-1.578.2-.149.021-.3.032-.448.053s-.266.1-.224.245a7.132,7.132,0,0,0,.586,2.164c.171.288.906-.149,1.375-.266.224-.043.437-.117.661-.171.192-.043.266-.128.234-.224A6.532,6.532,0,0,0,1414.769,866.527Zm1.471,4.679a.506.506,0,0,0-.075-.128c-.043-.053-.117-.128-.149-.117a16.8,16.8,0,0,0-2.036.8c-.266.139.064.49.149.725a7.8,7.8,0,0,0,.746,1.6c.107-.043.149-.064.192-.085.618-.33,1.535-.437,1.8-1C1417.092,872.507,1416.431,871.835,1416.24,871.206Zm1.972,4.029c-.128-.181-.266,0-.394.064-1.876.927-1.908,1.044-.672,2.718.064.085.117.171.181.245.075.128.181.181.309.085.554-.405,1.109-.8,1.652-1.215.053-.032.064-.128.085-.181C1418.979,876.365,1418.606,875.789,1418.211,875.235Zm8.164,8.527c-.416-.405-.821-1.108-1.258-1.119-.405-.021-.81.725-1.258,1.087s-.405.6,0,.991c1.279,1.226,1.258,1.247,2.537-.053.139-.139.266-.288.416-.448C1426.653,884.049,1426.525,883.9,1426.375,883.762Zm3.443-3.464c-1.247-1.268-1.226-1.247-2.483-.053-.426.405-.469.661,0,1.023s.778,1.119,1.279,1.087c.416-.021.8-.7,1.194-1.087.149-.16.3-.33.458-.512C1430.1,880.586,1429.967,880.436,1429.818,880.3Zm2.622-4.125c-.16-.16-.33-.3-.49-.448a1.014,1.014,0,0,0-.213.149c-.458.469-1.1.874-1.29,1.439-.117.352.65.735,1,1.14.064.075.149.138.2.213.266.384.479.277.767-.011C1433.687,877.409,1433.7,877.42,1432.44,876.173Zm0,0c-.16-.16-.33-.3-.49-.448a1.014,1.014,0,0,0-.213.149c-.458.469-1.1.874-1.29,1.439-.117.352.65.735,1,1.14.064.075.149.138.2.213.266.384.479.277.767-.011C1433.687,877.409,1433.7,877.42,1432.44,876.173Zm-2.622,4.125c-1.247-1.268-1.226-1.247-2.483-.053-.426.405-.469.661,0,1.023s.778,1.119,1.279,1.087c.416-.021.8-.7,1.194-1.087.149-.16.3-.33.458-.512C1430.1,880.586,1429.967,880.436,1429.818,880.3Zm-3.443,3.464c-.416-.405-.821-1.108-1.258-1.119-.405-.021-.81.725-1.258,1.087s-.405.6,0,.991c1.279,1.226,1.258,1.247,2.537-.053.139-.139.266-.288.416-.448C1426.653,884.049,1426.525,883.9,1426.375,883.762Zm-8.164-8.527c-.128-.181-.266,0-.394.064-1.876.927-1.908,1.044-.672,2.718.064.085.117.171.181.245.075.128.181.181.309.085.554-.405,1.109-.8,1.652-1.215.053-.032.064-.128.085-.181C1418.979,876.365,1418.606,875.789,1418.211,875.235Zm-1.972-4.029a.506.506,0,0,0-.075-.128c-.043-.053-.117-.128-.149-.117a16.8,16.8,0,0,0-2.036.8c-.266.139.064.49.149.725a7.8,7.8,0,0,0,.746,1.6c.107-.043.149-.064.192-.085.618-.33,1.535-.437,1.8-1C1417.092,872.507,1416.431,871.835,1416.24,871.206Zm-1.471-4.679c-.149-.2-1.034.117-1.578.2-.149.021-.3.032-.448.053s-.266.1-.224.245a7.132,7.132,0,0,0,.586,2.164c.171.288.906-.149,1.375-.266.224-.043.437-.117.661-.171.192-.043.266-.128.234-.224A6.532,6.532,0,0,0,1414.769,866.527Zm0,0c-.149-.2-1.034.117-1.578.2-.149.021-.3.032-.448.053s-.266.1-.224.245a7.132,7.132,0,0,0,.586,2.164c.171.288.906-.149,1.375-.266.224-.043.437-.117.661-.171.192-.043.266-.128.234-.224A6.532,6.532,0,0,0,1414.769,866.527Zm1.471,4.679a.506.506,0,0,0-.075-.128c-.043-.053-.117-.128-.149-.117a16.8,16.8,0,0,0-2.036.8c-.266.139.064.49.149.725a7.8,7.8,0,0,0,.746,1.6c.107-.043.149-.064.192-.085.618-.33,1.535-.437,1.8-1C1417.092,872.507,1416.431,871.835,1416.24,871.206Zm1.972,4.029c-.128-.181-.266,0-.394.064-1.876.927-1.908,1.044-.672,2.718.064.085.117.171.181.245.075.128.181.181.309.085.554-.405,1.109-.8,1.652-1.215.053-.032.064-.128.085-.181C1418.979,876.365,1418.606,875.789,1418.211,875.235Zm8.164,8.527c-.416-.405-.821-1.108-1.258-1.119-.405-.021-.81.725-1.258,1.087s-.405.6,0,.991c1.279,1.226,1.258,1.247,2.537-.053.139-.139.266-.288.416-.448C1426.653,884.049,1426.525,883.9,1426.375,883.762Zm3.443-3.464c-1.247-1.268-1.226-1.247-2.483-.053-.426.405-.469.661,0,1.023s.778,1.119,1.279,1.087c.416-.021.8-.7,1.194-1.087.149-.16.3-.33.458-.512C1430.1,880.586,1429.967,880.436,1429.818,880.3Zm2.622-4.125c-.16-.16-.33-.3-.49-.448a1.014,1.014,0,0,0-.213.149c-.458.469-1.1.874-1.29,1.439-.117.352.65.735,1,1.14.064.075.149.138.2.213.266.384.479.277.767-.011C1433.687,877.409,1433.7,877.42,1432.44,876.173Zm0,0c-.16-.16-.33-.3-.49-.448a1.014,1.014,0,0,0-.213.149c-.458.469-1.1.874-1.29,1.439-.117.352.65.735,1,1.14.064.075.149.138.2.213.266.384.479.277.767-.011C1433.687,877.409,1433.7,877.42,1432.44,876.173Zm-2.622,4.125c-1.247-1.268-1.226-1.247-2.483-.053-.426.405-.469.661,0,1.023s.778,1.119,1.279,1.087c.416-.021.8-.7,1.194-1.087.149-.16.3-.33.458-.512C1430.1,880.586,1429.967,880.436,1429.818,880.3Zm-3.443,3.464c-.416-.405-.821-1.108-1.258-1.119-.405-.021-.81.725-1.258,1.087s-.405.6,0,.991c1.279,1.226,1.258,1.247,2.537-.053.139-.139.266-.288.416-.448C1426.653,884.049,1426.525,883.9,1426.375,883.762Zm-8.164-8.527c-.128-.181-.266,0-.394.064-1.876.927-1.908,1.044-.672,2.718.064.085.117.171.181.245.075.128.181.181.309.085.554-.405,1.109-.8,1.652-1.215.053-.032.064-.128.085-.181C1418.979,876.365,1418.606,875.789,1418.211,875.235Zm-1.972-4.029a.506.506,0,0,0-.075-.128c-.043-.053-.117-.128-.149-.117a16.8,16.8,0,0,0-2.036.8c-.266.139.064.49.149.725a7.8,7.8,0,0,0,.746,1.6c.107-.043.149-.064.192-.085.618-.33,1.535-.437,1.8-1C1417.092,872.507,1416.431,871.835,1416.24,871.206Zm-1.471-4.679c-.149-.2-1.034.117-1.578.2-.149.021-.3.032-.448.053s-.266.1-.224.245a7.132,7.132,0,0,0,.586,2.164c.171.288.906-.149,1.375-.266.224-.043.437-.117.661-.171.192-.043.266-.128.234-.224A6.532,6.532,0,0,0,1414.769,866.527Z" transform="translate(0 0)" fill="#c20c17"/>
    <path id="Path_2525" data-name="Path 2525" d="M1462.795,846.051c-.064,1.29-.032,2.59,0,3.89,0,.416-.128.512-.522.5-.885-.032-1.78.011-2.665-.021-.416-.011-.554.128-.49.512v.075c-.032,2-.032,1.993-2.036,1.876-.33-.011-.458-.107-.416-.437a2.387,2.387,0,0,0-1.545-2.984,4.03,4.03,0,0,1-2.1-3.357c-.053-.4.011-.639.49-.565a2.323,2.323,0,0,0,.608,0c.767-.043,1.375-.085,1.6.991a2,2,0,0,0,2.036,1.439c.831.043,1.94.309,2.43-.107.512-.437.149-1.577.139-2.409a2.409,2.409,0,0,0-2.345-2.345,4.892,4.892,0,0,1-4.967-5.286c-.011-1.322.011-2.643-.011-3.965-.011-.437.128-.576.544-.533.437.032.863,0,1.417,0,.48-.064,1.279.277,1.62-.139.288-.341.117-1.119.075-1.695-.032-.512.139-.672.629-.608.6.075,1.4-.266,1.737.139.3.352.128,1.119.075,1.695s.149.821.693,1.045a4.741,4.741,0,0,1,2.963,3.858c.075.426,0,.693-.522.6a2.1,2.1,0,0,0-.448,0c-.821.075-1.492.1-1.727-1.023a1.939,1.939,0,0,0-1.833-1.386c-.81-.085-1.631-.021-2.441-.043-.277,0-.341.107-.341.362.021.789-.032,1.577.032,2.366a2.335,2.335,0,0,0,2.292,2.142A5.019,5.019,0,0,1,1462.795,846.051Z" transform="translate(3.016 0.45)" fill="#c20c17"/>
    <path id="Path_2526" data-name="Path 2526" d="M1468.726,843.462l-.128.064a.2.2,0,0,1-.245-.117c-.043-.075-.075-.138-.117-.2-1.087-1.673-1.076-1.663.682-2.729.288-.171.437-.181.586.128a1.839,1.839,0,0,0,.117.192C1470.762,842.534,1470.687,842.747,1468.726,843.462Z" transform="translate(3.97 1.078)" fill="#c20c17"/>
    <path id="Path_2527" data-name="Path 2527" d="M1471.957,847.013c-.618.107-1.279.8-1.791.362-.437-.373-.5-1.172-.735-1.791-.075-.181.085-.213.181-.256a5.425,5.425,0,0,1,.618-.277c.458-.171,1.13-.7,1.322-.458a7.159,7.159,0,0,1,.874,1.94C1472.458,847,1472.128,846.992,1471.957,847.013Z" transform="translate(4.097 1.352)" fill="#c20c17"/>
    <path id="Path_2528" data-name="Path 2528" d="M1471.473,851.81c-.309.064-.416-.117-.384-.384.064-.65-.693-1.375-.032-1.9.426-.341,1.151-.309,1.737-.458.213-.043.352.021.384.234.021.128.032.256.064.384C1473.647,851.639,1473.487,851.831,1471.473,851.81Z" transform="translate(4.187 1.65)" fill="#c20c17"/>
    <path id="Path_2529" data-name="Path 2529" d="M1432.37,838.964c0-1.2,0-1.2,1.237-1.2,1.2,0,1.2,0,1.2,1.236,0,1.2,0,1.2-1.226,1.2S1432.37,840.2,1432.37,838.964Z" transform="translate(1.658 0.906)" fill="#c20c17"/>
    <path id="Path_2530" data-name="Path 2530" d="M1432.37,834.364c0-1.194,0-1.194,1.183-1.194,1.258,0,1.258,0,1.258,1.258,0,1.194,0,1.194-1.172,1.194C1432.37,835.621,1432.37,835.621,1432.37,834.364Z" transform="translate(1.658 0.604)" fill="#c20c17"/>
    <path id="Path_2531" data-name="Path 2531" d="M1421.061,850.51c0,1.151,0,1.151-1.141,1.151-1.3,0-1.3,0-1.3-1.29,0-1.151,0-1.151,1.13-1.151C1421.061,849.22,1421.061,849.22,1421.061,850.51Z" transform="translate(0.753 1.661)" fill="#c20c17"/>
    <path id="Path_2532" data-name="Path 2532" d="M1425.641,850.5c0,1.162,0,1.162-1.2,1.162-1.236,0-1.236,0-1.236-1.2,0-1.236,0-1.236,1.2-1.236C1425.641,849.22,1425.641,849.22,1425.641,850.5Z" transform="translate(1.055 1.661)" fill="#c20c17"/>
    <path id="Path_2533" data-name="Path 2533" d="M1430.231,850.52c0,1.141,0,1.141-1.14,1.141-1.3,0-1.3,0-1.3-1.29,0-1.151,0-1.151,1.14-1.151C1430.231,849.22,1430.231,849.22,1430.231,850.52Z" transform="translate(1.357 1.661)" fill="#c20c17"/>
    <path id="Path_2534" data-name="Path 2534" d="M1435.337,844.62c-3.411.032-6.821.021-10.232.021-3.464,0-6.928.011-10.381-.021-.576,0-.714.128-.7.7q.032,5.42,0,10.839c-.011.576.128.7.7.7q10.3-.032,20.613,0c.565,0,.7-.128.7-.7q-.048-5.42,0-10.839C1436.04,844.759,1435.912,844.62,1435.337,844.62Zm-1.748,9.283c.011.49-.192.512-.576.512-2.675-.011-5.34,0-8.015,0-2.654,0-5.3-.021-7.94.011-.458,0-.608-.1-.6-.586.032-2.078.021-4.167.01-6.256-.01-.384.085-.512.49-.512q8.058.016,16.115,0c.384,0,.522.085.512.5Q1433.557,850.738,1433.589,853.9Z" transform="translate(0.45 1.358)" fill="#c20c17"/>
    <path id="Path_2535" data-name="Path 2535" d="M1414.152,866.3c-.469.117-1.2.554-1.375.266a7.132,7.132,0,0,1-.586-2.164c-.043-.149.085-.224.224-.245s.3-.032.448-.053c.544-.085,1.428-.405,1.578-.2a6.532,6.532,0,0,1,.607,2c.032.1-.043.181-.234.224C1414.589,866.185,1414.375,866.26,1414.152,866.3Z" transform="translate(0.329 2.623)" fill="#c20c17"/>
    <path id="Path_2536" data-name="Path 2536" d="M1414.653,871.1c-.043.021-.085.043-.192.085a7.8,7.8,0,0,1-.746-1.6c-.085-.234-.416-.586-.149-.725a16.8,16.8,0,0,1,2.036-.8c.032-.011.107.064.149.117a.506.506,0,0,1,.075.128c.192.629.853,1.3.629,1.791C1416.188,870.661,1415.272,870.767,1414.653,871.1Z" transform="translate(0.413 2.901)" fill="#c20c17"/>
    <path id="Path_2537" data-name="Path 2537" d="M1418.81,873.791c-.021.053-.032.149-.085.181-.544.416-1.1.81-1.652,1.215-.128.1-.234.043-.309-.085-.064-.075-.117-.16-.181-.245-1.236-1.673-1.2-1.791.672-2.718.128-.064.266-.245.394-.064C1418.042,872.629,1418.416,873.2,1418.81,873.791Z" transform="translate(0.563 3.16)" fill="#c20c17"/>
    <path id="Path_2538" data-name="Path 2538" d="M1425.365,880.139c.149.139.277.288.437.458-.149.16-.277.309-.416.448-1.279,1.3-1.258,1.279-2.537.053-.405-.394-.458-.629,0-.991s.853-1.108,1.258-1.087C1424.545,879.031,1424.95,879.734,1425.365,880.139Z" transform="translate(1.01 3.623)" fill="#c20c17"/>
    <path id="Path_2539" data-name="Path 2539" d="M1428.594,876.879c.149.139.277.288.448.458-.16.181-.309.352-.458.512-.394.384-.778,1.066-1.194,1.087-.5.032-.821-.735-1.279-1.087s-.426-.618,0-1.023C1427.368,875.632,1427.347,875.61,1428.594,876.879Z" transform="translate(1.224 3.419)" fill="#c20c17"/>
    <path id="Path_2540" data-name="Path 2540" d="M1430.983,875.461c-.288.288-.5.394-.767.011-.053-.075-.139-.139-.2-.213-.352-.405-1.119-.789-1-1.14.192-.565.831-.97,1.29-1.439a1.014,1.014,0,0,1,.213-.149c.16.149.33.288.49.448C1432.262,874.225,1432.251,874.214,1430.983,875.461Z" transform="translate(1.436 3.195)" fill="#c20c17"/>
    <path id="Path_2541" data-name="Path 2541" d="M1462.795,849.941c0,.416-.128.512-.522.5-.885-.032-1.78.011-2.665-.021-.416-.011-.554.128-.49.512v.075c-.032,2-.032,1.993-2.036,1.876-.33-.011-.458-.107-.416-.437a2.387,2.387,0,0,0-1.545-2.984,4.03,4.03,0,0,1-2.1-3.357c-.053-.4.011-.639.49-.565a2.323,2.323,0,0,0,.608,0c.767-.043,1.375-.085,1.6.991a2,2,0,0,0,2.036,1.439c.831.043,1.94.309,2.43-.107.512-.437.149-1.577.139-2.409a2.409,2.409,0,0,0-2.345-2.345,4.892,4.892,0,0,1-4.967-5.286c-.011-1.322.011-2.643-.011-3.965-.011-.437.128-.576.544-.533.437.032.863,0,1.417,0,.48-.064,1.279.277,1.62-.139.288-.341.117-1.119.075-1.695-.032-.512.139-.672.629-.608.6.075,1.4-.266,1.737.139.3.352.128,1.119.075,1.695s.149.821.693,1.045a4.741,4.741,0,0,1,2.963,3.858c.075.426,0,.693-.522.6a2.1,2.1,0,0,0-.448,0c-.821.075-1.492.1-1.727-1.023a1.939,1.939,0,0,0-1.833-1.386c-.81-.085-1.631-.021-2.441-.043-.277,0-.341.107-.341.362.021.789-.032,1.577.032,2.366a2.335,2.335,0,0,0,2.292,2.142,5.019,5.019,0,0,1,5.031,5.414C1462.731,847.34,1462.763,848.641,1462.795,849.941Z" transform="translate(3.016 0.45)" fill="#c20c17"/>
    <path id="Path_2542" data-name="Path 2542" d="M1471.473,851.81c-.309.064-.416-.117-.384-.384.064-.65-.693-1.375-.032-1.9.426-.341,1.151-.309,1.737-.458.213-.043.352.021.384.234.021.128.032.256.064.384C1473.647,851.639,1473.487,851.831,1471.473,851.81Z" transform="translate(4.187 1.65)" fill="#c20c17"/>
    <path id="Path_2543" data-name="Path 2543" d="M1472.426,846.534c.032.469-.3.458-.469.48-.618.107-1.279.8-1.791.362-.437-.373-.5-1.172-.735-1.791-.075-.181.085-.213.181-.256a5.425,5.425,0,0,1,.618-.277c.458-.171,1.13-.7,1.322-.458A7.159,7.159,0,0,1,1472.426,846.534Z" transform="translate(4.097 1.352)" fill="#c20c17"/>
    <path id="Path_2544" data-name="Path 2544" d="M1468.726,843.462l-.128.064a.2.2,0,0,1-.245-.117c-.043-.075-.075-.138-.117-.2-1.087-1.673-1.076-1.663.682-2.729.288-.171.437-.181.586.128a1.839,1.839,0,0,0,.117.192C1470.762,842.534,1470.687,842.747,1468.726,843.462Z" transform="translate(3.97 1.078)" fill="#c20c17"/>
    <path id="Path_2545" data-name="Path 2545" d="M1421.061,850.51c0,1.151,0,1.151-1.141,1.151-1.3,0-1.3,0-1.3-1.29,0-1.151,0-1.151,1.13-1.151C1421.061,849.22,1421.061,849.22,1421.061,850.51Z" transform="translate(0.753 1.661)" fill="#c20c17"/>
    <path id="Path_2546" data-name="Path 2546" d="M1425.641,850.5c0,1.162,0,1.162-1.2,1.162-1.236,0-1.236,0-1.236-1.2,0-1.236,0-1.236,1.2-1.236C1425.641,849.22,1425.641,849.22,1425.641,850.5Z" transform="translate(1.055 1.661)" fill="#c20c17"/>
    <path id="Path_2547" data-name="Path 2547" d="M1430.231,850.52c0,1.141,0,1.141-1.14,1.141-1.3,0-1.3,0-1.3-1.29,0-1.151,0-1.151,1.14-1.151C1430.231,849.22,1430.231,849.22,1430.231,850.52Z" transform="translate(1.357 1.661)" fill="#c20c17"/>
    <path id="Path_2548" data-name="Path 2548" d="M1435.337,844.62c-3.411.032-6.821.021-10.232.021-3.464,0-6.928.011-10.381-.021-.576,0-.714.128-.7.7q.032,5.42,0,10.839c-.011.576.128.7.7.7q10.3-.032,20.613,0c.565,0,.7-.128.7-.7q-.048-5.42,0-10.839C1436.04,844.759,1435.912,844.62,1435.337,844.62Zm-1.748,9.283c.011.49-.192.512-.576.512-2.675-.011-5.34,0-8.015,0-2.654,0-5.3-.021-7.94.011-.458,0-.608-.1-.6-.586.032-2.078.021-4.167.01-6.256-.01-.384.085-.512.49-.512q8.058.016,16.115,0c.384,0,.522.085.512.5Q1433.557,850.738,1433.589,853.9Z" transform="translate(0.45 1.358)" fill="#c20c17"/>
    <path id="Path_2549" data-name="Path 2549" d="M1434.811,834.428c0,1.194,0,1.194-1.172,1.194-1.269,0-1.269,0-1.269-1.258,0-1.194,0-1.194,1.183-1.194C1434.811,833.17,1434.811,833.17,1434.811,834.428Z" transform="translate(1.658 0.604)" fill="#c20c17"/>
    <path id="Path_2550" data-name="Path 2550" d="M1434.811,839c0,1.2,0,1.2-1.226,1.2s-1.215,0-1.215-1.236c0-1.2,0-1.2,1.237-1.2C1434.811,837.76,1434.811,837.76,1434.811,839Z" transform="translate(1.658 0.906)" fill="#c20c17"/>
    <path id="Path_2551" data-name="Path 2551" d="M1415.047,865.908c.032.1-.043.181-.234.224-.224.053-.437.128-.661.171-.469.117-1.2.554-1.375.266a7.132,7.132,0,0,1-.586-2.164c-.043-.149.085-.224.224-.245s.3-.032.448-.053c.544-.085,1.428-.405,1.578-.2A6.532,6.532,0,0,1,1415.047,865.908Z" transform="translate(0.329 2.623)" fill="#c20c17"/>
    <path id="Path_2552" data-name="Path 2552" d="M1416.455,870.1c-.266.565-1.183.671-1.8,1-.043.021-.085.043-.192.085a7.8,7.8,0,0,1-.746-1.6c-.085-.234-.416-.586-.149-.725a16.8,16.8,0,0,1,2.036-.8c.032-.011.107.064.149.117a.506.506,0,0,1,.075.128C1416.018,868.934,1416.678,869.606,1416.455,870.1Z" transform="translate(0.413 2.901)" fill="#c20c17"/>
    <path id="Path_2553" data-name="Path 2553" d="M1418.81,873.791c-.021.053-.032.149-.085.181-.544.416-1.1.81-1.652,1.215-.128.1-.234.043-.309-.085-.064-.075-.117-.16-.181-.245-1.236-1.673-1.2-1.791.672-2.718.128-.064.266-.245.394-.064C1418.042,872.629,1418.416,873.2,1418.81,873.791Z" transform="translate(0.563 3.16)" fill="#c20c17"/>
    <path id="Path_2554" data-name="Path 2554" d="M1425.8,880.6c-.149.16-.277.309-.416.448-1.279,1.3-1.258,1.279-2.537.053-.405-.394-.458-.629,0-.991s.853-1.108,1.258-1.087c.437.011.842.714,1.258,1.119C1425.515,880.278,1425.642,880.427,1425.8,880.6Z" transform="translate(1.01 3.623)" fill="#c20c17"/>
    <path id="Path_2555" data-name="Path 2555" d="M1429.042,877.337c-.16.181-.309.352-.458.512-.394.384-.778,1.066-1.194,1.087-.5.032-.821-.735-1.279-1.087s-.426-.618,0-1.023c1.258-1.194,1.236-1.215,2.483.053C1428.743,877.017,1428.871,877.166,1429.042,877.337Z" transform="translate(1.224 3.419)" fill="#c20c17"/>
    <path id="Path_2556" data-name="Path 2556" d="M1430.983,875.461c-.288.288-.5.394-.767.011-.053-.075-.139-.139-.2-.213-.352-.405-1.119-.789-1-1.14.192-.565.831-.97,1.29-1.439a1.014,1.014,0,0,1,.213-.149c.16.149.33.288.49.448C1432.262,874.225,1432.251,874.214,1430.983,875.461Z" transform="translate(1.436 3.195)" fill="#c20c17"/>
    <path id="Path_2557" data-name="Path 2557" d="M1421.061,850.51c0,1.151,0,1.151-1.141,1.151-1.3,0-1.3,0-1.3-1.29,0-1.151,0-1.151,1.13-1.151C1421.061,849.22,1421.061,849.22,1421.061,850.51Z" transform="translate(0.753 1.661)" fill="#c20c17"/>
    <path id="Path_2558" data-name="Path 2558" d="M1425.641,850.5c0,1.162,0,1.162-1.2,1.162-1.236,0-1.236,0-1.236-1.2,0-1.236,0-1.236,1.2-1.236C1425.641,849.22,1425.641,849.22,1425.641,850.5Z" transform="translate(1.055 1.661)" fill="#c20c17"/>
    <path id="Path_2559" data-name="Path 2559" d="M1430.231,850.52c0,1.141,0,1.141-1.14,1.141-1.3,0-1.3,0-1.3-1.29,0-1.151,0-1.151,1.14-1.151C1430.231,849.22,1430.231,849.22,1430.231,850.52Z" transform="translate(1.357 1.661)" fill="#c20c17"/>
    <path id="Path_2560" data-name="Path 2560" d="M1421.061,850.51c0,1.151,0,1.151-1.141,1.151-1.3,0-1.3,0-1.3-1.29,0-1.151,0-1.151,1.13-1.151C1421.061,849.22,1421.061,849.22,1421.061,850.51Z" transform="translate(0.753 1.661)" fill="#c20c17"/>
    <path id="Path_2561" data-name="Path 2561" d="M1425.641,850.5c0,1.162,0,1.162-1.2,1.162-1.236,0-1.236,0-1.236-1.2,0-1.236,0-1.236,1.2-1.236C1425.641,849.22,1425.641,849.22,1425.641,850.5Z" transform="translate(1.055 1.661)" fill="#c20c17"/>
    <path id="Path_2562" data-name="Path 2562" d="M1430.231,850.52c0,1.141,0,1.141-1.14,1.141-1.3,0-1.3,0-1.3-1.29,0-1.151,0-1.151,1.14-1.151C1430.231,849.22,1430.231,849.22,1430.231,850.52Z" transform="translate(1.357 1.661)" fill="#c20c17"/>
  </g>
</svg>
