<svg xmlns="http://www.w3.org/2000/svg" width="72.961" height="75.839" viewBox="0 0 72.961 75.839">
  <g id="Group_1881" data-name="Group 1881" transform="translate(-1174.733 -883.911)">
    <path id="Path_2448" data-name="Path 2448" d="M1247.67,951.11a2.519,2.519,0,0,0-1.55-2.33,2.815,2.815,0,0,0-1.66-.26c-.78.12-.92-.2-.91-.93.05-2.27.02-4.54.02-6.81,0-1.57-.46-2.03-2.02-2.03-2.64,0-5.28-.02-7.92.01-.53.01-.68-.15-.64-.66a15.36,15.36,0,0,0,0-1.92c-.04-.5.12-.71.61-.87a6.7,6.7,0,1,0-8.47-8.42c-.1.32-.15.59-.64.59-3.75-.03-7.51-.02-11.26-.01-.41.01-.54-.1-.53-.53.02-1.3.03-2.61-.01-3.92-.01-.51.18-.6.63-.59,2.25.02,4.49.01,6.74,0a1.489,1.489,0,0,0,1.68-1.68c.01-1.36.01-2.72,0-4.07a4.714,4.714,0,0,0-3.56-4.91c-.32-.1-.43-.23-.43-.56.02-1.41.02-2.82,0-4.22a.55.55,0,0,1,.45-.63,5.686,5.686,0,0,0,3.26-2.94.92.92,0,0,1,.84-.56,10.827,10.827,0,0,0,7.8-4.3,15.19,15.19,0,0,0,2.89-8.77c.06-1.68-.4-2.13-2.06-2.13q-3.18,0-6.36-.01c-.25,0-.59.17-.56-.39a3.033,3.033,0,0,0-3.2-3.33c-.97-.01-1.93-.02-2.89.01a1.471,1.471,0,1,0,0,2.94,15.913,15.913,0,0,0,2.29-.01c.79-.08.88.23.78.91-.56,4.21-1.08,8.41-1.65,12.62-.31,2.37-1.47,3.35-3.84,3.35h-8.74a3.151,3.151,0,0,1-3.54-2.91c-.29-1.57-.46-3.17-.66-4.75-.38-2.86-.73-5.73-1.12-8.58-.07-.5.06-.65.56-.63.86.04,1.73.03,2.59,0a1.455,1.455,0,0,0,1.45-1.47,1.44,1.44,0,0,0-1.44-1.47c-1.09-.03-2.18-.05-3.26.01a2.981,2.981,0,0,0-2.91,3.1c.06.62-.17.62-.63.61q-3.285-.015-6.59,0a1.538,1.538,0,0,0-1.76,1.77,16.373,16.373,0,0,0,.49,3.88c1.37,5.59,5.06,9.1,10.45,9.57.35.03.44.25.56.49a5.785,5.785,0,0,0,3.32,2.99.562.562,0,0,1,.43.64c-.01,1.33-.02,2.67,0,4,.01.46-.08.67-.58.81a4.7,4.7,0,0,0-3.41,4.51c-.02,1.46-.01,2.91,0,4.37,0,1.22.53,1.74,1.77,1.74,2.24.01,4.49.02,6.73,0,.41-.01.55.1.55.53-.03,1.28-.05,2.56,0,3.84.02.58-.17.68-.7.68-3.63-.03-7.25-.03-10.88,0-.55.01-.73-.19-.89-.67a6.71,6.71,0,0,0-12.89.6,6.754,6.754,0,0,0,3.23,7.4c.59.35,1.54.26,1.77.95a7.308,7.308,0,0,1,.06,2.2.751.751,0,0,0,0,.15c.09.52-.12.66-.64.65-2.59-.03-5.18-.01-7.78-.01-1.73,0-2.15.41-2.15,2.11v6.45c0,1.19,0,1.19-1.2,1.2a2.732,2.732,0,0,0-2.93,2.97c0,1.63.07,3.26-.02,4.89a3.052,3.052,0,0,0,2.13,3.38h6.96a2.564,2.564,0,0,0,2.3-2.92c.01-1.85-.01-3.7,0-5.55a2.887,2.887,0,0,0-.8-2.09,3.174,3.174,0,0,0-2.42-.91c-.57-.01-.79-.24-.78-.8.01-1.61.01-3.21,0-4.81-.01-.59.25-.77.8-.77,5.33.01,10.66,0,15.99.01.74,0,.82.09.82.88.01,1.46.01,2.92.01,4.37-.01,1.04-.01,1.04-1.06,1.12a2.944,2.944,0,0,0-2.99,2.81,29.841,29.841,0,0,0,0,6.05c.16,1.63.78,2.23,2.35,2.61h6.96a2.578,2.578,0,0,0,2.28-2.65q.045-2.985,0-5.99a2.8,2.8,0,0,0-2.08-2.67,4.649,4.649,0,0,0-1.39-.17c-.47,0-.67-.23-.66-.69v-.66c-.01-2.15.01-4.3-.01-6.44a1.734,1.734,0,0,0-1.83-1.96,8.608,8.608,0,0,0-.88-.02c-2,0-4,.01-6,0s-1.76.24-1.81-1.85a1.153,1.153,0,0,1,.84-1.27,6.614,6.614,0,0,0,3.91-3.92,1.133,1.133,0,0,1,1.21-.82q12.63.015,25.24,0a1.127,1.127,0,0,1,1.23.8,6.127,6.127,0,0,0,3.38,3.65,1.934,1.934,0,0,1,1.39,2.29c-.1,1.08-.05,1.12-1.14,1.12-2.42,0-4.84-.02-7.25.01-1.54.02-2.14.66-2.14,2.19-.01,2.12,0,4.24-.01,6.37,0,1.14,0,1.14-1.11,1.21a2.954,2.954,0,0,0-3.03,3.2c-.01,1.78-.01,3.55,0,5.33a2.632,2.632,0,0,0,2.29,2.94h6.96a2.543,2.543,0,0,0,2.35-2.61,29.137,29.137,0,0,0,.03-5.83c-.19-2.03-1.19-2.92-3.25-3.02-.65-.04-.84-.31-.83-.91.02-1.53,0-3.06.01-4.59,0-.8.08-.88.9-.88q7.92-.015,15.84,0c.8,0,.86.07.87.91.01,1.45,0,2.91,0,4.36,0,1.02-.01,1.02-1,1.1a2.921,2.921,0,0,0-3,3.22c0,1.78-.01,3.55,0,5.33a2.564,2.564,0,0,0,2.3,2.92h6.96a2.816,2.816,0,0,0,2.1-2.64Q1247.71,954.11,1247.67,951.11Zm-25.19-52.03c.37-2.66.71-5.32,1.04-7.98.04-.38.19-.5.56-.49.88.02,1.77.01,2.66.01h2.73c.26,0,.45-.01.46.38a9.381,9.381,0,0,1-6.75,8.73C1222.5,899.9,1222.39,899.7,1222.48,899.08Zm-23.22.64a8.365,8.365,0,0,1-6.09-5.86,13.724,13.724,0,0,1-.64-2.81c-.08-.31.06-.44.47-.44,1.79.02,3.59.01,5.39.01.31-.01.49.05.54.42.34,2.71.67,5.42,1.05,8.12C1200.09,899.91,1199.76,899.85,1199.26,899.72Zm-16.77,51.75c.39-.01.52.11.51.5-.01,1.45-.01,2.91,0,4.36.01.35-.09.47-.45.46-1.46-.02-2.91-.02-4.36.01-.43,0-.48-.18-.47-.53.02-.71,0-1.43,0-2.14s.02-1.43,0-2.15c-.01-.36.08-.52.49-.51C1179.64,951.49,1181.06,951.49,1182.49,951.47Zm21.16,0c.39-.01.51.12.5.5-.03.74-.01,1.48-.01,2.22,0,.72-.02,1.43.01,2.15.01.36-.11.46-.46.45-1.46-.01-2.92-.01-4.37,0-.34.01-.48-.08-.48-.45.02-1.46.02-2.91.01-4.37-.01-.38.11-.51.5-.5C1200.78,951.49,1202.22,951.49,1203.65,951.47Zm-12.72-18.78a3.745,3.745,0,1,1,3.75-3.76A3.714,3.714,0,0,1,1190.93,932.69Zm16.72-25.53c-.01-.37.13-.46.47-.45,1.06.02,2.12.01,3.18.01,1.01,0,2.02.01,3.03-.01.34-.01.48.08.47.45q-.03,2,0,3.99c.01.36-.12.46-.47.46q-3.1-.015-6.21,0c-.35,0-.48-.1-.47-.46Q1207.68,909.155,1207.65,907.16Zm-3.38,12.33c-.47,0-.64-.11-.61-.61.04-.81-.01-1.63.01-2.44a1.782,1.782,0,0,1,1.86-1.87c3.8-.01,7.59-.01,11.39,0a1.782,1.782,0,0,1,1.86,1.87c.02.81-.03,1.63.01,2.44.03.49-.13.61-.61.61-2.32-.03-4.64-.02-6.95-.02S1206.59,919.46,1204.27,919.49Zm18.82,31.98c.37-.01.52.1.52.49-.02,1.46-.02,2.91-.01,4.37.01.35-.1.47-.46.46-1.45-.01-2.91-.02-4.37.01-.42,0-.48-.17-.47-.53.03-.71.01-1.43.01-2.14s.02-1.43-.01-2.15c-.01-.37.09-.52.49-.51C1220.22,951.49,1221.66,951.48,1223.09,951.47Zm4.69-22.55a3.745,3.745,0,1,1,3.72,3.77A3.709,3.709,0,0,1,1227.78,928.92Zm16.95,25.27c0,.71-.02,1.43,0,2.14.01.36-.1.47-.45.46-1.46-.01-2.91-.01-4.36,0-.35.01-.48-.09-.47-.45.02-1.45.01-2.91,0-4.36-.01-.37.1-.52.5-.51,1.42.02,2.85.02,4.28,0,.39-.01.52.12.5.5C1244.71,952.71,1244.73,953.45,1244.73,954.19Z" fill="#c20c17"/>
    <path id="Path_2449" data-name="Path 2449" d="M1211.222,886.887a1.477,1.477,0,1,1,1.478-1.442A1.483,1.483,0,0,1,1211.222,886.887Z" fill="#c20d18"/>
  </g>
</svg>
