<svg xmlns="http://www.w3.org/2000/svg" width="77.067" height="77.091" viewBox="0 0 77.067 77.091">
  <g id="Group_1883" data-name="Group 1883" transform="translate(-1231.19 -824.795)">
    <path id="Path_2453" data-name="Path 2453" d="M1282.5,889.648c0,1.237,0,1.237-1.248,1.237s-1.237,0-1.237-1.237,0-1.248,1.248-1.248S1282.5,888.4,1282.5,889.648Z" transform="translate(4.615 6.011)" fill="#c20c17"/>
    <path id="Path_2454" data-name="Path 2454" d="M1287.044,889.6c0,1.281,0,1.281-1.27,1.281-1.215,0-1.215,0-1.215-1.193,0-1.292,0-1.292,1.281-1.292C1287.044,888.4,1287.044,888.4,1287.044,889.6Z" transform="translate(5.044 6.011)" fill="#c20c17"/>
    <path id="Path_2455" data-name="Path 2455" d="M1291.585,889.593c0,1.292,0,1.292-1.27,1.292-1.215,0-1.215,0-1.215-1.193,0-1.292,0-1.292,1.27-1.292C1291.585,888.4,1291.585,888.4,1291.585,889.593Z" transform="translate(5.473 6.011)" fill="#c20c17"/>
    <path id="Path_2456" data-name="Path 2456" d="M1292.455,884.408c.022,1.937.044,1.937-1.872,1.937-3.316,0-6.633-.011-9.938.011-.514.011-.646-.12-.635-.635.011-1.861-.011-1.861,1.872-1.861h4.433c1.861,0,3.721.011,5.593-.011C1292.345,883.839,1292.455,883.97,1292.455,884.408Z" transform="translate(4.614 5.581)" fill="#c20c17"/>
    <path id="Path_2457" data-name="Path 2457" d="M1243.591,894.411c-1.215,0-1.215,0-1.215,1.193,0,1.292,0,1.292,1.259,1.292,1.226,0,1.226,0,1.226-1.182C1244.86,894.411,1244.86,894.411,1243.591,894.411Zm-.109-4.969c-1.105,0-1.105,0-1.105,1.138,0,1.346,0,1.346,1.291,1.346,1.193,0,1.193,0,1.193-1.138C1244.86,889.442,1244.86,889.442,1243.481,889.442Zm.142-4.969c-1.248,0-1.248,0-1.248,1.237s0,1.248,1.237,1.248,1.248,0,1.248-1.248S1244.86,884.473,1243.624,884.473Zm0,0c-1.248,0-1.248,0-1.248,1.237s0,1.248,1.237,1.248,1.248,0,1.248-1.248S1244.86,884.473,1243.624,884.473Zm-.142,4.969c-1.105,0-1.105,0-1.105,1.138,0,1.346,0,1.346,1.291,1.346,1.193,0,1.193,0,1.193-1.138C1244.86,889.442,1244.86,889.442,1243.481,889.442Zm.109,4.969c-1.215,0-1.215,0-1.215,1.193,0,1.292,0,1.292,1.259,1.292,1.226,0,1.226,0,1.226-1.182C1244.86,894.411,1244.86,894.411,1243.591,894.411Zm0,0c-1.215,0-1.215,0-1.215,1.193,0,1.292,0,1.292,1.259,1.292,1.226,0,1.226,0,1.226-1.182C1244.86,894.411,1244.86,894.411,1243.591,894.411Zm-.109-4.969c-1.105,0-1.105,0-1.105,1.138,0,1.346,0,1.346,1.291,1.346,1.193,0,1.193,0,1.193-1.138C1244.86,889.442,1244.86,889.442,1243.481,889.442Zm.142-4.969c-1.248,0-1.248,0-1.248,1.237s0,1.248,1.237,1.248,1.248,0,1.248-1.248S1244.86,884.473,1243.624,884.473Zm43.474-9.949c-1.226,0-1.226,0-1.226,1.193,0,1.292,0,1.292,1.27,1.292,1.215,0,1.215,0,1.215-1.193C1288.356,874.524,1288.356,874.524,1287.1,874.524Zm4.947,0c-1.193,0-1.193,0-1.193,1.215,0,1.27,0,1.27,1.281,1.27,1.2,0,1.2,0,1.2-1.2C1293.336,874.524,1293.336,874.524,1292.044,874.524Zm5.068,0c-1.292,0-1.292,0-1.292,1.27,0,1.215,0,1.215,1.193,1.215,1.292,0,1.292,0,1.292-1.27C1298.305,874.524,1298.305,874.524,1297.112,874.524Zm0,0c-1.292,0-1.292,0-1.292,1.27,0,1.215,0,1.215,1.193,1.215,1.292,0,1.292,0,1.292-1.27C1298.305,874.524,1298.305,874.524,1297.112,874.524Zm-5.068,0c-1.193,0-1.193,0-1.193,1.215,0,1.27,0,1.27,1.281,1.27,1.2,0,1.2,0,1.2-1.2C1293.336,874.524,1293.336,874.524,1292.044,874.524Zm-4.947,0c-1.226,0-1.226,0-1.226,1.193,0,1.292,0,1.292,1.27,1.292,1.215,0,1.215,0,1.215-1.193C1288.356,874.524,1288.356,874.524,1287.1,874.524Zm-43.474,9.949c-1.248,0-1.248,0-1.248,1.237s0,1.248,1.237,1.248,1.248,0,1.248-1.248S1244.86,884.473,1243.624,884.473Zm-.142,4.969c-1.105,0-1.105,0-1.105,1.138,0,1.346,0,1.346,1.291,1.346,1.193,0,1.193,0,1.193-1.138C1244.86,889.442,1244.86,889.442,1243.481,889.442Zm.109,4.969c-1.215,0-1.215,0-1.215,1.193,0,1.292,0,1.292,1.259,1.292,1.226,0,1.226,0,1.226-1.182C1244.86,894.411,1244.86,894.411,1243.591,894.411Zm-3.721-37.29c-1.226,0-1.226,0-1.226,1.193,0,1.292,0,1.292,1.27,1.292,1.215,0,1.215,0,1.215-1.182C1241.128,857.121,1241.128,857.121,1239.87,857.121Zm3.721,37.29c-1.215,0-1.215,0-1.215,1.193,0,1.292,0,1.292,1.259,1.292,1.226,0,1.226,0,1.226-1.182C1244.86,894.411,1244.86,894.411,1243.591,894.411Zm-.109-4.969c-1.105,0-1.105,0-1.105,1.138,0,1.346,0,1.346,1.291,1.346,1.193,0,1.193,0,1.193-1.138C1244.86,889.442,1244.86,889.442,1243.481,889.442Zm.142-4.969c-1.248,0-1.248,0-1.248,1.237s0,1.248,1.237,1.248,1.248,0,1.248-1.248S1244.86,884.473,1243.624,884.473Zm1.259-27.352c-1.27,0-1.27,0-1.27,1.292,0,1.193,0,1.193,1.226,1.193,1.259,0,1.259,0,1.259-1.292C1246.1,857.121,1246.1,857.121,1244.882,857.121Zm4.991,0c-1.281,0-1.281,0-1.281,1.281,0,1.2,0,1.2,1.193,1.2,1.291,0,1.291,0,1.291-1.27C1251.077,857.121,1251.077,857.121,1249.873,857.121Zm8.1-27.352c-1.708.022-3.415,0-5.122.011-.569,0-1.324-.2-1.642.1-.383.339-.088,1.116-.131,1.7a.363.363,0,0,0,0,.153c.077.46-.142.558-.558.547-.854-.033-1.707-.022-2.561-.011-.591,0-1.357-.2-1.729.1-.383.317-.088,1.116-.12,1.7a.363.363,0,0,0,0,.153c.077.471-.142.558-.569.547-.854-.033-1.708-.022-2.561-.011-.591.011-1.357-.186-1.718.109-.383.307-.088,1.105-.131,1.7v.153c.088.46-.142.547-.558.536-1.248-.022-2.484.011-3.732-.022-.5-.011-.7.077-.689.657q.049,3.1,0,6.206c-.011.547.175.624.646.613q5.254-.016,10.485-.011,5.319,0,10.639.011c.438,0,.635-.044.624-.569q-.033-6.912,0-13.824C1258.542,829.857,1258.4,829.759,1257.973,829.77ZM1239.848,842.2c-1.2,0-1.2,0-1.2-1.2,0-1.281,0-1.281,1.281-1.281,1.2,0,1.2,0,1.2,1.2C1241.128,842.2,1241.128,842.2,1239.848,842.2Zm5.7.011c-1.937.022-1.937.033-1.937-1.883,0-.854.033-1.707-.011-2.561-.011-.46.153-.547.569-.547,1.926-.022,1.926-.033,1.926,1.883v.624c0,.646-.022,1.3.011,1.948C1246.141,842.126,1245.966,842.214,1245.55,842.214Zm4.969.011c-1.926,0-1.926.022-1.926-1.9V838.46c0-1.029.011-2.069-.011-3.108-.011-.438.044-.624.569-.624,1.926,0,1.926-.022,1.926,1.9,0,1.653-.022,3.316.011,4.969C1251.088,842.039,1251.033,842.225,1250.519,842.225Zm4.936-.011c-1.893,0-1.893.022-1.893-1.839,0-2.517.011-5.024-.011-7.53-.011-.5.131-.591.6-.591,1.893,0,1.893-.022,1.893,1.839v3.185c0,1.456-.022,2.9.011,4.345C1256.068,842.126,1255.926,842.214,1255.455,842.214Zm31.642,32.31c-1.226,0-1.226,0-1.226,1.193,0,1.292,0,1.292,1.27,1.292,1.215,0,1.215,0,1.215-1.193C1288.356,874.524,1288.356,874.524,1287.1,874.524Zm4.947,0c-1.193,0-1.193,0-1.193,1.215,0,1.27,0,1.27,1.281,1.27,1.2,0,1.2,0,1.2-1.2C1293.336,874.524,1293.336,874.524,1292.044,874.524Zm5.068,0c-1.292,0-1.292,0-1.292,1.27,0,1.215,0,1.215,1.193,1.215,1.292,0,1.292,0,1.292-1.27C1298.305,874.524,1298.305,874.524,1297.112,874.524Zm0,0c-1.292,0-1.292,0-1.292,1.27,0,1.215,0,1.215,1.193,1.215,1.292,0,1.292,0,1.292-1.27C1298.305,874.524,1298.305,874.524,1297.112,874.524Zm-5.068,0c-1.193,0-1.193,0-1.193,1.215,0,1.27,0,1.27,1.281,1.27,1.2,0,1.2,0,1.2-1.2C1293.336,874.524,1293.336,874.524,1292.044,874.524Zm-4.947,0c-1.226,0-1.226,0-1.226,1.193,0,1.292,0,1.292,1.27,1.292,1.215,0,1.215,0,1.215-1.193C1288.356,874.524,1288.356,874.524,1287.1,874.524Zm-43.474,9.949c-1.248,0-1.248,0-1.248,1.237s0,1.248,1.237,1.248,1.248,0,1.248-1.248S1244.86,884.473,1243.624,884.473Zm-.142,4.969c-1.105,0-1.105,0-1.105,1.138,0,1.346,0,1.346,1.291,1.346,1.193,0,1.193,0,1.193-1.138C1244.86,889.442,1244.86,889.442,1243.481,889.442Zm.109,4.969c-1.215,0-1.215,0-1.215,1.193,0,1.292,0,1.292,1.259,1.292,1.226,0,1.226,0,1.226-1.182C1244.86,894.411,1244.86,894.411,1243.591,894.411Zm6.282-37.29c-1.281,0-1.281,0-1.281,1.281,0,1.2,0,1.2,1.193,1.2,1.291,0,1.291,0,1.291-1.27C1251.077,857.121,1251.077,857.121,1249.873,857.121Zm-4.991,0c-1.27,0-1.27,0-1.27,1.292,0,1.193,0,1.193,1.226,1.193,1.259,0,1.259,0,1.259-1.292C1246.1,857.121,1246.1,857.121,1244.882,857.121Zm-5.013,0c-1.226,0-1.226,0-1.226,1.193,0,1.292,0,1.292,1.27,1.292,1.215,0,1.215,0,1.215-1.182C1241.128,857.121,1241.128,857.121,1239.87,857.121Zm18.1-27.352c-1.708.022-3.415,0-5.122.011-.569,0-1.324-.2-1.642.1-.383.339-.088,1.116-.131,1.7a.363.363,0,0,0,0,.153c.077.46-.142.558-.558.547-.854-.033-1.707-.022-2.561-.011-.591,0-1.357-.2-1.729.1-.383.317-.088,1.116-.12,1.7a.363.363,0,0,0,0,.153c.077.471-.142.558-.569.547-.854-.033-1.708-.022-2.561-.011-.591.011-1.357-.186-1.718.109-.383.307-.088,1.105-.131,1.7v.153c.088.46-.142.547-.558.536-1.248-.022-2.484.011-3.732-.022-.5-.011-.7.077-.689.657q.049,3.1,0,6.206c-.011.547.175.624.646.613q5.254-.016,10.485-.011,5.319,0,10.639.011c.438,0,.635-.044.624-.569q-.033-6.912,0-13.824C1258.542,829.857,1258.4,829.759,1257.973,829.77ZM1239.848,842.2c-1.2,0-1.2,0-1.2-1.2,0-1.281,0-1.281,1.281-1.281,1.2,0,1.2,0,1.2,1.2C1241.128,842.2,1241.128,842.2,1239.848,842.2Zm5.7.011c-1.937.022-1.937.033-1.937-1.883,0-.854.033-1.707-.011-2.561-.011-.46.153-.547.569-.547,1.926-.022,1.926-.033,1.926,1.883v.624c0,.646-.022,1.3.011,1.948C1246.141,842.126,1245.966,842.214,1245.55,842.214Zm4.969.011c-1.926,0-1.926.022-1.926-1.9V838.46c0-1.029.011-2.069-.011-3.108-.011-.438.044-.624.569-.624,1.926,0,1.926-.022,1.926,1.9,0,1.653-.022,3.316.011,4.969C1251.088,842.039,1251.033,842.225,1250.519,842.225Zm4.936-.011c-1.893,0-1.893.022-1.893-1.839,0-2.517.011-5.024-.011-7.53-.011-.5.131-.591.6-.591,1.893,0,1.893-.022,1.893,1.839v3.185c0,1.456-.022,2.9.011,4.345C1256.068,842.126,1255.926,842.214,1255.455,842.214Zm-15.586,14.907c-1.226,0-1.226,0-1.226,1.193,0,1.292,0,1.292,1.27,1.292,1.215,0,1.215,0,1.215-1.182C1241.128,857.121,1241.128,857.121,1239.87,857.121Zm3.721,37.29c-1.215,0-1.215,0-1.215,1.193,0,1.292,0,1.292,1.259,1.292,1.226,0,1.226,0,1.226-1.182C1244.86,894.411,1244.86,894.411,1243.591,894.411Zm-.109-4.969c-1.105,0-1.105,0-1.105,1.138,0,1.346,0,1.346,1.291,1.346,1.193,0,1.193,0,1.193-1.138C1244.86,889.442,1244.86,889.442,1243.481,889.442Zm.142-4.969c-1.248,0-1.248,0-1.248,1.237s0,1.248,1.237,1.248,1.248,0,1.248-1.248S1244.86,884.473,1243.624,884.473Zm1.259-27.352c-1.27,0-1.27,0-1.27,1.292,0,1.193,0,1.193,1.226,1.193,1.259,0,1.259,0,1.259-1.292C1246.1,857.121,1246.1,857.121,1244.882,857.121Zm4.991,0c-1.281,0-1.281,0-1.281,1.281,0,1.2,0,1.2,1.193,1.2,1.291,0,1.291,0,1.291-1.27C1251.077,857.121,1251.077,857.121,1249.873,857.121Zm8.1-27.352c-1.708.022-3.415,0-5.122.011-.569,0-1.324-.2-1.642.1-.383.339-.088,1.116-.131,1.7a.363.363,0,0,0,0,.153c.077.46-.142.558-.558.547-.854-.033-1.707-.022-2.561-.011-.591,0-1.357-.2-1.729.1-.383.317-.088,1.116-.12,1.7a.363.363,0,0,0,0,.153c.077.471-.142.558-.569.547-.854-.033-1.708-.022-2.561-.011-.591.011-1.357-.186-1.718.109-.383.307-.088,1.105-.131,1.7v.153c.088.46-.142.547-.558.536-1.248-.022-2.484.011-3.732-.022-.5-.011-.7.077-.689.657q.049,3.1,0,6.206c-.011.547.175.624.646.613q5.254-.016,10.485-.011,5.319,0,10.639.011c.438,0,.635-.044.624-.569q-.033-6.912,0-13.824C1258.542,829.857,1258.4,829.759,1257.973,829.77ZM1239.848,842.2c-1.2,0-1.2,0-1.2-1.2,0-1.281,0-1.281,1.281-1.281,1.2,0,1.2,0,1.2,1.2C1241.128,842.2,1241.128,842.2,1239.848,842.2Zm5.7.011c-1.937.022-1.937.033-1.937-1.883,0-.854.033-1.707-.011-2.561-.011-.46.153-.547.569-.547,1.926-.022,1.926-.033,1.926,1.883v.624c0,.646-.022,1.3.011,1.948C1246.141,842.126,1245.966,842.214,1245.55,842.214Zm4.969.011c-1.926,0-1.926.022-1.926-1.9V838.46c0-1.029.011-2.069-.011-3.108-.011-.438.044-.624.569-.624,1.926,0,1.926-.022,1.926,1.9,0,1.653-.022,3.316.011,4.969C1251.088,842.039,1251.033,842.225,1250.519,842.225Zm4.936-.011c-1.893,0-1.893.022-1.893-1.839,0-2.517.011-5.024-.011-7.53-.011-.5.131-.591.6-.591,1.893,0,1.893-.022,1.893,1.839v3.185c0,1.456-.022,2.9.011,4.345C1256.068,842.126,1255.926,842.214,1255.455,842.214Zm31.642,32.31c-1.226,0-1.226,0-1.226,1.193,0,1.292,0,1.292,1.27,1.292,1.215,0,1.215,0,1.215-1.193C1288.356,874.524,1288.356,874.524,1287.1,874.524Zm4.947,0c-1.193,0-1.193,0-1.193,1.215,0,1.27,0,1.27,1.281,1.27,1.2,0,1.2,0,1.2-1.2C1293.336,874.524,1293.336,874.524,1292.044,874.524Zm5.068,0c-1.292,0-1.292,0-1.292,1.27,0,1.215,0,1.215,1.193,1.215,1.292,0,1.292,0,1.292-1.27C1298.305,874.524,1298.305,874.524,1297.112,874.524Zm0,0c-1.292,0-1.292,0-1.292,1.27,0,1.215,0,1.215,1.193,1.215,1.292,0,1.292,0,1.292-1.27C1298.305,874.524,1298.305,874.524,1297.112,874.524Zm-5.068,0c-1.193,0-1.193,0-1.193,1.215,0,1.27,0,1.27,1.281,1.27,1.2,0,1.2,0,1.2-1.2C1293.336,874.524,1293.336,874.524,1292.044,874.524Zm-4.947,0c-1.226,0-1.226,0-1.226,1.193,0,1.292,0,1.292,1.27,1.292,1.215,0,1.215,0,1.215-1.193C1288.356,874.524,1288.356,874.524,1287.1,874.524Zm-43.474,9.949c-1.248,0-1.248,0-1.248,1.237s0,1.248,1.237,1.248,1.248,0,1.248-1.248S1244.86,884.473,1243.624,884.473Zm-.142,4.969c-1.105,0-1.105,0-1.105,1.138,0,1.346,0,1.346,1.291,1.346,1.193,0,1.193,0,1.193-1.138C1244.86,889.442,1244.86,889.442,1243.481,889.442Zm.109,4.969c-1.215,0-1.215,0-1.215,1.193,0,1.292,0,1.292,1.259,1.292,1.226,0,1.226,0,1.226-1.182C1244.86,894.411,1244.86,894.411,1243.591,894.411Zm6.282-37.29c-1.281,0-1.281,0-1.281,1.281,0,1.2,0,1.2,1.193,1.2,1.291,0,1.291,0,1.291-1.27C1251.077,857.121,1251.077,857.121,1249.873,857.121Zm-4.991,0c-1.27,0-1.27,0-1.27,1.292,0,1.193,0,1.193,1.226,1.193,1.259,0,1.259,0,1.259-1.292C1246.1,857.121,1246.1,857.121,1244.882,857.121Zm-5.013,0c-1.226,0-1.226,0-1.226,1.193,0,1.292,0,1.292,1.27,1.292,1.215,0,1.215,0,1.215-1.182C1241.128,857.121,1241.128,857.121,1239.87,857.121Zm18.1-27.352c-1.708.022-3.415,0-5.122.011-.569,0-1.324-.2-1.642.1-.383.339-.088,1.116-.131,1.7a.363.363,0,0,0,0,.153c.077.46-.142.558-.558.547-.854-.033-1.707-.022-2.561-.011-.591,0-1.357-.2-1.729.1-.383.317-.088,1.116-.12,1.7a.363.363,0,0,0,0,.153c.077.471-.142.558-.569.547-.854-.033-1.708-.022-2.561-.011-.591.011-1.357-.186-1.718.109-.383.307-.088,1.105-.131,1.7v.153c.088.46-.142.547-.558.536-1.248-.022-2.484.011-3.732-.022-.5-.011-.7.077-.689.657q.049,3.1,0,6.206c-.011.547.175.624.646.613q5.254-.016,10.485-.011,5.319,0,10.639.011c.438,0,.635-.044.624-.569q-.033-6.912,0-13.824C1258.542,829.857,1258.4,829.759,1257.973,829.77ZM1239.848,842.2c-1.2,0-1.2,0-1.2-1.2,0-1.281,0-1.281,1.281-1.281,1.2,0,1.2,0,1.2,1.2C1241.128,842.2,1241.128,842.2,1239.848,842.2Zm5.7.011c-1.937.022-1.937.033-1.937-1.883,0-.854.033-1.707-.011-2.561-.011-.46.153-.547.569-.547,1.926-.022,1.926-.033,1.926,1.883v.624c0,.646-.022,1.3.011,1.948C1246.141,842.126,1245.966,842.214,1245.55,842.214Zm4.969.011c-1.926,0-1.926.022-1.926-1.9V838.46c0-1.029.011-2.069-.011-3.108-.011-.438.044-.624.569-.624,1.926,0,1.926-.022,1.926,1.9,0,1.653-.022,3.316.011,4.969C1251.088,842.039,1251.033,842.225,1250.519,842.225Zm4.936-.011c-1.893,0-1.893.022-1.893-1.839,0-2.517.011-5.024-.011-7.53-.011-.5.131-.591.6-.591,1.893,0,1.893-.022,1.893,1.839v3.185c0,1.456-.022,2.9.011,4.345C1256.068,842.126,1255.926,842.214,1255.455,842.214Zm-15.586,14.907c-1.226,0-1.226,0-1.226,1.193,0,1.292,0,1.292,1.27,1.292,1.215,0,1.215,0,1.215-1.182C1241.128,857.121,1241.128,857.121,1239.87,857.121Zm3.721,37.29c-1.215,0-1.215,0-1.215,1.193,0,1.292,0,1.292,1.259,1.292,1.226,0,1.226,0,1.226-1.182C1244.86,894.411,1244.86,894.411,1243.591,894.411Zm-.109-4.969c-1.105,0-1.105,0-1.105,1.138,0,1.346,0,1.346,1.291,1.346,1.193,0,1.193,0,1.193-1.138C1244.86,889.442,1244.86,889.442,1243.481,889.442Zm.142-4.969c-1.248,0-1.248,0-1.248,1.237s0,1.248,1.237,1.248,1.248,0,1.248-1.248S1244.86,884.473,1243.624,884.473Zm1.259-27.352c-1.27,0-1.27,0-1.27,1.292,0,1.193,0,1.193,1.226,1.193,1.259,0,1.259,0,1.259-1.292C1246.1,857.121,1246.1,857.121,1244.882,857.121Zm4.991,0c-1.281,0-1.281,0-1.281,1.281,0,1.2,0,1.2,1.193,1.2,1.291,0,1.291,0,1.291-1.27C1251.077,857.121,1251.077,857.121,1249.873,857.121Zm8.1-27.352c-1.708.022-3.415,0-5.122.011-.569,0-1.324-.2-1.642.1-.383.339-.088,1.116-.131,1.7a.363.363,0,0,0,0,.153c.077.46-.142.558-.558.547-.854-.033-1.707-.022-2.561-.011-.591,0-1.357-.2-1.729.1-.383.317-.088,1.116-.12,1.7a.363.363,0,0,0,0,.153c.077.471-.142.558-.569.547-.854-.033-1.708-.022-2.561-.011-.591.011-1.357-.186-1.718.109-.383.307-.088,1.105-.131,1.7v.153c.088.46-.142.547-.558.536-1.248-.022-2.484.011-3.732-.022-.5-.011-.7.077-.689.657q.049,3.1,0,6.206c-.011.547.175.624.646.613q5.254-.016,10.485-.011,5.319,0,10.639.011c.438,0,.635-.044.624-.569q-.033-6.912,0-13.824C1258.542,829.857,1258.4,829.759,1257.973,829.77ZM1239.848,842.2c-1.2,0-1.2,0-1.2-1.2,0-1.281,0-1.281,1.281-1.281,1.2,0,1.2,0,1.2,1.2C1241.128,842.2,1241.128,842.2,1239.848,842.2Zm5.7.011c-1.937.022-1.937.033-1.937-1.883,0-.854.033-1.707-.011-2.561-.011-.46.153-.547.569-.547,1.926-.022,1.926-.033,1.926,1.883v.624c0,.646-.022,1.3.011,1.948C1246.141,842.126,1245.966,842.214,1245.55,842.214Zm4.969.011c-1.926,0-1.926.022-1.926-1.9V838.46c0-1.029.011-2.069-.011-3.108-.011-.438.044-.624.569-.624,1.926,0,1.926-.022,1.926,1.9,0,1.653-.022,3.316.011,4.969C1251.088,842.039,1251.033,842.225,1250.519,842.225Zm4.936-.011c-1.893,0-1.893.022-1.893-1.839,0-2.517.011-5.024-.011-7.53-.011-.5.131-.591.6-.591,1.893,0,1.893-.022,1.893,1.839v3.185c0,1.456-.022,2.9.011,4.345C1256.068,842.126,1255.926,842.214,1255.455,842.214Zm31.642,32.31c-1.226,0-1.226,0-1.226,1.193,0,1.292,0,1.292,1.27,1.292,1.215,0,1.215,0,1.215-1.193C1288.356,874.524,1288.356,874.524,1287.1,874.524Zm4.947,0c-1.193,0-1.193,0-1.193,1.215,0,1.27,0,1.27,1.281,1.27,1.2,0,1.2,0,1.2-1.2C1293.336,874.524,1293.336,874.524,1292.044,874.524Zm5.068,0c-1.292,0-1.292,0-1.292,1.27,0,1.215,0,1.215,1.193,1.215,1.292,0,1.292,0,1.292-1.27C1298.305,874.524,1298.305,874.524,1297.112,874.524Zm0,0c-1.292,0-1.292,0-1.292,1.27,0,1.215,0,1.215,1.193,1.215,1.292,0,1.292,0,1.292-1.27C1298.305,874.524,1298.305,874.524,1297.112,874.524Zm-5.068,0c-1.193,0-1.193,0-1.193,1.215,0,1.27,0,1.27,1.281,1.27,1.2,0,1.2,0,1.2-1.2C1293.336,874.524,1293.336,874.524,1292.044,874.524Zm-4.947,0c-1.226,0-1.226,0-1.226,1.193,0,1.292,0,1.292,1.27,1.292,1.215,0,1.215,0,1.215-1.193C1288.356,874.524,1288.356,874.524,1287.1,874.524Zm-43.474,9.949c-1.248,0-1.248,0-1.248,1.237s0,1.248,1.237,1.248,1.248,0,1.248-1.248S1244.86,884.473,1243.624,884.473Zm-.142,4.969c-1.105,0-1.105,0-1.105,1.138,0,1.346,0,1.346,1.291,1.346,1.193,0,1.193,0,1.193-1.138C1244.86,889.442,1244.86,889.442,1243.481,889.442Zm.109,4.969c-1.215,0-1.215,0-1.215,1.193,0,1.292,0,1.292,1.259,1.292,1.226,0,1.226,0,1.226-1.182C1244.86,894.411,1244.86,894.411,1243.591,894.411Zm6.282-37.29c-1.281,0-1.281,0-1.281,1.281,0,1.2,0,1.2,1.193,1.2,1.291,0,1.291,0,1.291-1.27C1251.077,857.121,1251.077,857.121,1249.873,857.121Zm-4.991,0c-1.27,0-1.27,0-1.27,1.292,0,1.193,0,1.193,1.226,1.193,1.259,0,1.259,0,1.259-1.292C1246.1,857.121,1246.1,857.121,1244.882,857.121Zm-5.013,0c-1.226,0-1.226,0-1.226,1.193,0,1.292,0,1.292,1.27,1.292,1.215,0,1.215,0,1.215-1.182C1241.128,857.121,1241.128,857.121,1239.87,857.121Zm18.1-27.352c-1.708.022-3.415,0-5.122.011-.569,0-1.324-.2-1.642.1-.383.339-.088,1.116-.131,1.7a.363.363,0,0,0,0,.153c.077.46-.142.558-.558.547-.854-.033-1.707-.022-2.561-.011-.591,0-1.357-.2-1.729.1-.383.317-.088,1.116-.12,1.7a.363.363,0,0,0,0,.153c.077.471-.142.558-.569.547-.854-.033-1.708-.022-2.561-.011-.591.011-1.357-.186-1.718.109-.383.307-.088,1.105-.131,1.7v.153c.088.46-.142.547-.558.536-1.248-.022-2.484.011-3.732-.022-.5-.011-.7.077-.689.657q.049,3.1,0,6.206c-.011.547.175.624.646.613q5.254-.016,10.485-.011,5.319,0,10.639.011c.438,0,.635-.044.624-.569q-.033-6.912,0-13.824C1258.542,829.857,1258.4,829.759,1257.973,829.77ZM1239.848,842.2c-1.2,0-1.2,0-1.2-1.2,0-1.281,0-1.281,1.281-1.281,1.2,0,1.2,0,1.2,1.2C1241.128,842.2,1241.128,842.2,1239.848,842.2Zm5.7.011c-1.937.022-1.937.033-1.937-1.883,0-.854.033-1.707-.011-2.561-.011-.46.153-.547.569-.547,1.926-.022,1.926-.033,1.926,1.883v.624c0,.646-.022,1.3.011,1.948C1246.141,842.126,1245.966,842.214,1245.55,842.214Zm4.969.011c-1.926,0-1.926.022-1.926-1.9V838.46c0-1.029.011-2.069-.011-3.108-.011-.438.044-.624.569-.624,1.926,0,1.926-.022,1.926,1.9,0,1.653-.022,3.316.011,4.969C1251.088,842.039,1251.033,842.225,1250.519,842.225Zm4.936-.011c-1.893,0-1.893.022-1.893-1.839,0-2.517.011-5.024-.011-7.53-.011-.5.131-.591.6-.591,1.893,0,1.893-.022,1.893,1.839v3.185c0,1.456-.022,2.9.011,4.345C1256.068,842.126,1255.926,842.214,1255.455,842.214Zm-15.586,14.907c-1.226,0-1.226,0-1.226,1.193,0,1.292,0,1.292,1.27,1.292,1.215,0,1.215,0,1.215-1.182C1241.128,857.121,1241.128,857.121,1239.87,857.121Zm3.721,37.29c-1.215,0-1.215,0-1.215,1.193,0,1.292,0,1.292,1.259,1.292,1.226,0,1.226,0,1.226-1.182C1244.86,894.411,1244.86,894.411,1243.591,894.411Zm-.109-4.969c-1.105,0-1.105,0-1.105,1.138,0,1.346,0,1.346,1.291,1.346,1.193,0,1.193,0,1.193-1.138C1244.86,889.442,1244.86,889.442,1243.481,889.442Zm.142-4.969c-1.248,0-1.248,0-1.248,1.237s0,1.248,1.237,1.248,1.248,0,1.248-1.248S1244.86,884.473,1243.624,884.473Zm1.259-27.352c-1.27,0-1.27,0-1.27,1.292,0,1.193,0,1.193,1.226,1.193,1.259,0,1.259,0,1.259-1.292C1246.1,857.121,1246.1,857.121,1244.882,857.121Zm4.991,0c-1.281,0-1.281,0-1.281,1.281,0,1.2,0,1.2,1.193,1.2,1.291,0,1.291,0,1.291-1.27C1251.077,857.121,1251.077,857.121,1249.873,857.121Zm8.1-27.352c-1.708.022-3.415,0-5.122.011-.569,0-1.324-.2-1.642.1-.383.339-.088,1.116-.131,1.7a.363.363,0,0,0,0,.153c.077.46-.142.558-.558.547-.854-.033-1.707-.022-2.561-.011-.591,0-1.357-.2-1.729.1-.383.317-.088,1.116-.12,1.7a.363.363,0,0,0,0,.153c.077.471-.142.558-.569.547-.854-.033-1.708-.022-2.561-.011-.591.011-1.357-.186-1.718.109-.383.307-.088,1.105-.131,1.7v.153c.088.46-.142.547-.558.536-1.248-.022-2.484.011-3.732-.022-.5-.011-.7.077-.689.657q.049,3.1,0,6.206c-.011.547.175.624.646.613q5.254-.016,10.485-.011,5.319,0,10.639.011c.438,0,.635-.044.624-.569q-.033-6.912,0-13.824C1258.542,829.857,1258.4,829.759,1257.973,829.77ZM1239.848,842.2c-1.2,0-1.2,0-1.2-1.2,0-1.281,0-1.281,1.281-1.281,1.2,0,1.2,0,1.2,1.2C1241.128,842.2,1241.128,842.2,1239.848,842.2Zm5.7.011c-1.937.022-1.937.033-1.937-1.883,0-.854.033-1.707-.011-2.561-.011-.46.153-.547.569-.547,1.926-.022,1.926-.033,1.926,1.883v.624c0,.646-.022,1.3.011,1.948C1246.141,842.126,1245.966,842.214,1245.55,842.214Zm4.969.011c-1.926,0-1.926.022-1.926-1.9V838.46c0-1.029.011-2.069-.011-3.108-.011-.438.044-.624.569-.624,1.926,0,1.926-.022,1.926,1.9,0,1.653-.022,3.316.011,4.969C1251.088,842.039,1251.033,842.225,1250.519,842.225Zm4.936-.011c-1.893,0-1.893.022-1.893-1.839,0-2.517.011-5.024-.011-7.53-.011-.5.131-.591.6-.591,1.893,0,1.893-.022,1.893,1.839v3.185c0,1.456-.022,2.9.011,4.345C1256.068,842.126,1255.926,842.214,1255.455,842.214Zm31.642,32.31c-1.226,0-1.226,0-1.226,1.193,0,1.292,0,1.292,1.27,1.292,1.215,0,1.215,0,1.215-1.193C1288.356,874.524,1288.356,874.524,1287.1,874.524Zm4.947,0c-1.193,0-1.193,0-1.193,1.215,0,1.27,0,1.27,1.281,1.27,1.2,0,1.2,0,1.2-1.2C1293.336,874.524,1293.336,874.524,1292.044,874.524Zm5.068,0c-1.292,0-1.292,0-1.292,1.27,0,1.215,0,1.215,1.193,1.215,1.292,0,1.292,0,1.292-1.27C1298.305,874.524,1298.305,874.524,1297.112,874.524Zm0,0c-1.292,0-1.292,0-1.292,1.27,0,1.215,0,1.215,1.193,1.215,1.292,0,1.292,0,1.292-1.27C1298.305,874.524,1298.305,874.524,1297.112,874.524Zm-5.068,0c-1.193,0-1.193,0-1.193,1.215,0,1.27,0,1.27,1.281,1.27,1.2,0,1.2,0,1.2-1.2C1293.336,874.524,1293.336,874.524,1292.044,874.524Zm-4.947,0c-1.226,0-1.226,0-1.226,1.193,0,1.292,0,1.292,1.27,1.292,1.215,0,1.215,0,1.215-1.193C1288.356,874.524,1288.356,874.524,1287.1,874.524Zm-43.474,9.949c-1.248,0-1.248,0-1.248,1.237s0,1.248,1.237,1.248,1.248,0,1.248-1.248S1244.86,884.473,1243.624,884.473Zm-.142,4.969c-1.105,0-1.105,0-1.105,1.138,0,1.346,0,1.346,1.291,1.346,1.193,0,1.193,0,1.193-1.138C1244.86,889.442,1244.86,889.442,1243.481,889.442Zm.109,4.969c-1.215,0-1.215,0-1.215,1.193,0,1.292,0,1.292,1.259,1.292,1.226,0,1.226,0,1.226-1.182C1244.86,894.411,1244.86,894.411,1243.591,894.411Zm6.282-37.29c-1.281,0-1.281,0-1.281,1.281,0,1.2,0,1.2,1.193,1.2,1.291,0,1.291,0,1.291-1.27C1251.077,857.121,1251.077,857.121,1249.873,857.121Zm-4.991,0c-1.27,0-1.27,0-1.27,1.292,0,1.193,0,1.193,1.226,1.193,1.259,0,1.259,0,1.259-1.292C1246.1,857.121,1246.1,857.121,1244.882,857.121Zm-5.013,0c-1.226,0-1.226,0-1.226,1.193,0,1.292,0,1.292,1.27,1.292,1.215,0,1.215,0,1.215-1.182C1241.128,857.121,1241.128,857.121,1239.87,857.121Zm18.1-27.352c-1.708.022-3.415,0-5.122.011-.569,0-1.324-.2-1.642.1-.383.339-.088,1.116-.131,1.7a.363.363,0,0,0,0,.153c.077.46-.142.558-.558.547-.854-.033-1.707-.022-2.561-.011-.591,0-1.357-.2-1.729.1-.383.317-.088,1.116-.12,1.7a.363.363,0,0,0,0,.153c.077.471-.142.558-.569.547-.854-.033-1.708-.022-2.561-.011-.591.011-1.357-.186-1.718.109-.383.307-.088,1.105-.131,1.7v.153c.088.46-.142.547-.558.536-1.248-.022-2.484.011-3.732-.022-.5-.011-.7.077-.689.657q.049,3.1,0,6.206c-.011.547.175.624.646.613q5.254-.016,10.485-.011,5.319,0,10.639.011c.438,0,.635-.044.624-.569q-.033-6.912,0-13.824C1258.542,829.857,1258.4,829.759,1257.973,829.77ZM1239.848,842.2c-1.2,0-1.2,0-1.2-1.2,0-1.281,0-1.281,1.281-1.281,1.2,0,1.2,0,1.2,1.2C1241.128,842.2,1241.128,842.2,1239.848,842.2Zm5.7.011c-1.937.022-1.937.033-1.937-1.883,0-.854.033-1.707-.011-2.561-.011-.46.153-.547.569-.547,1.926-.022,1.926-.033,1.926,1.883v.624c0,.646-.022,1.3.011,1.948C1246.141,842.126,1245.966,842.214,1245.55,842.214Zm4.969.011c-1.926,0-1.926.022-1.926-1.9V838.46c0-1.029.011-2.069-.011-3.108-.011-.438.044-.624.569-.624,1.926,0,1.926-.022,1.926,1.9,0,1.653-.022,3.316.011,4.969C1251.088,842.039,1251.033,842.225,1250.519,842.225Zm4.936-.011c-1.893,0-1.893.022-1.893-1.839,0-2.517.011-5.024-.011-7.53-.011-.5.131-.591.6-.591,1.893,0,1.893-.022,1.893,1.839v3.185c0,1.456-.022,2.9.011,4.345C1256.068,842.126,1255.926,842.214,1255.455,842.214Zm-15.586,14.907c-1.226,0-1.226,0-1.226,1.193,0,1.292,0,1.292,1.27,1.292,1.215,0,1.215,0,1.215-1.182C1241.128,857.121,1241.128,857.121,1239.87,857.121Zm3.721,37.29c-1.215,0-1.215,0-1.215,1.193,0,1.292,0,1.292,1.259,1.292,1.226,0,1.226,0,1.226-1.182C1244.86,894.411,1244.86,894.411,1243.591,894.411Zm-.109-4.969c-1.105,0-1.105,0-1.105,1.138,0,1.346,0,1.346,1.291,1.346,1.193,0,1.193,0,1.193-1.138C1244.86,889.442,1244.86,889.442,1243.481,889.442Zm.142-4.969c-1.248,0-1.248,0-1.248,1.237s0,1.248,1.237,1.248,1.248,0,1.248-1.248S1244.86,884.473,1243.624,884.473Zm1.259-27.352c-1.27,0-1.27,0-1.27,1.292,0,1.193,0,1.193,1.226,1.193,1.259,0,1.259,0,1.259-1.292C1246.1,857.121,1246.1,857.121,1244.882,857.121Zm4.991,0c-1.281,0-1.281,0-1.281,1.281,0,1.2,0,1.2,1.193,1.2,1.291,0,1.291,0,1.291-1.27C1251.077,857.121,1251.077,857.121,1249.873,857.121Zm8.1-27.352c-1.708.022-3.415,0-5.122.011-.569,0-1.324-.2-1.642.1-.383.339-.088,1.116-.131,1.7a.363.363,0,0,0,0,.153c.077.46-.142.558-.558.547-.854-.033-1.707-.022-2.561-.011-.591,0-1.357-.2-1.729.1-.383.317-.088,1.116-.12,1.7a.363.363,0,0,0,0,.153c.077.471-.142.558-.569.547-.854-.033-1.708-.022-2.561-.011-.591.011-1.357-.186-1.718.109-.383.307-.088,1.105-.131,1.7v.153c.088.46-.142.547-.558.536-1.248-.022-2.484.011-3.732-.022-.5-.011-.7.077-.689.657q.049,3.1,0,6.206c-.011.547.175.624.646.613q5.254-.016,10.485-.011,5.319,0,10.639.011c.438,0,.635-.044.624-.569q-.033-6.912,0-13.824C1258.542,829.857,1258.4,829.759,1257.973,829.77ZM1239.848,842.2c-1.2,0-1.2,0-1.2-1.2,0-1.281,0-1.281,1.281-1.281,1.2,0,1.2,0,1.2,1.2C1241.128,842.2,1241.128,842.2,1239.848,842.2Zm5.7.011c-1.937.022-1.937.033-1.937-1.883,0-.854.033-1.707-.011-2.561-.011-.46.153-.547.569-.547,1.926-.022,1.926-.033,1.926,1.883v.624c0,.646-.022,1.3.011,1.948C1246.141,842.126,1245.966,842.214,1245.55,842.214Zm4.969.011c-1.926,0-1.926.022-1.926-1.9V838.46c0-1.029.011-2.069-.011-3.108-.011-.438.044-.624.569-.624,1.926,0,1.926-.022,1.926,1.9,0,1.653-.022,3.316.011,4.969C1251.088,842.039,1251.033,842.225,1250.519,842.225Zm4.936-.011c-1.893,0-1.893.022-1.893-1.839,0-2.517.011-5.024-.011-7.53-.011-.5.131-.591.6-.591,1.893,0,1.893-.022,1.893,1.839v3.185c0,1.456-.022,2.9.011,4.345C1256.068,842.126,1255.926,842.214,1255.455,842.214Zm31.642,32.31c-1.226,0-1.226,0-1.226,1.193,0,1.292,0,1.292,1.27,1.292,1.215,0,1.215,0,1.215-1.193C1288.356,874.524,1288.356,874.524,1287.1,874.524Zm4.947,0c-1.193,0-1.193,0-1.193,1.215,0,1.27,0,1.27,1.281,1.27,1.2,0,1.2,0,1.2-1.2C1293.336,874.524,1293.336,874.524,1292.044,874.524Zm5.068,0c-1.292,0-1.292,0-1.292,1.27,0,1.215,0,1.215,1.193,1.215,1.292,0,1.292,0,1.292-1.27C1298.305,874.524,1298.305,874.524,1297.112,874.524Zm0,0c-1.292,0-1.292,0-1.292,1.27,0,1.215,0,1.215,1.193,1.215,1.292,0,1.292,0,1.292-1.27C1298.305,874.524,1298.305,874.524,1297.112,874.524Zm-5.068,0c-1.193,0-1.193,0-1.193,1.215,0,1.27,0,1.27,1.281,1.27,1.2,0,1.2,0,1.2-1.2C1293.336,874.524,1293.336,874.524,1292.044,874.524Zm-4.947,0c-1.226,0-1.226,0-1.226,1.193,0,1.292,0,1.292,1.27,1.292,1.215,0,1.215,0,1.215-1.193C1288.356,874.524,1288.356,874.524,1287.1,874.524Zm-43.474,9.949c-1.248,0-1.248,0-1.248,1.237s0,1.248,1.237,1.248,1.248,0,1.248-1.248S1244.86,884.473,1243.624,884.473Zm-.142,4.969c-1.105,0-1.105,0-1.105,1.138,0,1.346,0,1.346,1.291,1.346,1.193,0,1.193,0,1.193-1.138C1244.86,889.442,1244.86,889.442,1243.481,889.442Zm.109,4.969c-1.215,0-1.215,0-1.215,1.193,0,1.292,0,1.292,1.259,1.292,1.226,0,1.226,0,1.226-1.182C1244.86,894.411,1244.86,894.411,1243.591,894.411Zm6.282-37.29c-1.281,0-1.281,0-1.281,1.281,0,1.2,0,1.2,1.193,1.2,1.291,0,1.291,0,1.291-1.27C1251.077,857.121,1251.077,857.121,1249.873,857.121Zm-4.991,0c-1.27,0-1.27,0-1.27,1.292,0,1.193,0,1.193,1.226,1.193,1.259,0,1.259,0,1.259-1.292C1246.1,857.121,1246.1,857.121,1244.882,857.121Zm-5.013,0c-1.226,0-1.226,0-1.226,1.193,0,1.292,0,1.292,1.27,1.292,1.215,0,1.215,0,1.215-1.182C1241.128,857.121,1241.128,857.121,1239.87,857.121Zm18.1-27.352c-1.708.022-3.415,0-5.122.011-.569,0-1.324-.2-1.642.1-.383.339-.088,1.116-.131,1.7a.363.363,0,0,0,0,.153c.077.46-.142.558-.558.547-.854-.033-1.707-.022-2.561-.011-.591,0-1.357-.2-1.729.1-.383.317-.088,1.116-.12,1.7a.363.363,0,0,0,0,.153c.077.471-.142.558-.569.547-.854-.033-1.708-.022-2.561-.011-.591.011-1.357-.186-1.718.109-.383.307-.088,1.105-.131,1.7v.153c.088.46-.142.547-.558.536-1.248-.022-2.484.011-3.732-.022-.5-.011-.7.077-.689.657q.049,3.1,0,6.206c-.011.547.175.624.646.613q5.254-.016,10.485-.011,5.319,0,10.639.011c.438,0,.635-.044.624-.569q-.033-6.912,0-13.824C1258.542,829.857,1258.4,829.759,1257.973,829.77ZM1239.848,842.2c-1.2,0-1.2,0-1.2-1.2,0-1.281,0-1.281,1.281-1.281,1.2,0,1.2,0,1.2,1.2C1241.128,842.2,1241.128,842.2,1239.848,842.2Zm5.7.011c-1.937.022-1.937.033-1.937-1.883,0-.854.033-1.707-.011-2.561-.011-.46.153-.547.569-.547,1.926-.022,1.926-.033,1.926,1.883v.624c0,.646-.022,1.3.011,1.948C1246.141,842.126,1245.966,842.214,1245.55,842.214Zm4.969.011c-1.926,0-1.926.022-1.926-1.9V838.46c0-1.029.011-2.069-.011-3.108-.011-.438.044-.624.569-.624,1.926,0,1.926-.022,1.926,1.9,0,1.653-.022,3.316.011,4.969C1251.088,842.039,1251.033,842.225,1250.519,842.225Zm4.936-.011c-1.893,0-1.893.022-1.893-1.839,0-2.517.011-5.024-.011-7.53-.011-.5.131-.591.6-.591,1.893,0,1.893-.022,1.893,1.839v3.185c0,1.456-.022,2.9.011,4.345C1256.068,842.126,1255.926,842.214,1255.455,842.214Zm-15.586,14.907c-1.226,0-1.226,0-1.226,1.193,0,1.292,0,1.292,1.27,1.292,1.215,0,1.215,0,1.215-1.182C1241.128,857.121,1241.128,857.121,1239.87,857.121Zm3.721,37.29c-1.215,0-1.215,0-1.215,1.193,0,1.292,0,1.292,1.259,1.292,1.226,0,1.226,0,1.226-1.182C1244.86,894.411,1244.86,894.411,1243.591,894.411Zm-.109-4.969c-1.105,0-1.105,0-1.105,1.138,0,1.346,0,1.346,1.291,1.346,1.193,0,1.193,0,1.193-1.138C1244.86,889.442,1244.86,889.442,1243.481,889.442Zm.142-4.969c-1.248,0-1.248,0-1.248,1.237s0,1.248,1.237,1.248,1.248,0,1.248-1.248S1244.86,884.473,1243.624,884.473Zm1.259-27.352c-1.27,0-1.27,0-1.27,1.292,0,1.193,0,1.193,1.226,1.193,1.259,0,1.259,0,1.259-1.292C1246.1,857.121,1246.1,857.121,1244.882,857.121Zm4.991,0c-1.281,0-1.281,0-1.281,1.281,0,1.2,0,1.2,1.193,1.2,1.291,0,1.291,0,1.291-1.27C1251.077,857.121,1251.077,857.121,1249.873,857.121Zm8.1-27.352c-1.708.022-3.415,0-5.122.011-.569,0-1.324-.2-1.642.1-.383.339-.088,1.116-.131,1.7a.363.363,0,0,0,0,.153c.077.46-.142.558-.558.547-.854-.033-1.707-.022-2.561-.011-.591,0-1.357-.2-1.729.1-.383.317-.088,1.116-.12,1.7a.363.363,0,0,0,0,.153c.077.471-.142.558-.569.547-.854-.033-1.708-.022-2.561-.011-.591.011-1.357-.186-1.718.109-.383.307-.088,1.105-.131,1.7v.153c.088.46-.142.547-.558.536-1.248-.022-2.484.011-3.732-.022-.5-.011-.7.077-.689.657q.049,3.1,0,6.206c-.011.547.175.624.646.613q5.254-.016,10.485-.011,5.319,0,10.639.011c.438,0,.635-.044.624-.569q-.033-6.912,0-13.824C1258.542,829.857,1258.4,829.759,1257.973,829.77ZM1239.848,842.2c-1.2,0-1.2,0-1.2-1.2,0-1.281,0-1.281,1.281-1.281,1.2,0,1.2,0,1.2,1.2C1241.128,842.2,1241.128,842.2,1239.848,842.2Zm5.7.011c-1.937.022-1.937.033-1.937-1.883,0-.854.033-1.707-.011-2.561-.011-.46.153-.547.569-.547,1.926-.022,1.926-.033,1.926,1.883v.624c0,.646-.022,1.3.011,1.948C1246.141,842.126,1245.966,842.214,1245.55,842.214Zm4.969.011c-1.926,0-1.926.022-1.926-1.9V838.46c0-1.029.011-2.069-.011-3.108-.011-.438.044-.624.569-.624,1.926,0,1.926-.022,1.926,1.9,0,1.653-.022,3.316.011,4.969C1251.088,842.039,1251.033,842.225,1250.519,842.225Zm4.936-.011c-1.893,0-1.893.022-1.893-1.839,0-2.517.011-5.024-.011-7.53-.011-.5.131-.591.6-.591,1.893,0,1.893-.022,1.893,1.839v3.185c0,1.456-.022,2.9.011,4.345C1256.068,842.126,1255.926,842.214,1255.455,842.214Zm31.642,32.31c-1.226,0-1.226,0-1.226,1.193,0,1.292,0,1.292,1.27,1.292,1.215,0,1.215,0,1.215-1.193C1288.356,874.524,1288.356,874.524,1287.1,874.524Zm4.947,0c-1.193,0-1.193,0-1.193,1.215,0,1.27,0,1.27,1.281,1.27,1.2,0,1.2,0,1.2-1.2C1293.336,874.524,1293.336,874.524,1292.044,874.524Zm5.068,0c-1.292,0-1.292,0-1.292,1.27,0,1.215,0,1.215,1.193,1.215,1.292,0,1.292,0,1.292-1.27C1298.305,874.524,1298.305,874.524,1297.112,874.524Zm0,0c-1.292,0-1.292,0-1.292,1.27,0,1.215,0,1.215,1.193,1.215,1.292,0,1.292,0,1.292-1.27C1298.305,874.524,1298.305,874.524,1297.112,874.524Zm-5.068,0c-1.193,0-1.193,0-1.193,1.215,0,1.27,0,1.27,1.281,1.27,1.2,0,1.2,0,1.2-1.2C1293.336,874.524,1293.336,874.524,1292.044,874.524Zm-4.947,0c-1.226,0-1.226,0-1.226,1.193,0,1.292,0,1.292,1.27,1.292,1.215,0,1.215,0,1.215-1.193C1288.356,874.524,1288.356,874.524,1287.1,874.524Zm-43.485,12.434c1.248,0,1.248,0,1.248-1.248s0-1.237-1.237-1.237-1.248,0-1.248,1.237S1242.376,886.957,1243.613,886.957Zm-.131,2.484c-1.105,0-1.105,0-1.105,1.138,0,1.346,0,1.346,1.291,1.346,1.193,0,1.193,0,1.193-1.138C1244.86,889.442,1244.86,889.442,1243.481,889.442Zm.109,4.969c-1.215,0-1.215,0-1.215,1.193,0,1.292,0,1.292,1.259,1.292,1.226,0,1.226,0,1.226-1.182C1244.86,894.411,1244.86,894.411,1243.591,894.411Zm6.282-37.29c-1.281,0-1.281,0-1.281,1.281,0,1.2,0,1.2,1.193,1.2,1.291,0,1.291,0,1.291-1.27C1251.077,857.121,1251.077,857.121,1249.873,857.121Zm-4.991,0c-1.27,0-1.27,0-1.27,1.292,0,1.193,0,1.193,1.226,1.193,1.259,0,1.259,0,1.259-1.292C1246.1,857.121,1246.1,857.121,1244.882,857.121Zm-5.013,0c-1.226,0-1.226,0-1.226,1.193,0,1.292,0,1.292,1.27,1.292,1.215,0,1.215,0,1.215-1.182C1241.128,857.121,1241.128,857.121,1239.87,857.121Zm18.1-27.352c-1.708.022-3.415,0-5.122.011-.569,0-1.324-.2-1.642.1-.383.339-.088,1.116-.131,1.7a.363.363,0,0,0,0,.153c.077.46-.142.558-.558.547-.854-.033-1.707-.022-2.561-.011-.591,0-1.357-.2-1.729.1-.383.317-.088,1.116-.12,1.7a.363.363,0,0,0,0,.153c.077.471-.142.558-.569.547-.854-.033-1.708-.022-2.561-.011-.591.011-1.357-.186-1.718.109-.383.307-.088,1.105-.131,1.7v.153c.088.46-.142.547-.558.536-1.248-.022-2.484.011-3.732-.022-.5-.011-.7.077-.689.657q.049,3.1,0,6.206c-.011.547.175.624.646.613q5.254-.016,10.485-.011,5.319,0,10.639.011c.438,0,.635-.044.624-.569q-.033-6.912,0-13.824C1258.542,829.857,1258.4,829.759,1257.973,829.77ZM1239.848,842.2c-1.2,0-1.2,0-1.2-1.2,0-1.281,0-1.281,1.281-1.281,1.2,0,1.2,0,1.2,1.2C1241.128,842.2,1241.128,842.2,1239.848,842.2Zm5.7.011c-1.937.022-1.937.033-1.937-1.883,0-.854.033-1.707-.011-2.561-.011-.46.153-.547.569-.547,1.926-.022,1.926-.033,1.926,1.883v.624c0,.646-.022,1.3.011,1.948C1246.141,842.126,1245.966,842.214,1245.55,842.214Zm4.969.011c-1.926,0-1.926.022-1.926-1.9V838.46c0-1.029.011-2.069-.011-3.108-.011-.438.044-.624.569-.624,1.926,0,1.926-.022,1.926,1.9,0,1.653-.022,3.316.011,4.969C1251.088,842.039,1251.033,842.225,1250.519,842.225Zm4.936-.011c-1.893,0-1.893.022-1.893-1.839,0-2.517.011-5.024-.011-7.53-.011-.5.131-.591.6-.591,1.893,0,1.893-.022,1.893,1.839v3.185c0,1.456-.022,2.9.011,4.345C1256.068,842.126,1255.926,842.214,1255.455,842.214Zm28.676,2.528a3.706,3.706,0,0,0-3.218,3.995,3.77,3.77,0,0,0,3.842,3.415c1.707.011,3.415,0,5.122,0,4.87,0,9.741.011,14.612-.011a3.713,3.713,0,0,0,3.71-3.108,3.776,3.776,0,0,0-2.364-4.1c-.427-.175-1.084,0-1.27-.449a3.786,3.786,0,0,1-.044-1.456v-.077c-.077-.5.033-.722.635-.821a3.662,3.662,0,0,0,3.075-3.338,3.766,3.766,0,0,0-2.386-3.8c-.438-.175-1.084,0-1.281-.438-.186-.416,0-.974-.055-1.456-.066-.58.077-.81.711-.93a3.674,3.674,0,0,0,3.01-4.006,3.719,3.719,0,0,0-3.656-3.349q-10.031-.033-20.04,0a3.725,3.725,0,0,0-3.6,3.163,3.806,3.806,0,0,0,2.43,4.072c.416.164,1.051-.033,1.226.4a4.013,4.013,0,0,1,.044,1.456,3.058,3.058,0,0,0,0,.317c.044.361-.044.514-.471.569a3.239,3.239,0,0,0-2.627,1.707,1.26,1.26,0,0,1-1.379.744c-4.137-.022-6.709,2.572-6.709,6.731v23.849c0,1.729,0,1.7-1.7,1.74-.624.022-.81-.109-.81-.777.033-8.285.022-16.571.022-24.856a7.908,7.908,0,0,0-.241-2.156,6.207,6.207,0,0,0-6.447-4.52c-.646,0-.8-.164-.788-.8.044-2.517.022-5.024.011-7.541a3.751,3.751,0,0,0-4.083-4.115h-24.156a3.745,3.745,0,0,0-4.072,4.05v16.779a3.745,3.745,0,0,0,4.006,4.039H1259.5a3.746,3.746,0,0,0,3.995-3.973c.011-1.8.011-3.579,0-5.363-.011-.438.033-.624.558-.624,2.911-.033,4.422,1.423,4.422,4.345v23.608c0,1.926,0,1.9-1.926,1.9-.514,0-.58-.164-.569-.613.022-1.915.033-3.831,0-5.746a6.155,6.155,0,0,0-5.057-5.954,23.055,23.055,0,0,0-4.258-.109c-.536-.011-.777-.131-.952-.679a6.063,6.063,0,0,0-5.669-4.3c-3.47-.033-6.939-.055-10.409.011a6.194,6.194,0,0,0-.011,12.379c5.308.066,10.617.022,15.925.033.416.011.5-.131.5-.514-.022-1.3.011-2.594-.022-3.885-.022-.5.142-.6.6-.591.985.044,1.97.011,2.955.011a3.735,3.735,0,0,1,3.907,3.907c.011,1.751-.033,3.513.022,5.276.022.679-.2.777-.81.777-8.056-.022-16.111-.011-24.156-.022a.925.925,0,0,0-1,.613c-1.839,3.721-3.71,7.432-5.56,11.153-.1.2-.285.383-.219.679,1.631,0,3.262.022,4.881-.022.613-.022.755.153.755.755-.022,6.14-.011,12.28-.033,18.41,0,.613.164.755.755.755q31.587-.033,63.153,0c.613,0,.755-.153.755-.755-.022-6.162-.011-12.324-.033-18.486,0-.547.142-.69.679-.679,1.653.044,3.305.022,5.078.022-1.981-3.962-3.918-7.793-5.79-11.635a1.259,1.259,0,0,0-1.346-.821c-6.337.033-12.685.011-19.022.033-.58,0-.766-.109-.722-.711.055-.821.011-1.653.011-2.484,0-2.846,1.445-4.258,4.313-4.291a.836.836,0,0,1,1,.711,6.2,6.2,0,1,0,7.169-8.012,6.062,6.062,0,0,0-7.038,3.842c-.306.865-.7,1.127-1.51.985a1.772,1.772,0,0,0-.241,0,6.222,6.222,0,0,0-6.064,5.111,15.6,15.6,0,0,0-.1,2.944c-.022,1.97-.011,1.948-2,1.9-.438-.011-.525-.153-.5-.536.033-.46.011-.93.011-1.39V843.626a3.721,3.721,0,0,1,2.1-3.524,5.9,5.9,0,0,1,2.89-.383c.328,0,.317.3.416.471a4.076,4.076,0,0,0,1.915,1.751c.449.208,1.149.011,1.335.482a4.682,4.682,0,0,1,.044,1.62v.077C1284.689,844.512,1284.58,844.666,1284.131,844.742Zm-23.116.766c0,1.27-.394,1.664-1.664,1.675q-12.034,0-24.057-.011c-1.215,0-1.62-.416-1.62-1.631V828.927c0-1.226.4-1.631,1.62-1.631,4.017-.011,8.023-.011,12.04-.011s8.012,0,12.029.011c1.259,0,1.653.394,1.653,1.675Zm-8,16.593c-2.222-.022-4.455-.011-6.677-.011-2.091,0-4.192.011-6.282,0a3.73,3.73,0,1,1-.033-7.454c3.229-.011,6.469-.011,9.7,0a3.725,3.725,0,0,1,3.842,3.809c.011,1.04-.022,2.069.011,3.108C1253.584,861.992,1253.452,862.112,1253.015,862.1Zm39.107-4.98a3.727,3.727,0,1,1-3.754,3.743A3.749,3.749,0,0,1,1292.121,857.121Zm-56.192,22.372a1.764,1.764,0,0,1-.208-.066c.908-1.806,1.926-3.546,2.66-5.407.624-1.609,1.543-2.08,3.262-2.036,5.33.142,10.66.055,16,.055.077.274-.109.449-.208.646-1.04,2.1-2.1,4.2-3.141,6.3-.153.328-.306.525-.733.514Q1244.745,879.487,1235.929,879.493Zm23.116,19.909c-6.129-.033-12.259-.022-18.4,0-.558,0-.777-.077-.777-.733q.049-8,0-15.991c0-.6.164-.711.733-.711,4.761.022,9.522.011,14.283.033a.944.944,0,0,0,1-.6c1.237-2.528,2.5-5.035,3.754-7.541a.757.757,0,0,1,.142.022v.613c0,8.045-.011,16.089.011,24.145C1259.789,899.216,1259.68,899.4,1259.045,899.4Zm40.519-.711c0,.591-.142.711-.722.711q-17.928-.033-35.878-.022c-.372,0-.722.131-.722-.536.033-8.253.022-16.516.022-24.769a2.322,2.322,0,0,1,.066-.361c1.3,2.616,2.561,5.068,3.765,7.552a1.083,1.083,0,0,0,1.149.733c10.485-.022,20.971-.011,31.456-.033.712,0,.865.186.865.876C1299.531,888.128,1299.542,893.4,1299.564,898.69Zm-.274-26.662a.978.978,0,0,1,1.062.635c1.084,2.255,2.222,4.476,3.349,6.742a1.039,1.039,0,0,1-.668.088q-17.173,0-34.335.011a.924.924,0,0,1-1.007-.591c-1.094-2.277-2.244-4.52-3.415-6.873h.843Q1282.194,872.039,1299.29,872.028Zm-14.929-42.292a1.232,1.232,0,0,1,.077-2.419,2.849,2.849,0,0,1,.613-.022q9.506-.016,19.012-.011c.131,0,.252,0,.383.011a1.239,1.239,0,1,1,0,2.474c-1.62.022-3.251.011-4.881.011h-4.969q-4.761,0-9.544-.011A2.414,2.414,0,0,1,1284.361,829.737Zm17.687,3.141c-.011,1.872.011,1.872-1.883,1.872-4.115,0-8.231-.011-12.346.011-.58.011-.733-.131-.722-.711.044-1.784.011-1.784,1.806-1.784h5.669c2.277,0,4.564.011,6.841-.011C1301.917,832.243,1302.048,832.374,1302.048,832.878Zm-18.65,5.6a1.214,1.214,0,0,1,1.3-1.237c1.74-.022,3.47-.011,5.2-.011h14.2a2.953,2.953,0,0,1,.7.033,1.241,1.241,0,0,1-.077,2.43,2.269,2.269,0,0,1-.547.022H1284.7A1.245,1.245,0,0,1,1283.4,838.482Zm18.65,4.422c-.033,1.784-.011,1.784-1.806,1.784h-5.67c-2.277,0-4.553-.011-6.83.022-.5,0-.646-.131-.635-.635.011-1.872-.011-1.872,1.872-1.872,4.115,0,8.231.011,12.357-.011C1301.906,842.192,1302.059,842.323,1302.048,842.9Zm-17.1,4.279c.263-.011.525,0,.777,0h18.234a5.923,5.923,0,0,1,.624,0,1.24,1.24,0,0,1,.033,2.474c-.23.022-.46.011-.7.011H1285c-1.04-.011-1.62-.46-1.6-1.27C1283.409,847.621,1283.967,847.183,1284.952,847.183Zm12.061,29.825c1.292,0,1.292,0,1.292-1.27,0-1.215,0-1.215-1.193-1.215-1.292,0-1.292,0-1.292,1.27C1295.82,877.008,1295.82,877.008,1297.013,877.008Zm-4.881,0c1.2,0,1.2,0,1.2-1.2,0-1.281,0-1.281-1.292-1.281-1.193,0-1.193,0-1.193,1.215C1290.851,877.008,1290.851,877.008,1292.132,877.008Zm-4.991,0c1.215,0,1.215,0,1.215-1.193,0-1.292,0-1.292-1.259-1.292-1.226,0-1.226,0-1.226,1.193C1285.871,877.008,1285.871,877.008,1287.141,877.008Zm-29.168-47.239c-1.708.022-3.415,0-5.122.011-.569,0-1.324-.2-1.642.1-.383.339-.088,1.116-.131,1.7a.363.363,0,0,0,0,.153c.077.46-.142.558-.558.547-.854-.033-1.707-.022-2.561-.011-.591,0-1.357-.2-1.729.1-.383.317-.088,1.116-.12,1.7a.363.363,0,0,0,0,.153c.077.471-.142.558-.569.547-.854-.033-1.708-.022-2.561-.011-.591.011-1.357-.186-1.718.109-.383.307-.088,1.105-.131,1.7v.153c.088.46-.142.547-.558.536-1.248-.022-2.484.011-3.732-.022-.5-.011-.7.077-.689.657q.049,3.1,0,6.206c-.011.547.175.624.646.613q5.254-.016,10.485-.011,5.319,0,10.639.011c.438,0,.635-.044.624-.569q-.033-6.912,0-13.824C1258.542,829.857,1258.4,829.759,1257.973,829.77ZM1239.848,842.2c-1.2,0-1.2,0-1.2-1.2,0-1.281,0-1.281,1.281-1.281,1.2,0,1.2,0,1.2,1.2C1241.128,842.2,1241.128,842.2,1239.848,842.2Zm5.7.011c-1.937.022-1.937.033-1.937-1.883,0-.854.033-1.707-.011-2.561-.011-.46.153-.547.569-.547,1.926-.022,1.926-.033,1.926,1.883v.624c0,.646-.022,1.3.011,1.948C1246.141,842.126,1245.966,842.214,1245.55,842.214Zm4.969.011c-1.926,0-1.926.022-1.926-1.9V838.46c0-1.029.011-2.069-.011-3.108-.011-.438.044-.624.569-.624,1.926,0,1.926-.022,1.926,1.9,0,1.653-.022,3.316.011,4.969C1251.088,842.039,1251.033,842.225,1250.519,842.225Zm4.936-.011c-1.893,0-1.893.022-1.893-1.839,0-2.517.011-5.024-.011-7.53-.011-.5.131-.591.6-.591,1.893,0,1.893-.022,1.893,1.839v3.185c0,1.456-.022,2.9.011,4.345C1256.068,842.126,1255.926,842.214,1255.455,842.214Zm-5.582,14.907c-1.281,0-1.281,0-1.281,1.281,0,1.2,0,1.2,1.193,1.2,1.291,0,1.291,0,1.291-1.27C1251.077,857.121,1251.077,857.121,1249.873,857.121Zm-4.991,0c-1.27,0-1.27,0-1.27,1.292,0,1.193,0,1.193,1.226,1.193,1.259,0,1.259,0,1.259-1.292C1246.1,857.121,1246.1,857.121,1244.882,857.121Zm-1.259,27.352c-1.248,0-1.248,0-1.248,1.237s0,1.248,1.237,1.248,1.248,0,1.248-1.248S1244.86,884.473,1243.624,884.473Zm-.142,4.969c-1.105,0-1.105,0-1.105,1.138,0,1.346,0,1.346,1.291,1.346,1.193,0,1.193,0,1.193-1.138C1244.86,889.442,1244.86,889.442,1243.481,889.442Zm.109,4.969c-1.215,0-1.215,0-1.215,1.193,0,1.292,0,1.292,1.259,1.292,1.226,0,1.226,0,1.226-1.182C1244.86,894.411,1244.86,894.411,1243.591,894.411Zm-3.721-37.29c-1.226,0-1.226,0-1.226,1.193,0,1.292,0,1.292,1.27,1.292,1.215,0,1.215,0,1.215-1.182C1241.128,857.121,1241.128,857.121,1239.87,857.121Zm18.1-27.352c-1.708.022-3.415,0-5.122.011-.569,0-1.324-.2-1.642.1-.383.339-.088,1.116-.131,1.7a.363.363,0,0,0,0,.153c.077.46-.142.558-.558.547-.854-.033-1.707-.022-2.561-.011-.591,0-1.357-.2-1.729.1-.383.317-.088,1.116-.12,1.7a.363.363,0,0,0,0,.153c.077.471-.142.558-.569.547-.854-.033-1.708-.022-2.561-.011-.591.011-1.357-.186-1.718.109-.383.307-.088,1.105-.131,1.7v.153c.088.46-.142.547-.558.536-1.248-.022-2.484.011-3.732-.022-.5-.011-.7.077-.689.657q.049,3.1,0,6.206c-.011.547.175.624.646.613q5.254-.016,10.485-.011,5.319,0,10.639.011c.438,0,.635-.044.624-.569q-.033-6.912,0-13.824C1258.542,829.857,1258.4,829.759,1257.973,829.77ZM1239.848,842.2c-1.2,0-1.2,0-1.2-1.2,0-1.281,0-1.281,1.281-1.281,1.2,0,1.2,0,1.2,1.2C1241.128,842.2,1241.128,842.2,1239.848,842.2Zm5.7.011c-1.937.022-1.937.033-1.937-1.883,0-.854.033-1.707-.011-2.561-.011-.46.153-.547.569-.547,1.926-.022,1.926-.033,1.926,1.883v.624c0,.646-.022,1.3.011,1.948C1246.141,842.126,1245.966,842.214,1245.55,842.214Zm4.969.011c-1.926,0-1.926.022-1.926-1.9V838.46c0-1.029.011-2.069-.011-3.108-.011-.438.044-.624.569-.624,1.926,0,1.926-.022,1.926,1.9,0,1.653-.022,3.316.011,4.969C1251.088,842.039,1251.033,842.225,1250.519,842.225Zm4.936-.011c-1.893,0-1.893.022-1.893-1.839,0-2.517.011-5.024-.011-7.53-.011-.5.131-.591.6-.591,1.893,0,1.893-.022,1.893,1.839v3.185c0,1.456-.022,2.9.011,4.345C1256.068,842.126,1255.926,842.214,1255.455,842.214Zm-15.586,14.907c-1.226,0-1.226,0-1.226,1.193,0,1.292,0,1.292,1.27,1.292,1.215,0,1.215,0,1.215-1.182C1241.128,857.121,1241.128,857.121,1239.87,857.121Zm5.013,0c-1.27,0-1.27,0-1.27,1.292,0,1.193,0,1.193,1.226,1.193,1.259,0,1.259,0,1.259-1.292C1246.1,857.121,1246.1,857.121,1244.882,857.121Zm4.991,0c-1.281,0-1.281,0-1.281,1.281,0,1.2,0,1.2,1.193,1.2,1.291,0,1.291,0,1.291-1.27C1251.077,857.121,1251.077,857.121,1249.873,857.121Zm-6.282,37.29c-1.215,0-1.215,0-1.215,1.193,0,1.292,0,1.292,1.259,1.292,1.226,0,1.226,0,1.226-1.182C1244.86,894.411,1244.86,894.411,1243.591,894.411Zm-.109-4.969c-1.105,0-1.105,0-1.105,1.138,0,1.346,0,1.346,1.291,1.346,1.193,0,1.193,0,1.193-1.138C1244.86,889.442,1244.86,889.442,1243.481,889.442Zm.142-4.969c-1.248,0-1.248,0-1.248,1.237s0,1.248,1.237,1.248,1.248,0,1.248-1.248S1244.86,884.473,1243.624,884.473Zm43.474-9.949c-1.226,0-1.226,0-1.226,1.193,0,1.292,0,1.292,1.27,1.292,1.215,0,1.215,0,1.215-1.193C1288.356,874.524,1288.356,874.524,1287.1,874.524Zm4.947,0c-1.193,0-1.193,0-1.193,1.215,0,1.27,0,1.27,1.281,1.27,1.2,0,1.2,0,1.2-1.2C1293.336,874.524,1293.336,874.524,1292.044,874.524Zm5.068,0c-1.292,0-1.292,0-1.292,1.27,0,1.215,0,1.215,1.193,1.215,1.292,0,1.292,0,1.292-1.27C1298.305,874.524,1298.305,874.524,1297.112,874.524Zm0,0c-1.292,0-1.292,0-1.292,1.27,0,1.215,0,1.215,1.193,1.215,1.292,0,1.292,0,1.292-1.27C1298.305,874.524,1298.305,874.524,1297.112,874.524Zm-5.068,0c-1.193,0-1.193,0-1.193,1.215,0,1.27,0,1.27,1.281,1.27,1.2,0,1.2,0,1.2-1.2C1293.336,874.524,1293.336,874.524,1292.044,874.524Zm-4.947,0c-1.226,0-1.226,0-1.226,1.193,0,1.292,0,1.292,1.27,1.292,1.215,0,1.215,0,1.215-1.193C1288.356,874.524,1288.356,874.524,1287.1,874.524Zm-29.125-44.754c-1.708.022-3.415,0-5.122.011-.569,0-1.324-.2-1.642.1-.383.339-.088,1.116-.131,1.7a.363.363,0,0,0,0,.153c.077.46-.142.558-.558.547-.854-.033-1.707-.022-2.561-.011-.591,0-1.357-.2-1.729.1-.383.317-.088,1.116-.12,1.7a.363.363,0,0,0,0,.153c.077.471-.142.558-.569.547-.854-.033-1.708-.022-2.561-.011-.591.011-1.357-.186-1.718.109-.383.307-.088,1.105-.131,1.7v.153c.088.46-.142.547-.558.536-1.248-.022-2.484.011-3.732-.022-.5-.011-.7.077-.689.657q.049,3.1,0,6.206c-.011.547.175.624.646.613q5.254-.016,10.485-.011,5.319,0,10.639.011c.438,0,.635-.044.624-.569q-.033-6.912,0-13.824C1258.542,829.857,1258.4,829.759,1257.973,829.77ZM1239.848,842.2c-1.2,0-1.2,0-1.2-1.2,0-1.281,0-1.281,1.281-1.281,1.2,0,1.2,0,1.2,1.2C1241.128,842.2,1241.128,842.2,1239.848,842.2Zm5.7.011c-1.937.022-1.937.033-1.937-1.883,0-.854.033-1.707-.011-2.561-.011-.46.153-.547.569-.547,1.926-.022,1.926-.033,1.926,1.883v.624c0,.646-.022,1.3.011,1.948C1246.141,842.126,1245.966,842.214,1245.55,842.214Zm4.969.011c-1.926,0-1.926.022-1.926-1.9V838.46c0-1.029.011-2.069-.011-3.108-.011-.438.044-.624.569-.624,1.926,0,1.926-.022,1.926,1.9,0,1.653-.022,3.316.011,4.969C1251.088,842.039,1251.033,842.225,1250.519,842.225Zm4.936-.011c-1.893,0-1.893.022-1.893-1.839,0-2.517.011-5.024-.011-7.53-.011-.5.131-.591.6-.591,1.893,0,1.893-.022,1.893,1.839v3.185c0,1.456-.022,2.9.011,4.345C1256.068,842.126,1255.926,842.214,1255.455,842.214Zm-5.582,14.907c-1.281,0-1.281,0-1.281,1.281,0,1.2,0,1.2,1.193,1.2,1.291,0,1.291,0,1.291-1.27C1251.077,857.121,1251.077,857.121,1249.873,857.121Zm-4.991,0c-1.27,0-1.27,0-1.27,1.292,0,1.193,0,1.193,1.226,1.193,1.259,0,1.259,0,1.259-1.292C1246.1,857.121,1246.1,857.121,1244.882,857.121Zm-1.259,27.352c-1.248,0-1.248,0-1.248,1.237s0,1.248,1.237,1.248,1.248,0,1.248-1.248S1244.86,884.473,1243.624,884.473Zm-.142,4.969c-1.105,0-1.105,0-1.105,1.138,0,1.346,0,1.346,1.291,1.346,1.193,0,1.193,0,1.193-1.138C1244.86,889.442,1244.86,889.442,1243.481,889.442Zm.109,4.969c-1.215,0-1.215,0-1.215,1.193,0,1.292,0,1.292,1.259,1.292,1.226,0,1.226,0,1.226-1.182C1244.86,894.411,1244.86,894.411,1243.591,894.411Zm-3.721-37.29c-1.226,0-1.226,0-1.226,1.193,0,1.292,0,1.292,1.27,1.292,1.215,0,1.215,0,1.215-1.182C1241.128,857.121,1241.128,857.121,1239.87,857.121Zm18.1-27.352c-1.708.022-3.415,0-5.122.011-.569,0-1.324-.2-1.642.1-.383.339-.088,1.116-.131,1.7a.363.363,0,0,0,0,.153c.077.46-.142.558-.558.547-.854-.033-1.707-.022-2.561-.011-.591,0-1.357-.2-1.729.1-.383.317-.088,1.116-.12,1.7a.363.363,0,0,0,0,.153c.077.471-.142.558-.569.547-.854-.033-1.708-.022-2.561-.011-.591.011-1.357-.186-1.718.109-.383.307-.088,1.105-.131,1.7v.153c.088.46-.142.547-.558.536-1.248-.022-2.484.011-3.732-.022-.5-.011-.7.077-.689.657q.049,3.1,0,6.206c-.011.547.175.624.646.613q5.254-.016,10.485-.011,5.319,0,10.639.011c.438,0,.635-.044.624-.569q-.033-6.912,0-13.824C1258.542,829.857,1258.4,829.759,1257.973,829.77ZM1239.848,842.2c-1.2,0-1.2,0-1.2-1.2,0-1.281,0-1.281,1.281-1.281,1.2,0,1.2,0,1.2,1.2C1241.128,842.2,1241.128,842.2,1239.848,842.2Zm5.7.011c-1.937.022-1.937.033-1.937-1.883,0-.854.033-1.707-.011-2.561-.011-.46.153-.547.569-.547,1.926-.022,1.926-.033,1.926,1.883v.624c0,.646-.022,1.3.011,1.948C1246.141,842.126,1245.966,842.214,1245.55,842.214Zm4.969.011c-1.926,0-1.926.022-1.926-1.9V838.46c0-1.029.011-2.069-.011-3.108-.011-.438.044-.624.569-.624,1.926,0,1.926-.022,1.926,1.9,0,1.653-.022,3.316.011,4.969C1251.088,842.039,1251.033,842.225,1250.519,842.225Zm4.936-.011c-1.893,0-1.893.022-1.893-1.839,0-2.517.011-5.024-.011-7.53-.011-.5.131-.591.6-.591,1.893,0,1.893-.022,1.893,1.839v3.185c0,1.456-.022,2.9.011,4.345C1256.068,842.126,1255.926,842.214,1255.455,842.214Zm-15.586,14.907c-1.226,0-1.226,0-1.226,1.193,0,1.292,0,1.292,1.27,1.292,1.215,0,1.215,0,1.215-1.182C1241.128,857.121,1241.128,857.121,1239.87,857.121Zm5.013,0c-1.27,0-1.27,0-1.27,1.292,0,1.193,0,1.193,1.226,1.193,1.259,0,1.259,0,1.259-1.292C1246.1,857.121,1246.1,857.121,1244.882,857.121Zm4.991,0c-1.281,0-1.281,0-1.281,1.281,0,1.2,0,1.2,1.193,1.2,1.291,0,1.291,0,1.291-1.27C1251.077,857.121,1251.077,857.121,1249.873,857.121Zm-6.282,37.29c-1.215,0-1.215,0-1.215,1.193,0,1.292,0,1.292,1.259,1.292,1.226,0,1.226,0,1.226-1.182C1244.86,894.411,1244.86,894.411,1243.591,894.411Zm-.109-4.969c-1.105,0-1.105,0-1.105,1.138,0,1.346,0,1.346,1.291,1.346,1.193,0,1.193,0,1.193-1.138C1244.86,889.442,1244.86,889.442,1243.481,889.442Zm.142-4.969c-1.248,0-1.248,0-1.248,1.237s0,1.248,1.237,1.248,1.248,0,1.248-1.248S1244.86,884.473,1243.624,884.473Zm43.474-9.949c-1.226,0-1.226,0-1.226,1.193,0,1.292,0,1.292,1.27,1.292,1.215,0,1.215,0,1.215-1.193C1288.356,874.524,1288.356,874.524,1287.1,874.524Zm4.947,0c-1.193,0-1.193,0-1.193,1.215,0,1.27,0,1.27,1.281,1.27,1.2,0,1.2,0,1.2-1.2C1293.336,874.524,1293.336,874.524,1292.044,874.524Zm5.068,0c-1.292,0-1.292,0-1.292,1.27,0,1.215,0,1.215,1.193,1.215,1.292,0,1.292,0,1.292-1.27C1298.305,874.524,1298.305,874.524,1297.112,874.524Zm0,0c-1.292,0-1.292,0-1.292,1.27,0,1.215,0,1.215,1.193,1.215,1.292,0,1.292,0,1.292-1.27C1298.305,874.524,1298.305,874.524,1297.112,874.524Zm-5.068,0c-1.193,0-1.193,0-1.193,1.215,0,1.27,0,1.27,1.281,1.27,1.2,0,1.2,0,1.2-1.2C1293.336,874.524,1293.336,874.524,1292.044,874.524Zm-4.947,0c-1.226,0-1.226,0-1.226,1.193,0,1.292,0,1.292,1.27,1.292,1.215,0,1.215,0,1.215-1.193C1288.356,874.524,1288.356,874.524,1287.1,874.524Zm-29.125-44.754c-1.708.022-3.415,0-5.122.011-.569,0-1.324-.2-1.642.1-.383.339-.088,1.116-.131,1.7a.363.363,0,0,0,0,.153c.077.46-.142.558-.558.547-.854-.033-1.707-.022-2.561-.011-.591,0-1.357-.2-1.729.1-.383.317-.088,1.116-.12,1.7a.363.363,0,0,0,0,.153c.077.471-.142.558-.569.547-.854-.033-1.708-.022-2.561-.011-.591.011-1.357-.186-1.718.109-.383.307-.088,1.105-.131,1.7v.153c.088.46-.142.547-.558.536-1.248-.022-2.484.011-3.732-.022-.5-.011-.7.077-.689.657q.049,3.1,0,6.206c-.011.547.175.624.646.613q5.254-.016,10.485-.011,5.319,0,10.639.011c.438,0,.635-.044.624-.569q-.033-6.912,0-13.824C1258.542,829.857,1258.4,829.759,1257.973,829.77ZM1239.848,842.2c-1.2,0-1.2,0-1.2-1.2,0-1.281,0-1.281,1.281-1.281,1.2,0,1.2,0,1.2,1.2C1241.128,842.2,1241.128,842.2,1239.848,842.2Zm5.7.011c-1.937.022-1.937.033-1.937-1.883,0-.854.033-1.707-.011-2.561-.011-.46.153-.547.569-.547,1.926-.022,1.926-.033,1.926,1.883v.624c0,.646-.022,1.3.011,1.948C1246.141,842.126,1245.966,842.214,1245.55,842.214Zm4.969.011c-1.926,0-1.926.022-1.926-1.9V838.46c0-1.029.011-2.069-.011-3.108-.011-.438.044-.624.569-.624,1.926,0,1.926-.022,1.926,1.9,0,1.653-.022,3.316.011,4.969C1251.088,842.039,1251.033,842.225,1250.519,842.225Zm4.936-.011c-1.893,0-1.893.022-1.893-1.839,0-2.517.011-5.024-.011-7.53-.011-.5.131-.591.6-.591,1.893,0,1.893-.022,1.893,1.839v3.185c0,1.456-.022,2.9.011,4.345C1256.068,842.126,1255.926,842.214,1255.455,842.214Zm-5.582,14.907c-1.281,0-1.281,0-1.281,1.281,0,1.2,0,1.2,1.193,1.2,1.291,0,1.291,0,1.291-1.27C1251.077,857.121,1251.077,857.121,1249.873,857.121Zm-4.991,0c-1.27,0-1.27,0-1.27,1.292,0,1.193,0,1.193,1.226,1.193,1.259,0,1.259,0,1.259-1.292C1246.1,857.121,1246.1,857.121,1244.882,857.121Zm-1.259,27.352c-1.248,0-1.248,0-1.248,1.237s0,1.248,1.237,1.248,1.248,0,1.248-1.248S1244.86,884.473,1243.624,884.473Zm-.142,4.969c-1.105,0-1.105,0-1.105,1.138,0,1.346,0,1.346,1.291,1.346,1.193,0,1.193,0,1.193-1.138C1244.86,889.442,1244.86,889.442,1243.481,889.442Zm.109,4.969c-1.215,0-1.215,0-1.215,1.193,0,1.292,0,1.292,1.259,1.292,1.226,0,1.226,0,1.226-1.182C1244.86,894.411,1244.86,894.411,1243.591,894.411Zm-3.721-37.29c-1.226,0-1.226,0-1.226,1.193,0,1.292,0,1.292,1.27,1.292,1.215,0,1.215,0,1.215-1.182C1241.128,857.121,1241.128,857.121,1239.87,857.121Zm18.1-27.352c-1.708.022-3.415,0-5.122.011-.569,0-1.324-.2-1.642.1-.383.339-.088,1.116-.131,1.7a.363.363,0,0,0,0,.153c.077.46-.142.558-.558.547-.854-.033-1.707-.022-2.561-.011-.591,0-1.357-.2-1.729.1-.383.317-.088,1.116-.12,1.7a.363.363,0,0,0,0,.153c.077.471-.142.558-.569.547-.854-.033-1.708-.022-2.561-.011-.591.011-1.357-.186-1.718.109-.383.307-.088,1.105-.131,1.7v.153c.088.46-.142.547-.558.536-1.248-.022-2.484.011-3.732-.022-.5-.011-.7.077-.689.657q.049,3.1,0,6.206c-.011.547.175.624.646.613q5.254-.016,10.485-.011,5.319,0,10.639.011c.438,0,.635-.044.624-.569q-.033-6.912,0-13.824C1258.542,829.857,1258.4,829.759,1257.973,829.77ZM1239.848,842.2c-1.2,0-1.2,0-1.2-1.2,0-1.281,0-1.281,1.281-1.281,1.2,0,1.2,0,1.2,1.2C1241.128,842.2,1241.128,842.2,1239.848,842.2Zm5.7.011c-1.937.022-1.937.033-1.937-1.883,0-.854.033-1.707-.011-2.561-.011-.46.153-.547.569-.547,1.926-.022,1.926-.033,1.926,1.883v.624c0,.646-.022,1.3.011,1.948C1246.141,842.126,1245.966,842.214,1245.55,842.214Zm4.969.011c-1.926,0-1.926.022-1.926-1.9V838.46c0-1.029.011-2.069-.011-3.108-.011-.438.044-.624.569-.624,1.926,0,1.926-.022,1.926,1.9,0,1.653-.022,3.316.011,4.969C1251.088,842.039,1251.033,842.225,1250.519,842.225Zm4.936-.011c-1.893,0-1.893.022-1.893-1.839,0-2.517.011-5.024-.011-7.53-.011-.5.131-.591.6-.591,1.893,0,1.893-.022,1.893,1.839v3.185c0,1.456-.022,2.9.011,4.345C1256.068,842.126,1255.926,842.214,1255.455,842.214Zm-15.586,14.907c-1.226,0-1.226,0-1.226,1.193,0,1.292,0,1.292,1.27,1.292,1.215,0,1.215,0,1.215-1.182C1241.128,857.121,1241.128,857.121,1239.87,857.121Zm5.013,0c-1.27,0-1.27,0-1.27,1.292,0,1.193,0,1.193,1.226,1.193,1.259,0,1.259,0,1.259-1.292C1246.1,857.121,1246.1,857.121,1244.882,857.121Zm4.991,0c-1.281,0-1.281,0-1.281,1.281,0,1.2,0,1.2,1.193,1.2,1.291,0,1.291,0,1.291-1.27C1251.077,857.121,1251.077,857.121,1249.873,857.121Zm-6.282,37.29c-1.215,0-1.215,0-1.215,1.193,0,1.292,0,1.292,1.259,1.292,1.226,0,1.226,0,1.226-1.182C1244.86,894.411,1244.86,894.411,1243.591,894.411Zm-.109-4.969c-1.105,0-1.105,0-1.105,1.138,0,1.346,0,1.346,1.291,1.346,1.193,0,1.193,0,1.193-1.138C1244.86,889.442,1244.86,889.442,1243.481,889.442Zm.142-4.969c-1.248,0-1.248,0-1.248,1.237s0,1.248,1.237,1.248,1.248,0,1.248-1.248S1244.86,884.473,1243.624,884.473Zm43.474-9.949c-1.226,0-1.226,0-1.226,1.193,0,1.292,0,1.292,1.27,1.292,1.215,0,1.215,0,1.215-1.193C1288.356,874.524,1288.356,874.524,1287.1,874.524Zm4.947,0c-1.193,0-1.193,0-1.193,1.215,0,1.27,0,1.27,1.281,1.27,1.2,0,1.2,0,1.2-1.2C1293.336,874.524,1293.336,874.524,1292.044,874.524Zm5.068,0c-1.292,0-1.292,0-1.292,1.27,0,1.215,0,1.215,1.193,1.215,1.292,0,1.292,0,1.292-1.27C1298.305,874.524,1298.305,874.524,1297.112,874.524Zm0,0c-1.292,0-1.292,0-1.292,1.27,0,1.215,0,1.215,1.193,1.215,1.292,0,1.292,0,1.292-1.27C1298.305,874.524,1298.305,874.524,1297.112,874.524Zm-5.068,0c-1.193,0-1.193,0-1.193,1.215,0,1.27,0,1.27,1.281,1.27,1.2,0,1.2,0,1.2-1.2C1293.336,874.524,1293.336,874.524,1292.044,874.524Zm-4.947,0c-1.226,0-1.226,0-1.226,1.193,0,1.292,0,1.292,1.27,1.292,1.215,0,1.215,0,1.215-1.193C1288.356,874.524,1288.356,874.524,1287.1,874.524Zm-29.125-44.754c-1.708.022-3.415,0-5.122.011-.569,0-1.324-.2-1.642.1-.383.339-.088,1.116-.131,1.7a.363.363,0,0,0,0,.153c.077.46-.142.558-.558.547-.854-.033-1.707-.022-2.561-.011-.591,0-1.357-.2-1.729.1-.383.317-.088,1.116-.12,1.7a.363.363,0,0,0,0,.153c.077.471-.142.558-.569.547-.854-.033-1.708-.022-2.561-.011-.591.011-1.357-.186-1.718.109-.383.307-.088,1.105-.131,1.7v.153c.088.46-.142.547-.558.536-1.248-.022-2.484.011-3.732-.022-.5-.011-.7.077-.689.657q.049,3.1,0,6.206c-.011.547.175.624.646.613q5.254-.016,10.485-.011,5.319,0,10.639.011c.438,0,.635-.044.624-.569q-.033-6.912,0-13.824C1258.542,829.857,1258.4,829.759,1257.973,829.77ZM1239.848,842.2c-1.2,0-1.2,0-1.2-1.2,0-1.281,0-1.281,1.281-1.281,1.2,0,1.2,0,1.2,1.2C1241.128,842.2,1241.128,842.2,1239.848,842.2Zm5.7.011c-1.937.022-1.937.033-1.937-1.883,0-.854.033-1.707-.011-2.561-.011-.46.153-.547.569-.547,1.926-.022,1.926-.033,1.926,1.883v.624c0,.646-.022,1.3.011,1.948C1246.141,842.126,1245.966,842.214,1245.55,842.214Zm4.969.011c-1.926,0-1.926.022-1.926-1.9V838.46c0-1.029.011-2.069-.011-3.108-.011-.438.044-.624.569-.624,1.926,0,1.926-.022,1.926,1.9,0,1.653-.022,3.316.011,4.969C1251.088,842.039,1251.033,842.225,1250.519,842.225Zm4.936-.011c-1.893,0-1.893.022-1.893-1.839,0-2.517.011-5.024-.011-7.53-.011-.5.131-.591.6-.591,1.893,0,1.893-.022,1.893,1.839v3.185c0,1.456-.022,2.9.011,4.345C1256.068,842.126,1255.926,842.214,1255.455,842.214Zm-5.582,14.907c-1.281,0-1.281,0-1.281,1.281,0,1.2,0,1.2,1.193,1.2,1.291,0,1.291,0,1.291-1.27C1251.077,857.121,1251.077,857.121,1249.873,857.121Zm-4.991,0c-1.27,0-1.27,0-1.27,1.292,0,1.193,0,1.193,1.226,1.193,1.259,0,1.259,0,1.259-1.292C1246.1,857.121,1246.1,857.121,1244.882,857.121Zm-1.259,27.352c-1.248,0-1.248,0-1.248,1.237s0,1.248,1.237,1.248,1.248,0,1.248-1.248S1244.86,884.473,1243.624,884.473Zm-.142,4.969c-1.105,0-1.105,0-1.105,1.138,0,1.346,0,1.346,1.291,1.346,1.193,0,1.193,0,1.193-1.138C1244.86,889.442,1244.86,889.442,1243.481,889.442Zm.109,4.969c-1.215,0-1.215,0-1.215,1.193,0,1.292,0,1.292,1.259,1.292,1.226,0,1.226,0,1.226-1.182C1244.86,894.411,1244.86,894.411,1243.591,894.411Zm-3.721-37.29c-1.226,0-1.226,0-1.226,1.193,0,1.292,0,1.292,1.27,1.292,1.215,0,1.215,0,1.215-1.182C1241.128,857.121,1241.128,857.121,1239.87,857.121Zm18.1-27.352c-1.708.022-3.415,0-5.122.011-.569,0-1.324-.2-1.642.1-.383.339-.088,1.116-.131,1.7a.363.363,0,0,0,0,.153c.077.46-.142.558-.558.547-.854-.033-1.707-.022-2.561-.011-.591,0-1.357-.2-1.729.1-.383.317-.088,1.116-.12,1.7a.363.363,0,0,0,0,.153c.077.471-.142.558-.569.547-.854-.033-1.708-.022-2.561-.011-.591.011-1.357-.186-1.718.109-.383.307-.088,1.105-.131,1.7v.153c.088.46-.142.547-.558.536-1.248-.022-2.484.011-3.732-.022-.5-.011-.7.077-.689.657q.049,3.1,0,6.206c-.011.547.175.624.646.613q5.254-.016,10.485-.011,5.319,0,10.639.011c.438,0,.635-.044.624-.569q-.033-6.912,0-13.824C1258.542,829.857,1258.4,829.759,1257.973,829.77ZM1239.848,842.2c-1.2,0-1.2,0-1.2-1.2,0-1.281,0-1.281,1.281-1.281,1.2,0,1.2,0,1.2,1.2C1241.128,842.2,1241.128,842.2,1239.848,842.2Zm5.7.011c-1.937.022-1.937.033-1.937-1.883,0-.854.033-1.707-.011-2.561-.011-.46.153-.547.569-.547,1.926-.022,1.926-.033,1.926,1.883v.624c0,.646-.022,1.3.011,1.948C1246.141,842.126,1245.966,842.214,1245.55,842.214Zm4.969.011c-1.926,0-1.926.022-1.926-1.9V838.46c0-1.029.011-2.069-.011-3.108-.011-.438.044-.624.569-.624,1.926,0,1.926-.022,1.926,1.9,0,1.653-.022,3.316.011,4.969C1251.088,842.039,1251.033,842.225,1250.519,842.225Zm4.936-.011c-1.893,0-1.893.022-1.893-1.839,0-2.517.011-5.024-.011-7.53-.011-.5.131-.591.6-.591,1.893,0,1.893-.022,1.893,1.839v3.185c0,1.456-.022,2.9.011,4.345C1256.068,842.126,1255.926,842.214,1255.455,842.214Zm-15.586,14.907c-1.226,0-1.226,0-1.226,1.193,0,1.292,0,1.292,1.27,1.292,1.215,0,1.215,0,1.215-1.182C1241.128,857.121,1241.128,857.121,1239.87,857.121Zm5.013,0c-1.27,0-1.27,0-1.27,1.292,0,1.193,0,1.193,1.226,1.193,1.259,0,1.259,0,1.259-1.292C1246.1,857.121,1246.1,857.121,1244.882,857.121Zm4.991,0c-1.281,0-1.281,0-1.281,1.281,0,1.2,0,1.2,1.193,1.2,1.291,0,1.291,0,1.291-1.27C1251.077,857.121,1251.077,857.121,1249.873,857.121Zm-6.282,37.29c-1.215,0-1.215,0-1.215,1.193,0,1.292,0,1.292,1.259,1.292,1.226,0,1.226,0,1.226-1.182C1244.86,894.411,1244.86,894.411,1243.591,894.411Zm-.109-4.969c-1.105,0-1.105,0-1.105,1.138,0,1.346,0,1.346,1.291,1.346,1.193,0,1.193,0,1.193-1.138C1244.86,889.442,1244.86,889.442,1243.481,889.442Zm.142-4.969c-1.248,0-1.248,0-1.248,1.237s0,1.248,1.237,1.248,1.248,0,1.248-1.248S1244.86,884.473,1243.624,884.473Zm43.474-9.949c-1.226,0-1.226,0-1.226,1.193,0,1.292,0,1.292,1.27,1.292,1.215,0,1.215,0,1.215-1.193C1288.356,874.524,1288.356,874.524,1287.1,874.524Zm4.947,0c-1.193,0-1.193,0-1.193,1.215,0,1.27,0,1.27,1.281,1.27,1.2,0,1.2,0,1.2-1.2C1293.336,874.524,1293.336,874.524,1292.044,874.524Zm5.068,0c-1.292,0-1.292,0-1.292,1.27,0,1.215,0,1.215,1.193,1.215,1.292,0,1.292,0,1.292-1.27C1298.305,874.524,1298.305,874.524,1297.112,874.524Zm0,0c-1.292,0-1.292,0-1.292,1.27,0,1.215,0,1.215,1.193,1.215,1.292,0,1.292,0,1.292-1.27C1298.305,874.524,1298.305,874.524,1297.112,874.524Zm-5.068,0c-1.193,0-1.193,0-1.193,1.215,0,1.27,0,1.27,1.281,1.27,1.2,0,1.2,0,1.2-1.2C1293.336,874.524,1293.336,874.524,1292.044,874.524Zm-4.947,0c-1.226,0-1.226,0-1.226,1.193,0,1.292,0,1.292,1.27,1.292,1.215,0,1.215,0,1.215-1.193C1288.356,874.524,1288.356,874.524,1287.1,874.524Zm-29.125-44.754c-1.708.022-3.415,0-5.122.011-.569,0-1.324-.2-1.642.1-.383.339-.088,1.116-.131,1.7a.363.363,0,0,0,0,.153c.077.46-.142.558-.558.547-.854-.033-1.707-.022-2.561-.011-.591,0-1.357-.2-1.729.1-.383.317-.088,1.116-.12,1.7a.363.363,0,0,0,0,.153c.077.471-.142.558-.569.547-.854-.033-1.708-.022-2.561-.011-.591.011-1.357-.186-1.718.109-.383.307-.088,1.105-.131,1.7v.153c.088.46-.142.547-.558.536-1.248-.022-2.484.011-3.732-.022-.5-.011-.7.077-.689.657q.049,3.1,0,6.206c-.011.547.175.624.646.613q5.254-.016,10.485-.011,5.319,0,10.639.011c.438,0,.635-.044.624-.569q-.033-6.912,0-13.824C1258.542,829.857,1258.4,829.759,1257.973,829.77ZM1239.848,842.2c-1.2,0-1.2,0-1.2-1.2,0-1.281,0-1.281,1.281-1.281,1.2,0,1.2,0,1.2,1.2C1241.128,842.2,1241.128,842.2,1239.848,842.2Zm5.7.011c-1.937.022-1.937.033-1.937-1.883,0-.854.033-1.707-.011-2.561-.011-.46.153-.547.569-.547,1.926-.022,1.926-.033,1.926,1.883v.624c0,.646-.022,1.3.011,1.948C1246.141,842.126,1245.966,842.214,1245.55,842.214Zm4.969.011c-1.926,0-1.926.022-1.926-1.9V838.46c0-1.029.011-2.069-.011-3.108-.011-.438.044-.624.569-.624,1.926,0,1.926-.022,1.926,1.9,0,1.653-.022,3.316.011,4.969C1251.088,842.039,1251.033,842.225,1250.519,842.225Zm4.936-.011c-1.893,0-1.893.022-1.893-1.839,0-2.517.011-5.024-.011-7.53-.011-.5.131-.591.6-.591,1.893,0,1.893-.022,1.893,1.839v3.185c0,1.456-.022,2.9.011,4.345C1256.068,842.126,1255.926,842.214,1255.455,842.214Zm-5.582,14.907c-1.281,0-1.281,0-1.281,1.281,0,1.2,0,1.2,1.193,1.2,1.291,0,1.291,0,1.291-1.27C1251.077,857.121,1251.077,857.121,1249.873,857.121Zm-4.991,0c-1.27,0-1.27,0-1.27,1.292,0,1.193,0,1.193,1.226,1.193,1.259,0,1.259,0,1.259-1.292C1246.1,857.121,1246.1,857.121,1244.882,857.121Zm-1.259,27.352c-1.248,0-1.248,0-1.248,1.237s0,1.248,1.237,1.248,1.248,0,1.248-1.248S1244.86,884.473,1243.624,884.473Zm-.142,4.969c-1.105,0-1.105,0-1.105,1.138,0,1.346,0,1.346,1.291,1.346,1.193,0,1.193,0,1.193-1.138C1244.86,889.442,1244.86,889.442,1243.481,889.442Zm.109,4.969c-1.215,0-1.215,0-1.215,1.193,0,1.292,0,1.292,1.259,1.292,1.226,0,1.226,0,1.226-1.182C1244.86,894.411,1244.86,894.411,1243.591,894.411Zm-3.721-37.29c-1.226,0-1.226,0-1.226,1.193,0,1.292,0,1.292,1.27,1.292,1.215,0,1.215,0,1.215-1.182C1241.128,857.121,1241.128,857.121,1239.87,857.121Zm18.1-27.352c-1.708.022-3.415,0-5.122.011-.569,0-1.324-.2-1.642.1-.383.339-.088,1.116-.131,1.7a.363.363,0,0,0,0,.153c.077.46-.142.558-.558.547-.854-.033-1.707-.022-2.561-.011-.591,0-1.357-.2-1.729.1-.383.317-.088,1.116-.12,1.7a.363.363,0,0,0,0,.153c.077.471-.142.558-.569.547-.854-.033-1.708-.022-2.561-.011-.591.011-1.357-.186-1.718.109-.383.307-.088,1.105-.131,1.7v.153c.088.46-.142.547-.558.536-1.248-.022-2.484.011-3.732-.022-.5-.011-.7.077-.689.657q.049,3.1,0,6.206c-.011.547.175.624.646.613q5.254-.016,10.485-.011,5.319,0,10.639.011c.438,0,.635-.044.624-.569q-.033-6.912,0-13.824C1258.542,829.857,1258.4,829.759,1257.973,829.77ZM1239.848,842.2c-1.2,0-1.2,0-1.2-1.2,0-1.281,0-1.281,1.281-1.281,1.2,0,1.2,0,1.2,1.2C1241.128,842.2,1241.128,842.2,1239.848,842.2Zm5.7.011c-1.937.022-1.937.033-1.937-1.883,0-.854.033-1.707-.011-2.561-.011-.46.153-.547.569-.547,1.926-.022,1.926-.033,1.926,1.883v.624c0,.646-.022,1.3.011,1.948C1246.141,842.126,1245.966,842.214,1245.55,842.214Zm4.969.011c-1.926,0-1.926.022-1.926-1.9V838.46c0-1.029.011-2.069-.011-3.108-.011-.438.044-.624.569-.624,1.926,0,1.926-.022,1.926,1.9,0,1.653-.022,3.316.011,4.969C1251.088,842.039,1251.033,842.225,1250.519,842.225Zm4.936-.011c-1.893,0-1.893.022-1.893-1.839,0-2.517.011-5.024-.011-7.53-.011-.5.131-.591.6-.591,1.893,0,1.893-.022,1.893,1.839v3.185c0,1.456-.022,2.9.011,4.345C1256.068,842.126,1255.926,842.214,1255.455,842.214Zm-15.586,14.907c-1.226,0-1.226,0-1.226,1.193,0,1.292,0,1.292,1.27,1.292,1.215,0,1.215,0,1.215-1.182C1241.128,857.121,1241.128,857.121,1239.87,857.121Zm5.013,0c-1.27,0-1.27,0-1.27,1.292,0,1.193,0,1.193,1.226,1.193,1.259,0,1.259,0,1.259-1.292C1246.1,857.121,1246.1,857.121,1244.882,857.121Zm4.991,0c-1.281,0-1.281,0-1.281,1.281,0,1.2,0,1.2,1.193,1.2,1.291,0,1.291,0,1.291-1.27C1251.077,857.121,1251.077,857.121,1249.873,857.121Zm-6.282,37.29c-1.215,0-1.215,0-1.215,1.193,0,1.292,0,1.292,1.259,1.292,1.226,0,1.226,0,1.226-1.182C1244.86,894.411,1244.86,894.411,1243.591,894.411Zm-.109-4.969c-1.105,0-1.105,0-1.105,1.138,0,1.346,0,1.346,1.291,1.346,1.193,0,1.193,0,1.193-1.138C1244.86,889.442,1244.86,889.442,1243.481,889.442Zm.142-4.969c-1.248,0-1.248,0-1.248,1.237s0,1.248,1.237,1.248,1.248,0,1.248-1.248S1244.86,884.473,1243.624,884.473Zm43.474-9.949c-1.226,0-1.226,0-1.226,1.193,0,1.292,0,1.292,1.27,1.292,1.215,0,1.215,0,1.215-1.193C1288.356,874.524,1288.356,874.524,1287.1,874.524Zm4.947,0c-1.193,0-1.193,0-1.193,1.215,0,1.27,0,1.27,1.281,1.27,1.2,0,1.2,0,1.2-1.2C1293.336,874.524,1293.336,874.524,1292.044,874.524Zm5.068,0c-1.292,0-1.292,0-1.292,1.27,0,1.215,0,1.215,1.193,1.215,1.292,0,1.292,0,1.292-1.27C1298.305,874.524,1298.305,874.524,1297.112,874.524Zm0,0c-1.292,0-1.292,0-1.292,1.27,0,1.215,0,1.215,1.193,1.215,1.292,0,1.292,0,1.292-1.27C1298.305,874.524,1298.305,874.524,1297.112,874.524Zm-5.068,0c-1.193,0-1.193,0-1.193,1.215,0,1.27,0,1.27,1.281,1.27,1.2,0,1.2,0,1.2-1.2C1293.336,874.524,1293.336,874.524,1292.044,874.524Zm-4.947,0c-1.226,0-1.226,0-1.226,1.193,0,1.292,0,1.292,1.27,1.292,1.215,0,1.215,0,1.215-1.193C1288.356,874.524,1288.356,874.524,1287.1,874.524Zm-29.125-44.754c-1.708.022-3.415,0-5.122.011-.569,0-1.324-.2-1.642.1-.383.339-.088,1.116-.131,1.7a.363.363,0,0,0,0,.153c.077.46-.142.558-.558.547-.854-.033-1.707-.022-2.561-.011-.591,0-1.357-.2-1.729.1-.383.317-.088,1.116-.12,1.7a.363.363,0,0,0,0,.153c.077.471-.142.558-.569.547-.854-.033-1.708-.022-2.561-.011-.591.011-1.357-.186-1.718.109-.383.307-.088,1.105-.131,1.7v.153c.088.46-.142.547-.558.536-1.248-.022-2.484.011-3.732-.022-.5-.011-.7.077-.689.657q.049,3.1,0,6.206c-.011.547.175.624.646.613q5.254-.016,10.485-.011,5.319,0,10.639.011c.438,0,.635-.044.624-.569q-.033-6.912,0-13.824C1258.542,829.857,1258.4,829.759,1257.973,829.77ZM1239.848,842.2c-1.2,0-1.2,0-1.2-1.2,0-1.281,0-1.281,1.281-1.281,1.2,0,1.2,0,1.2,1.2C1241.128,842.2,1241.128,842.2,1239.848,842.2Zm5.7.011c-1.937.022-1.937.033-1.937-1.883,0-.854.033-1.707-.011-2.561-.011-.46.153-.547.569-.547,1.926-.022,1.926-.033,1.926,1.883v.624c0,.646-.022,1.3.011,1.948C1246.141,842.126,1245.966,842.214,1245.55,842.214Zm4.969.011c-1.926,0-1.926.022-1.926-1.9V838.46c0-1.029.011-2.069-.011-3.108-.011-.438.044-.624.569-.624,1.926,0,1.926-.022,1.926,1.9,0,1.653-.022,3.316.011,4.969C1251.088,842.039,1251.033,842.225,1250.519,842.225Zm4.936-.011c-1.893,0-1.893.022-1.893-1.839,0-2.517.011-5.024-.011-7.53-.011-.5.131-.591.6-.591,1.893,0,1.893-.022,1.893,1.839v3.185c0,1.456-.022,2.9.011,4.345C1256.068,842.126,1255.926,842.214,1255.455,842.214Zm-5.582,14.907c-1.281,0-1.281,0-1.281,1.281,0,1.2,0,1.2,1.193,1.2,1.291,0,1.291,0,1.291-1.27C1251.077,857.121,1251.077,857.121,1249.873,857.121Zm-4.991,0c-1.27,0-1.27,0-1.27,1.292,0,1.193,0,1.193,1.226,1.193,1.259,0,1.259,0,1.259-1.292C1246.1,857.121,1246.1,857.121,1244.882,857.121Zm-1.259,27.352c-1.248,0-1.248,0-1.248,1.237s0,1.248,1.237,1.248,1.248,0,1.248-1.248S1244.86,884.473,1243.624,884.473Zm-.142,4.969c-1.105,0-1.105,0-1.105,1.138,0,1.346,0,1.346,1.291,1.346,1.193,0,1.193,0,1.193-1.138C1244.86,889.442,1244.86,889.442,1243.481,889.442Zm.109,4.969c-1.215,0-1.215,0-1.215,1.193,0,1.292,0,1.292,1.259,1.292,1.226,0,1.226,0,1.226-1.182C1244.86,894.411,1244.86,894.411,1243.591,894.411Zm-3.721-37.29c-1.226,0-1.226,0-1.226,1.193,0,1.292,0,1.292,1.27,1.292,1.215,0,1.215,0,1.215-1.182C1241.128,857.121,1241.128,857.121,1239.87,857.121Zm0,0c-1.226,0-1.226,0-1.226,1.193,0,1.292,0,1.292,1.27,1.292,1.215,0,1.215,0,1.215-1.182C1241.128,857.121,1241.128,857.121,1239.87,857.121Zm5.013,0c-1.27,0-1.27,0-1.27,1.292,0,1.193,0,1.193,1.226,1.193,1.259,0,1.259,0,1.259-1.292C1246.1,857.121,1246.1,857.121,1244.882,857.121Zm4.991,0c-1.281,0-1.281,0-1.281,1.281,0,1.2,0,1.2,1.193,1.2,1.291,0,1.291,0,1.291-1.27C1251.077,857.121,1251.077,857.121,1249.873,857.121Zm-6.282,37.29c-1.215,0-1.215,0-1.215,1.193,0,1.292,0,1.292,1.259,1.292,1.226,0,1.226,0,1.226-1.182C1244.86,894.411,1244.86,894.411,1243.591,894.411Zm-.109-4.969c-1.105,0-1.105,0-1.105,1.138,0,1.346,0,1.346,1.291,1.346,1.193,0,1.193,0,1.193-1.138C1244.86,889.442,1244.86,889.442,1243.481,889.442Zm.142-4.969c-1.248,0-1.248,0-1.248,1.237s0,1.248,1.237,1.248,1.248,0,1.248-1.248S1244.86,884.473,1243.624,884.473Zm43.474-9.949c-1.226,0-1.226,0-1.226,1.193,0,1.292,0,1.292,1.27,1.292,1.215,0,1.215,0,1.215-1.193C1288.356,874.524,1288.356,874.524,1287.1,874.524Zm4.947,0c-1.193,0-1.193,0-1.193,1.215,0,1.27,0,1.27,1.281,1.27,1.2,0,1.2,0,1.2-1.2C1293.336,874.524,1293.336,874.524,1292.044,874.524Zm5.068,0c-1.292,0-1.292,0-1.292,1.27,0,1.215,0,1.215,1.193,1.215,1.292,0,1.292,0,1.292-1.27C1298.305,874.524,1298.305,874.524,1297.112,874.524Zm0,0c-1.292,0-1.292,0-1.292,1.27,0,1.215,0,1.215,1.193,1.215,1.292,0,1.292,0,1.292-1.27C1298.305,874.524,1298.305,874.524,1297.112,874.524Zm-5.068,0c-1.193,0-1.193,0-1.193,1.215,0,1.27,0,1.27,1.281,1.27,1.2,0,1.2,0,1.2-1.2C1293.336,874.524,1293.336,874.524,1292.044,874.524Zm-4.947,0c-1.226,0-1.226,0-1.226,1.193,0,1.292,0,1.292,1.27,1.292,1.215,0,1.215,0,1.215-1.193C1288.356,874.524,1288.356,874.524,1287.1,874.524Zm-37.224-17.4c-1.281,0-1.281,0-1.281,1.281,0,1.2,0,1.2,1.193,1.2,1.291,0,1.291,0,1.291-1.27C1251.077,857.121,1251.077,857.121,1249.873,857.121Zm-4.991,0c-1.27,0-1.27,0-1.27,1.292,0,1.193,0,1.193,1.226,1.193,1.259,0,1.259,0,1.259-1.292C1246.1,857.121,1246.1,857.121,1244.882,857.121Zm-1.259,27.352c-1.248,0-1.248,0-1.248,1.237s0,1.248,1.237,1.248,1.248,0,1.248-1.248S1244.86,884.473,1243.624,884.473Zm-.142,4.969c-1.105,0-1.105,0-1.105,1.138,0,1.346,0,1.346,1.291,1.346,1.193,0,1.193,0,1.193-1.138C1244.86,889.442,1244.86,889.442,1243.481,889.442Zm.109,4.969c-1.215,0-1.215,0-1.215,1.193,0,1.292,0,1.292,1.259,1.292,1.226,0,1.226,0,1.226-1.182C1244.86,894.411,1244.86,894.411,1243.591,894.411Zm-3.721-37.29c-1.226,0-1.226,0-1.226,1.193,0,1.292,0,1.292,1.27,1.292,1.215,0,1.215,0,1.215-1.182C1241.128,857.121,1241.128,857.121,1239.87,857.121Zm3.721,37.29c-1.215,0-1.215,0-1.215,1.193,0,1.292,0,1.292,1.259,1.292,1.226,0,1.226,0,1.226-1.182C1244.86,894.411,1244.86,894.411,1243.591,894.411Zm-.109-4.969c-1.105,0-1.105,0-1.105,1.138,0,1.346,0,1.346,1.291,1.346,1.193,0,1.193,0,1.193-1.138C1244.86,889.442,1244.86,889.442,1243.481,889.442Zm.142-4.969c-1.248,0-1.248,0-1.248,1.237s0,1.248,1.237,1.248,1.248,0,1.248-1.248S1244.86,884.473,1243.624,884.473Zm43.474-9.949c-1.226,0-1.226,0-1.226,1.193,0,1.292,0,1.292,1.27,1.292,1.215,0,1.215,0,1.215-1.193C1288.356,874.524,1288.356,874.524,1287.1,874.524Zm4.947,0c-1.193,0-1.193,0-1.193,1.215,0,1.27,0,1.27,1.281,1.27,1.2,0,1.2,0,1.2-1.2C1293.336,874.524,1293.336,874.524,1292.044,874.524Zm5.068,0c-1.292,0-1.292,0-1.292,1.27,0,1.215,0,1.215,1.193,1.215,1.292,0,1.292,0,1.292-1.27C1298.305,874.524,1298.305,874.524,1297.112,874.524Zm0,0c-1.292,0-1.292,0-1.292,1.27,0,1.215,0,1.215,1.193,1.215,1.292,0,1.292,0,1.292-1.27C1298.305,874.524,1298.305,874.524,1297.112,874.524Zm-5.068,0c-1.193,0-1.193,0-1.193,1.215,0,1.27,0,1.27,1.281,1.27,1.2,0,1.2,0,1.2-1.2C1293.336,874.524,1293.336,874.524,1292.044,874.524Zm-4.947,0c-1.226,0-1.226,0-1.226,1.193,0,1.292,0,1.292,1.27,1.292,1.215,0,1.215,0,1.215-1.193C1288.356,874.524,1288.356,874.524,1287.1,874.524Zm-43.474,9.949c-1.248,0-1.248,0-1.248,1.237s0,1.248,1.237,1.248,1.248,0,1.248-1.248S1244.86,884.473,1243.624,884.473Zm-.142,4.969c-1.105,0-1.105,0-1.105,1.138,0,1.346,0,1.346,1.291,1.346,1.193,0,1.193,0,1.193-1.138C1244.86,889.442,1244.86,889.442,1243.481,889.442Zm.109,4.969c-1.215,0-1.215,0-1.215,1.193,0,1.292,0,1.292,1.259,1.292,1.226,0,1.226,0,1.226-1.182C1244.86,894.411,1244.86,894.411,1243.591,894.411Zm0,0c-1.215,0-1.215,0-1.215,1.193,0,1.292,0,1.292,1.259,1.292,1.226,0,1.226,0,1.226-1.182C1244.86,894.411,1244.86,894.411,1243.591,894.411Zm-.109-4.969c-1.105,0-1.105,0-1.105,1.138,0,1.346,0,1.346,1.291,1.346,1.193,0,1.193,0,1.193-1.138C1244.86,889.442,1244.86,889.442,1243.481,889.442Zm.142-4.969c-1.248,0-1.248,0-1.248,1.237s0,1.248,1.237,1.248,1.248,0,1.248-1.248S1244.86,884.473,1243.624,884.473Zm0,0c-1.248,0-1.248,0-1.248,1.237s0,1.248,1.237,1.248,1.248,0,1.248-1.248S1244.86,884.473,1243.624,884.473Zm-.142,4.969c-1.105,0-1.105,0-1.105,1.138,0,1.346,0,1.346,1.291,1.346,1.193,0,1.193,0,1.193-1.138C1244.86,889.442,1244.86,889.442,1243.481,889.442Zm.109,4.969c-1.215,0-1.215,0-1.215,1.193,0,1.292,0,1.292,1.259,1.292,1.226,0,1.226,0,1.226-1.182C1244.86,894.411,1244.86,894.411,1243.591,894.411Z" transform="translate(0)" fill="#c20c17"/>
    <path id="Path_2458" data-name="Path 2458" d="M1282.5,889.648c0,1.237,0,1.237-1.248,1.237s-1.237,0-1.237-1.237,0-1.248,1.248-1.248S1282.5,888.4,1282.5,889.648Z" transform="translate(4.615 6.011)" fill="#c20c17"/>
    <path id="Path_2459" data-name="Path 2459" d="M1287.044,889.6c0,1.281,0,1.281-1.27,1.281-1.215,0-1.215,0-1.215-1.193,0-1.292,0-1.292,1.281-1.292C1287.044,888.4,1287.044,888.4,1287.044,889.6Z" transform="translate(5.044 6.011)" fill="#c20c17"/>
    <path id="Path_2460" data-name="Path 2460" d="M1291.585,889.593c0,1.292,0,1.292-1.27,1.292-1.215,0-1.215,0-1.215-1.193,0-1.292,0-1.292,1.27-1.292C1291.585,888.4,1291.585,888.4,1291.585,889.593Z" transform="translate(5.473 6.011)" fill="#c20c17"/>
    <path id="Path_2461" data-name="Path 2461" d="M1280.01,885.722c.011-1.861-.011-1.861,1.872-1.861h4.433c1.861,0,3.721.011,5.593-.011.438-.011.547.12.547.558.022,1.937.044,1.937-1.872,1.937-3.316,0-6.633-.011-9.938.011C1280.13,886.367,1280,886.236,1280.01,885.722Z" transform="translate(4.614 5.581)" fill="#c20c17"/>
    <path id="Path_2462" data-name="Path 2462" d="M1243.895,889.7c0,1.182,0,1.182-1.226,1.182-1.259,0-1.259,0-1.259-1.292,0-1.193,0-1.193,1.215-1.193C1243.895,888.4,1243.895,888.4,1243.895,889.7Z" transform="translate(0.966 6.011)" fill="#c20c17"/>
    <path id="Path_2463" data-name="Path 2463" d="M1243.895,885.206c0,1.138,0,1.138-1.193,1.138-1.291,0-1.291,0-1.291-1.346,0-1.138,0-1.138,1.105-1.138C1243.895,883.86,1243.895,883.86,1243.895,885.206Z" transform="translate(0.966 5.582)" fill="#c20c17"/>
    <path id="Path_2464" data-name="Path 2464" d="M1241.41,880.557c0-1.237,0-1.237,1.248-1.237s1.237,0,1.237,1.237,0,1.248-1.248,1.248S1241.41,881.8,1241.41,880.557Z" transform="translate(0.966 5.153)" fill="#c20c17"/>
    <path id="Path_2465" data-name="Path 2465" d="M1257.545,829.345c-1.708.022-3.415,0-5.122.011-.569,0-1.324-.2-1.642.1-.383.339-.088,1.116-.131,1.7a.363.363,0,0,0,0,.153c.077.46-.142.558-.558.547-.854-.033-1.707-.022-2.561-.011-.591,0-1.357-.2-1.729.1-.383.317-.088,1.116-.12,1.7a.363.363,0,0,0,0,.153c.077.471-.142.558-.569.547-.854-.033-1.708-.022-2.561-.011-.591.011-1.357-.186-1.718.109-.383.307-.088,1.105-.131,1.7v.153c.088.46-.142.547-.558.536-1.248-.022-2.484.011-3.732-.022-.5-.011-.7.077-.689.657q.049,3.1,0,6.206c-.011.547.175.624.646.613q5.254-.016,10.485-.011,5.319,0,10.639.011c.438,0,.635-.044.624-.569q-.033-6.912,0-13.824C1258.114,829.432,1257.971,829.334,1257.545,829.345Zm-18.125,12.434c-1.2,0-1.2,0-1.2-1.2,0-1.281,0-1.281,1.281-1.281,1.2,0,1.2,0,1.2,1.2C1240.7,841.778,1240.7,841.778,1239.419,841.778Zm5.7.011c-1.937.022-1.937.033-1.937-1.883,0-.854.033-1.707-.011-2.561-.011-.46.153-.547.569-.547,1.926-.022,1.926-.033,1.926,1.883v.624c0,.646-.022,1.3.011,1.948C1245.713,841.7,1245.538,841.789,1245.122,841.789Zm4.969.011c-1.926,0-1.926.022-1.926-1.9v-1.861c0-1.029.011-2.069-.011-3.108-.011-.438.044-.624.569-.624,1.926,0,1.926-.022,1.926,1.9,0,1.653-.022,3.316.011,4.969C1250.66,841.614,1250.605,841.8,1250.091,841.8Zm4.936-.011c-1.893,0-1.893.022-1.893-1.839,0-2.517.011-5.024-.011-7.53-.011-.5.131-.591.6-.591,1.893,0,1.893-.022,1.893,1.839v3.185c0,1.456-.022,2.9.011,4.345C1255.64,841.7,1255.5,841.789,1255.027,841.789Z" transform="translate(0.428 0.425)" fill="#c20c17"/>
    <path id="Path_2466" data-name="Path 2466" d="M1283.635,871.522c0,1.193,0,1.193-1.215,1.193-1.27,0-1.27,0-1.27-1.292,0-1.193,0-1.193,1.226-1.193C1283.635,870.23,1283.635,870.23,1283.635,871.522Z" transform="translate(4.721 4.294)" fill="#c20c17"/>
    <path id="Path_2467" data-name="Path 2467" d="M1288.185,871.511c0,1.2,0,1.2-1.2,1.2-1.281,0-1.281,0-1.281-1.27,0-1.215,0-1.215,1.193-1.215C1288.185,870.23,1288.185,870.23,1288.185,871.511Z" transform="translate(5.151 4.294)" fill="#c20c17"/>
    <path id="Path_2468" data-name="Path 2468" d="M1292.725,871.445c0,1.27,0,1.27-1.292,1.27-1.193,0-1.193,0-1.193-1.215,0-1.27,0-1.27,1.292-1.27C1292.725,870.23,1292.725,870.23,1292.725,871.445Z" transform="translate(5.58 4.294)" fill="#c20c17"/>
    <path id="Path_2469" data-name="Path 2469" d="M1240.485,855.633c0,1.182,0,1.182-1.215,1.182-1.27,0-1.27,0-1.27-1.292,0-1.193,0-1.193,1.226-1.193C1240.485,854.33,1240.485,854.33,1240.485,855.633Z" transform="translate(0.644 2.791)" fill="#c20c17"/>
    <path id="Path_2470" data-name="Path 2470" d="M1245.025,855.523c0,1.292,0,1.292-1.259,1.292-1.226,0-1.226,0-1.226-1.193,0-1.292,0-1.292,1.27-1.292C1245.025,854.33,1245.025,854.33,1245.025,855.523Z" transform="translate(1.073 2.791)" fill="#c20c17"/>
    <path id="Path_2471" data-name="Path 2471" d="M1249.574,855.545c0,1.27,0,1.27-1.291,1.27-1.193,0-1.193,0-1.193-1.2,0-1.281,0-1.281,1.281-1.281C1249.574,854.33,1249.574,854.33,1249.574,855.545Z" transform="translate(1.503 2.791)" fill="#c20c17"/>
    <path id="Path_2472" data-name="Path 2472" d="M1290.583,886.346c-3.316,0-6.633-.011-9.938.011-.514.011-.646-.12-.635-.635.011-1.861-.011-1.861,1.872-1.861h4.433c1.861,0,3.721.011,5.593-.011.438-.011.547.12.547.558C1292.476,886.346,1292.5,886.346,1290.583,886.346Z" transform="translate(4.614 5.581)" fill="#c20c17"/>
    <path id="Path_2473" data-name="Path 2473" d="M1282.5,889.648c0,1.237,0,1.237-1.248,1.237s-1.237,0-1.237-1.237,0-1.248,1.248-1.248S1282.5,888.4,1282.5,889.648Z" transform="translate(4.615 6.011)" fill="#c20c17"/>
    <path id="Path_2474" data-name="Path 2474" d="M1287.044,889.6c0,1.281,0,1.281-1.27,1.281-1.215,0-1.215,0-1.215-1.193,0-1.292,0-1.292,1.281-1.292C1287.044,888.4,1287.044,888.4,1287.044,889.6Z" transform="translate(5.044 6.011)" fill="#c20c17"/>
    <path id="Path_2475" data-name="Path 2475" d="M1291.585,889.593c0,1.292,0,1.292-1.27,1.292-1.215,0-1.215,0-1.215-1.193,0-1.292,0-1.292,1.27-1.292C1291.585,888.4,1291.585,888.4,1291.585,889.593Z" transform="translate(5.473 6.011)" fill="#c20c17"/>
    <path id="Path_2476" data-name="Path 2476" d="M1243.895,880.557c0,1.248,0,1.248-1.248,1.248s-1.237,0-1.237-1.248,0-1.237,1.248-1.237S1243.895,879.32,1243.895,880.557Z" transform="translate(0.966 5.153)" fill="#c20c17"/>
    <path id="Path_2477" data-name="Path 2477" d="M1243.895,885.206c0,1.138,0,1.138-1.193,1.138-1.291,0-1.291,0-1.291-1.346,0-1.138,0-1.138,1.105-1.138C1243.895,883.86,1243.895,883.86,1243.895,885.206Z" transform="translate(0.966 5.582)" fill="#c20c17"/>
    <path id="Path_2478" data-name="Path 2478" d="M1243.895,889.7c0,1.182,0,1.182-1.226,1.182-1.259,0-1.259,0-1.259-1.292,0-1.193,0-1.193,1.215-1.193C1243.895,888.4,1243.895,888.4,1243.895,889.7Z" transform="translate(0.966 6.011)" fill="#c20c17"/>
    <path id="Path_2479" data-name="Path 2479" d="M1257.545,829.345c-1.708.022-3.415,0-5.122.011-.569,0-1.324-.2-1.642.1-.383.339-.088,1.116-.131,1.7a.363.363,0,0,0,0,.153c.077.46-.142.558-.558.547-.854-.033-1.707-.022-2.561-.011-.591,0-1.357-.2-1.729.1-.383.317-.088,1.116-.12,1.7a.363.363,0,0,0,0,.153c.077.471-.142.558-.569.547-.854-.033-1.708-.022-2.561-.011-.591.011-1.357-.186-1.718.109-.383.307-.088,1.105-.131,1.7v.153c.088.46-.142.547-.558.536-1.248-.022-2.484.011-3.732-.022-.5-.011-.7.077-.689.657q.049,3.1,0,6.206c-.011.547.175.624.646.613q5.254-.016,10.485-.011,5.319,0,10.639.011c.438,0,.635-.044.624-.569q-.033-6.912,0-13.824C1258.114,829.432,1257.971,829.334,1257.545,829.345Zm-18.125,12.434c-1.2,0-1.2,0-1.2-1.2,0-1.281,0-1.281,1.281-1.281,1.2,0,1.2,0,1.2,1.2C1240.7,841.778,1240.7,841.778,1239.419,841.778Zm5.7.011c-1.937.022-1.937.033-1.937-1.883,0-.854.033-1.707-.011-2.561-.011-.46.153-.547.569-.547,1.926-.022,1.926-.033,1.926,1.883v.624c0,.646-.022,1.3.011,1.948C1245.713,841.7,1245.538,841.789,1245.122,841.789Zm4.969.011c-1.926,0-1.926.022-1.926-1.9v-1.861c0-1.029.011-2.069-.011-3.108-.011-.438.044-.624.569-.624,1.926,0,1.926-.022,1.926,1.9,0,1.653-.022,3.316.011,4.969C1250.66,841.614,1250.605,841.8,1250.091,841.8Zm4.936-.011c-1.893,0-1.893.022-1.893-1.839,0-2.517.011-5.024-.011-7.53-.011-.5.131-.591.6-.591,1.893,0,1.893-.022,1.893,1.839v3.185c0,1.456-.022,2.9.011,4.345C1255.64,841.7,1255.5,841.789,1255.027,841.789Z" transform="translate(0.428 0.425)" fill="#c20c17"/>
    <path id="Path_2480" data-name="Path 2480" d="M1283.635,871.522c0,1.193,0,1.193-1.215,1.193-1.27,0-1.27,0-1.27-1.292,0-1.193,0-1.193,1.226-1.193C1283.635,870.23,1283.635,870.23,1283.635,871.522Z" transform="translate(4.721 4.294)" fill="#c20c17"/>
    <path id="Path_2481" data-name="Path 2481" d="M1288.185,871.511c0,1.2,0,1.2-1.2,1.2-1.281,0-1.281,0-1.281-1.27,0-1.215,0-1.215,1.193-1.215C1288.185,870.23,1288.185,870.23,1288.185,871.511Z" transform="translate(5.151 4.294)" fill="#c20c17"/>
    <path id="Path_2482" data-name="Path 2482" d="M1292.725,871.445c0,1.27,0,1.27-1.292,1.27-1.193,0-1.193,0-1.193-1.215,0-1.27,0-1.27,1.292-1.27C1292.725,870.23,1292.725,870.23,1292.725,871.445Z" transform="translate(5.58 4.294)" fill="#c20c17"/>
    <path id="Path_2483" data-name="Path 2483" d="M1249.574,855.545c0,1.27,0,1.27-1.291,1.27-1.193,0-1.193,0-1.193-1.2,0-1.281,0-1.281,1.281-1.281C1249.574,854.33,1249.574,854.33,1249.574,855.545Z" transform="translate(1.503 2.791)" fill="#c20c17"/>
    <path id="Path_2484" data-name="Path 2484" d="M1240.485,855.633c0,1.182,0,1.182-1.215,1.182-1.27,0-1.27,0-1.27-1.292,0-1.193,0-1.193,1.226-1.193C1240.485,854.33,1240.485,854.33,1240.485,855.633Z" transform="translate(0.644 2.791)" fill="#c20c17"/>
    <path id="Path_2485" data-name="Path 2485" d="M1245.025,855.523c0,1.292,0,1.292-1.259,1.292-1.226,0-1.226,0-1.226-1.193,0-1.292,0-1.292,1.27-1.292C1245.025,854.33,1245.025,854.33,1245.025,855.523Z" transform="translate(1.073 2.791)" fill="#c20c17"/>
  </g>
</svg>
