<svg xmlns="http://www.w3.org/2000/svg" width="77.13" height="77.091" viewBox="0 0 77.13 77.091">
  <g id="Group_1884" data-name="Group 1884" transform="translate(-1314.463 -824.199)">
    <path id="Path_2486" data-name="Path 2486" d="M1387.79,892.849c-1.682.022-3.365,0-5.047.022-.421.011-.571-.086-.561-.539q.032-4.433-.011-8.854c0-.528.194-.582.625-.572,1.273.022,2.534.011,3.807.011,1.812,0,1.79,0,1.812-1.78.011-.55-.086-.733-.7-.723-2.588.032-5.177.022-7.765.011a1.287,1.287,0,0,1-1.5-1.38,3.662,3.662,0,0,0-3.2-3.537c-.528-.076-.528-.291-.528-.679.022-1.456.011-2.9.011-4.357,0-2.383-.151-2.534-2.567-2.47a4.952,4.952,0,0,0-4.767,3.915,10.95,10.95,0,0,0-.108,2.783c.011.572-.108.787-.744.776-2.588-.043-5.177-.011-7.765-.022a3.683,3.683,0,0,0-3.473,1.941,3.486,3.486,0,0,0,.248,3.936.485.485,0,0,1,0,.669,3.544,3.544,0,0,0,.011,4.325c.14.216.2.345.032.6a3.518,3.518,0,0,0-.022,4.389.413.413,0,0,1,0,.593,3.513,3.513,0,0,0-.248,4.012,3.737,3.737,0,0,0,3.559,1.92c4.012-.022,8.024-.043,12.036.011a8.642,8.642,0,0,0,5.317-1.6,5,5,0,0,1,2.987-.917c1.37.022,2.75.011,4.12.011h3.182c1.92,0,1.9,0,1.9-1.93C1388.426,892.892,1388.221,892.849,1387.79,892.849Zm-8.078-.475c0,.453-.173.5-.539.5a7.382,7.382,0,0,0-4.5,1.434,5.784,5.784,0,0,1-3.494,1.057c-1.974-.032-3.937-.011-5.91-.011h-6.363c-1-.011-1.564-.442-1.585-1.208-.022-.809.561-1.283,1.585-1.283,2.179,0,4.357-.011,6.536.011.474.011.647-.108.593-.593-.075-.6.248-1.413-.129-1.79s-1.176-.1-1.79-.108c-1.758-.011-3.516,0-5.274-.011-.971,0-1.542-.485-1.521-1.273.022-.744.572-1.208,1.5-1.208,2.2,0,4.4-.011,6.611.011.453,0,.6-.076.6-.582,0-1.92.022-1.92-1.909-1.92-1.7,0-3.419.011-5.123,0-1.111,0-1.693-.442-1.682-1.262.022-.8.582-1.219,1.65-1.219,2.114,0,4.238-.032,6.363.011.615.022.712-.173.7-.723-.032-1.779-.011-1.779-1.736-1.779-1.812,0-3.624.011-5.436,0-.981,0-1.542-.464-1.542-1.251s.572-1.229,1.553-1.229c3.084-.011,6.169,0,9.253,0,1.208-.011,1.618-.421,1.629-1.628,0-1.122-.022-2.232,0-3.343a2.519,2.519,0,0,1,1.92-2.437c.431-.108.582-.032.572.453-.021,1.79-.011,3.581-.011,5.36.011,1.165.431,1.585,1.6,1.6.259,0,.518-.011.777,0a1.258,1.258,0,0,1,1.359,1.273,3.689,3.689,0,0,0,3.343,3.667c.356.065.4.183.4.485C1379.7,886.367,1379.691,889.376,1379.712,892.375Z" transform="translate(3.167 3.437)" fill="#c20c17"/>
    <path id="Path_2487" data-name="Path 2487" d="M1347.343,883.812a3.511,3.511,0,0,0,.011-4.271.511.511,0,0,1,.011-.723,3.543,3.543,0,0,0-.022-4.271.472.472,0,0,1-.011-.658,3.522,3.522,0,0,0,.248-3.947,3.7,3.7,0,0,0-3.537-1.952c-4.033.011-8.078.032-12.111-.011a8.533,8.533,0,0,0-5.241,1.564,5.1,5.1,0,0,1-3.138.938c-2.383-.011-4.767,0-7.15,0-1.974,0-1.963,0-1.931,1.963,0,.475.173.539.582.528,1.6-.021,3.2.022,4.81-.021.636-.022.9.086.863.82-.076,1.37-.022,2.739-.022,4.109,0,1.424-.032,2.847.011,4.271.011.561-.076.82-.734.787-1.219-.065-2.437-.022-3.645-.022-1.876,0-1.855,0-1.866,1.877-.011.539.173.625.647.615,2.621-.022,5.231-.011,7.851,0a1.267,1.267,0,0,1,1.467,1.326,3.675,3.675,0,0,0,3.235,3.591c.464.076.5.248.5.626-.021,1.456.032,2.9-.021,4.357-.086,2.578.442,2.588,2.61,2.524a4.967,4.967,0,0,0,4.745-3.947,12.081,12.081,0,0,0,.1-2.858c-.011-.572.172-.669.7-.669,2.642.032,5.274.022,7.916.011a3.613,3.613,0,0,0,3.376-1.963,3.5,3.5,0,0,0-.227-3.872C1347.181,884.254,1347.138,884.1,1347.343,883.812Zm-8.639-8.358h5.36c.927.011,1.478.464,1.5,1.219.021.777-.55,1.262-1.521,1.273-2.2,0-4.4.011-6.6-.021-.485,0-.593.129-.593.6,0,1.9-.011,1.9,1.844,1.9h5.36c.96.011,1.531.507,1.51,1.283-.022.755-.572,1.2-1.51,1.208-2.2,0-4.4.011-6.6-.011-.464-.011-.6.1-.6.582,0,1.909-.022,1.909,1.909,1.909,1.769,0,3.527,0,5.285.011.971,0,1.542.485,1.521,1.262-.022.755-.572,1.208-1.5,1.219h-9.318c-1.208,0-1.607.41-1.607,1.65-.011,1.111.011,2.222-.011,3.333a2.485,2.485,0,0,1-1.79,2.373c-.507.172-.723.119-.7-.507.032-1.628.011-3.257.011-4.885,0-1.661-.3-1.963-1.92-1.963-.183,0-.367.011-.55,0a1.254,1.254,0,0,1-1.262-1.219c-.237-2.222-1.219-3.333-3.354-3.732-.291-.054-.388-.119-.377-.421.011-3.052,0-6.1,0-9.156,0-.313.086-.41.388-.4a8.013,8.013,0,0,0,4.983-1.661,4.763,4.763,0,0,1,2.782-.82H1344c.992,0,1.553.453,1.564,1.219.011.809-.561,1.262-1.607,1.262-2.146.011-4.292.022-6.449,0-.464-.011-.669.054-.658.6C1336.86,875.454,1336.838,875.454,1338.7,875.454Z" transform="translate(0 3.436)" fill="#c20c17"/>
    <path id="Path_2488" data-name="Path 2488" d="M1346.941,834.672c0,1.219,0,1.219-1.186,1.219-1.294,0-1.294,0-1.294-1.273,0-1.208,0-1.208,1.186-1.208C1346.941,833.41,1346.941,833.41,1346.941,834.672Z" transform="translate(2.354 0.723)" fill="#c20c17"/>
    <path id="Path_2489" data-name="Path 2489" d="M1351.551,834.683c0,1.208,0,1.208-1.2,1.208-1.283,0-1.283,0-1.283-1.273,0-1.208,0-1.208,1.2-1.208C1351.551,833.41,1351.551,833.41,1351.551,834.683Z" transform="translate(2.716 0.723)" fill="#c20c17"/>
    <path id="Path_2490" data-name="Path 2490" d="M1356.171,834.629c0,1.262,0,1.262-1.229,1.262-1.262,0-1.262,0-1.262-1.229,0-1.251,0-1.251,1.3-1.251C1356.171,833.41,1356.171,833.41,1356.171,834.629Z" transform="translate(3.078 0.723)" fill="#c20c17"/>
    <path id="Path_2491" data-name="Path 2491" d="M1362.067,833.475a11.189,11.189,0,1,0-12.963,12.9c.572.1.7.259.7.809-.021,3.527-.011,7.053-.011,10.569v9.48c0,1.715,0,1.682,1.7,1.726.658.022.8-.151.8-.8q-.032-10.483-.022-20.977c0-.388-.065-.7.539-.787A11.182,11.182,0,0,0,1362.067,833.475Zm-10.99,10.6a8.7,8.7,0,1,1,8.66-8.725A8.741,8.741,0,0,1,1351.077,844.077Z" transform="translate(1.992)" fill="#c20c17"/>
    <path id="Path_2492" data-name="Path 2492" d="M1372.311,850.78c0,1.251,0,1.251-1.3,1.251-1.186,0-1.186,0-1.186-1.229,0-1.251,0-1.251,1.229-1.251C1372.311,849.55,1372.311,849.55,1372.311,850.78Z" transform="translate(4.344 1.99)" fill="#c20c17"/>
    <path id="Path_2493" data-name="Path 2493" d="M1376.921,850.736c0,1.294,0,1.294-1.348,1.294-1.143,0-1.143,0-1.143-1.111,0-1.37,0-1.37,1.348-1.37C1376.921,849.55,1376.921,849.55,1376.921,850.736Z" transform="translate(4.706 1.99)" fill="#c20c17"/>
    <path id="Path_2494" data-name="Path 2494" d="M1381.531,850.887c0,1.143,0,1.143-1.186,1.143-1.3,0-1.3,0-1.3-1.337,0-1.143,0-1.143,1.186-1.143C1381.531,849.55,1381.531,849.55,1381.531,850.887Z" transform="translate(5.068 1.99)" fill="#c20c17"/>
    <path id="Path_2495" data-name="Path 2495" d="M1388.51,850.717a11.177,11.177,0,1,0-20.955,6.147c.3.539.194.744-.281,1.035-4.238,2.578-8.466,5.188-12.694,7.787-.474.291-1.219.528-1.359.938-.162.485.539.971.766,1.51.259.593.539.528,1.025.227,4.616-2.869,9.243-5.705,13.859-8.563a.759.759,0,0,1,1.1.1,10.768,10.768,0,0,0,8.908,2.685A11.184,11.184,0,0,0,1388.51,850.717Zm-11.141,9.5a8.7,8.7,0,1,1,8.671-8.714A8.724,8.724,0,0,1,1377.369,860.218Z" transform="translate(3.04 1.265)" fill="#c20c17"/>
    <path id="Path_2496" data-name="Path 2496" d="M1321.581,850.812c0,1.219,0,1.219-1.186,1.219-1.305,0-1.305,0-1.305-1.262,0-1.219,0-1.219,1.186-1.219C1321.581,849.55,1321.581,849.55,1321.581,850.812Z" transform="translate(0.363 1.99)" fill="#c20c17"/>
    <path id="Path_2497" data-name="Path 2497" d="M1326.191,850.8c0,1.229,0,1.229-1.251,1.229s-1.24,0-1.24-1.251c0-1.229,0-1.229,1.262-1.229C1326.191,849.55,1326.191,849.55,1326.191,850.8Z" transform="translate(0.725 1.99)" fill="#c20c17"/>
    <path id="Path_2498" data-name="Path 2498" d="M1330.8,850.8c0,1.229,0,1.229-1.251,1.229-1.229,0-1.229,0-1.229-1.251,0-1.229,0-1.229,1.251-1.229C1330.8,849.55,1330.8,849.55,1330.8,850.8Z" transform="translate(1.087 1.99)" fill="#c20c17"/>
    <path id="Path_2499" data-name="Path 2499" d="M1349.358,866.236c-4.573-2.782-9.124-5.6-13.686-8.391-.453-.27-.507-.442-.237-.917a10.783,10.783,0,0,0,1.3-6.956,11.194,11.194,0,0,0-11.874-9.631c-5.792.388-10.375,5.328-10.386,11.906a10.653,10.653,0,0,0,6.633,9.448c4.292,1.92,8.337,1.208,11.939-1.812a.758.758,0,0,1,1.1-.076q6.455,4,12.942,7.97c.5.313,1.057.884,1.51.82.475-.086.625-.938,1-1.391C1350.005,866.722,1349.822,866.517,1349.358,866.236Zm-23.64-6.018a8.7,8.7,0,1,1,8.66-8.725A8.731,8.731,0,0,1,1325.718,860.218Z" transform="translate(0.001 1.265)" fill="#c20c17"/>
    <path id="Path_2500" data-name="Path 2500" d="M1346.941,834.672c0,1.219,0,1.219-1.186,1.219-1.294,0-1.294,0-1.294-1.273,0-1.208,0-1.208,1.186-1.208C1346.941,833.41,1346.941,833.41,1346.941,834.672Z" transform="translate(2.354 0.723)" fill="#c20c17"/>
    <path id="Path_2501" data-name="Path 2501" d="M1351.551,834.683c0,1.208,0,1.208-1.2,1.208-1.283,0-1.283,0-1.283-1.273,0-1.208,0-1.208,1.2-1.208C1351.551,833.41,1351.551,833.41,1351.551,834.683Z" transform="translate(2.716 0.723)" fill="#c20c17"/>
    <path id="Path_2502" data-name="Path 2502" d="M1356.171,834.629c0,1.262,0,1.262-1.229,1.262-1.262,0-1.262,0-1.262-1.229,0-1.251,0-1.251,1.3-1.251C1356.171,833.41,1356.171,833.41,1356.171,834.629Z" transform="translate(3.078 0.723)" fill="#c20c17"/>
    <path id="Path_2503" data-name="Path 2503" d="M1372.311,850.78c0,1.251,0,1.251-1.3,1.251-1.186,0-1.186,0-1.186-1.229,0-1.251,0-1.251,1.229-1.251C1372.311,849.55,1372.311,849.55,1372.311,850.78Z" transform="translate(4.344 1.99)" fill="#c20c17"/>
    <path id="Path_2504" data-name="Path 2504" d="M1376.921,850.736c0,1.294,0,1.294-1.348,1.294-1.143,0-1.143,0-1.143-1.111,0-1.37,0-1.37,1.348-1.37C1376.921,849.55,1376.921,849.55,1376.921,850.736Z" transform="translate(4.706 1.99)" fill="#c20c17"/>
    <path id="Path_2505" data-name="Path 2505" d="M1381.531,850.887c0,1.143,0,1.143-1.186,1.143-1.3,0-1.3,0-1.3-1.337,0-1.143,0-1.143,1.186-1.143C1381.531,849.55,1381.531,849.55,1381.531,850.887Z" transform="translate(5.068 1.99)" fill="#c20c17"/>
    <path id="Path_2506" data-name="Path 2506" d="M1321.581,850.812c0,1.219,0,1.219-1.186,1.219-1.305,0-1.305,0-1.305-1.262,0-1.219,0-1.219,1.186-1.219C1321.581,849.55,1321.581,849.55,1321.581,850.812Z" transform="translate(0.363 1.99)" fill="#c20c17"/>
    <path id="Path_2507" data-name="Path 2507" d="M1326.191,850.8c0,1.229,0,1.229-1.251,1.229s-1.24,0-1.24-1.251c0-1.229,0-1.229,1.262-1.229C1326.191,849.55,1326.191,849.55,1326.191,850.8Z" transform="translate(0.725 1.99)" fill="#c20c17"/>
    <path id="Path_2508" data-name="Path 2508" d="M1330.8,850.8c0,1.229,0,1.229-1.251,1.229-1.229,0-1.229,0-1.229-1.251,0-1.229,0-1.229,1.251-1.229C1330.8,849.55,1330.8,849.55,1330.8,850.8Z" transform="translate(1.087 1.99)" fill="#c20c17"/>
    <path id="Path_2509" data-name="Path 2509" d="M1346.941,834.672c0,1.219,0,1.219-1.186,1.219-1.294,0-1.294,0-1.294-1.273,0-1.208,0-1.208,1.186-1.208C1346.941,833.41,1346.941,833.41,1346.941,834.672Z" transform="translate(2.354 0.723)" fill="#c20c17"/>
    <path id="Path_2510" data-name="Path 2510" d="M1351.551,834.683c0,1.208,0,1.208-1.2,1.208-1.283,0-1.283,0-1.283-1.273,0-1.208,0-1.208,1.2-1.208C1351.551,833.41,1351.551,833.41,1351.551,834.683Z" transform="translate(2.716 0.723)" fill="#c20c17"/>
    <path id="Path_2511" data-name="Path 2511" d="M1356.171,834.629c0,1.262,0,1.262-1.229,1.262-1.262,0-1.262,0-1.262-1.229,0-1.251,0-1.251,1.3-1.251C1356.171,833.41,1356.171,833.41,1356.171,834.629Z" transform="translate(3.078 0.723)" fill="#c20c17"/>
    <path id="Path_2512" data-name="Path 2512" d="M1372.311,850.78c0,1.251,0,1.251-1.3,1.251-1.186,0-1.186,0-1.186-1.229,0-1.251,0-1.251,1.229-1.251C1372.311,849.55,1372.311,849.55,1372.311,850.78Z" transform="translate(4.344 1.99)" fill="#c20c17"/>
    <path id="Path_2513" data-name="Path 2513" d="M1376.921,850.736c0,1.294,0,1.294-1.348,1.294-1.143,0-1.143,0-1.143-1.111,0-1.37,0-1.37,1.348-1.37C1376.921,849.55,1376.921,849.55,1376.921,850.736Z" transform="translate(4.706 1.99)" fill="#c20c17"/>
    <path id="Path_2514" data-name="Path 2514" d="M1381.531,850.887c0,1.143,0,1.143-1.186,1.143-1.3,0-1.3,0-1.3-1.337,0-1.143,0-1.143,1.186-1.143C1381.531,849.55,1381.531,849.55,1381.531,850.887Z" transform="translate(5.068 1.99)" fill="#c20c17"/>
    <path id="Path_2515" data-name="Path 2515" d="M1321.581,850.812c0,1.219,0,1.219-1.186,1.219-1.305,0-1.305,0-1.305-1.262,0-1.219,0-1.219,1.186-1.219C1321.581,849.55,1321.581,849.55,1321.581,850.812Z" transform="translate(0.363 1.99)" fill="#c20c17"/>
    <path id="Path_2516" data-name="Path 2516" d="M1326.191,850.8c0,1.229,0,1.229-1.251,1.229s-1.24,0-1.24-1.251c0-1.229,0-1.229,1.262-1.229C1326.191,849.55,1326.191,849.55,1326.191,850.8Z" transform="translate(0.725 1.99)" fill="#c20c17"/>
    <path id="Path_2517" data-name="Path 2517" d="M1330.8,850.8c0,1.229,0,1.229-1.251,1.229-1.229,0-1.229,0-1.229-1.251,0-1.229,0-1.229,1.251-1.229C1330.8,849.55,1330.8,849.55,1330.8,850.8Z" transform="translate(1.087 1.99)" fill="#c20c17"/>
  </g>
</svg>
