<svg xmlns="http://www.w3.org/2000/svg" width="72.131" height="72.116" viewBox="0 0 72.131 72.116">
  <g id="Group_1886" data-name="Group 1886" transform="translate(-1487.074 -826.475)">
    <path id="Path_2563" data-name="Path 2563" d="M1487.074,830.138c.126-.06.117-.186.149-.3a4.484,4.484,0,0,1,4.48-3.363q7.217-.013,14.435,0h36.051c3.146,0,5,1.837,5,4.97,0,8.614-.007,17.227.017,25.841,0,.637-.165.818-.773.749-.737-.083-1.73.308-2.151-.157-.366-.406-.118-1.38-.118-2.1q0-12.111,0-24.222c0-1.644-.443-2.085-2.088-2.085h-49.923c-1.575,0-2.078.495-2.078,2.046q0,17.5,0,35c0,1.549.505,2.046,2.079,2.046,6.08,0,12.158.012,18.236-.017.647,0,.806.182.754.783a15.552,15.552,0,0,0-.006,1.829c.01.308-.095.41-.4.4-.68-.018-1.362.017-2.042-.014-.43-.02-.615.062-.6.561.035,1.642.028,3.286,0,4.928-.007.443.131.556.559.55,1.643-.023,3.286,0,4.929-.019.413-.006.593.069.552.528a22.721,22.721,0,0,1-.083,2.437c-.771.013-1.541.035-2.312.036-3,0-6.008-.009-9.013.013-.479,0-.66-.093-.621-.6a17.829,17.829,0,0,0,.005-1.97c-.013-.338.1-.448.435-.437.656.024,1.317-.028,1.97.019.517.037.615-.159.605-.633-.028-1.548-.038-3.1,0-4.646.016-.586-.091-.78-.74-.774-4.107.037-8.215.019-12.322.019-2.626,0-4.058-1.049-4.885-3.57-.012-.037-.063-.062-.1-.093Z" transform="translate(0)" fill="#c20c17"/>
    <path id="Path_2564" data-name="Path 2564" d="M1538.407,868.394a6.628,6.628,0,0,0-.916-.011v-.032c-.463,0-1.031.168-1.368-.042-.368-.232-.179-.863-.263-1.316a7.52,7.52,0,0,0-6.842-6.073c-.463-.042-.589-.168-.568-.61a12.208,12.208,0,0,0,0-1.758c-.042-.526.095-.705.653-.653a10.394,10.394,0,0,1,9.042,6.389,10.632,10.632,0,0,1,.842,3.473C1539.028,868.215,1538.955,868.468,1538.407,868.394Z" transform="translate(2.174 1.651)" fill="#c20c17"/>
    <path id="Path_2565" data-name="Path 2565" d="M1557.083,890.156c-2.779-2.768-5.589-5.5-8.3-8.326-1.547-1.6-2.368-1.61-3.652-.042-.274.337-.432.179-.653-.042-.81-.821-1.61-1.642-2.442-2.431-.347-.316-.295-.505-.031-.842a15.9,15.9,0,0,0,3.263-12.157,16.317,16.317,0,1,0-6.221,15.1c.368-.284.558-.337.895.021.768.832,1.568,1.621,2.389,2.4.326.295.347.495-.01.747a2.6,2.6,0,0,0-.295.295c-1.095,1.095-1.095,1.747,0,2.852q4.389,4.373,8.757,8.757a3.5,3.5,0,0,0,1.01.747h.842c.295-.242.61-.474.884-.747,1.2-1.189,2.4-2.389,3.589-3.579C1558.114,891.892,1558.1,891.187,1557.083,890.156Zm-27.966-8.347a13.325,13.325,0,1,1,13.283-13.367A13.337,13.337,0,0,1,1529.117,881.809Zm24.851,9.989c-.516.516-1.042,1.01-1.537,1.547-.253.284-.379.179-.589-.032q-3.347-3.363-6.715-6.7c-.242-.253-.221-.379.011-.6.505-.463.979-.947,1.442-1.442.232-.242.379-.295.653-.021,2.221,2.252,4.463,4.484,6.694,6.715a2.568,2.568,0,0,0,.305.221C1554.115,891.629,1554.041,891.713,1553.967,891.8Z" transform="translate(1.35 1.351)" fill="#c20c17"/>
    <path id="Path_2566" data-name="Path 2566" d="M1534.384,835.653a4.493,4.493,0,1,0-8.631,2.463.792.792,0,0,1-.221.968c-1.252,1.2-2.473,2.442-3.694,3.673a.666.666,0,0,1-.842.211,3.99,3.99,0,0,0-2.958,0,.725.725,0,0,1-.905-.232c-1.2-1.221-2.41-2.442-3.631-3.631a.827.827,0,0,1-.263-1.021,4.389,4.389,0,0,0-1.631-5.042,4.488,4.488,0,0,0-5.252,0,4.414,4.414,0,0,0-1.631,5.052.823.823,0,0,1-.263,1.01c-1.726,1.695-3.41,3.421-5.147,5.1-.358.358-.347.558.021.874a11.523,11.523,0,0,1,1.242,1.242c.326.379.526.411.905.021,1.684-1.737,3.41-3.431,5.1-5.147a.779.779,0,0,1,.968-.253,3.9,3.9,0,0,0,2.884-.011.716.716,0,0,1,.905.242q1.8,1.832,3.642,3.631a.834.834,0,0,1,.242,1.021,4.485,4.485,0,1,0,8.536.021.9.9,0,0,1,.295-1.084c1.179-1.137,2.347-2.295,3.484-3.484a.99.99,0,0,1,1.2-.295,4.482,4.482,0,0,0,5.642-5.336Zm-25.377,2.526a1.505,1.505,0,0,1-1.537-1.505,1.511,1.511,0,0,1,3.021.032A1.5,1.5,0,0,1,1509.007,838.179Zm10.473,10.536a1.524,1.524,0,0,1-1.484-1.484,1.488,1.488,0,0,1,1.516-1.505,1.456,1.456,0,0,1,1.474,1.463A1.5,1.5,0,0,1,1519.48,848.715Zm10.536-10.536a1.454,1.454,0,0,1-1.484-1.526,1.49,1.49,0,1,1,2.979.084A1.483,1.483,0,0,1,1530.016,838.179Z" transform="translate(0.629 0.3)" fill="#c20c17"/>
    <path id="Path_2567" data-name="Path 2567" d="M1498.269,863.954a9.516,9.516,0,0,1-2.056-.129,4.438,4.438,0,0,1-3.405-4.21c-.029-.914.005-1.829-.02-2.743-.009-.347.109-.435.439-.425q1.089.033,2.18,0c.317-.009.395.1.388.4-.018.82-.015,1.641,0,2.461a1.517,1.517,0,0,0,1.67,1.65c.774.011,1.547.019,2.321-.005.368-.012.549.046.524.48a18.29,18.29,0,0,0,0,2.039c.022.421-.136.516-.519.49C1499.32,863.93,1498.85,863.954,1498.269,863.954Z" transform="translate(0.3 1.575)" fill="#c20c17"/>
    <path id="Path_2568" data-name="Path 2568" d="M1495.788,852.252c0,1.508,0,1.508-1.533,1.508-1.461,0-1.461,0-1.461-1.45,0-1.579,0-1.579,1.544-1.579C1495.788,850.731,1495.788,850.731,1495.788,852.252Z" transform="translate(0.301 1.275)" fill="#c20c17"/>
    <path id="Path_2569" data-name="Path 2569" d="M1538.407,868.394a6.628,6.628,0,0,0-.916-.011v-.032c-.463,0-1.031.168-1.368-.042-.368-.232-.179-.863-.263-1.316a7.52,7.52,0,0,0-6.842-6.073c-.463-.042-.589-.168-.568-.61a12.208,12.208,0,0,0,0-1.758c-.042-.526.095-.705.653-.653a10.394,10.394,0,0,1,9.042,6.389,10.632,10.632,0,0,1,.842,3.473C1539.028,868.215,1538.955,868.468,1538.407,868.394Z" transform="translate(2.174 1.651)" fill="#c20c17"/>
    <path id="Path_2570" data-name="Path 2570" d="M1538.407,868.394a6.628,6.628,0,0,0-.916-.011v-.032c-.463,0-1.031.168-1.368-.042-.368-.232-.179-.863-.263-1.316a7.52,7.52,0,0,0-6.842-6.073c-.463-.042-.589-.168-.568-.61a12.208,12.208,0,0,0,0-1.758c-.042-.526.095-.705.653-.653a10.394,10.394,0,0,1,9.042,6.389,10.632,10.632,0,0,1,.842,3.473C1539.028,868.215,1538.955,868.468,1538.407,868.394Z" transform="translate(2.174 1.651)" fill="#c20c17"/>
  </g>
</svg>
