<?xml version="1.0" encoding="UTF-8"?><svg id="a" xmlns="http://www.w3.org/2000/svg" viewBox="0 0 344 500"><path d="m4.8,437.3h336v32.6c0,0,2.3,19.5-19.6,22.9H24.7s-15.7,0-19.9-19.4v-36.1Z" style="fill:none; opacity:.5; stroke:#ed1c24; stroke-miterlimit:10; stroke-width:.8px;"/><rect x="4.9" y="434.8" width="336" height="3.2" style="fill:#fff;"/><rect x="4.9" y="17.5" width="335.9" height="21.1" style="fill:#c30c17;"/><rect x="4.8" y="-.2" width="336" height="38.8" rx="19.4" ry="19.4" style="fill:#c30c17;"/><rect x="4.8" y="40.9" width="336" height="2.7" style="fill:#c30c17;"/><text transform="translate(81.3 27.3)" style="fill:#fff; font-family:Arial-BoldMT, Arial; font-size:17px; font-weight:700;"><tspan x="0" y="0">Key Questions</tspan><tspan x="119" y="0" style="letter-spacing:0em;"> </tspan><tspan x="123.1" y="0">Answered</tspan></text><text transform="translate(42.6 67.9)" style="fill:#02185a; font-family:Lato-Bold, Lato; font-size:10px; font-weight:700;"><tspan x="0" y="0" style="letter-spacing:0em;">W</tspan><tspan x="10.4" y="0">h</tspan><tspan x="16.1" y="0" style="letter-spacing:0em;">a</tspan><tspan x="21.1" y="0">t is the global and </tspan><tspan x="101.7" y="0" style="letter-spacing:0em;">r</tspan><tspan x="105.3" y="0">egional mar</tspan><tspan x="157" y="0" style="letter-spacing:0em;">k</tspan><tspan x="162.1" y="0" style="letter-spacing:0em;">e</tspan><tspan x="167.4" y="0">t si</tspan><tspan x="180.5" y="0" style="letter-spacing:0em;">z</tspan><tspan x="185" y="0">e and g</tspan><tspan x="216.9" y="0" style="letter-spacing:0em;">r</tspan><tspan x="220.4" y="0" style="letter-spacing:0em;">o</tspan><tspan x="226.1" y="0">wth </tspan><tspan x="245.9" y="0" style="letter-spacing:0em;">r</tspan><tspan x="249.6" y="0" style="letter-spacing:0em;">a</tspan><tspan x="254.6" y="0" style="letter-spacing:0em;">t</tspan><tspan x="258.3" y="0" style="letter-spacing:0em;">e</tspan><tspan x="263.3" y="0">?</tspan></text><text transform="translate(42.6 98.7)" style="fill:#02185a; font-family:Lato-Bold, Lato; font-size:10px; font-weight:700;"><tspan x="0" y="0" style="letter-spacing:0em;">W</tspan><tspan x="10.4" y="0">h</tspan><tspan x="16.1" y="0" style="letter-spacing:0em;">a</tspan><tspan x="21.1" y="0">t a</tspan><tspan x="32.3" y="0" style="letter-spacing:0em;">r</tspan><tspan x="35.9" y="0">e the mar</tspan><tspan x="78" y="0" style="letter-spacing:0em;">k</tspan><tspan x="83.1" y="0" style="letter-spacing:0em;">e</tspan><tspan x="88.3" y="0" style="letter-spacing:0em;">t si</tspan><tspan x="101.4" y="0" style="letter-spacing:0em;">z</tspan><tspan x="105.9" y="0">es and g</tspan><tspan x="142.2" y="0" style="letter-spacing:0em;">r</tspan><tspan x="145.8" y="0" style="letter-spacing:0em;">o</tspan><tspan x="151.4" y="0">wth </tspan><tspan x="171.3" y="0" style="letter-spacing:0em;">r</tspan><tspan x="174.9" y="0" style="letter-spacing:0em;">a</tspan><tspan x="179.9" y="0" style="letter-spacing:0em;">t</tspan><tspan x="183.6" y="0">es </tspan><tspan x="195.8" y="0" style="letter-spacing:0em;">f</tspan><tspan x="199.2" y="0" style="letter-spacing:0em;">o</tspan><tspan x="205" y="0" style="letter-spacing:0em;">r</tspan><tspan x="208.5" y="0" xml:space="preserve"> specific </tspan><tspan x="246.9" y="0" style="letter-spacing:0em;">c</tspan><tspan x="251.7" y="0">ou</tspan><tspan x="263.1" y="0" style="letter-spacing:0em;">n</tspan><tspan x="268.6" y="0">trie</tspan><tspan x="284" y="0" style="letter-spacing:0em;">s</tspan><tspan x="288.2" y="0">?</tspan></text><text transform="translate(42.6 132.5)" style="fill:#02185a; font-family:Lato-Bold, Lato; font-size:10px; font-weight:700;"><tspan x="0" y="0" style="letter-spacing:0em;">W</tspan><tspan x="10.4" y="0">hich </tspan><tspan x="31.5" y="0" style="letter-spacing:0em;">r</tspan><tspan x="35.1" y="0">egion o</tspan><tspan x="67.8" y="0" style="letter-spacing:0em;">r</tspan><tspan x="71.3" y="0" xml:space="preserve"> sec</tspan><tspan x="88.3" y="0" style="letter-spacing:0em;">t</tspan><tspan x="92" y="0">o</tspan><tspan x="97.7" y="0" style="letter-spacing:0em;">r</tspan><tspan x="101.3" y="0" style="letter-spacing:0em;"> </tspan><tspan x="103.5" y="0">will most i</tspan><tspan x="148.7" y="0" style="letter-spacing:0em;">n</tspan><tspan x="154.2" y="0">fluen</tspan><tspan x="176.9" y="0" style="letter-spacing:0em;">c</tspan><tspan x="181.7" y="0">e futu</tspan><tspan x="208" y="0" style="letter-spacing:0em;">r</tspan><tspan x="211.6" y="0">e mar</tspan><tspan x="236.6" y="0" style="letter-spacing:0em;">k</tspan><tspan x="241.6" y="0" style="letter-spacing:0em;">e</tspan><tspan x="246.9" y="0">t</tspan><tspan x="250.7" y="0" style="letter-spacing:0em;">s</tspan><tspan x="254.9" y="0">?</tspan></text><text transform="translate(42.6 165.2)" style="fill:#02185a; font-family:Lato-Bold, Lato; font-size:10px; font-weight:700;"><tspan x="0" y="0" style="letter-spacing:0em;">W</tspan><tspan x="10.4" y="0">h</tspan><tspan x="16.1" y="0" style="letter-spacing:0em;">a</tspan><tspan x="21.1" y="0">t a</tspan><tspan x="32.3" y="0" style="letter-spacing:0em;">r</tspan><tspan x="35.9" y="0">e the main g</tspan><tspan x="90.1" y="0" style="letter-spacing:0em;">r</tspan><tspan x="93.7" y="0" style="letter-spacing:0em;">o</tspan><tspan x="99.4" y="0">wth dri</tspan><tspan x="131.1" y="0" style="letter-spacing:0em;">v</tspan><tspan x="136.3" y="0">e</tspan><tspan x="141.6" y="0" style="letter-spacing:0em;">r</tspan><tspan x="145.3" y="0">s and barrie</tspan><tspan x="197" y="0" style="letter-spacing:0em;">r</tspan><tspan x="200.8" y="0">s in the industry?</tspan></text><text transform="translate(42.6 200)" style="fill:#02185a; font-family:Lato-Bold, Lato; font-size:10px; font-weight:700;"><tspan x="0" y="0" style="letter-spacing:0em;">W</tspan><tspan x="10.4" y="0">h</tspan><tspan x="16.1" y="0" style="letter-spacing:0em;">a</tspan><tspan x="21.1" y="0">t cur</tspan><tspan x="41.4" y="0" style="letter-spacing:0em;">r</tspan><tspan x="45" y="0" style="letter-spacing:0em;">e</tspan><tspan x="50.3" y="0" style="letter-spacing:0em;">n</tspan><tspan x="55.9" y="0" style="letter-spacing:0em;">t </tspan><tspan x="62.1" y="0" style="letter-spacing:0em;">t</tspan><tspan x="65.7" y="0">echnol</tspan><tspan x="95.4" y="0" style="letter-spacing:0em;">o</tspan><tspan x="101.1" y="0">gies and t</tspan><tspan x="143.6" y="0" style="letter-spacing:0em;">r</tspan><tspan x="147.2" y="0">ends a</tspan><tspan x="175.8" y="0" style="letter-spacing:0em;">r</tspan><tspan x="179.4" y="0">e shaping the industry?</tspan></text><text transform="translate(42.6 231)" style="fill:#02185a; font-family:Lato-Bold, Lato; font-size:10px; font-weight:700;"><tspan x="0" y="0" style="letter-spacing:0em;">W</tspan><tspan x="10.4" y="0">ho a</tspan><tspan x="29.3" y="0" style="letter-spacing:0em;">r</tspan><tspan x="32.9" y="0">e the majo</tspan><tspan x="79.5" y="0" style="letter-spacing:0em;">r</tspan><tspan x="83.1" y="0"> </tspan><tspan x="85.5" y="0" style="letter-spacing:0em;">c</tspan><tspan x="90.2" y="0">omp</tspan><tspan x="110" y="0" style="letter-spacing:0em;">e</tspan><tspan x="115.3" y="0">ti</tspan><tspan x="121.7" y="0" style="letter-spacing:0em;">t</tspan><tspan x="125.4" y="0" style="letter-spacing:0em;">o</tspan><tspan x="131.2" y="0" style="letter-spacing:0em;">r</tspan><tspan x="134.9" y="0" style="letter-spacing:0em;">s and</tspan><tspan x="158.1" y="0" style="letter-spacing:0em;"> </tspan><tspan x="160.3" y="0">wh</tspan><tspan x="174" y="0" style="letter-spacing:0em;">a</tspan><tspan x="179" y="0" style="letter-spacing:0em;">t a</tspan><tspan x="190.2" y="0" style="letter-spacing:0em;">r</tspan><tspan x="193.8" y="0">e thei</tspan><tspan x="218.8" y="0" style="letter-spacing:0em;">r</tspan><tspan x="222.3" y="0" xml:space="preserve"> mar</tspan><tspan x="241.9" y="0" style="letter-spacing:0em;">k</tspan><tspan x="247" y="0" style="letter-spacing:0em;">e</tspan><tspan x="252.3" y="0">t sha</tspan><tspan x="273.6" y="0" style="letter-spacing:0em;">r</tspan><tspan x="277.2" y="0">e</tspan><tspan x="282.5" y="0" style="letter-spacing:0em;">s</tspan><tspan x="286.7" y="0">?</tspan></text><text transform="translate(42.6 263.7)" style="fill:#02185a; font-family:Lato-Bold, Lato; font-size:10px; font-weight:700;"><tspan x="0" y="0" style="letter-spacing:0em;">W</tspan><tspan x="10.4" y="0">ho has the la</tspan><tspan x="66.5" y="0" style="letter-spacing:0em;">r</tspan><tspan x="70.2" y="0" style="letter-spacing:0em;">g</tspan><tspan x="75.3" y="0" style="letter-spacing:0em;">est mar</tspan><tspan x="108.4" y="0" style="letter-spacing:0em;">k</tspan><tspan x="113.5" y="0" style="letter-spacing:0em;">e</tspan><tspan x="118.8" y="0">t sha</tspan><tspan x="140" y="0" style="letter-spacing:0em;">r</tspan><tspan x="143.6" y="0">e in the industry?</tspan></text><text transform="translate(42.6 290.5)" style="fill:#02185a; font-family:Lato-Bold, Lato; font-size:10px; font-weight:700;"><tspan x="0" y="0" style="letter-spacing:0em;">W</tspan><tspan x="10.4" y="0">h</tspan><tspan x="16.1" y="0" style="letter-spacing:0em;">a</tspan><tspan x="21.1" y="0">t distinguishes </tspan><tspan x="87.6" y="0" style="letter-spacing:0em;">k</tspan><tspan x="92.7" y="0" style="letter-spacing:0em;">e</tspan><tspan x="97.9" y="0" style="letter-spacing:0em;">y</tspan><tspan x="102.9" y="0" xml:space="preserve"> pl</tspan><tspan x="113.5" y="0" style="letter-spacing:0em;">a</tspan><tspan x="118.4" y="0" style="letter-spacing:0em;">y</tspan><tspan x="123.5" y="0" style="letter-spacing:0em;">e</tspan><tspan x="128.9" y="0" style="letter-spacing:0em;">r</tspan><tspan x="132.6" y="0">s in p</tspan><tspan x="155.7" y="0" style="letter-spacing:0em;">r</tspan><tspan x="159.3" y="0">oduct port</tspan><tspan x="202.5" y="0" style="letter-spacing:0em;">f</tspan><tspan x="209.4" y="0" style="letter-spacing:0em;">olio, finan</tspan><tspan x="253" y="0" style="letter-spacing:0em;">c</tspan><tspan x="257.7" y="0">e, and </tspan><tspan x="0" y="10">st</tspan><tspan x="8.1" y="10" style="letter-spacing:0em;">ra</tspan><tspan x="16.8" y="10" style="letter-spacing:0em;">t</tspan><tspan x="20.5" y="10">egy?</tspan></text><text transform="translate(42.6 328.4)" style="fill:#02185a; font-family:Lato-Bold, Lato; font-size:10px; font-weight:700;"><tspan x="0" y="0" style="letter-spacing:0em;">W</tspan><tspan x="10.4" y="0">h</tspan><tspan x="16.1" y="0" style="letter-spacing:0em;">a</tspan><tspan x="21.1" y="0">t a</tspan><tspan x="32.3" y="0" style="letter-spacing:0em;">r</tspan><tspan x="35.9" y="0">e the eme</tspan><tspan x="79.8" y="0" style="letter-spacing:0em;">r</tspan><tspan x="83.5" y="0">ging disru</tspan><tspan x="126.7" y="0" style="letter-spacing:0em;">p</tspan><tspan x="132.3" y="0">tions in the industry?</tspan></text><text transform="translate(42.6 359)" style="fill:#02185a; font-family:Lato-Bold, Lato; font-size:10px; font-weight:700;"><tspan x="0" y="0" style="letter-spacing:0em;">W</tspan><tspan x="10.4" y="0">h</tspan><tspan x="16.1" y="0" style="letter-spacing:0em;">a</tspan><tspan x="21.1" y="0">t u</tspan><tspan x="32.9" y="0" style="letter-spacing:0em;">n</tspan><tspan x="38.4" y="0">tapped opportunities a</tspan><tspan x="139.8" y="0" style="letter-spacing:0em;">r</tspan><tspan x="143.4" y="0">e </tspan><tspan x="151.2" y="0" style="letter-spacing:0em;">av</tspan><tspan x="161.3" y="0" style="letter-spacing:0em;">ailable in the industry?</tspan></text><text transform="translate(42.6 386.3)" style="fill:#02185a; font-family:Lato-Bold, Lato; font-size:10px; font-weight:700;"><tspan x="0" y="0" style="letter-spacing:0em;">W</tspan><tspan x="10.4" y="0">h</tspan><tspan x="16.1" y="0" style="letter-spacing:0em;">a</tspan><tspan x="21.1" y="0">t </tspan><tspan x="27.2" y="0" style="letter-spacing:0em;">k</tspan><tspan x="32.3" y="0" style="letter-spacing:0em;">e</tspan><tspan x="37.5" y="0" style="letter-spacing:0em;">y</tspan><tspan x="42.5" y="0" xml:space="preserve" style="letter-spacing:0em;"> partne</tspan><tspan x="74.1" y="0" style="letter-spacing:0em;">r</tspan><tspan x="77.9" y="0">ships, me</tspan><tspan x="119" y="0" style="letter-spacing:0em;">r</tspan><tspan x="122.7" y="0" style="letter-spacing:0em;">g</tspan><tspan x="127.9" y="0">e</tspan><tspan x="133.2" y="0" style="letter-spacing:0em;">r</tspan><tspan x="136.9" y="0">s, o</tspan><tspan x="151.8" y="0" style="letter-spacing:0em;">r</tspan><tspan x="155.3" y="0"> </tspan><tspan x="157.8" y="0" style="letter-spacing:0em;">c</tspan><tspan x="162.5" y="0">ollabo</tspan><tspan x="189.7" y="0" style="letter-spacing:0em;">ra</tspan><tspan x="198.4" y="0">tions a</tspan><tspan x="228.1" y="0" style="letter-spacing:0em;">r</tspan><tspan x="231.7" y="0" style="letter-spacing:0em;">e impacting </tspan><tspan x="0" y="10">the industry?</tspan></text><text transform="translate(42.6 419)" style="fill:#02185a; font-family:Lato-Bold, Lato; font-size:10px; font-weight:700;"><tspan x="0" y="0" style="letter-spacing:0em;">W</tspan><tspan x="10.4" y="0">h</tspan><tspan x="16.1" y="0" style="letter-spacing:0em;">a</tspan><tspan x="21.1" y="0">t a</tspan><tspan x="32.3" y="0" style="letter-spacing:0em;">r</tspan><tspan x="35.9" y="0">e the </tspan><tspan x="60.8" y="0" style="letter-spacing:0em;">e</tspan><tspan x="66.1" y="0">xpert </tspan><tspan x="92.2" y="0" style="letter-spacing:0em;">r</tspan><tspan x="95.8" y="0" style="letter-spacing:0em;">e</tspan><tspan x="101.1" y="0" style="letter-spacing:0em;">c</tspan><tspan x="105.8" y="0" style="letter-spacing:0em;">ommend</tspan><tspan x="145" y="0" style="letter-spacing:0em;">a</tspan><tspan x="150" y="0" style="letter-spacing:0em;">tions </tspan><tspan x="174.6" y="0" style="letter-spacing:0em;">f</tspan><tspan x="178.1" y="0">o</tspan><tspan x="183.8" y="0" style="letter-spacing:0em;">r</tspan><tspan x="187.3" y="0" xml:space="preserve"> capitalizing on industr</tspan><tspan x="287.3" y="0" style="letter-spacing:0em;">y</tspan><tspan x="292.4" y="0"> </tspan><tspan x="0" y="10">opportunities and challen</tspan><tspan x="113" y="10" style="letter-spacing:0em;">g</tspan><tspan x="118.2" y="10">e</tspan><tspan x="123.6" y="10" style="letter-spacing:0em;">s</tspan><tspan x="127.8" y="10" style="letter-spacing:0em;">?</tspan></text><rect x="4.8" y="46.6" width="336" height="390.7" style="fill:none; opacity:.5; stroke:#ed1c24; stroke-miterlimit:10; stroke-width:.8px;"/><path d="m53.2,24.4c-.1.2-.3.3-.4.5,0,0,0,0,0,0,0,0,0,0,0,0,.1.2.3.3.4.5,0,0,0,0,0,0,.1.2.2.5.3.7.2.5.1,1.1,0,1.6,0,0,0,.2,0,.2,0,0,0,0,0,0-.2.4-.5.7-.8,1,0,0-.1,0-.2.1-.1,0-.3.2-.4.3,0,.1,0,.3.1.4,0,0,0,0,0,0,0,0,0,0,0,0,0,0,0,0,0,0,0,.1,0,.2,0,.4,0,0,0,0,0,0,0,.6,0,1.2-.4,1.7h0c-.2.3-.5.6-.7.8,0,0,0,0,0,0-.3.2-.6.3-.9.5,0,0,0,0-.1,0,0,0,0,0,0,0-.2,0-.4,0-.6.1,0,0-.2,0-.2,0-.2,0-.3,0-.5,0-3.3,0-6.6,0-9.9,0,0,0-.2,0-.3,0,0,0-.1,0-.2,0-.3,0-.7-.1-1-.2,0,0,0,0,0,0-.3-.1-.7-.3-1-.4,0,0,0,0,0,0-.4-.2-.8-.4-1.1-.7-.6-.5-1.1-1-1.5-1.7,0-.1-.1-.3-.2-.4,0,0,0,0,0,0,0,0,0-.2-.1-.3,0,0,0,0,0,0,0-.1,0-.2-.1-.4,0,0,0,0,0,0,0-.4-.2-.7-.2-1.1,0,0,0,0,0-.1,0-.5,0-1.1,0-1.6,0-2,0-4,0-6,0,0,0,0,0-.1h0c0-.4.1-.8.2-1.1.2-.7.6-1.4,1-2,0,0,0,0,0,0,.3-.4.6-.8.9-1.2,0-.1.2-.2.3-.4,0,0,0,0,0,0,.5-.8,1.1-1.5,1.6-2.3.9-1.2,1.7-2.4,2.6-3.5.7-.9,1.3-1.8,2-2.7,0,0,0,0,0-.1,0,0,0,0,0,0,.3-.4.7-.8,1.2-.9,0,0,0,0,0,0,.8-.2,1.5-.1,2.1.4.6.4,1,1,1.1,1.7.2.8.1,1.6-.2,2.4-.2.4-.3.8-.5,1.2-.3.8-.7,1.5-1,2.3-.3.7-.6,1.3-.9,2h.2c5.3,0,10.6,0,15.9,0,.5,0,1,.1,1.5.4.5.3.9.8,1.1,1.4.1.3.2.6.2,1,0,.4,0,.8-.3,1.2,0,0,0,0,0,0h0c-.2.5-.5.8-.9,1-.4.3-.9.5-1.4.4-2.1,0-4.2,0-6.3,0,0,0,0,0-.2,0,0,.2.1.3.2.4.3.6.2,1.1,0,1.7,0,.2-.2.4-.3.6,0,0,0,0,0,0Zm-18.3,5.9h0c0,.1.2.3.3.4,0,0,0,0,.1.1h0s0,0,0,0c.1.1.2.2.3.3,0,0,0,0,.1.1.1,0,.2.2.3.3.2.1.4.2.6.4.5.3,1.1.4,1.7.5,0,0,0,0,0,0,.7,0,1.3,0,2,0,2.8,0,5.7,0,8.5,0h0c.3,0,.6,0,.8-.2,0,0,0,0,0,0,0,0,0,0,0,0,0,0,0,0,0,0h.1c0,0,0-.1,0-.1,0,0,0,0,.1,0,.4-.3.7-.7.6-1.3,0-.2,0-.4-.1-.6h0c0-.2-.2-.4-.3-.6,0,0,0,0,0,0,0-.4.1-.8.5-.9,0,0,0,0,0,0,.1,0,.3-.2.4-.2,0,0,0,0,0,0,0,0,.2-.1.2-.2.2-.2.5-.5.5-.9,0,0,0,0,0,0,0-.2,0-.3,0-.5h0c0-.5-.4-.8-.8-1-.3-.2-.5-.4-.5-.8,0,0,0,0,0,0,0-.2.2-.3.3-.4.2-.2.5-.4.7-.6.5-.7.4-1.6-.2-2.1,0,0,0,0,0,0-.2-.1-.4-.3-.4-.5,0,0,0,0,0,0,0,0,0,0,0-.1,0,0,0,0,0,0,0-.2.2-.3.3-.5,0,0,0,0,.1,0,.2,0,.4,0,.6,0,2.4,0,4.9,0,7.3,0,.2,0,.5,0,.7-.1.3-.1.5-.4.6-.6,0,0,0-.1,0-.2h0c0-.1,0-.1,0-.1,0,0,0,0,0,0,.2-.9-.5-1.5-1.3-1.6,0,0-.1,0-.2,0-5.6,0-11.2,0-16.7,0-.1,0-.3,0-.4,0,0,0,0,0,0,0-.3,0-.5-.3-.5-.6,0-.3.2-.6.3-.8,0,0,0,0,0,0,0,0,0,0,0,0,.2-.4.4-.8.6-1.2,0,0,0,0,0,0,0,0,0-.2.1-.3,0,0,0,0,0,0,0-.1,0-.2.1-.3.1-.3.3-.6.4-.9,0-.1.1-.3.2-.4,0,0,0,0,0-.1,0,0,0,0,0,0,0,0,0,0,0,0,0,0,0,0,0,0,0-.2.1-.3.2-.5,0,0,0,0,0,0v-.2c0,0,0,0,.1,0h0c0,0,0-.1,0-.2,0,0,0,0,0,0,0,0,0,0,0,0,0,0,0,0,0,0v-.3c0,0,.1,0,.1,0,0,0,0,0,0,0,0,0,0,0,0-.1,0,0,0,0,0-.1,0,0,0,0,0,0,0,0,0,0,0,0,0,0,0,0,0-.1,0,0,0,0,0,0h0c0-.2,0-.2,0-.2,0,0,0-.2,0-.2,0,0,0,0,0,0,0,0,0,0,0,0,0,0,0,0,0,0,0-.1,0-.2.1-.4h0c0-.3,0-.6,0-.9,0,0,0,0,0,0,0,0,0,0,0-.1,0,0,0,0,0,0,0,0,0-.1,0-.2,0,0,0,0,0,0,0,0,0,0,0-.1,0,0,0,0,0,0-.2-.2-.3-.3-.5-.5,0,0,0,0,0,0h-.3c0-.1,0-.1,0-.1h-.5s0,0,0,0c-.1,0-.2.1-.3.2,0,0,0,0,0,0-.1.2-.3.3-.4.5-.2.3-.4.6-.6.9,0,0,0,0,0,0,0,0,0,0,0,.1,0,0,0,0,0,0-.4.5-.8,1.1-1.2,1.6,0,0,0,0,0,0,0,0,0,.1-.1.2-.3.5-.6.9-1,1.4h0c0,.1-.1.2-.2.3h0c0,0,0,0,0,0,0,0,0,0,0,0,0,0-.2.2-.2.3-.2.3-.4.5-.6.8,0,0,0,0,0,0,0,0,0,0,0,0,0,0,0,0,0,0,0,0-.1.2-.2.3,0,0,0,0,0,0h0s0,0,0,0c-.2.2-.3.5-.5.7,0,0,0,0,0,0-.2.3-.4.5-.6.8-.2.2-.3.4-.4.7-.2.3-.4.5-.6.8,0,0,0,0,0,0,0,.1-.2.2-.2.3,0,0,0,0,0,0,0,0,0,0,0,0-.2.3-.5.6-.7,1,0,0,0,0,0,0-.3.4-.5.9-.6,1.4,0,0,0,.2,0,.2,0,.2,0,.4,0,.6,0,2.2,0,4.4,0,6.5,0,.3,0,.7.1,1,0,0,0,0,0,0,0,.3.2.6.3.9,0,0,0,0,0,0,0,.2.2.4.3.6,0,0,0,0,0,0h0Z" style="fill:#fff;"/><line x1="4.8" y1="79" x2="340.8" y2="79" style="fill:none; opacity:.5; stroke:#ed1c24; stroke-miterlimit:10; stroke-width:.5px;"/><line x1="4.8" y1="112.5" x2="340.8" y2="112.5" style="fill:none; opacity:.5; stroke:#ed1c24; stroke-miterlimit:10; stroke-width:.5px;"/><line x1="3.9" y1="145" x2="339.9" y2="145" style="fill:none; opacity:.5; stroke:#ed1c24; stroke-miterlimit:10; stroke-width:.5px;"/><line x1="4.8" y1="178.5" x2="340.8" y2="178.5" style="fill:none; opacity:.5; stroke:#ed1c24; stroke-miterlimit:10; stroke-width:.5px;"/><line x1="4.8" y1="211" x2="340.8" y2="211" style="fill:none; opacity:.5; stroke:#ed1c24; stroke-miterlimit:10; stroke-width:.5px;"/><line x1="4.9" y1="244.1" x2="340.9" y2="244.1" style="fill:none; opacity:.5; stroke:#ed1c24; stroke-miterlimit:10; stroke-width:.5px;"/><line x1="4.9" y1="275.6" x2="340.9" y2="275.6" style="fill:none; opacity:.5; stroke:#ed1c24; stroke-miterlimit:10; stroke-width:.5px;"/><line x1="4.9" y1="308.1" x2="340.9" y2="308.1" style="fill:none; opacity:.5; stroke:#ed1c24; stroke-miterlimit:10; stroke-width:.5px;"/><line x1="4.9" y1="340.1" x2="340.9" y2="340.1" style="fill:none; opacity:.5; stroke:#ed1c24; stroke-miterlimit:10; stroke-width:.5px;"/><line x1="4.9" y1="371.9" x2="340.9" y2="371.9" style="fill:none; opacity:.5; stroke:#ed1c24; stroke-miterlimit:10; stroke-width:.5px;"/><line x1="4.8" y1="404.7" x2="340.8" y2="404.7" style="fill:none; opacity:.5; stroke:#ed1c24; stroke-miterlimit:10; stroke-width:.5px;"/><circle cx="17.8" cy="64.4" r="9.1" style="fill:none; stroke:#ed1c24; stroke-miterlimit:10; stroke-width:.2px;"/><rect x="20.1" y="56.5" width="7.9" height="7.9" transform="translate(-36.8 37.5) rotate(-47.6)" style="fill:#fff;"/><path d="m12.6,64.9s1.7-.3,5.2,5.2c0,0,3-5.3,3.4-5.8,0,0,4.5-6.3,7.5-7.8,0,0-7.2,3.8-10.8,9.9,0,0-1.8-2.5-3.8-3.6l-1.6,2.1Z" style="fill:#c30c17;"/><circle cx="17.8" cy="96.8" r="9.1" style="fill:none; stroke:#ed1c24; stroke-miterlimit:10; stroke-width:.2px;"/><rect x="20.1" y="88.9" width="7.9" height="7.9" transform="translate(-60.7 48.1) rotate(-47.6)" style="fill:#fff;"/><path d="m12.6,97.3s1.7-.3,5.2,5.2c0,0,3-5.3,3.4-5.8,0,0,4.5-6.3,7.5-7.8,0,0-7.2,3.8-10.8,9.9,0,0-1.8-2.5-3.8-3.6l-1.6,2.1Z" style="fill:#c30c17;"/><circle cx="17.8" cy="130.1" r="9.1" style="fill:none; stroke:#ed1c24; stroke-miterlimit:10; stroke-width:.2px;"/><rect x="20.1" y="122.2" width="7.9" height="7.9" transform="translate(-85.4 59) rotate(-47.6)" style="fill:#fff;"/><path d="m12.6,130.7s1.7-.3,5.2,5.2c0,0,3-5.3,3.4-5.8,0,0,4.5-6.3,7.5-7.8,0,0-7.2,3.8-10.8,9.9,0,0-1.8-2.5-3.8-3.6l-1.6,2.1Z" style="fill:#c30c17;"/><circle cx="17.8" cy="162.5" r="9.1" style="fill:none; stroke:#ed1c24; stroke-miterlimit:10; stroke-width:.2px;"/><rect x="20.1" y="154.6" width="7.9" height="7.9" transform="translate(-109.3 69.5) rotate(-47.6)" style="fill:#fff;"/><path d="m12.6,163.1s1.7-.3,5.2,5.2c0,0,3-5.3,3.4-5.8,0,0,4.5-6.3,7.5-7.8,0,0-7.2,3.8-10.8,9.9,0,0-1.8-2.5-3.8-3.6l-1.6,2.1Z" style="fill:#c30c17;"/><circle cx="17.8" cy="194.9" r="9.1" style="fill:none; stroke:#ed1c24; stroke-miterlimit:10; stroke-width:.2px;"/><rect x="20.1" y="187" width="7.9" height="7.9" transform="translate(-133.3 80.1) rotate(-47.6)" style="fill:#fff;"/><path d="m12.6,195.5s1.7-.3,5.2,5.2c0,0,3-5.3,3.4-5.8,0,0,4.5-6.3,7.5-7.8,0,0-7.2,3.8-10.8,9.9,0,0-1.8-2.5-3.8-3.6l-1.6,2.1Z" style="fill:#c30c17;"/><circle cx="17.8" cy="227.3" r="9.1" style="fill:none; stroke:#ed1c24; stroke-miterlimit:10; stroke-width:.2px;"/><rect x="20.1" y="219.4" width="7.9" height="7.9" transform="translate(-157.2 90.7) rotate(-47.6)" style="fill:#fff;"/><path d="m12.6,227.9s1.7-.3,5.2,5.2c0,0,3-5.3,3.4-5.8,0,0,4.5-6.3,7.5-7.8,0,0-7.2,3.8-10.8,9.9,0,0-1.8-2.5-3.8-3.6l-1.6,2.1Z" style="fill:#c30c17;"/><circle cx="17.8" cy="259.7" r="9.1" style="fill:none; stroke:#ed1c24; stroke-miterlimit:10; stroke-width:.2px;"/><rect x="20.1" y="251.8" width="7.9" height="7.9" transform="translate(-181.1 101.2) rotate(-47.6)" style="fill:#fff;"/><path d="m12.6,260.3s1.7-.3,5.2,5.2c0,0,3-5.3,3.4-5.8,0,0,4.5-6.3,7.5-7.8,0,0-7.2,3.8-10.8,9.9,0,0-1.8-2.5-3.8-3.6l-1.6,2.1Z" style="fill:#c30c17;"/><circle cx="17.8" cy="292.1" r="9.1" style="fill:none; stroke:#ed1c24; stroke-miterlimit:10; stroke-width:.2px;"/><rect x="20.1" y="284.2" width="7.9" height="7.9" transform="translate(-205.1 111.8) rotate(-47.6)" style="fill:#fff;"/><path d="m12.6,292.6s1.7-.3,5.2,5.2c0,0,3-5.3,3.4-5.8,0,0,4.5-6.3,7.5-7.8,0,0-7.2,3.8-10.8,9.9,0,0-1.8-2.5-3.8-3.6l-1.6,2.1Z" style="fill:#c30c17;"/><circle cx="17.8" cy="322.5" r="9.1" style="fill:none; stroke:#ed1c24; stroke-miterlimit:10; stroke-width:.2px;"/><rect x="20.1" y="314.6" width="7.9" height="7.9" transform="translate(-227.5 121.7) rotate(-47.6)" style="fill:#fff;"/><path d="m12.6,323s1.7-.3,5.2,5.2c0,0,3-5.3,3.4-5.8,0,0,4.5-6.3,7.5-7.8,0,0-7.2,3.8-10.8,9.9,0,0-1.8-2.5-3.8-3.6l-1.6,2.1Z" style="fill:#c30c17;"/><circle cx="17.8" cy="355.9" r="9.1" style="fill:none; stroke:#ed1c24; stroke-miterlimit:10; stroke-width:.2px;"/><rect x="20.1" y="348" width="7.9" height="7.9" transform="translate(-252.2 132.6) rotate(-47.6)" style="fill:#fff;"/><path d="m12.6,356.4s1.7-.3,5.2,5.2c0,0,3-5.3,3.4-5.8,0,0,4.5-6.3,7.5-7.8,0,0-7.2,3.8-10.8,9.9,0,0-1.8-2.5-3.8-3.6l-1.6,2.1Z" style="fill:#c30c17;"/><circle cx="17.8" cy="388.2" r="9.1" style="fill:none; stroke:#ed1c24; stroke-miterlimit:10; stroke-width:.2px;"/><rect x="20.1" y="380.4" width="7.9" height="7.9" transform="translate(-276.1 143.2) rotate(-47.6)" style="fill:#fff;"/><path d="m12.6,388.8s1.7-.3,5.2,5.2c0,0,3-5.3,3.4-5.8,0,0,4.5-6.3,7.5-7.8,0,0-7.2,3.8-10.8,9.9,0,0-1.8-2.5-3.8-3.6l-1.6,2.1Z" style="fill:#c30c17;"/><circle cx="17.8" cy="420.6" r="9.1" style="fill:none; stroke:#ed1c24; stroke-miterlimit:10; stroke-width:.2px;"/><rect x="20.1" y="412.7" width="7.9" height="7.9" transform="translate(-300.1 153.7) rotate(-47.6)" style="fill:#fff;"/><path d="m12.6,421.2s1.7-.3,5.2,5.2c0,0,3-5.3,3.4-5.8,0,0,4.5-6.3,7.5-7.8,0,0-7.2,3.8-10.8,9.9,0,0-1.8-2.5-3.8-3.6l-1.6,2.1Z" style="fill:#c30c17;"/></svg>