<?xml version="1.0" encoding="UTF-8"?><svg id="a" xmlns="http://www.w3.org/2000/svg" viewBox="0 0 344 500"><rect x="4.3" y="17.4" width="336.3" height="21.1" style="fill:#c30c17;"/><rect x="4.3" y="-.3" width="336.3" height="38.8" rx="19.4" ry="19.4" style="fill:#c30c17;"/><rect x="4.3" y="40.1" width="336.3" height="3.4" style="fill:#c30c17;"/><path d="m42.9,23.4c-.1.2-.3.3-.4.5,0,0,0,0,0,0,0,0,0,0,0,0,.1.2.3.3.4.5,0,0,0,0,0,0,.1.2.2.5.3.7.2.5.1,1.1,0,1.6,0,0,0,.2,0,.2,0,0,0,0,0,0-.2.4-.5.7-.8,1,0,0-.1,0-.2.1-.1,0-.3.2-.4.3,0,.1,0,.3.1.4,0,0,0,0,0,0,0,0,0,0,0,0,0,0,0,0,0,0,0,.1,0,.2,0,.4,0,0,0,0,0,0,0,.6,0,1.2-.4,1.7h0c-.2.3-.5.6-.7.8,0,0,0,0,0,0-.3.2-.6.3-.9.5,0,0,0,0-.1,0,0,0,0,0,0,0-.2,0-.4,0-.6.1,0,0-.2,0-.2,0-.2,0-.3,0-.5,0-3.3,0-6.6,0-9.9,0,0,0-.2,0-.3,0,0,0-.1,0-.2,0-.3,0-.7-.1-1-.2,0,0,0,0,0,0-.3-.1-.7-.3-1-.4,0,0,0,0,0,0-.4-.2-.8-.4-1.1-.7-.6-.5-1.1-1-1.5-1.7,0-.1-.1-.3-.2-.4,0,0,0,0,0,0,0,0,0-.2-.1-.3,0,0,0,0,0,0,0-.1,0-.2-.1-.4,0,0,0,0,0,0,0-.4-.2-.7-.2-1.1,0,0,0,0,0-.1,0-.5,0-1.1,0-1.6,0-2,0-4,0-6,0,0,0,0,0-.1h0c0-.4.1-.8.2-1.1.2-.7.6-1.4,1-2,0,0,0,0,0,0,.3-.4.6-.8.9-1.2,0-.1.2-.2.3-.4,0,0,0,0,0,0,.5-.8,1.1-1.5,1.6-2.3.9-1.2,1.7-2.4,2.6-3.5.7-.9,1.3-1.8,2-2.7,0,0,0,0,0-.1,0,0,0,0,0,0,.3-.4.7-.8,1.2-.9,0,0,0,0,0,0,.8-.2,1.5-.1,2.1.4.6.4,1,1,1.1,1.7.2.8.1,1.6-.2,2.4-.2.4-.3.8-.5,1.2-.3.8-.7,1.5-1,2.3-.3.7-.6,1.3-.9,2h.2c5.3,0,10.6,0,15.9,0,.5,0,1,.1,1.5.4.5.3.9.8,1.1,1.4.1.3.2.6.2,1,0,.4,0,.8-.3,1.2,0,0,0,0,0,0h0c-.2.5-.5.8-.9,1-.4.3-.9.5-1.4.4-2.1,0-4.2,0-6.3,0,0,0,0,0-.2,0,0,.2.1.3.2.4.3.6.2,1.1,0,1.7,0,.2-.2.4-.3.6,0,0,0,0,0,0Zm-18.3,5.9h0c0,.1.2.3.3.4,0,0,0,0,.1.1h0s0,0,0,0c.1.1.2.2.3.3,0,0,0,0,.1.1.1,0,.2.2.3.3.2.1.4.2.6.4.5.3,1.1.4,1.7.5,0,0,0,0,0,0,.7,0,1.3,0,2,0,2.8,0,5.7,0,8.5,0h0c.3,0,.6,0,.8-.2,0,0,0,0,0,0,0,0,0,0,0,0,0,0,0,0,0,0h.1c0,0,0-.1,0-.1,0,0,0,0,.1,0,.4-.3.7-.7.6-1.3,0-.2,0-.4-.1-.6h0c0-.2-.2-.4-.3-.6,0,0,0,0,0,0,0-.4.1-.8.5-.9,0,0,0,0,0,0,.1,0,.3-.2.4-.2,0,0,0,0,0,0,0,0,.2-.1.2-.2.2-.2.5-.5.5-.9,0,0,0,0,0,0,0-.2,0-.3,0-.5h0c0-.5-.4-.8-.8-1-.3-.2-.5-.4-.5-.8,0,0,0,0,0,0,0-.2.2-.3.3-.4.2-.2.5-.4.7-.6.5-.7.4-1.6-.2-2.1,0,0,0,0,0,0-.2-.1-.4-.3-.4-.5,0,0,0,0,0,0,0,0,0,0,0-.1,0,0,0,0,0,0,0-.2.2-.3.3-.5,0,0,0,0,.1,0,.2,0,.4,0,.6,0,2.4,0,4.9,0,7.3,0,.2,0,.5,0,.7-.1.3-.1.5-.4.6-.6,0,0,0-.1,0-.2h0c0-.1,0-.1,0-.1,0,0,0,0,0,0,.2-.9-.5-1.5-1.3-1.6,0,0-.1,0-.2,0-5.6,0-11.2,0-16.7,0-.1,0-.3,0-.4,0,0,0,0,0,0,0-.3,0-.5-.3-.5-.6,0-.3.2-.6.3-.8,0,0,0,0,0,0,0,0,0,0,0,0,.2-.4.4-.8.6-1.2,0,0,0,0,0,0,0,0,0-.2.1-.3,0,0,0,0,0,0,0-.1,0-.2.1-.3.1-.3.3-.6.4-.9,0-.1.1-.3.2-.4,0,0,0,0,0-.1,0,0,0,0,0,0,0,0,0,0,0,0,0,0,0,0,0,0,0-.2.1-.3.2-.5,0,0,0,0,0,0v-.2c0,0,0,0,.1,0h0c0,0,0-.1,0-.2,0,0,0,0,0,0,0,0,0,0,0,0,0,0,0,0,0,0v-.3c0,0,.1,0,.1,0,0,0,0,0,0,0,0,0,0,0,0-.1,0,0,0,0,0-.1,0,0,0,0,0,0,0,0,0,0,0,0,0,0,0,0,0-.1,0,0,0,0,0,0h0c0-.2,0-.2,0-.2,0,0,0-.2,0-.2,0,0,0,0,0,0,0,0,0,0,0,0,0,0,0,0,0,0,0-.1,0-.2.1-.4h0c0-.3,0-.6,0-.9,0,0,0,0,0,0,0,0,0,0,0-.1,0,0,0,0,0,0,0,0,0-.1,0-.2,0,0,0,0,0,0,0,0,0,0,0-.1,0,0,0,0,0,0-.2-.2-.3-.3-.5-.5,0,0,0,0,0,0h-.3c0-.1,0-.1,0-.1h-.5s0,0,0,0c-.1,0-.2.1-.3.2,0,0,0,0,0,0-.1.2-.3.3-.4.5-.2.3-.4.6-.6.9,0,0,0,0,0,0,0,0,0,0,0,.1,0,0,0,0,0,0-.4.5-.8,1.1-1.2,1.6,0,0,0,0,0,0,0,0,0,.1-.1.2-.3.5-.6.9-1,1.4h0c0,.1-.1.2-.2.3h0c0,0,0,0,0,0,0,0,0,0,0,0,0,0-.2.2-.2.3-.2.3-.4.5-.6.8,0,0,0,0,0,0,0,0,0,0,0,0,0,0,0,0,0,0,0,0-.1.2-.2.3,0,0,0,0,0,0h0s0,0,0,0c-.2.2-.3.5-.5.7,0,0,0,0,0,0-.2.3-.4.5-.6.8-.2.2-.3.4-.4.7-.2.3-.4.5-.6.8,0,0,0,0,0,0,0,.1-.2.2-.2.3,0,0,0,0,0,0,0,0,0,0,0,0-.2.3-.5.6-.7,1,0,0,0,0,0,0-.3.4-.5.9-.6,1.4,0,0,0,.2,0,.2,0,.2,0,.4,0,.6,0,2.2,0,4.4,0,6.5,0,.3,0,.7.1,1,0,0,0,0,0,0,0,.3.2.6.3.9,0,0,0,0,0,0,0,.2.2.4.3.6,0,0,0,0,0,0h0Z" style="fill:#fff;"/><path d="m4.6,431.3h336v35.5s-7.3,28-41.7,29.3-250.7,0-250.7,0c0,0-34.4.8-43.6-30.9v-33.9Z" style="fill:none; opacity:.5; stroke:#ff2300; stroke-miterlimit:10;"/><circle cx="19.1" cy="60" r="5.4" style="fill:none; stroke:#c30c17; stroke-miterlimit:10;"/><rect x="19.8" y="55.6" width="6.8" height="6" transform="translate(-26.4 19.7) rotate(-30.3)" style="fill:#fff;"/><path d="m15.1,59.5s1.3.1,3.3,4.4l2.5-3.1s1.7-2,3.9-3.6c0,0,1.7-1.3,3.2-2.1,0,0-3.5,1.4-4.7,2.2,0,0-2.7,1.7-4.5,3.9,0,0-.5-1.3-2.4-3.1l-1.4,1.4Z" style="fill:#c30c17;"/><circle cx="19.3" cy="92.2" r="5.4" style="fill:none; stroke:#c30c17; stroke-miterlimit:10;"/><rect x="20" y="87.8" width="6.8" height="6" transform="translate(-42.6 24.2) rotate(-30.3)" style="fill:#fff;"/><path d="m15.3,91.6s1.3.1,3.3,4.4l2.5-3.1s1.7-2,3.9-3.6c0,0,1.7-1.3,3.2-2.1,0,0-3.5,1.4-4.7,2.2,0,0-2.7,1.7-4.5,3.9,0,0-.5-1.3-2.4-3.1l-1.4,1.4Z" style="fill:#c30c17;"/><circle cx="19.4" cy="124.5" r="5.4" style="fill:none; stroke:#c30c17; stroke-miterlimit:10;"/><rect x="20.1" y="120.1" width="6.8" height="6" transform="translate(-58.9 28.7) rotate(-30.3)" style="fill:#fff;"/><path d="m15.4,123.9s1.3.1,3.3,4.4l2.5-3.1s1.7-2,3.9-3.6c0,0,1.7-1.3,3.2-2.1,0,0-3.5,1.4-4.7,2.2,0,0-2.7,1.7-4.5,3.9,0,0-.5-1.3-2.4-3.1l-1.4,1.4Z" style="fill:#c30c17;"/><circle cx="19.3" cy="156.7" r="5.4" style="fill:none; stroke:#c30c17; stroke-miterlimit:10;"/><rect x="20.1" y="152.3" width="6.8" height="6" transform="translate(-75.2 33.1) rotate(-30.3)" style="fill:#fff;"/><path d="m15.3,156.1s1.3.1,3.3,4.4l2.5-3.1s1.7-2,3.9-3.6c0,0,1.7-1.3,3.2-2.1,0,0-3.5,1.4-4.7,2.2,0,0-2.7,1.7-4.5,3.9,0,0-.5-1.3-2.4-3.1l-1.4,1.4Z" style="fill:#c30c17;"/><circle cx="19.3" cy="189.1" r="5.4" style="fill:none; stroke:#c30c17; stroke-miterlimit:10;"/><rect x="20.1" y="184.6" width="6.8" height="6" transform="translate(-91.5 37.5) rotate(-30.3)" style="fill:#fff;"/><path d="m15.3,188.5s1.3.1,3.3,4.4l2.5-3.1s1.7-2,3.9-3.6c0,0,1.7-1.3,3.2-2.1,0,0-3.5,1.4-4.7,2.2,0,0-2.7,1.7-4.5,3.9,0,0-.5-1.3-2.4-3.1l-1.4,1.4Z" style="fill:#c30c17;"/><circle cx="19.3" cy="221.6" r="5.4" style="fill:none; stroke:#c30c17; stroke-miterlimit:10;"/><rect x="20.1" y="217.2" width="6.8" height="6" transform="translate(-108 42) rotate(-30.3)" style="fill:#fff;"/><path d="m15.3,221.1s1.3.1,3.3,4.4l2.5-3.1s1.7-2,3.9-3.6c0,0,1.7-1.3,3.2-2.1,0,0-3.5,1.4-4.7,2.2,0,0-2.7,1.7-4.5,3.9,0,0-.5-1.3-2.4-3.1l-1.4,1.4Z" style="fill:#c30c17;"/><circle cx="19.3" cy="253.7" r="5.4" style="fill:none; stroke:#c30c17; stroke-miterlimit:10;"/><rect x="20.1" y="249.3" width="6.8" height="6" transform="translate(-124.2 46.4) rotate(-30.3)" style="fill:#fff;"/><path d="m15.3,253.2s1.3.1,3.3,4.4l2.5-3.1s1.7-2,3.9-3.6c0,0,1.7-1.3,3.2-2.1,0,0-3.5,1.4-4.7,2.2,0,0-2.7,1.7-4.5,3.9,0,0-.5-1.3-2.4-3.1l-1.4,1.4Z" style="fill:#c30c17;"/><circle cx="18.9" cy="285.9" r="5.4" style="fill:none; stroke:#c30c17; stroke-miterlimit:10;"/><rect x="19.7" y="281.5" width="6.8" height="6" transform="translate(-140.4 50.5) rotate(-30.3)" style="fill:#fff;"/><path d="m14.9,285.3s1.3.1,3.3,4.4l2.5-3.1s1.7-2,3.9-3.6c0,0,1.7-1.3,3.2-2.1,0,0-3.5,1.4-4.7,2.2,0,0-2.7,1.7-4.5,3.9,0,0-.5-1.3-2.4-3.1l-1.4,1.4Z" style="fill:#c30c17;"/><circle cx="18.9" cy="318" r="5.4" style="fill:none; stroke:#c30c17; stroke-miterlimit:10;"/><rect x="19.7" y="313.6" width="6.8" height="6" transform="translate(-156.7 54.9) rotate(-30.3)" style="fill:#fff;"/><path d="m14.9,317.4s1.3.1,3.3,4.4l2.5-3.1s1.7-2,3.9-3.6c0,0,1.7-1.3,3.2-2.1,0,0-3.5,1.4-4.7,2.2,0,0-2.7,1.7-4.5,3.9,0,0-.5-1.3-2.4-3.1l-1.4,1.4Z" style="fill:#c30c17;"/><circle cx="18.9" cy="350.1" r="5.4" style="fill:none; stroke:#c30c17; stroke-miterlimit:10;"/><rect x="19.7" y="345.7" width="6.8" height="6" transform="translate(-172.9 59.3) rotate(-30.3)" style="fill:#fff;"/><path d="m14.9,349.6s1.3.1,3.3,4.4l2.5-3.1s1.7-2,3.9-3.6c0,0,1.7-1.3,3.2-2.1,0,0-3.5,1.4-4.7,2.2,0,0-2.7,1.7-4.5,3.9,0,0-.5-1.3-2.4-3.1l-1.4,1.4Z" style="fill:#c30c17;"/><circle cx="18.9" cy="382.4" r="5.4" style="fill:none; stroke:#c30c17; stroke-miterlimit:10;"/><rect x="19.6" y="378" width="6.8" height="6" transform="translate(-189.1 63.7) rotate(-30.3)" style="fill:#fff;"/><path d="m14.9,381.8s1.3.1,3.3,4.4l2.5-3.1s1.7-2,3.9-3.6c0,0,1.7-1.3,3.2-2.1,0,0-3.5,1.4-4.7,2.2,0,0-2.7,1.7-4.5,3.9,0,0-.5-1.3-2.4-3.1l-1.4,1.4Z" style="fill:#c30c17;"/><circle cx="18.9" cy="414.9" r="5.4" style="fill:none; stroke:#c30c17; stroke-miterlimit:10;"/><rect x="19.6" y="410.5" width="6.8" height="6" transform="translate(-205.6 68.2) rotate(-30.3)" style="fill:#fff;"/><path d="m14.9,414.3s1.3.1,3.3,4.4l2.5-3.1s1.7-2,3.9-3.6c0,0,1.7-1.3,3.2-2.1,0,0-3.5,1.4-4.7,2.2,0,0-2.7,1.7-4.5,3.9,0,0-.5-1.3-2.4-3.1l-1.4,1.4Z" style="fill:#c30c17;"/><text transform="translate(65.2 26.9)" style="fill:#fff; font-family:Arial-BoldMT, Arial; font-size:17px; font-weight:700;"><tspan x="0" y="0">Why Choose</tspan><tspan x="102.9" y="0" style="letter-spacing:0em;"> </tspan><tspan x="107" y="0">Astute</tspan><tspan x="159.9" y="0" style="letter-spacing:0em;"> </tspan><tspan x="164" y="0">Analytica</tspan></text><text transform="translate(42.2 65.2)" style="font-family:ArialMT, Arial; font-size:10px;"><tspan x="0" y="0">Focused Industry Expertise</tspan></text><text transform="translate(42.2 97.1)" style="font-family:ArialMT, Arial; font-size:10px;"><tspan x="0" y="0">Diverse Report O</tspan><tspan x="77.2" y="0" style="letter-spacing:0em;">f</tspan><tspan x="79.8" y="0">ferings</tspan></text><text transform="translate(42.2 128.8)" style="font-family:ArialMT, Arial; font-size:10px;"><tspan x="0" y="0">Personalized Research Solutions</tspan></text><text transform="translate(42.2 161.6)" style="font-family:ArialMT, Arial; font-size:10px;"><tspan x="0" y="0">Robust Research Methodology</tspan></text><text transform="translate(42.2 193.3)" style="font-family:ArialMT, Arial; font-size:10px;"><tspan x="0" y="0">In-depth Report Coverage</tspan></text><text transform="translate(42.2 225.4)" style="font-family:ArialMT, Arial; font-size:10px;"><tspan x="0" y="0" style="letter-spacing:0em;">T</tspan><tspan x="5.7" y="0">racking</tspan><tspan x="38" y="0" style="letter-spacing:0em;"> </tspan><tspan x="40.6" y="0" style="letter-spacing:-.1em;">T</tspan><tspan x="45.6" y="0">ech</tspan><tspan x="61.7" y="0" style="letter-spacing:0em;"> </tspan><tspan x="63.9" y="0">Advancements</tspan></text><text transform="translate(42.2 257.1)" style="font-family:ArialMT, Arial; font-size:10px;"><tspan x="0" y="0">Comprehensive </tspan><tspan x="72.8" y="0" style="letter-spacing:0em;">V</tspan><tspan x="78.7" y="0">alue-Chain</tspan><tspan x="127.1" y="0" style="letter-spacing:0em;"> </tspan><tspan x="129.3" y="0">Analysis</tspan></text><text transform="translate(42.2 288.8)" style="font-family:ArialMT, Arial; font-size:10px;"><tspan x="0" y="0">Discovering Market Prospects</tspan></text><text transform="translate(42.3 321.8)" style="font-family:ArialMT, Arial; font-size:10px;"><tspan x="0" y="0">Analyzing Growth</tspan><tspan x="78.4" y="0" style="letter-spacing:0em;"> </tspan><tspan x="81" y="0" style="letter-spacing:0em;">T</tspan><tspan x="86.7" y="0">rajectories</tspan></text><text transform="translate(42.3 353.3)" style="font-family:ArialMT, Arial; font-size:10px;"><tspan x="0" y="0">Assured Quality Insights</tspan></text><text transform="translate(42.2 385.7)" style="font-family:ArialMT, Arial; font-size:10px;"><tspan x="0" y="0">Dedicated</tspan><tspan x="45" y="0" style="letter-spacing:0em;"> </tspan><tspan x="47.3" y="0">After-Sales Service</tspan></text><text transform="translate(42.2 416.4)" style="font-family:ArialMT, Arial; font-size:10px;"><tspan x="0" y="0">Chosen by Fortune 500</tspan></text><rect x="4.5" y="45.9" width="336" height="29.6" style="fill:none; opacity:.5; stroke:#ed1c24; stroke-miterlimit:10; stroke-width:.8px;"/><rect x="4.5" y="110.2" width="336" height="29.6" style="fill:none; opacity:.5; stroke:#ed1c24; stroke-miterlimit:10; stroke-width:.8px;"/><rect x="4.5" y="142.3" width="336" height="29.6" style="fill:none; opacity:.5; stroke:#ed1c24; stroke-miterlimit:10; stroke-width:.8px;"/><rect x="4.5" y="174.4" width="336" height="29.6" style="fill:none; opacity:.5; stroke:#ed1c24; stroke-miterlimit:10; stroke-width:.8px;"/><rect x="4.5" y="206.5" width="336" height="29.6" style="fill:none; opacity:.5; stroke:#ed1c24; stroke-miterlimit:10; stroke-width:.8px;"/><rect x="4.5" y="238.6" width="336" height="29.6" style="fill:none; opacity:.5; stroke:#ed1c24; stroke-miterlimit:10; stroke-width:.8px;"/><rect x="4.5" y="270.8" width="336" height="29.6" style="fill:none; opacity:.5; stroke:#ed1c24; stroke-miterlimit:10; stroke-width:.8px;"/><rect x="4.5" y="302.9" width="336" height="29.6" style="fill:none; opacity:.5; stroke:#ed1c24; stroke-miterlimit:10; stroke-width:.8px;"/><rect x="4.5" y="335" width="336" height="29.6" style="fill:none; opacity:.5; stroke:#ed1c24; stroke-miterlimit:10; stroke-width:.8px;"/><rect x="4.5" y="367.1" width="336" height="29.6" style="fill:none; opacity:.5; stroke:#ed1c24; stroke-miterlimit:10; stroke-width:.8px;"/><rect x="4.5" y="399.2" width="336" height="29.6" style="fill:none; opacity:.5; stroke:#ed1c24; stroke-miterlimit:10; stroke-width:.8px;"/><rect x="4.5" y="78" width="336" height="29.6" style="fill:none; opacity:.5; stroke:#ed1c24; stroke-miterlimit:10; stroke-width:.8px;"/></svg>