<?xml version="1.0" encoding="UTF-8"?><svg id="a" xmlns="http://www.w3.org/2000/svg" viewBox="0 0 344 500"><path d="m4.8,437.3h336v32.6c0,0,2.3,19.5-19.6,22.9H24.7s-15.7,0-19.9-19.4v-36.1Z" style="fill:none; opacity:.5; stroke:#ed1c24; stroke-miterlimit:10; stroke-width:.8px;"/><rect x="4.9" y="434.8" width="336" height="3.2" style="fill:#fff;"/><rect x="4.9" y="17.5" width="335.9" height="21.1" style="fill:#c30c17;"/><rect x="4.8" y="-.2" width="336" height="38.8" rx="19.4" ry="19.4" style="fill:#c30c17;"/><rect x="4.8" y="40.9" width="336" height="2.7" style="fill:#c30c17;"/><rect x="4.8" y="46.6" width="336" height="390.7" style="fill:none; opacity:.5; stroke:#ed1c24; stroke-miterlimit:10; stroke-width:.8px;"/><path d="m53.2,24.4c-.1.2-.3.3-.4.5,0,0,0,0,0,0,0,0,0,0,0,0,.1.2.3.3.4.5,0,0,0,0,0,0,.1.2.2.5.3.7.2.5.1,1.1,0,1.6,0,0,0,.2,0,.2,0,0,0,0,0,0-.2.4-.5.7-.8,1,0,0-.1,0-.2.1-.1,0-.3.2-.4.3,0,.1,0,.3.1.4,0,0,0,0,0,0,0,0,0,0,0,0,0,0,0,0,0,0,0,.1,0,.2,0,.4,0,0,0,0,0,0,0,.6,0,1.2-.4,1.7h0c-.2.3-.5.6-.7.8,0,0,0,0,0,0-.3.2-.6.3-.9.5,0,0,0,0-.1,0,0,0,0,0,0,0-.2,0-.4,0-.6.1,0,0-.2,0-.2,0-.2,0-.3,0-.5,0-3.3,0-6.6,0-9.9,0,0,0-.2,0-.3,0,0,0-.1,0-.2,0-.3,0-.7-.1-1-.2,0,0,0,0,0,0-.3-.1-.7-.3-1-.4,0,0,0,0,0,0-.4-.2-.8-.4-1.1-.7-.6-.5-1.1-1-1.5-1.7,0-.1-.1-.3-.2-.4,0,0,0,0,0,0,0,0,0-.2-.1-.3,0,0,0,0,0,0,0-.1,0-.2-.1-.4,0,0,0,0,0,0,0-.4-.2-.7-.2-1.1,0,0,0,0,0-.1,0-.5,0-1.1,0-1.6,0-2,0-4,0-6,0,0,0,0,0-.1h0c0-.4.1-.8.2-1.1.2-.7.6-1.4,1-2,0,0,0,0,0,0,.3-.4.6-.8.9-1.2,0-.1.2-.2.3-.4,0,0,0,0,0,0,.5-.8,1.1-1.5,1.6-2.3.9-1.2,1.7-2.4,2.6-3.5.7-.9,1.3-1.8,2-2.7,0,0,0,0,0-.1,0,0,0,0,0,0,.3-.4.7-.8,1.2-.9,0,0,0,0,0,0,.8-.2,1.5-.1,2.1.4.6.4,1,1,1.1,1.7.2.8.1,1.6-.2,2.4-.2.4-.3.8-.5,1.2-.3.8-.7,1.5-1,2.3-.3.7-.6,1.3-.9,2h.2c5.3,0,10.6,0,15.9,0,.5,0,1,.1,1.5.4.5.3.9.8,1.1,1.4.1.3.2.6.2,1,0,.4,0,.8-.3,1.2,0,0,0,0,0,0h0c-.2.5-.5.8-.9,1-.4.3-.9.5-1.4.4-2.1,0-4.2,0-6.3,0,0,0,0,0-.2,0,0,.2.1.3.2.4.3.6.2,1.1,0,1.7,0,.2-.2.4-.3.6,0,0,0,0,0,0Zm-18.3,5.9h0c0,.1.2.3.3.4,0,0,0,0,.1.1h0s0,0,0,0c.1.1.2.2.3.3,0,0,0,0,.1.1.1,0,.2.2.3.3.2.1.4.2.6.4.5.3,1.1.4,1.7.5,0,0,0,0,0,0,.7,0,1.3,0,2,0,2.8,0,5.7,0,8.5,0h0c.3,0,.6,0,.8-.2,0,0,0,0,0,0,0,0,0,0,0,0,0,0,0,0,0,0h.1c0,0,0-.1,0-.1,0,0,0,0,.1,0,.4-.3.7-.7.6-1.3,0-.2,0-.4-.1-.6h0c0-.2-.2-.4-.3-.6,0,0,0,0,0,0,0-.4.1-.8.5-.9,0,0,0,0,0,0,.1,0,.3-.2.4-.2,0,0,0,0,0,0,0,0,.2-.1.2-.2.2-.2.5-.5.5-.9,0,0,0,0,0,0,0-.2,0-.3,0-.5h0c0-.5-.4-.8-.8-1-.3-.2-.5-.4-.5-.8,0,0,0,0,0,0,0-.2.2-.3.3-.4.2-.2.5-.4.7-.6.5-.7.4-1.6-.2-2.1,0,0,0,0,0,0-.2-.1-.4-.3-.4-.5,0,0,0,0,0,0,0,0,0,0,0-.1,0,0,0,0,0,0,0-.2.2-.3.3-.5,0,0,0,0,.1,0,.2,0,.4,0,.6,0,2.4,0,4.9,0,7.3,0,.2,0,.5,0,.7-.1.3-.1.5-.4.6-.6,0,0,0-.1,0-.2h0c0-.1,0-.1,0-.1,0,0,0,0,0,0,.2-.9-.5-1.5-1.3-1.6,0,0-.1,0-.2,0-5.6,0-11.2,0-16.7,0-.1,0-.3,0-.4,0,0,0,0,0,0,0-.3,0-.5-.3-.5-.6,0-.3.2-.6.3-.8,0,0,0,0,0,0,0,0,0,0,0,0,.2-.4.4-.8.6-1.2,0,0,0,0,0,0,0,0,0-.2.1-.3,0,0,0,0,0,0,0-.1,0-.2.1-.3.1-.3.3-.6.4-.9,0-.1.1-.3.2-.4,0,0,0,0,0-.1,0,0,0,0,0,0,0,0,0,0,0,0,0,0,0,0,0,0,0-.2.1-.3.2-.5,0,0,0,0,0,0v-.2c0,0,0,0,.1,0h0c0,0,0-.1,0-.2,0,0,0,0,0,0,0,0,0,0,0,0,0,0,0,0,0,0v-.3c0,0,.1,0,.1,0,0,0,0,0,0,0,0,0,0,0,0-.1,0,0,0,0,0-.1,0,0,0,0,0,0,0,0,0,0,0,0,0,0,0,0,0-.1,0,0,0,0,0,0h0c0-.2,0-.2,0-.2,0,0,0-.2,0-.2,0,0,0,0,0,0,0,0,0,0,0,0,0,0,0,0,0,0,0-.1,0-.2.1-.4h0c0-.3,0-.6,0-.9,0,0,0,0,0,0,0,0,0,0,0-.1,0,0,0,0,0,0,0,0,0-.1,0-.2,0,0,0,0,0,0,0,0,0,0,0-.1,0,0,0,0,0,0-.2-.2-.3-.3-.5-.5,0,0,0,0,0,0h-.3c0-.1,0-.1,0-.1h-.5s0,0,0,0c-.1,0-.2.1-.3.2,0,0,0,0,0,0-.1.2-.3.3-.4.5-.2.3-.4.6-.6.9,0,0,0,0,0,0,0,0,0,0,0,.1,0,0,0,0,0,0-.4.5-.8,1.1-1.2,1.6,0,0,0,0,0,0,0,0,0,.1-.1.2-.3.5-.6.9-1,1.4h0c0,.1-.1.2-.2.3h0c0,0,0,0,0,0,0,0,0,0,0,0,0,0-.2.2-.2.3-.2.3-.4.5-.6.8,0,0,0,0,0,0,0,0,0,0,0,0,0,0,0,0,0,0,0,0-.1.2-.2.3,0,0,0,0,0,0h0s0,0,0,0c-.2.2-.3.5-.5.7,0,0,0,0,0,0-.2.3-.4.5-.6.8-.2.2-.3.4-.4.7-.2.3-.4.5-.6.8,0,0,0,0,0,0,0,.1-.2.2-.2.3,0,0,0,0,0,0,0,0,0,0,0,0-.2.3-.5.6-.7,1,0,0,0,0,0,0-.3.4-.5.9-.6,1.4,0,0,0,.2,0,.2,0,.2,0,.4,0,.6,0,2.2,0,4.4,0,6.5,0,.3,0,.7.1,1,0,0,0,0,0,0,0,.3.2.6.3.9,0,0,0,0,0,0,0,.2.2.4.3.6,0,0,0,0,0,0h0Z" style="fill:#fff;"/><line x1="4.8" y1="79" x2="340.8" y2="79" style="fill:none; opacity:.5; stroke:#ed1c24; stroke-miterlimit:10; stroke-width:.5px;"/><line x1="4.8" y1="112.5" x2="340.8" y2="112.5" style="fill:none; opacity:.5; stroke:#ed1c24; stroke-miterlimit:10; stroke-width:.5px;"/><line x1="3.9" y1="145" x2="339.9" y2="145" style="fill:none; opacity:.5; stroke:#ed1c24; stroke-miterlimit:10; stroke-width:.5px;"/><line x1="4.8" y1="178.5" x2="340.8" y2="178.5" style="fill:none; opacity:.5; stroke:#ed1c24; stroke-miterlimit:10; stroke-width:.5px;"/><line x1="4.8" y1="211" x2="340.8" y2="211" style="fill:none; opacity:.5; stroke:#ed1c24; stroke-miterlimit:10; stroke-width:.5px;"/><line x1="4.9" y1="244.1" x2="340.9" y2="244.1" style="fill:none; opacity:.5; stroke:#ed1c24; stroke-miterlimit:10; stroke-width:.5px;"/><line x1="4.9" y1="275.6" x2="340.9" y2="275.6" style="fill:none; opacity:.5; stroke:#ed1c24; stroke-miterlimit:10; stroke-width:.5px;"/><line x1="4.9" y1="308.1" x2="340.9" y2="308.1" style="fill:none; opacity:.5; stroke:#ed1c24; stroke-miterlimit:10; stroke-width:.5px;"/><line x1="4.9" y1="340.1" x2="340.9" y2="340.1" style="fill:none; opacity:.5; stroke:#ed1c24; stroke-miterlimit:10; stroke-width:.5px;"/><line x1="4.9" y1="371.9" x2="340.9" y2="371.9" style="fill:none; opacity:.5; stroke:#ed1c24; stroke-miterlimit:10; stroke-width:.5px;"/><line x1="4.8" y1="404.7" x2="340.8" y2="404.7" style="fill:none; opacity:.5; stroke:#ed1c24; stroke-miterlimit:10; stroke-width:.5px;"/><circle cx="17.8" cy="64.4" r="9.1" style="fill:none; stroke:#ed1c24; stroke-miterlimit:10; stroke-width:.2px;"/><rect x="20.1" y="56.5" width="7.9" height="7.9" transform="translate(-36.8 37.5) rotate(-47.6)" style="fill:#fff;"/><path d="m12.6,64.9s1.7-.3,5.2,5.2c0,0,3-5.3,3.4-5.8,0,0,4.5-6.3,7.5-7.8,0,0-7.2,3.8-10.8,9.9,0,0-1.8-2.5-3.8-3.6l-1.6,2.1Z" style="fill:#c30c17;"/><circle cx="17.8" cy="96.8" r="9.1" style="fill:none; stroke:#ed1c24; stroke-miterlimit:10; stroke-width:.2px;"/><rect x="20.1" y="88.9" width="7.9" height="7.9" transform="translate(-60.7 48.1) rotate(-47.6)" style="fill:#fff;"/><path d="m12.6,97.3s1.7-.3,5.2,5.2c0,0,3-5.3,3.4-5.8,0,0,4.5-6.3,7.5-7.8,0,0-7.2,3.8-10.8,9.9,0,0-1.8-2.5-3.8-3.6l-1.6,2.1Z" style="fill:#c30c17;"/><circle cx="17.8" cy="130.1" r="9.1" style="fill:none; stroke:#ed1c24; stroke-miterlimit:10; stroke-width:.2px;"/><rect x="20.1" y="122.2" width="7.9" height="7.9" transform="translate(-85.4 59) rotate(-47.6)" style="fill:#fff;"/><path d="m12.6,130.7s1.7-.3,5.2,5.2c0,0,3-5.3,3.4-5.8,0,0,4.5-6.3,7.5-7.8,0,0-7.2,3.8-10.8,9.9,0,0-1.8-2.5-3.8-3.6l-1.6,2.1Z" style="fill:#c30c17;"/><circle cx="17.8" cy="162.5" r="9.1" style="fill:none; stroke:#ed1c24; stroke-miterlimit:10; stroke-width:.2px;"/><rect x="20.1" y="154.6" width="7.9" height="7.9" transform="translate(-109.3 69.5) rotate(-47.6)" style="fill:#fff;"/><path d="m12.6,163.1s1.7-.3,5.2,5.2c0,0,3-5.3,3.4-5.8,0,0,4.5-6.3,7.5-7.8,0,0-7.2,3.8-10.8,9.9,0,0-1.8-2.5-3.8-3.6l-1.6,2.1Z" style="fill:#c30c17;"/><circle cx="17.8" cy="194.9" r="9.1" style="fill:none; stroke:#ed1c24; stroke-miterlimit:10; stroke-width:.2px;"/><rect x="20.1" y="187" width="7.9" height="7.9" transform="translate(-133.3 80.1) rotate(-47.6)" style="fill:#fff;"/><path d="m12.6,195.5s1.7-.3,5.2,5.2c0,0,3-5.3,3.4-5.8,0,0,4.5-6.3,7.5-7.8,0,0-7.2,3.8-10.8,9.9,0,0-1.8-2.5-3.8-3.6l-1.6,2.1Z" style="fill:#c30c17;"/><circle cx="17.8" cy="227.3" r="9.1" style="fill:none; stroke:#ed1c24; stroke-miterlimit:10; stroke-width:.2px;"/><rect x="20.1" y="219.4" width="7.9" height="7.9" transform="translate(-157.2 90.7) rotate(-47.6)" style="fill:#fff;"/><path d="m12.6,227.9s1.7-.3,5.2,5.2c0,0,3-5.3,3.4-5.8,0,0,4.5-6.3,7.5-7.8,0,0-7.2,3.8-10.8,9.9,0,0-1.8-2.5-3.8-3.6l-1.6,2.1Z" style="fill:#c30c17;"/><circle cx="17.8" cy="259.7" r="9.1" style="fill:none; stroke:#ed1c24; stroke-miterlimit:10; stroke-width:.2px;"/><rect x="20.1" y="251.8" width="7.9" height="7.9" transform="translate(-181.1 101.2) rotate(-47.6)" style="fill:#fff;"/><path d="m12.6,260.3s1.7-.3,5.2,5.2c0,0,3-5.3,3.4-5.8,0,0,4.5-6.3,7.5-7.8,0,0-7.2,3.8-10.8,9.9,0,0-1.8-2.5-3.8-3.6l-1.6,2.1Z" style="fill:#c30c17;"/><circle cx="17.8" cy="292.1" r="9.1" style="fill:none; stroke:#ed1c24; stroke-miterlimit:10; stroke-width:.2px;"/><rect x="20.1" y="284.2" width="7.9" height="7.9" transform="translate(-205.1 111.8) rotate(-47.6)" style="fill:#fff;"/><path d="m12.6,292.6s1.7-.3,5.2,5.2c0,0,3-5.3,3.4-5.8,0,0,4.5-6.3,7.5-7.8,0,0-7.2,3.8-10.8,9.9,0,0-1.8-2.5-3.8-3.6l-1.6,2.1Z" style="fill:#c30c17;"/><circle cx="17.8" cy="322.5" r="9.1" style="fill:none; stroke:#ed1c24; stroke-miterlimit:10; stroke-width:.2px;"/><rect x="20.1" y="314.6" width="7.9" height="7.9" transform="translate(-227.5 121.7) rotate(-47.6)" style="fill:#fff;"/><path d="m12.6,323s1.7-.3,5.2,5.2c0,0,3-5.3,3.4-5.8,0,0,4.5-6.3,7.5-7.8,0,0-7.2,3.8-10.8,9.9,0,0-1.8-2.5-3.8-3.6l-1.6,2.1Z" style="fill:#c30c17;"/><circle cx="17.8" cy="355.9" r="9.1" style="fill:none; stroke:#ed1c24; stroke-miterlimit:10; stroke-width:.2px;"/><rect x="20.1" y="348" width="7.9" height="7.9" transform="translate(-252.2 132.6) rotate(-47.6)" style="fill:#fff;"/><path d="m12.6,356.4s1.7-.3,5.2,5.2c0,0,3-5.3,3.4-5.8,0,0,4.5-6.3,7.5-7.8,0,0-7.2,3.8-10.8,9.9,0,0-1.8-2.5-3.8-3.6l-1.6,2.1Z" style="fill:#c30c17;"/><circle cx="17.8" cy="388.2" r="9.1" style="fill:none; stroke:#ed1c24; stroke-miterlimit:10; stroke-width:.2px;"/><rect x="20.1" y="380.4" width="7.9" height="7.9" transform="translate(-276.1 143.2) rotate(-47.6)" style="fill:#fff;"/><path d="m12.6,388.8s1.7-.3,5.2,5.2c0,0,3-5.3,3.4-5.8,0,0,4.5-6.3,7.5-7.8,0,0-7.2,3.8-10.8,9.9,0,0-1.8-2.5-3.8-3.6l-1.6,2.1Z" style="fill:#c30c17;"/><circle cx="17.8" cy="420.6" r="9.1" style="fill:none; stroke:#ed1c24; stroke-miterlimit:10; stroke-width:.2px;"/><rect x="20.1" y="412.7" width="7.9" height="7.9" transform="translate(-300.1 153.7) rotate(-47.6)" style="fill:#fff;"/><path d="m12.6,421.2s1.7-.3,5.2,5.2c0,0,3-5.3,3.4-5.8,0,0,4.5-6.3,7.5-7.8,0,0-7.2,3.8-10.8,9.9,0,0-1.8-2.5-3.8-3.6l-1.6,2.1Z" style="fill:#c30c17;"/><text transform="translate(47.2 69.6)" style="fill:#02185a; font-family:Lato-Bold, Lato; font-size:10px; font-weight:700;"><tspan x="0" y="0" style="letter-spacing:0em;">F</tspan><tspan x="5.2" y="0">ocused </tspan><tspan x="39.3" y="0" style="letter-spacing:0em;">I</tspan><tspan x="42.1" y="0">ndustr</tspan><tspan x="70.9" y="0" style="letter-spacing:0em;">y</tspan><tspan x="76" y="0" xml:space="preserve"> Expertise</tspan></text><text transform="translate(47.2 101.4)" style="fill:#02185a; font-family:Lato-Bold, Lato; font-size:10px; font-weight:700;"><tspan x="0" y="0" style="letter-spacing:0em;">D</tspan><tspan x="7.5" y="0">i</tspan><tspan x="10.1" y="0" style="letter-spacing:0em;">v</tspan><tspan x="15.2" y="0">e</tspan><tspan x="20.5" y="0" style="letter-spacing:0em;">r</tspan><tspan x="24.2" y="0">se </tspan><tspan x="36.4" y="0" style="letter-spacing:0em;">R</tspan><tspan x="42.5" y="0" style="letter-spacing:0em;">eport </tspan><tspan x="69.1" y="0" style="letter-spacing:0em;">O</tspan><tspan x="77.2" y="0" style="letter-spacing:0em;">ff</tspan><tspan x="83.9" y="0">erings</tspan></text><text transform="translate(47.2 133.2)" style="fill:#02185a; font-family:Lato-Bold, Lato; font-size:10px; font-weight:700;"><tspan x="0" y="0" style="letter-spacing:0em;">P</tspan><tspan x="6" y="0">e</tspan><tspan x="11.3" y="0" style="letter-spacing:0em;">r</tspan><tspan x="15" y="0">sonali</tspan><tspan x="40.9" y="0" style="letter-spacing:0em;">z</tspan><tspan x="45.4" y="0">ed </tspan><tspan x="58.8" y="0" style="letter-spacing:0em;">R</tspan><tspan x="64.9" y="0" style="letter-spacing:0em;">esea</tspan><tspan x="85.1" y="0" style="letter-spacing:0em;">r</tspan><tspan x="88.7" y="0">ch </tspan><tspan x="101.6" y="0" style="letter-spacing:0em;">S</tspan><tspan x="107" y="0">olutions</tspan></text><text transform="translate(47.2 166.9)" style="fill:#02185a; font-family:Lato-Bold, Lato; font-size:10px; font-weight:700;"><tspan x="0" y="0" style="letter-spacing:0em;">R</tspan><tspan x="6.1" y="0">obust </tspan><tspan x="33.7" y="0" style="letter-spacing:0em;">R</tspan><tspan x="39.8" y="0" style="letter-spacing:0em;">esea</tspan><tspan x="59.9" y="0" style="letter-spacing:0em;">r</tspan><tspan x="63.5" y="0">ch </tspan><tspan x="76.4" y="0" style="letter-spacing:0em;">M</tspan><tspan x="85.7" y="0" style="letter-spacing:0em;">e</tspan><tspan x="91" y="0">thodol</tspan><tspan x="120" y="0" style="letter-spacing:0em;">o</tspan><tspan x="125.7" y="0">g</tspan><tspan x="131" y="0" style="letter-spacing:0em;">y</tspan></text><text transform="translate(47.2 199.7)" style="fill:#02185a; font-family:Lato-Bold, Lato; font-size:10px; font-weight:700;"><tspan x="0" y="0" style="letter-spacing:0em;">I</tspan><tspan x="2.9" y="0" style="letter-spacing:0em;">n-de</tspan><tspan x="23.3" y="0" style="letter-spacing:0em;">p</tspan><tspan x="28.9" y="0">th </tspan><tspan x="40.7" y="0" style="letter-spacing:0em;">R</tspan><tspan x="46.8" y="0">eport </tspan><tspan x="73.4" y="0" style="letter-spacing:0em;">C</tspan><tspan x="79.9" y="0" style="letter-spacing:0em;">ov</tspan><tspan x="90.6" y="0">e</tspan><tspan x="96" y="0" style="letter-spacing:0em;">r</tspan><tspan x="99.6" y="0">a</tspan><tspan x="104.7" y="0" style="letter-spacing:0em;">g</tspan><tspan x="109.9" y="0">e</tspan></text><text transform="translate(47.2 231.7)" style="fill:#02185a; font-family:Lato-Bold, Lato; font-size:10px; font-weight:700;"><tspan x="0" y="0" style="letter-spacing:-.1em;">T</tspan><tspan x="5" y="0" style="letter-spacing:0em;">r</tspan><tspan x="8.7" y="0" style="letter-spacing:0em;">acking</tspan><tspan x="37.4" y="0" style="letter-spacing:0em;"> </tspan><tspan x="39.5" y="0" style="letter-spacing:-.1em;">T</tspan><tspan x="44.3" y="0" style="letter-spacing:0em;">ech</tspan><tspan x="60.1" y="0" style="letter-spacing:0em;"> </tspan><tspan x="62.2" y="0" style="letter-spacing:0em;">A</tspan><tspan x="69" y="0">d</tspan><tspan x="74.7" y="0" style="letter-spacing:0em;">v</tspan><tspan x="79.8" y="0">an</tspan><tspan x="90.6" y="0" style="letter-spacing:0em;">c</tspan><tspan x="95.3" y="0">eme</tspan><tspan x="114.3" y="0" style="letter-spacing:0em;">n</tspan><tspan x="119.9" y="0" style="letter-spacing:0em;">ts</tspan></text><text transform="translate(47.2 263.4)" style="fill:#02185a; font-family:Lato-Bold, Lato; font-size:10px; font-weight:700;"><tspan x="0" y="0" style="letter-spacing:0em;">C</tspan><tspan x="6.5" y="0">omp</tspan><tspan x="26.3" y="0" style="letter-spacing:0em;">r</tspan><tspan x="29.9" y="0" style="letter-spacing:0em;">ehensi</tspan><tspan x="58.8" y="0" style="letter-spacing:0em;">v</tspan><tspan x="63.9" y="0">e</tspan><tspan x="69.2" y="0" style="letter-spacing:0em;"> </tspan><tspan x="71.3" y="0" style="letter-spacing:0em;">V</tspan><tspan x="77.5" y="0">alue-Chain</tspan><tspan x="125.3" y="0" style="letter-spacing:0em;"> </tspan><tspan x="127.4" y="0" style="letter-spacing:0em;">A</tspan><tspan x="134.3" y="0">nal</tspan><tspan x="147.5" y="0" style="letter-spacing:0em;">y</tspan><tspan x="152.7" y="0">sis</tspan></text><text transform="translate(47.2 295.2)" style="fill:#02185a; font-family:Lato-Bold, Lato; font-size:10px; font-weight:700;"><tspan x="0" y="0" style="letter-spacing:0em;">D</tspan><tspan x="7.5" y="0">is</tspan><tspan x="14.5" y="0" style="letter-spacing:0em;">c</tspan><tspan x="19.2" y="0" style="letter-spacing:0em;">ov</tspan><tspan x="29.9" y="0">ering </tspan><tspan x="54.8" y="0" style="letter-spacing:0em;">M</tspan><tspan x="64.2" y="0">ar</tspan><tspan x="73" y="0" style="letter-spacing:0em;">k</tspan><tspan x="78.1" y="0" style="letter-spacing:0em;">e</tspan><tspan x="83.3" y="0" style="letter-spacing:0em;">t </tspan><tspan x="89.5" y="0" style="letter-spacing:0em;">P</tspan><tspan x="95.6" y="0" style="letter-spacing:0em;">r</tspan><tspan x="99.2" y="0">ospects</tspan></text><text transform="translate(47.3 327.1)" style="fill:#02185a; font-family:Lato-Bold, Lato; font-size:10px; font-weight:700;"><tspan x="0" y="0" style="letter-spacing:0em;">A</tspan><tspan x="6.9" y="0" style="letter-spacing:0em;">nalyzing </tspan><tspan x="45.9" y="0" style="letter-spacing:0em;">G</tspan><tspan x="53.1" y="0" style="letter-spacing:0em;">r</tspan><tspan x="56.7" y="0" style="letter-spacing:0em;">o</tspan><tspan x="62.3" y="0">wth</tspan><tspan x="79.7" y="0" style="letter-spacing:0em;"> </tspan><tspan x="81.8" y="0" style="letter-spacing:-.1em;">T</tspan><tspan x="86.8" y="0" style="letter-spacing:0em;">r</tspan><tspan x="90.5" y="0">ajec</tspan><tspan x="108.3" y="0" style="letter-spacing:0em;">t</tspan><tspan x="111.9" y="0">ories</tspan></text><text transform="translate(47.3 359.7)" style="fill:#02185a; font-family:Lato-Bold, Lato; font-size:10px; font-weight:700;"><tspan x="0" y="0">Assu</tspan><tspan x="21.4" y="0" style="letter-spacing:0em;">r</tspan><tspan x="25" y="0">ed </tspan><tspan x="38.4" y="0" style="letter-spacing:0em;">Q</tspan><tspan x="46.4" y="0" style="letter-spacing:0em;">ualit</tspan><tspan x="65.9" y="0" style="letter-spacing:0em;">y</tspan><tspan x="70.9" y="0"> </tspan><tspan x="73.3" y="0" style="letter-spacing:0em;">I</tspan><tspan x="76.2" y="0" style="letter-spacing:0em;">nsig</tspan><tspan x="94.1" y="0" style="letter-spacing:0em;">h</tspan><tspan x="99.6" y="0">ts</tspan></text><text transform="translate(47.2 392)" style="fill:#02185a; font-family:Lato-Bold, Lato; font-size:10px; font-weight:700;"><tspan x="0" y="0" style="letter-spacing:0em;">D</tspan><tspan x="7.5" y="0">edic</tspan><tspan x="25.9" y="0" style="letter-spacing:0em;">a</tspan><tspan x="30.9" y="0" style="letter-spacing:0em;">t</tspan><tspan x="34.6" y="0">ed</tspan><tspan x="45.6" y="0" style="letter-spacing:0em;"> </tspan><tspan x="47.7" y="0" style="letter-spacing:0em;">A</tspan><tspan x="54.4" y="0" style="letter-spacing:0em;">ft</tspan><tspan x="61.5" y="0">e</tspan><tspan x="66.8" y="0" style="letter-spacing:0em;">r</tspan><tspan x="70.4" y="0">-</tspan><tspan x="74.2" y="0" style="letter-spacing:0em;">S</tspan><tspan x="79.6" y="0" style="letter-spacing:0em;">ales </tspan><tspan x="99.3" y="0" style="letter-spacing:0em;">S</tspan><tspan x="104.8" y="0">ervi</tspan><tspan x="121.7" y="0" style="letter-spacing:0em;">c</tspan><tspan x="126.4" y="0">e</tspan></text><text transform="translate(47.2 421.7)" style="fill:#02185a; font-family:Lato-Bold, Lato; font-size:10px; font-weight:700;"><tspan x="0" y="0">Chosen </tspan><tspan x="35.8" y="0" style="letter-spacing:0em;">b</tspan><tspan x="41.3" y="0" style="letter-spacing:0em;">y</tspan><tspan x="46.4" y="0" style="letter-spacing:0em;"> </tspan><tspan x="48.8" y="0" style="letter-spacing:0em;">F</tspan><tspan x="54" y="0">ortune 500</tspan></text><text transform="translate(69.6 27)" style="fill:#fff; font-family:Arial-BoldMT, Arial; font-size:17px; font-weight:700;"><tspan x="0" y="0">Why Choose</tspan><tspan x="102.9" y="0" style="letter-spacing:0em;"> </tspan><tspan x="107" y="0">Astute</tspan><tspan x="159.9" y="0" style="letter-spacing:0em;"> </tspan><tspan x="164" y="0">Analytica</tspan></text></svg>