<svg xmlns="http://www.w3.org/2000/svg" width="508.586" height="318.483" viewBox="0 0 508.586 318.483">
  <g id="Group_3258" data-name="Group 3258" transform="translate(-3073.371 -2433.978)">
    <rect id="Rectangle_121" data-name="Rectangle 121" width="280.087" height="161.919" transform="translate(3181.142 2573.493)" fill="none"/>
    <g id="Group_3236" data-name="Group 3236" transform="translate(3203.831 2592.273)">
      <rect id="Rectangle_122" data-name="Rectangle 122" width="30.725" height="34.619" transform="translate(0 86.911)" fill="#c9c8c8"/>
      <rect id="Rectangle_123" data-name="Rectangle 123" width="30.725" height="46.099" transform="translate(49.007 75.431)" fill="#c9c8c8"/>
      <rect id="Rectangle_124" data-name="Rectangle 124" width="30.725" height="63.454" transform="translate(98.013 58.075)" fill="#c9c8c8"/>
      <rect id="Rectangle_125" data-name="Rectangle 125" width="30.724" height="83.279" transform="translate(147.02 38.251)" fill="#c9c8c8"/>
      <rect id="Rectangle_126" data-name="Rectangle 126" width="30.725" height="121.53" transform="translate(196.026)" fill="#c9c8c8"/>
    </g>
    <line id="Line_12" data-name="Line 12" x2="499.842" transform="translate(3073.371 2751.461)" fill="none" stroke="#a0462d" stroke-miterlimit="10" stroke-width="2"/>
    <path id="Path_3330" data-name="Path 3330" d="M387.757,236.642H124.6a14.582,14.582,0,0,0-14.58,14.58V418.893H402.337V251.222A14.582,14.582,0,0,0,387.757,236.642ZM393.4,414.606H118.958V248.083H393.4Z" transform="translate(3065.197 2326.804)" fill="#c30c17" stroke="#87080f" stroke-miterlimit="10" stroke-width="2"/>
    <path id="Rectangle_127" data-name="Rectangle 127" d="M5.125,0h315.21a5.125,5.125,0,0,1,5.125,5.125V8.742a9.125,9.125,0,0,1-9.125,9.125H9.125A9.125,9.125,0,0,1,0,8.742V5.125A5.125,5.125,0,0,1,5.125,0Z" transform="translate(3158.647 2732.474)" fill="#c30c17" stroke="#87080f" stroke-miterlimit="10" stroke-width="2"/>
    <path id="Path_3331" data-name="Path 3331" d="M132.532,400.342a3.5,3.5,0,1,1-3.5-3.5A3.5,3.5,0,0,1,132.532,400.342Z" transform="translate(3066.651 2341.822)" fill="#fff"/>
    <path id="Path_3332" data-name="Path 3332" d="M142.211,399.978a3.5,3.5,0,1,1-3.5-3.5A3.5,3.5,0,0,1,142.211,399.978Z" transform="translate(3067.558 2341.788)" fill="#fff"/>
    <g id="Group_3238" data-name="Group 3238" transform="translate(3505.054 2729.292)">
      <g id="Group_3237" data-name="Group 3237" transform="translate(0 0)">
        <path id="Path_3333" data-name="Path 3333" d="M449.679,401.249a7.589,7.589,0,0,1-.459,2.614,7.778,7.778,0,0,1-7.294,5.148H419.34a7.794,7.794,0,0,1-7.294-5.148,7.589,7.589,0,0,1-.459-2.614,13.018,13.018,0,0,1,12.974-12.976H436.7a13.022,13.022,0,0,1,12.974,12.976Z" transform="translate(-411.586 -388.273)" fill="none" stroke="#c30c17" stroke-miterlimit="10" stroke-width="2"/>
        <path id="Path_3334" data-name="Path 3334" d="M449.18,402.527a7.778,7.778,0,0,1-7.294,5.148H419.3a7.794,7.794,0,0,1-7.294-5.148Z" transform="translate(-411.547 -386.937)" fill="none" stroke="#c30c17" stroke-miterlimit="10" stroke-width="2"/>
        <line id="Line_13" data-name="Line 13" y2="15.59" transform="translate(19.047 0)" fill="#fff" stroke="#c30c17" stroke-miterlimit="10" stroke-width="2"/>
      </g>
    </g>
    <g id="Group_3239" data-name="Group 3239" transform="translate(3203.831 2608.765)">
      <path id="Path_3335" data-name="Path 3335" d="M339.072,279.906l12.14-1.829,1.164,12.658" transform="translate(-117.161 -278.077)" fill="none" stroke="#c30c17" stroke-linecap="round" stroke-linejoin="round" stroke-width="5"/>
      <path id="Path_3336" data-name="Path 3336" d="M136.182,382.993l34.382-24.74L195.72,370.06,253.8,308.2l44.49,54.213,70.93-83.039" transform="translate(-136.182 -277.955)" fill="none" stroke="#c30c17" stroke-linecap="round" stroke-linejoin="round" stroke-width="5"/>
    </g>
    <g id="Group_3242" data-name="Group 3242" transform="translate(3466.865 2434.978)">
      <g id="Group_3241" data-name="Group 3241" transform="translate(0 0)">
        <path id="Path_3337" data-name="Path 3337" d="M402.973,128.615H391.047s-14.185,14.122-14.373,24.1,6.507,14.98,9.436,15.4,10.9.276,10.9.276,7.971.142,10.9-.276,9.624-5.42,9.436-15.4S402.973,128.615,402.973,128.615Z" transform="translate(-376.67 -118.301)" fill="none" stroke="#c30c17" stroke-miterlimit="10" stroke-width="2"/>
        <path id="Path_3338" data-name="Path 3338" d="M402.176,126.873l4.665-4.737a3.556,3.556,0,0,0-2.951-1.714c-2,0-1.88,1.119-3.357,1.119s-2.569-2.332-4.212-2.356-2.618,2.475-4.331,2.38-1.548-1.19-3.118-1.19-3.047,1.714-3.047,1.714l4.689,4.784Z" transform="translate(-375.812 -119.185)" fill="none" stroke="#c30c17" stroke-miterlimit="10" stroke-width="2"/>
        <path id="Path_3339" data-name="Path 3339" d="M402.558,127.527c0,.725-.393,1.314-.877,1.314H390c-.485,0-.876-.588-.876-1.314h0c0-.725.392-1.312.876-1.312h11.678c.485,0,.877.587.877,1.313Z" transform="translate(-375.503 -118.526)" fill="none" stroke="#c30c17" stroke-miterlimit="10" stroke-width="2"/>
      </g>
    </g>
    <path id="Path_3342" data-name="Path 3342" d="M180.014,140.989H162.405a4.166,4.166,0,0,0-4.364,3.934V187.56a4.165,4.165,0,0,0,4.364,3.933h17.609a4.165,4.165,0,0,0,4.363-3.933V144.923A4.166,4.166,0,0,0,180.014,140.989Z" transform="translate(3069.699 2317.837)" fill="none" stroke="#c30c17" stroke-miterlimit="10" stroke-width="1"/>
    <path id="Path_3343" data-name="Path 3343" d="M173.15,143.8a.471.471,0,0,1-.493.444h-3.779a.47.47,0,0,1-.493-.444h0a.47.47,0,0,1,.493-.445h3.779a.471.471,0,0,1,.493.445Z" transform="translate(3070.669 2318.059)" fill="#c30c17"/>
    <path id="Path_3344" data-name="Path 3344" d="M167.707,143.8a.535.535,0,1,1-.533-.481A.509.509,0,0,1,167.707,143.8Z" transform="translate(3070.505 2318.055)" fill="#c30c17"/>
    <path id="Path_3345" data-name="Path 3345" d="M171.777,183.845a1.562,1.562,0,1,1-1.562-1.562A1.562,1.562,0,0,1,171.777,183.845Z" transform="translate(3070.694 2321.708)" fill="none" stroke="#c30c17" stroke-miterlimit="10" stroke-width="1"/>
    <rect id="Rectangle_128" data-name="Rectangle 128" width="20.243" height="38.395" transform="translate(3230.787 2464.335)" fill="none" stroke="#c30c17" stroke-miterlimit="10" stroke-width="1"/>
    <path id="Path_3346" data-name="Path 3346" d="M356.826,170.048a11.912,11.912,0,0,0-20.431-8.33,17.034,17.034,0,0,0-33.263.374,10.2,10.2,0,0,0-15.827,7.79h-2.827a5.458,5.458,0,1,0,0,10.917h64.5a5.411,5.411,0,0,0,3.218-1.069C355.352,178.1,356.826,174.672,356.826,170.048Z" transform="translate(3081.04 2318.545)" fill="none" stroke="#c30c17" stroke-miterlimit="10" stroke-width="2"/>
    <path id="Path_3347" data-name="Path 3347" d="M409.846,297.621a11.911,11.911,0,0,1,20.43-8.33,17.034,17.034,0,0,1,33.263.375,10.2,10.2,0,0,1,15.827,7.789h2.827a5.458,5.458,0,1,1,0,10.917h-64.5a5.417,5.417,0,0,1-3.217-1.067C411.32,305.67,409.846,302.245,409.846,297.621Z" transform="translate(3093.305 2330.505)" fill="none" stroke="#c30c17" stroke-miterlimit="10" stroke-width="2"/>
    <path id="Path_3348" data-name="Path 3348" d="M55.247,390.81a2.177,2.177,0,0,0,2.172-2.173l-4.344,0A2.173,2.173,0,0,0,55.247,390.81Z" transform="translate(3059.859 2341.053)" fill="none" stroke="#c30c17" stroke-miterlimit="10" stroke-width="2"/>
    <path id="Path_3349" data-name="Path 3349" d="M60.257,364.509" transform="translate(3060.532 2338.791)" fill="none" stroke="#c30c17" stroke-miterlimit="10" stroke-width="2"/>
    <path id="Path_3350" data-name="Path 3350" d="M61.157,365.1l0,7.679-11.328.009,0-7.678" transform="translate(3059.554 2338.847)" fill="none" stroke="#c30c17" stroke-miterlimit="10" stroke-width="2"/>
    <path id="Path_3351" data-name="Path 3351" d="M69.034,355.514a12.86,12.86,0,1,1-12.87-12.854A12.857,12.857,0,0,1,69.034,355.514Z" transform="translate(3058.944 2336.743)" fill="none" stroke="#c30c17" stroke-miterlimit="10" stroke-width="2"/>
    <path id="Path_3352" data-name="Path 3352" d="M61.521,375.591a1.116,1.116,0,0,1-1.113,1.117l-9.672.007A1.118,1.118,0,0,1,49.62,375.6h0a1.115,1.115,0,0,1,1.115-1.118l9.67-.005a1.114,1.114,0,0,1,1.117,1.113Z" transform="translate(3059.535 2339.726)" fill="none" stroke="#c30c17" stroke-miterlimit="10" stroke-width="2"/>
    <path id="Path_3353" data-name="Path 3353" d="M61.522,380.155a1.115,1.115,0,0,1-1.112,1.115l-9.672.007a1.117,1.117,0,0,1-1.117-1.115h0a1.116,1.116,0,0,1,1.115-1.117l9.672-.008a1.117,1.117,0,0,1,1.115,1.118Z" transform="translate(3059.535 2340.153)" fill="none" stroke="#c30c17" stroke-miterlimit="10" stroke-width="2"/>
    <path id="Path_3354" data-name="Path 3354" d="M61.524,384.712a1.113,1.113,0,0,1-1.112,1.118l-9.672.008a1.118,1.118,0,0,1-1.117-1.116h0a1.118,1.118,0,0,1,1.115-1.118l9.671-.007a1.115,1.115,0,0,1,1.116,1.115Z" transform="translate(3059.535 2340.581)" fill="none" stroke="#c30c17" stroke-miterlimit="10" stroke-width="2"/>
    <path id="Path_3355" data-name="Path 3355" d="M56.241,338.406l-.005-6.375a1.086,1.086,0,0,0-2.172,0l0,6.373Z" transform="translate(3059.951 2335.645)" fill="none" stroke="#c30c17" stroke-miterlimit="10" stroke-width="2"/>
    <path id="Path_3356" data-name="Path 3356" d="M71.967,355.386l6.373-.007a1.086,1.086,0,0,0,0-2.171l-6.373,0Z" transform="translate(3061.63 2337.732)" fill="none" stroke="#c30c17" stroke-miterlimit="10" stroke-width="2"/>
    <path id="Path_3357" data-name="Path 3357" d="M68.256,344.248l4.79-4.2a1.086,1.086,0,1,0-1.434-1.632l-4.791,4.2Z" transform="translate(3061.147 2336.319)" fill="none" stroke="#c30c17" stroke-miterlimit="10" stroke-width="2"/>
    <path id="Path_3358" data-name="Path 3358" d="M40.008,344.266l-4.795-4.195a1.087,1.087,0,0,1,1.432-1.636l4.8,4.195Z" transform="translate(3058.15 2336.322)" fill="none" stroke="#c30c17" stroke-miterlimit="10" stroke-width="2"/>
    <path id="Path_3359" data-name="Path 3359" d="M38.507,354.228l-6.373.005a1.086,1.086,0,0,0,0,2.172l6.374,0Z" transform="translate(3057.794 2337.827)" fill="none" stroke="#c30c17" stroke-miterlimit="10" stroke-width="2"/>
    <ellipse id="Ellipse_6421" data-name="Ellipse 6421" cx="24.399" cy="24.399" rx="24.399" ry="24.399" transform="translate(3287.542 2492.905)" fill="none" stroke="#c30c17" stroke-miterlimit="10" stroke-width="2"/>
    <path id="Path_3360" data-name="Path 3360" d="M235.828,177.336a1.209,1.209,0,1,1-1.21-1.209A1.209,1.209,0,0,1,235.828,177.336Z" transform="translate(3076.765 2321.131)" fill="#fff" stroke="#c30c17" stroke-miterlimit="10" stroke-width="2"/>
    <path id="Path_3361" data-name="Path 3361" d="M235.828,212.333a1.209,1.209,0,1,1-1.21-1.21A1.209,1.209,0,0,1,235.828,212.333Z" transform="translate(3076.765 2324.412)" fill="#fff" stroke="#c30c17" stroke-miterlimit="10" stroke-width="2"/>
    <path id="Path_3362" data-name="Path 3362" d="M217.43,195.417a1.209,1.209,0,1,0-1.207-1.209A1.209,1.209,0,0,0,217.43,195.417Z" transform="translate(3075.153 2322.713)" fill="#fff" stroke="#c30c17" stroke-miterlimit="10" stroke-width="2"/>
    <path id="Path_3363" data-name="Path 3363" d="M252.384,195.417a1.209,1.209,0,1,0-1.21-1.209A1.207,1.207,0,0,0,252.384,195.417Z" transform="translate(3078.43 2322.713)" fill="#fff" stroke="#c30c17" stroke-miterlimit="10" stroke-width="2"/>
    <g id="Group_3248" data-name="Group 3248" transform="translate(3298.826 2504.326)">
      <path id="Path_3364" data-name="Path 3364" d="M238.157,194.736a2.913,2.913,0,1,1-2.91-2.91A2.912,2.912,0,0,1,238.157,194.736Z" transform="translate(-222.162 -181.723)" fill="#c30c17"/>
      <path id="Path_3365" data-name="Path 3365" d="M235.968,196.621a.955.955,0,0,1-.956.955h0a.955.955,0,0,1-.953-.955v-13.08a.954.954,0,0,1,.953-.952h0a.955.955,0,0,1,.956.952Z" transform="translate(-222 -182.589)" fill="#c30c17"/>
      <path id="Path_3366" data-name="Path 3366" d="M224,195.64a1,1,0,0,1-.961-1.038h0a1,1,0,0,1,.952-1.046l13.08-.036a1,1,0,0,1,.958,1.038h0a1,1,0,0,1-.953,1.043Z" transform="translate(-223.034 -181.564)" fill="#c30c17"/>
    </g>
    <g id="Group_3257" data-name="Group 3257">
      <path id="Path_3367" data-name="Path 3367" d="M89.278,202.248a2.331,2.331,0,0,1-3.186-.844h0a2.334,2.334,0,0,1,.848-3.187l18.85-10.937a2.332,2.332,0,0,1,3.185.847h0a2.334,2.334,0,0,1-.847,3.186Z" transform="translate(3060.702 2323.366)" fill="none" stroke="#c30c17" stroke-miterlimit="10" stroke-width="2"/>
      <path id="Path_3368" data-name="Path 3368" d="M127.46,186.9a12.236,12.236,0,1,1-9.633-14.376A12.238,12.238,0,0,1,127.46,186.9Z" transform="translate(3064.56 2320.772)" fill="none" stroke="#c30c17" stroke-miterlimit="10" stroke-width="2"/>
      <path id="Path_3369" data-name="Path 3369" d="M124.033,186.007a9.024,9.024,0,1,1-7.1-10.6A9.025,9.025,0,0,1,124.033,186.007Z" transform="translate(3064.835 2321.047)" fill="none" stroke="#c30c17" stroke-miterlimit="10" stroke-width="1"/>
    </g>
    <path id="Path_3370" data-name="Path 3370" d="M385.5,211.523s-13.794,1.969-25.585,14.8-7.01,16.6-5.549,16.669,13.534-2.668,13.534-2.668l5.76-14Z" transform="translate(3118.898 2309.357)" fill="none" stroke="#c30c17" stroke-miterlimit="10" stroke-width="2"/>
    <path id="Path_3371" data-name="Path 3371" d="M413.442,231.229s.388,18.451-10.287,32.221-15.192,9.687-15.506,8.259-1.248-16.64-1.248-16.64l13.76-8.96Z" transform="translate(3123.918 2313.491)" fill="none" stroke="#c30c17" stroke-miterlimit="10" stroke-width="2"/>
    <path id="Path_3372" data-name="Path 3372" d="M429.019,191.84s-27.076.186-49.718,26.761-8.111,41.11-8.111,41.11,16.658,12.039,39.3-14.534S429.019,191.84,429.019,191.84Z" transform="translate(3120.25 2307.504)" fill="none" stroke="#c30c17" stroke-miterlimit="10" stroke-width="2"/>
    <path id="Path_3373" data-name="Path 3373" d="M408.539,225.134a9.179,9.179,0,1,1-1.033-12.94A9.179,9.179,0,0,1,408.539,225.134Z" transform="translate(3122.667 2309.206)" fill="#87080f" stroke="#c30c17" stroke-miterlimit="10" stroke-width="2"/>
    <g id="Group_3251" data-name="Group 3251" transform="translate(3530.023 2499.565)">
      <path id="Path_3374" data-name="Path 3374" d="M423.931,211.763c2.621-11.658,1.392-19.721,1.392-19.721s-8.156.068-19.251,4.505a19.849,19.849,0,0,0,17.859,15.216Z" transform="translate(-406.072 -192.042)" fill="#87080f" stroke="#c30c17" stroke-miterlimit="10" stroke-width="2"/>
    </g>
    <path id="Path_3375" data-name="Path 3375" d="M379.007,257.106l-6.56-3.04-4.16-6.56s-9.557,2.356-12.432,15.257c-1.968,8.839-.306,11.767-.306,11.767s3.165,1.148,11.55-2.272C379.336,267.266,379.007,257.106,379.007,257.106Z" transform="translate(3119.153 2312.734)" fill="none" stroke="#c30c17" stroke-miterlimit="10" stroke-width="2"/>
    <path id="Path_3376" data-name="Path 3376" d="M382.469,241.915c-.094-.074.089.081,0,0-2.732-2.486.109-5.459-9.233,6.873-9.158,12.087-7.183,13.031-7.1,13.063.046.074,1.306,1.864,11.692-9.186C388.422,241.39,385.379,244.192,382.469,241.915Z" transform="translate(3108.97 2324.885)" fill="none" stroke="#c30c17" stroke-miterlimit="10" stroke-width="2"/>
    <g id="Group_3256" data-name="Group 3256" transform="translate(3090.78 2559.535)">
      <g id="Group_3254" data-name="Group 3254" transform="translate(0 36.811)">
        <path id="Path_3377" data-name="Path 3377" d="M64.545,284.918a.79.79,0,0,1-.579.744l-3.82.578a11.386,11.386,0,0,1-.807,1.88c.7,1.012,1.448,1.921,2.209,2.851a.792.792,0,0,1,.208.514.691.691,0,0,1-.187.477c-.493.662-3.281,3.7-3.986,3.7a1.06,1.06,0,0,1-.536-.187L54.2,293.244a12.5,12.5,0,0,1-1.879.782,26.746,26.746,0,0,1-.6,3.842.752.752,0,0,1-.743.579H46.391a.737.737,0,0,1-.744-.621l-.577-3.8a11.73,11.73,0,0,1-1.862-.766L40.3,295.472a.785.785,0,0,1-.515.187.74.74,0,0,1-.517-.23,25.534,25.534,0,0,1-3.409-3.468.813.813,0,0,1-.144-.477.785.785,0,0,1,.165-.475c.7-.949,1.467-1.856,2.169-2.827a11.169,11.169,0,0,1-.847-2.044l-3.779-.561a.75.75,0,0,1-.6-.74v-4.586a.8.8,0,0,1,.558-.744l3.841-.578a10.809,10.809,0,0,1,.807-1.9c-.7-.991-1.448-1.921-2.209-2.852a.74.74,0,0,1-.208-.493.783.783,0,0,1,.187-.476c.493-.681,3.281-3.7,3.986-3.7a.943.943,0,0,1,.536.2l2.851,2.209a12.226,12.226,0,0,1,1.879-.782,26.872,26.872,0,0,1,.6-3.842.755.755,0,0,1,.744-.579h4.583a.734.734,0,0,1,.743.62l.58,3.8a11.857,11.857,0,0,1,1.86.765l2.932-2.211a.691.691,0,0,1,.494-.186.835.835,0,0,1,.517.2,26.236,26.236,0,0,1,3.409,3.511.718.718,0,0,1,.144.457.789.789,0,0,1-.165.476c-.7.949-1.467,1.855-2.169,2.827a11.472,11.472,0,0,1,.847,2.027l3.779.578a.751.751,0,0,1,.6.742ZM48.683,277.3a5.287,5.287,0,1,0,5.287,5.287A5.3,5.3,0,0,0,48.683,277.3Z" transform="translate(-32.82 -266.722)" fill="none" stroke="#c30c17" stroke-miterlimit="10" stroke-width="2"/>
      </g>
      <g id="Group_3255" data-name="Group 3255" transform="translate(23.548 0)">
        <path id="Path_3378" data-name="Path 3378" d="M91.361,254.295a.922.922,0,0,1-.675.867l-4.458.675a13.313,13.313,0,0,1-.942,2.192c.822,1.18,1.69,2.241,2.579,3.327a.929.929,0,0,1,.242.6.806.806,0,0,1-.218.556c-.576.772-3.829,4.314-4.651,4.314a1.238,1.238,0,0,1-.626-.219l-3.327-2.6a14.254,14.254,0,0,1-2.192.913,31.014,31.014,0,0,1-.7,4.482.873.873,0,0,1-.865.675H70.182a.858.858,0,0,1-.867-.724l-.675-4.433a13.835,13.835,0,0,1-2.171-.893l-3.4,2.578a.9.9,0,0,1-.6.219.864.864,0,0,1-.6-.268,29.763,29.763,0,0,1-3.977-4.046.941.941,0,0,1-.168-.556.916.916,0,0,1,.193-.555c.819-1.107,1.711-2.165,2.53-3.3a12.914,12.914,0,0,1-.987-2.385l-4.409-.653a.874.874,0,0,1-.7-.864v-5.351a.929.929,0,0,1,.65-.867l4.482-.675a12.625,12.625,0,0,1,.942-2.216c-.822-1.156-1.69-2.241-2.579-3.327a.866.866,0,0,1-.242-.576.914.914,0,0,1,.218-.555c.575-.794,3.828-4.314,4.651-4.314a1.106,1.106,0,0,1,.626.238l3.326,2.579a14.346,14.346,0,0,1,2.192-.913,31.319,31.319,0,0,1,.7-4.482.879.879,0,0,1,.867-.675h5.346a.855.855,0,0,1,.865.723l.677,4.434a13.835,13.835,0,0,1,2.171.892l3.421-2.579a.812.812,0,0,1,.576-.218.975.975,0,0,1,.6.238,30.718,30.718,0,0,1,3.977,4.1.839.839,0,0,1,.168.534.917.917,0,0,1-.193.556c-.819,1.107-1.712,2.163-2.53,3.3a13.5,13.5,0,0,1,.988,2.364l4.408.675a.875.875,0,0,1,.7.864ZM72.855,245.4a6.168,6.168,0,1,0,6.169,6.168A6.18,6.18,0,0,0,72.855,245.4Z" transform="translate(-54.35 -233.066)" fill="none" stroke="#c30c17" stroke-miterlimit="10" stroke-width="2"/>
      </g>
    </g>
  </g>
</svg>
