<svg xmlns="http://www.w3.org/2000/svg" width="686.804" height="378.188" viewBox="0 0 686.804 378.188">
  <g id="Group_3183" data-name="Group 3183" transform="translate(-2118.543 -2373.319)">
    <g id="Group_1917" data-name="Group 1917" transform="translate(2130.435 2691.802)">
      <ellipse id="Ellipse_6405" data-name="Ellipse 6405" cx="337.456" cy="29.853" rx="337.456" ry="29.853" fill="#eaeaea"/>
    </g>
    <g id="Group_1920" data-name="Group 1920" transform="translate(2530.793 2528.784)">
      <g id="Group_1918" data-name="Group 1918">
        <path id="Path_2647" data-name="Path 2647" d="M2571.2,880.939c1.131-2.034,4.217,4.318,4.217,4.318s-2.3-5.023-1.552-6.88c.6-1.479,3.478,2.758,4.625,4.543l.048-.033c-.969-1.84-3.179-6.37-2.154-7.592,1.163-1.385,4.507,4.8,5.107,5.915l.02-.008c-4.885-11.446,1.419-4.979,4.132.288.478-1.182,5.082-3.76,5.836-3.555.866.235-1.113,4-1.48,4.82a5.616,5.616,0,0,0,.942,5.875c.538.719-10.962,5.98-10.962,5.98a30.476,30.476,0,0,1-4.689-5.187,3.4,3.4,0,0,1-.491-.62c-.185-.3-.438-.685-.722-1.129l0,0h0C2572.71,885.538,2570.566,882.086,2571.2,880.939Z" transform="translate(-2571.088 -874.839)" fill="#ff7955"/>
      </g>
      <g id="Group_1919" data-name="Group 1919" transform="translate(10.913 8.396)">
        <path id="Path_2648" data-name="Path 2648" d="M2598.023,901.923a.174.174,0,0,1-.151-.087,2.806,2.806,0,0,1,.27-3.116,13.5,13.5,0,0,0,1.976-3.443.173.173,0,1,1,.323.124,13.6,13.6,0,0,1-2.04,3.549,2.445,2.445,0,0,0-.228,2.712.174.174,0,0,1-.065.237A.169.169,0,0,1,2598.023,901.923Z" transform="translate(-2597.51 -895.166)" fill="#ec865c"/>
      </g>
    </g>
    <g id="Group_1921" data-name="Group 1921" transform="translate(2537.938 2530.25)">
      <path id="Path_2649" data-name="Path 2649" d="M2625.116,878.388s-11.146,21.066-14.5,18.3a101.3,101.3,0,0,1-8.757-9.027s-12.188,5.145-13.467,10.261c0,0,10.505,21.585,27.53,21.372s20.2-35.658,20.2-35.658Z" transform="translate(-2588.388 -878.388)" fill="#f30a18"/>
    </g>
    <g id="Group_1922" data-name="Group 1922" transform="translate(2646.481 2591.686)">
      <path id="Path_2650" data-name="Path 2650" d="M2871.043,1035.029a36.971,36.971,0,0,0-3.213-7.9s-10.923.063-11.452,1.022c-1.22,2.213-2.637,7.118-3.814,9.354-.51.969-2,4.346-1.1,4.98.781.55,3.246-1.575,4.3-2.726.9,7.162,5.439,17.207,4.644,2.061h.025c.223,1.524,1.462,10,3.387,8.907,1.7-.967,1.066-7.075.726-9.585l.069-.017c.567,2.522,2.094,8.575,3.411,7.135,1.652-1.807,1.118-8.519,1.118-8.519s.872,8.559,3.036,6.707c1.475-1.263-.316-8.1-.825-10.5A4.093,4.093,0,0,0,2871.043,1035.029Z" transform="translate(-2851.178 -1027.13)" fill="#ff7955"/>
    </g>
    <g id="Group_1923" data-name="Group 1923" transform="translate(2574.666 2586.174)">
      <path id="Path_2651" data-name="Path 2651" d="M2744.536,1019.986c-.063,2.473-15.13,3.455-33.765,2.878s-33.526-3.134-33.462-5.607,15.058-3.925,33.693-3.348S2744.6,1017.514,2744.536,1019.986Z" transform="translate(-2677.309 -1013.784)" fill="#131f2d"/>
    </g>
    <g id="Group_1924" data-name="Group 1924" transform="translate(2574.667 2509.28)">
      <path id="Path_2652" data-name="Path 2652" d="M2739.975,840.712s-3.295-12.96-27.607-13.092c-35.061-.19-31.814,31.781-35.058,80.366,0,0,21.256-8.807,67.226,2.729C2744.536,910.715,2747.588,860.515,2739.975,840.712Z" transform="translate(-2677.31 -827.619)" fill="#c30c17"/>
    </g>
    <g id="Group_1925" data-name="Group 1925" transform="translate(2574.666 2509.173)">
      <path id="Path_2653" data-name="Path 2653" d="M2748.948,838.7l-15.879,8.719s-35.526,7.778-44.755,6.268-11-5.252-11-5.252,9.831-17.721,26.539-20.416c1.57-.255,3.2-.442,4.886-.551a48.384,48.384,0,0,1,8.446.166C2738.357,830,2748.948,838.7,2748.948,838.7Z" transform="translate(-2677.309 -827.36)" fill="#c30c17"/>
    </g>
    <g id="Group_1926" data-name="Group 1926" transform="translate(2603.615 2488.664)">
      <path id="Path_2654" data-name="Path 2654" d="M2756.849,795.357l-1.836-5.878-.534-1.711-3.141-10.062-.414,10.009-.247,6.007-.078,1.9c-.053,1.291-.846,1.562-1.811,2.684-.391.454-2.893,3.21-.053,4.455,3.537,1.551,10.149-.8,12.663-3.873C2761.379,798.885,2757.442,797.256,2756.849,795.357Z" transform="translate(-2747.397 -777.706)" fill="#ff7955"/>
    </g>
    <g id="Group_1928" data-name="Group 1928" transform="translate(2634.287 2522.561)">
      <g id="Group_1927" data-name="Group 1927">
        <path id="Path_2655" data-name="Path 2655" d="M2838.364,933.854c-1.462-15.971-4.815-38.8-12.49-56.886a54.523,54.523,0,0,0-3.906-8.051c-1.116-1.841.883-5.888,4.035-7.817,2.959-1.81,7.566-1.514,8.295-.617,1.24,1.524,2.562,4.444,4.62,9.082,7.152,16.113,11.437,36.927,13.173,63.762Z" transform="translate(-2821.655 -859.773)" fill="#ff7955"/>
      </g>
    </g>
    <g id="Group_1929" data-name="Group 1929" transform="translate(2599.189 2484.887)">
      <path id="Path_2656" data-name="Path 2656" d="M2736.967,768.56a13.112,13.112,0,0,0,0,5.489c.641,3.054,3.77-4.452,3.77-4.452Z" transform="translate(-2736.682 -768.56)" fill="#131f2d"/>
    </g>
    <g id="Group_1930" data-name="Group 1930" transform="translate(2597.647 2480.514)">
      <ellipse id="Ellipse_6406" data-name="Ellipse 6406" cx="10.783" cy="9.009" rx="10.783" ry="9.009" transform="translate(0 21.367) rotate(-82.203)" fill="#ff7955"/>
    </g>
    <g id="Group_1932" data-name="Group 1932" transform="translate(2607.476 2491.616)">
      <g id="Group_1931" data-name="Group 1931">
        <path id="Path_2657" data-name="Path 2657" d="M2756.83,785.2a.181.181,0,0,1,.082-.334,1.982,1.982,0,0,1,2.105,1.189.182.182,0,0,1-.082.243.2.2,0,0,1-.245-.082,3.137,3.137,0,0,0-1.748-.989A.184.184,0,0,1,2756.83,785.2Z" transform="translate(-2756.744 -784.853)" fill="#080435"/>
      </g>
    </g>
    <g id="Group_1933" data-name="Group 1933" transform="translate(2607.21 2493.374)">
      <path id="Path_2658" data-name="Path 2658" d="M2757.244,790.027c-.114.417-.455.688-.76.606a.7.7,0,0,1-.345-.905c.115-.418.455-.689.76-.606A.7.7,0,0,1,2757.244,790.027Z" transform="translate(-2756.101 -789.107)" fill="#080435"/>
    </g>
    <g id="Group_1935" data-name="Group 1935" transform="translate(2600.693 2490.783)">
      <g id="Group_1934" data-name="Group 1934">
        <path id="Path_2659" data-name="Path 2659" d="M2740.434,783.484a.133.133,0,0,1-.1-.09.217.217,0,0,1,.071-.245,1.288,1.288,0,0,1,1.862.21.214.214,0,0,1,0,.253.136.136,0,0,1-.2.027,1.928,1.928,0,0,0-1.547-.176A.123.123,0,0,1,2740.434,783.484Z" transform="translate(-2740.322 -782.837)" fill="#080435"/>
      </g>
    </g>
    <g id="Group_1936" data-name="Group 1936" transform="translate(2601.325 2492.578)">
      <path id="Path_2660" data-name="Path 2660" d="M2743,787.891c.054.429-.156.809-.47.848s-.612-.277-.666-.706.156-.809.47-.848S2742.943,787.462,2743,787.891Z" transform="translate(-2741.853 -787.181)" fill="#080435"/>
    </g>
    <g id="Group_1937" data-name="Group 1937" transform="translate(2611.863 2489.528)">
      <path id="Path_2661" data-name="Path 2661" d="M2778.473,781.052s-3.011,6.45-7.282,6.923c0,0,3.453-4.916-3.826-7.911C2767.365,780.064,2774.048,779.021,2778.473,781.052Z" transform="translate(-2767.365 -779.796)" fill="#131f2d"/>
    </g>
    <g id="Group_1938" data-name="Group 1938" transform="translate(2614.106 2491.076)">
      <path id="Path_2662" data-name="Path 2662" d="M2775.64,786.812a1.875,1.875,0,0,1-2.595-.422,1.843,1.843,0,0,1,.714-2.511,1.873,1.873,0,0,1,2.594.422A1.842,1.842,0,0,1,2775.64,786.812Z" transform="translate(-2772.797 -783.544)" fill="#ff7955"/>
    </g>
    <g id="Group_1939" data-name="Group 1939" transform="translate(2599.473 2489.796)">
      <path id="Path_2663" data-name="Path 2663" d="M2749.758,780.445s.583,5.413-.527,6.436-8.44,1.463-11.861.152h0a7.084,7.084,0,0,0,5.867,7.121,10.426,10.426,0,0,0,3.5-.012h0c2.395-.415,4.723-1.4,5.71-3.6.3-.671-.574-4.8-.574-4.8s-.328-2.422,1.091-3.682A6.968,6.968,0,0,0,2749.758,780.445Z" transform="translate(-2737.369 -780.445)" fill="#131f2d"/>
    </g>
    <g id="Group_1940" data-name="Group 1940" transform="translate(2598.881 2477.968)">
      <path id="Path_2664" data-name="Path 2664" d="M2748.917,763.636s.6-3.785-2.388-4.055-6.4-.769-7.573,0-2.574,3.787-2.574,3.787-1.64-5.675,1.365-8.1,12.587-5.622,18.7-1.395a9.208,9.208,0,0,1,3.575,10.753A35.86,35.86,0,0,0,2748.917,763.636Z" transform="translate(-2735.935 -751.808)" fill="#131f2d"/>
    </g>
    <g id="Group_1941" data-name="Group 1941" transform="translate(2610.251 2471.688)">
      <path id="Path_2665" data-name="Path 2665" d="M2769.22,744.948s4.507-3.695,3.489-6.427-5.791-1.867-7.635-1.439-2.156,3.695-.675,5.8S2769.22,744.948,2769.22,744.948Z" transform="translate(-2763.462 -736.606)" fill="#131f2d"/>
    </g>
    <g id="Group_1942" data-name="Group 1942" transform="translate(2591.615 2711.45)">
      <path id="Path_2666" data-name="Path 2666" d="M2735.8,1317.154a5.642,5.642,0,0,0-5.232,2.869,4.723,4.723,0,0,1-2.285,2.119c-3.254,1.346-12.683,2.561-9.16,5.629,2.022,1.761,11.55.623,14.24.623s5.216,1.164,7.215-.623c1.2-1.07,1.091-4.458.745-7.322a3.8,3.8,0,0,0-4.208-3.332,6.286,6.286,0,0,1-.946.052C2736.04,1317.166,2735.917,1317.161,2735.8,1317.154Z" transform="translate(-2718.344 -1317.087)" fill="#131f2d"/>
    </g>
    <g id="Group_1943" data-name="Group 1943" transform="translate(2628.988 2710.385)">
      <path id="Path_2667" data-name="Path 2667" d="M2822.136,1314.509s-.121,4.773-3.375,6.119-12.683,2.561-9.159,5.63c2.021,1.761,11.549.623,14.239.623s5.216,1.164,7.214-.623c2.2-1.966,0-11.749,0-11.749a10.8,10.8,0,0,1-4.409,1.146A8.611,8.611,0,0,1,2822.136,1314.509Z" transform="translate(-2808.825 -1314.508)" fill="#131f2d"/>
    </g>
    <g id="Group_1944" data-name="Group 1944" transform="translate(2581.741 2589.367)">
      <path id="Path_2668" data-name="Path 2668" d="M2697.45,1022.478a3.16,3.16,0,0,0-2.814,2.753c-.354,2.905-.412,9.043,1.343,21.777,2.577,18.708,12.322,86.977,13.941,96.076.579,3.255,1.241,5.258,6,5.944l6.313-.123c5.14.742,7.12-4.734,7.157-8.236l-4.134-105.164,16.43-12.44a232.868,232.868,0,0,0-26.2-1.549A178.841,178.841,0,0,0,2697.45,1022.478Z" transform="translate(-2694.437 -1021.515)" fill="#364154"/>
    </g>
    <g id="Group_1945" data-name="Group 1945" transform="translate(2600.203 2590.352)">
      <path id="Path_2669" data-name="Path 2669" d="M2739.146,1027.366l36.215,115.448a11.66,11.66,0,0,0,10.894,8.229l2.177.037a8.218,8.218,0,0,0,8.131-9.76l-19.81-108.478c-.288-1.289-1.024-6.988-2.277-7.347C2767.682,1023.549,2738.48,1022.592,2739.146,1027.366Z" transform="translate(-2739.135 -1023.898)" fill="#364154"/>
    </g>
    <g id="Group_1946" data-name="Group 1946" transform="translate(2598.47 2608.982)">
      <path id="Path_2670" data-name="Path 2670" d="M2752.87,1105.443l-7.788-23.5a22.315,22.315,0,0,0-10.143-12.416l.3-.527a22.919,22.919,0,0,1,10.418,12.752l7.788,23.5Z" transform="translate(-2734.939 -1069.004)" fill="#020202"/>
    </g>
    <g id="Group_1951" data-name="Group 1951" transform="translate(2593.572 2503.002)">
      <g id="Group_1947" data-name="Group 1947" transform="translate(9.293)">
        <path id="Path_2671" data-name="Path 2671" d="M2768.071,821.635s3.78-3.464-.765-4.686c-1.8-.483-4.475-4.886-6.974-4.506s-3.973,14.343-14,18.662c0,0-2.469,2.135,1.55,2.04S2768.071,821.635,2768.071,821.635Z" transform="translate(-2745.581 -812.42)" fill="#f30a18"/>
      </g>
      <g id="Group_1948" data-name="Group 1948" transform="translate(0 2.233)">
        <path id="Path_2672" data-name="Path 2672" d="M2733.125,834.278s-5.018-4.9-4.142-9.469-1.676-8.481-2.919-6.415-2.681.782-2.967,3.371,3.591,15.313,7.106,15.313S2733.125,834.278,2733.125,834.278Z" transform="translate(-2723.082 -817.827)" fill="#f30a18"/>
      </g>
      <g id="Group_1949" data-name="Group 1949" transform="translate(9.23 19.648)">
        <path id="Path_2673" data-name="Path 2673" d="M2747.377,859.99a3.858,3.858,0,0,1,2.042,4.875c-1.2,3.427.479,4.811.479,4.811s-3.931.19-4.406-3.482A8.19,8.19,0,0,1,2747.377,859.99Z" transform="translate(-2745.428 -859.99)" fill="#f30a18"/>
      </g>
      <g id="Group_1950" data-name="Group 1950" transform="translate(5.031 19.648)">
        <path id="Path_2674" data-name="Path 2674" d="M2739.568,859.99s-4.119,1.393-4.3,4.052,2.183,3.292,3.012,1.709,2.552-4.681,2.552-4.681Z" transform="translate(-2735.262 -859.99)" fill="#f30a18"/>
      </g>
    </g>
    <g id="Group_1953" data-name="Group 1953" transform="translate(2601.28 2498.335)">
      <path id="Path_2676" data-name="Path 2676" d="M2741.743,801.121a18.622,18.622,0,0,0,5.877.459,2.831,2.831,0,0,1-3.555,2.258C2742.259,803.512,2741.743,801.121,2741.743,801.121Z" transform="translate(-2741.743 -801.121)" fill="#fff"/>
    </g>
    <g id="Group_1954" data-name="Group 1954" transform="translate(2650.158 2590.352)">
      <path id="Path_2677" data-name="Path 2677" d="M2874.646,1023.9s-9.465,1.007-14.368,0c0,0-.636,2.5.388,3.643,0,0,11.34.852,13.981,0A2.424,2.424,0,0,0,2874.646,1023.9Z" transform="translate(-2860.082 -1023.899)" fill="#131f2d"/>
    </g>
    <g id="Group_1955" data-name="Group 1955" transform="translate(2655.187 2588.658)">
      <rect id="Rectangle_59" data-name="Rectangle 59" width="6.947" height="7.409" rx="3.474" transform="translate(6.947 7.409) rotate(180)" fill="#131f2d"/>
    </g>
    <g id="Group_1956" data-name="Group 1956" transform="translate(2633.121 2520.254)">
      <path id="Path_2678" data-name="Path 2678" d="M2832.017,854.448s8.023,4.712,15.829,35.656,1.939,31.506,1.939,31.506-10.529.2-13.915-1-5.2-28.929-11.951-40.206S2814.751,851.862,2832.017,854.448Z" transform="translate(-2818.832 -854.188)" fill="#f30a18"/>
    </g>
    <g id="Group_1957" data-name="Group 1957" transform="translate(2600.411 2541.485)">
      <ellipse id="Ellipse_6407" data-name="Ellipse 6407" cx="1.195" cy="1.186" rx="1.195" ry="1.186" fill="#131f2d"/>
    </g>
    <g id="Group_1958" data-name="Group 1958" transform="translate(2600.411 2555.939)">
      <ellipse id="Ellipse_6408" data-name="Ellipse 6408" cx="1.195" cy="1.186" rx="1.195" ry="1.186" fill="#131f2d"/>
    </g>
    <g id="Group_1959" data-name="Group 1959" transform="translate(2600.411 2573.071)">
      <ellipse id="Ellipse_6409" data-name="Ellipse 6409" cx="1.195" cy="1.186" rx="1.195" ry="1.186" fill="#131f2d"/>
    </g>
    <g id="Group_1960" data-name="Group 1960" transform="translate(2549.667 2476.371)">
      <path id="Path_2679" data-name="Path 2679" d="M2616.784,757.011s14.09-10.05,16.933-8.99c3.142,1.171,14.534,18.3,17.708,30.929,1.787,7.113-.39,8.623-3.967,9.876l-15.724,5.508Z" transform="translate(-2616.784 -747.943)" fill="#364154"/>
    </g>
    <g id="Group_1961" data-name="Group 1961" transform="translate(2497.854 2469.356)">
      <path id="Path_2680" data-name="Path 2680" d="M2545.011,746.833c-1.571-.2-12.521,2.222-20.131-2.232-8.208-4.8-13.216-16.676-18.659-12.917-5.279,3.646,5.12,24.832,5.753,26.109a.064.064,0,0,1-.031.088c-1.206.549-16.685,8.028-19.633,13.016-3.285,5.557,2.841,9.075,2.841,9.075-1.372,1.2-5.779,7.962,4.537,11.342a.1.1,0,0,1,.058.123c-.386,1.625-2.992,9.382,8.417,8.918,0,0-.8,8.215,7.176,7.073s41.173-19.643,42.766-22.949C2561.965,776.469,2551.833,747.7,2545.011,746.833Z" transform="translate(-2491.34 -730.961)" fill="#f30a18"/>
    </g>
    <g id="Group_1963" data-name="Group 1963" transform="translate(2575.885 2538.64)">
      <path id="Path_2681" data-name="Path 2681" d="M2680.579,925.263l-.319-.017c.507-9.49,3.543-26.374,3.573-26.544l.314.057C2684.117,898.928,2681.085,915.793,2680.579,925.263Z" transform="translate(-2680.26 -898.702)" fill="#131f2d"/>
    </g>
    <g id="Group_1964" data-name="Group 1964" transform="translate(2636.71 2541.417)">
      <path id="Path_2682" data-name="Path 2682" d="M2832.9,919.983c-1.343-5.825-5.335-14.336-5.375-14.421l.29-.136c.04.086,4.046,8.627,5.4,14.486Z" transform="translate(-2827.522 -905.425)" fill="#131f2d"/>
    </g>
    <g id="Group_1966" data-name="Group 1966" transform="translate(2331.606 2519.855)">
      <path id="Path_2683" data-name="Path 2683" d="M2101.652,853.412c7.656,3.673,15.97,21.794,15.97,21.794s-9.433,4.8-9.913,4.957-18.866-19.459-18.866-19.459S2098.33,851.818,2101.652,853.412Z" transform="translate(-2088.843 -853.221)" fill="#ff7955"/>
    </g>
    <g id="Group_1967" data-name="Group 1967" transform="translate(2314.447 2704.62)">
      <path id="Path_2684" data-name="Path 2684" d="M2056.416,1300.552s.236,4.521,3.331,5.715,12,2.106,8.762,5.1c-1.857,1.72-10.85.884-13.38.952s-4.877,1.235-6.8-.408c-2.119-1.808-.3-11.138-.3-11.138a10.113,10.113,0,0,0,4.177.975A8.062,8.062,0,0,0,2056.416,1300.552Z" transform="translate(-2047.298 -1300.552)" fill="#131f2d"/>
    </g>
    <g id="Group_1968" data-name="Group 1968" transform="translate(2309.15 2567.366)">
      <path id="Path_2685" data-name="Path 2685" d="M2071.62,968.249s1.162,20.4-4.3,59.748c-3.942,28.4-8.727,57.05-11.083,70.784a10.661,10.661,0,0,1-9.722,8.924l-2.615.176a8.949,8.949,0,0,1-9.418-9.444l4.118-92.6.809-30.463Z" transform="translate(-2034.474 -968.249)" fill="#657285"/>
    </g>
    <g id="Group_1969" data-name="Group 1969" transform="translate(2285.451 2705.402)">
      <path id="Path_2686" data-name="Path 2686" d="M1986.216,1302.445s.235,4.521,3.331,5.715,12,2.106,8.761,5.1c-1.857,1.72-10.849.884-13.38.952s-4.877,1.235-6.8-.408c-2.119-1.808-.3-11.137-.3-11.137a10.113,10.113,0,0,0,4.177.975A8.061,8.061,0,0,0,1986.216,1302.445Z" transform="translate(-1977.099 -1302.445)" fill="#131f2d"/>
    </g>
    <g id="Group_1970" data-name="Group 1970" transform="translate(2280.155 2568.148)">
      <path id="Path_2687" data-name="Path 2687" d="M2001.42,970.142s1.161,20.4-4.3,59.748c-3.942,28.4-8.727,57.05-11.083,70.784a10.661,10.661,0,0,1-9.722,8.924l-2.615.176a8.949,8.949,0,0,1-9.418-9.444l4.118-92.6.809-30.463Z" transform="translate(-1964.274 -970.142)" fill="#657285"/>
    </g>
    <g id="Group_1971" data-name="Group 1971" transform="translate(2282.323 2584.118)">
      <path id="Path_2688" data-name="Path 2688" d="M1969.525,1016.174c.13,2.462,15.052,3.038,33.461,1.967s33.063-4.016,32.933-6.479-14.993-3.508-33.4-2.437S1969.4,1013.712,1969.525,1016.174Z" transform="translate(-1969.524 -1008.807)" fill="#131f2d"/>
    </g>
    <g id="Group_1972" data-name="Group 1972" transform="translate(2280.964 2507.811)">
      <path id="Path_2689" data-name="Path 2689" d="M1970.223,837.87s2.91-13,26.944-13.78c34.66-1.123,32.309,30.814,36.821,79.134,0,0-34.275-3.908-66.428,3.906C1967.56,907.13,1963.228,857.8,1970.223,837.87Z" transform="translate(-1966.234 -824.062)" fill="#c30c17"/>
    </g>
    <g id="Group_1973" data-name="Group 1973" transform="translate(2276.031 2507.707)">
      <path id="Path_2690" data-name="Path 2690" d="M1954.29,836.109l15.934,8.263s34.46,2.195,43.545.445,11.408-8.518,11.408-8.518a50.316,50.316,0,0,0-26.583-12.034c-1.559-.213-3.173-.356-4.846-.42a47.478,47.478,0,0,0-8.346.392C1964.528,827.162,1954.29,836.109,1954.29,836.109Z" transform="translate(-1954.29 -823.809)" fill="#c30c17"/>
    </g>
    <g id="Group_1974" data-name="Group 1974" transform="translate(2304.109 2487.241)">
      <path id="Path_2691" data-name="Path 2691" d="M2026.673,791.993l1.657-5.9.482-1.719,2.835-10.108.677,9.96.406,5.979.128,1.892c.087,1.285.879,1.534,1.863,2.626.4.442,2.946,3.121.172,4.437-3.455,1.639-10.056-.524-12.624-3.522C2022.29,795.629,2026.138,793.9,2026.673,791.993Z" transform="translate(-2022.27 -774.261)" fill="#ff7955"/>
    </g>
    <g id="Group_1975" data-name="Group 1975" transform="translate(2284.464 2587.502)">
      <path id="Path_2692" data-name="Path 2692" d="M2036.116,1018.543s-20.122-5.335-61.248,3.842l-.158,5.956,60.665.508Z" transform="translate(-1974.709 -1017.001)" fill="#657285"/>
    </g>
    <g id="Group_1976" data-name="Group 1976" transform="translate(2275.413 2519.437)">
      <path id="Path_2693" data-name="Path 2693" d="M1953.1,853.149c-1.273,1.924,1.622,6.164,6.468,9.471s9.806,4.428,11.079,2.5-1.622-6.164-6.468-9.471S1954.369,851.226,1953.1,853.149Z" transform="translate(-1952.795 -852.209)" fill="#131f2d"/>
    </g>
    <g id="Group_1993" data-name="Group 1993" transform="translate(2295.688 2473.488)">
      <g id="Group_1977" data-name="Group 1977" transform="translate(20.212 8.138)">
        <path id="Path_2694" data-name="Path 2694" d="M2054.263,760.667a13.177,13.177,0,0,1,1.1,5.359c-.008,3.109-4.546-3.6-4.546-3.6Z" transform="translate(-2050.818 -760.667)" fill="#131f2d"/>
      </g>
      <g id="Group_1978" data-name="Group 1978" transform="translate(4.937 4.128)">
        <ellipse id="Ellipse_6410" data-name="Ellipse 6410" cx="8.912" cy="10.746" rx="8.912" ry="10.746" transform="translate(0 5.829) rotate(-19.091)" fill="#ff7955"/>
      </g>
      <g id="Group_1979" data-name="Group 1979">
        <path id="Path_2695" data-name="Path 2695" d="M2009.5,758.107l4.136-1.306a3.14,3.14,0,0,0,2-1.851c.587-1.533,1.486-2.443,5.458-3.1,5.029-.838,7.714-4.491,7.716-7.213,0-2.779-2.923-4.061-5.168-2.275s-1.81-1.552-4.289-1.387c-4.632.307-4.762,3.953-8.474,4.6-4.866.846-12.774,6.3-6.916,13.969Z" transform="translate(-2001.884 -740.964)" fill="#131f2d"/>
      </g>
      <g id="Group_1981" data-name="Group 1981" transform="translate(15.289 16.351)">
        <g id="Group_1980" data-name="Group 1980">
          <path id="Path_2696" data-name="Path 2696" d="M2040.852,780.862a.181.181,0,0,0-.146-.31,1.956,1.956,0,0,0-1.8,1.58.182.182,0,0,0,.128.221.2.2,0,0,0,.221-.128,3.094,3.094,0,0,1,1.495-1.314A.182.182,0,0,0,2040.852,780.862Z" transform="translate(-2038.899 -780.551)" fill="#080435"/>
        </g>
      </g>
      <g id="Group_1982" data-name="Group 1982" transform="translate(16.83 18.092)">
        <path id="Path_2697" data-name="Path 2697" d="M2042.741,785.763c.195.385.579.582.858.44a.7.7,0,0,0,.152-.952c-.194-.385-.579-.582-.858-.44A.7.7,0,0,0,2042.741,785.763Z" transform="translate(-2042.63 -784.765)" fill="#080435"/>
      </g>
      <g id="Group_1984" data-name="Group 1984" transform="translate(21.856 14.301)">
        <g id="Group_1983" data-name="Group 1983">
          <path id="Path_2698" data-name="Path 2698" d="M2056.624,776.078a.131.131,0,0,0,.078-.108.218.218,0,0,0-.118-.225,1.267,1.267,0,0,0-1.762.576.215.215,0,0,0,.048.248.133.133,0,0,0,.2-.014,1.9,1.9,0,0,1,1.463-.48A.119.119,0,0,0,2056.624,776.078Z" transform="translate(-2054.8 -775.588)" fill="#080435"/>
        </g>
      </g>
      <g id="Group_1985" data-name="Group 1985" transform="translate(22.436 16.113)">
        <path id="Path_2699" data-name="Path 2699" d="M2056.206,780.8c.034.43.314.758.625.734s.537-.393.5-.822-.314-.759-.626-.734S2056.172,780.369,2056.206,780.8Z" transform="translate(-2056.203 -779.975)" fill="#080435"/>
      </g>
      <g id="Group_1986" data-name="Group 1986" transform="translate(2.075 15.397)">
        <path id="Path_2700" data-name="Path 2700" d="M2006.907,781.417s4.211,5.7,8.445,5.309c0,0-4.332-4.111,2.119-8.485C2017.471,778.241,2010.787,778.553,2006.907,781.417Z" transform="translate(-2006.907 -778.241)" fill="#131f2d"/>
      </g>
      <g id="Group_1987" data-name="Group 1987" transform="translate(7.325 17.47)">
        <path id="Path_2701" data-name="Path 2701" d="M2020.915,786.639a1.744,1.744,0,1,0-1.2-2.31A1.844,1.844,0,0,0,2020.915,786.639Z" transform="translate(-2019.617 -783.259)" fill="#ff7955"/>
      </g>
      <g id="Group_1988" data-name="Group 1988" transform="translate(9.856 15.397)">
        <path id="Path_2702" data-name="Path 2702" d="M2028.529,778.241s.521,5.4,1.8,6.178,8.471-.251,11.522-2.213h0a7.047,7.047,0,0,1-4.256,8.12,10.24,10.24,0,0,1-3.393.685h0c-2.4.071-4.856-.425-6.255-2.381-.426-.6-.406-4.8-.406-4.8s-.168-2.43-1.8-3.378A6.876,6.876,0,0,1,2028.529,778.241Z" transform="translate(-2025.746 -778.241)" fill="#131f2d"/>
      </g>
      <g id="Group_1989" data-name="Group 1989" transform="translate(19.469 0.169)">
        <path id="Path_2703" data-name="Path 2703" d="M2050.29,742.334a1.329,1.329,0,0,1-1.27-.89l.233-.071a1.115,1.115,0,0,0,1.446.666l.056.237A2.008,2.008,0,0,1,2050.29,742.334Z" transform="translate(-2049.02 -741.373)" fill="#131f2d"/>
      </g>
      <g id="Group_1990" data-name="Group 1990" transform="translate(20.275 1.875)">
        <path id="Path_2704" data-name="Path 2704" d="M2051.029,752.82l-.057-.108a16.124,16.124,0,0,0,2.486-1.69c1.106-.927,2.387-2.334,2.209-3.781a1.833,1.833,0,0,0-.718-1.488c-.62-.344-1.531.076-2.336.447-.124.057-.245.113-.362.164l-.049-.111c.116-.051.236-.107.359-.164.832-.383,1.774-.817,2.447-.442a1.938,1.938,0,0,1,.779,1.579C2056.14,750.088,2051.238,752.709,2051.029,752.82Z" transform="translate(-2050.972 -745.503)" fill="#fff"/>
      </g>
      <g id="Group_1991" data-name="Group 1991" transform="translate(7.11 2.067)">
        <path id="Path_2705" data-name="Path 2705" d="M2019.106,749.914l-.008-.121c5.327-.364,7.227-3.79,7.245-3.825l.107.058C2026.431,746.06,2024.5,749.545,2019.106,749.914Z" transform="translate(-2019.098 -745.967)" fill="#fff"/>
      </g>
      <g id="Group_1992" data-name="Group 1992" transform="translate(18.786 21.785)">
        <path id="Path_2706" data-name="Path 2706" d="M2047.367,794.708s3.387.2,5.34-1C2052.707,793.708,2051.26,798.938,2047.367,794.708Z" transform="translate(-2047.367 -793.708)" fill="#fff"/>
      </g>
    </g>
    <g id="Group_1994" data-name="Group 1994" transform="translate(2288.06 2539.934)">
      <path id="Path_2707" data-name="Path 2707" d="M2016.331,905.458s-22.521-5.6-25.545-2.878c-3.343,3.007-9.122,29.976-6.862,47.294,1.273,9.752,4.731,10.563,9.809,10.365l22.324-.869Z" transform="translate(-1983.414 -901.834)" fill="#364154"/>
    </g>
    <g id="Group_1995" data-name="Group 1995" transform="translate(2313.21 2505.918)">
      <path id="Path_2708" data-name="Path 2708" d="M2049.6,857.628c1.861-1.023,16.711-3.391,24.011-12.693,7.873-10.031,8.275-27.305,16.914-25.3,8.379,1.949,5.838,33.493,5.677,35.4a.086.086,0,0,0,.083.094c1.774.091,24.763,1.8,30.9,6.57,6.833,5.315.924,12.718.924,12.718,2.3.817,11.127,7.085-.076,16.38a.133.133,0,0,0-.012.182c1.281,1.838,8.35,10.229-6.109,15.267,0,0,5.043,9.852-5.469,12.354s-61.023-4.233-64.637-7.571C2043.039,902.938,2041.515,862.073,2049.6,857.628Z" transform="translate(-2044.305 -819.478)" fill="#f30a18"/>
    </g>
    <g id="Group_1996" data-name="Group 1996" transform="translate(2276.031 2564.356)">
      <path id="Path_2709" data-name="Path 2709" d="M1954.29,975.593s2.65-12.576,3.643-12.843c2.289-.615,7.072-.8,9.371-1.375,1-.247,4.406-.848,4.78.113.326.834-2.161,2.6-3.445,3.3,6.318,2.428,14.7,7.639.834,4.69l-.007.023c1.337.544,9.8,3.582,9.162,5.56-.484,1.5-8.493-1.1-10.7-1.968l-.031.059c2.169,1.082,8.835,3.441,8.115,5.123-.613,1.431-9.894-1.662-9.894-1.662s7.426,3.282,5.712,4.284c-1.573.918-8.614-1.962-10.75-2.827C1958.859,977.171,1954.29,975.593,1954.29,975.593Z" transform="translate(-1954.29 -960.962)" fill="#ff7955"/>
    </g>
    <g id="Group_1998" data-name="Group 1998" transform="translate(2336.331 2519.118)">
      <path id="Path_2710" data-name="Path 2710" d="M2104.874,859.714c-1.089-3.565-4.558-7.988-4.593-8.032l.311-.245c.035.045,3.55,4.527,4.66,8.162Z" transform="translate(-2100.281 -851.437)" fill="#131f2d"/>
    </g>
    <g id="Group_1999" data-name="Group 1999" transform="translate(2311.725 2601.612)">
      <path id="Path_2711" data-name="Path 2711" d="M2041.1,1085.452l-.392-.052c.022-.168,2.258-16.89,3.943-22.9,1.7-6.062,9.527-11.292,9.606-11.344l.219.33c-.077.052-7.782,5.2-9.443,11.121C2043.355,1068.59,2041.124,1085.284,2041.1,1085.452Z" transform="translate(-2040.709 -1051.161)" fill="#131f2d"/>
    </g>
    <g id="Group_2001" data-name="Group 2001" transform="translate(2362.454 2538.693)">
      <g id="Group_2000" data-name="Group 2000">
        <path id="Path_2712" data-name="Path 2712" d="M2176.248,900.815s3.894.532,3.412,3.483c-.614,3.76-3.9,6.017-4.275,4.32-.074-.335.525-3.893.525-3.893s-3.447,7.316-5.046,6.145,1.468-7.425,1.468-7.425-4.171,6.835-5.271,5.332,1.644-7.2,1.644-7.2-3.638,6.875-4.867,5.106,1.529-4.98,2.315-6.575c.743-1.507,2.164-1.56,3.878-.805a6.538,6.538,0,0,1,3.175.662c.376.278.976.1,1.311.183A14.1,14.1,0,0,1,2176.248,900.815Z" transform="translate(-2163.526 -898.829)" fill="#ff7955"/>
      </g>
    </g>
    <g id="Group_2003" data-name="Group 2003" transform="translate(2254.443 2521.117)">
      <g id="Group_2002" data-name="Group 2002">
        <path id="Path_2713" data-name="Path 2713" d="M1902.23,889.151c7.7-18.018,21.044-31.944,21.276-32.22,0,0,2.573-2.154,7.147,1.355,8.3,6.365,7.844,10.2,7.844,10.2s-18.648,24.755-20.918,28.446C1916.071,899.384,1900.044,894.267,1902.23,889.151Z" transform="translate(-1902.025 -856.276)" fill="#ff7955"/>
      </g>
    </g>
    <g id="Group_2004" data-name="Group 2004" transform="translate(2252.843 2550.714)">
      <path id="Path_2714" data-name="Path 2714" d="M1928.6,942.779a49.713,49.713,0,0,1-15.745-12.955c-3.845-4.953-12.9,1.386-12.9,1.386s-4.583,8.414.86,15.556c5.017,6.583,20.523,9.44,20.523,9.44Z" transform="translate(-1898.151 -927.933)" fill="#ff7955"/>
    </g>
    <g id="Group_2005" data-name="Group 2005" transform="translate(2263.228 2554.151)">
      <path id="Path_2715" data-name="Path 2715" d="M1932.747,940.39a.16.16,0,0,1-.117-.051c-3.516-3.764-9.126-3.771-9.175-3.765a.154.154,0,0,1-.161-.159.159.159,0,0,1,.159-.161c.057,0,5.8,0,9.411,3.866a.16.16,0,0,1-.117.269Z" transform="translate(-1923.294 -936.255)" fill="#e59562"/>
    </g>
    <g id="Group_2008" data-name="Group 2008" transform="translate(2215.637 2468.388)">
      <g id="Group_2007" data-name="Group 2007">
        <path id="Path_2716" data-name="Path 2716" d="M1819.944,798.916l-7.676-17.105-4.2-1.249c.062-.036,10.421-2.379,15.713-10.3a44.041,44.041,0,0,0,5.6-38.366l12.222-3.282C1854.439,775.3,1820.817,798.43,1819.944,798.916Z" transform="translate(-1808.072 -728.615)" fill="#ff7955"/>
      </g>
    </g>
    <g id="Group_2009" data-name="Group 2009" transform="translate(2167.095 2496.848)">
      <path id="Path_2717" data-name="Path 2717" d="M1722.286,797.519s1.278,6.247-6.662,8.7-5.793,6.832-3.891,9.08-9.5-1.273-18.505,8.909,6.92,17.295,14.907,15.247,37.984-12.379,39.218-14.884,2.571-9.139-1.63-9.539c-7.52-.716.794-7.444-4.272-9.475S1722.286,797.519,1722.286,797.519Z" transform="translate(-1690.548 -797.519)" fill="#131f2d"/>
    </g>
    <g id="Group_2010" data-name="Group 2010" transform="translate(2212.082 2695.792)">
      <path id="Path_2718" data-name="Path 2718" d="M1808.281,1283.905s2.164,10.628,4.367,13.25,9.794,7.883,5.375,8.98c-2.536.629-10.246-4.609-12.567-5.808s-5.237-1.245-5.945-3.76c-.336-1.194,1.33-3.375,1.63-5.678a37,37,0,0,0-.025-8.157s2.381-4.318,4.206-3.434C1807.953,1280.572,1808.281,1283.905,1808.281,1283.905Z" transform="translate(-1799.466 -1279.178)" fill="#131f2d"/>
    </g>
    <g id="Group_2011" data-name="Group 2011" transform="translate(2118.543 2625.505)">
      <path id="Path_2719" data-name="Path 2719" d="M1596.931,1120.6s-10.834-.488-13.914,1.011-10.029,7.58-10.018,3.027c.007-2.613,6.964-8.816,8.692-10.775s2.481-4.777,5.093-4.852c1.24-.036,2.95,2.112,5.111,2.964a37.012,37.012,0,0,0,7.917,1.961s3.609,3.36,2.308,4.916C1600.245,1121.089,1596.931,1120.6,1596.931,1120.6Z" transform="translate(-1573 -1109.007)" fill="#131f2d"/>
    </g>
    <g id="Group_2012" data-name="Group 2012" transform="translate(2204.52 2588.048)">
      <path id="Path_2720" data-name="Path 2720" d="M1811.921,1024.825c.216,8.984.165,20.653-.559,34.966-1.387,27.417-3.558,55.133-4.658,68.428a10.2,10.2,0,0,1-8.526,9.322l-2.479.386a8.567,8.567,0,0,1-9.77-8.219l-3.807-88.651-.964-15.843S1811.563,1009.971,1811.921,1024.825Z" transform="translate(-1781.158 -1018.323)" fill="#c30c17"/>
    </g>
    <g id="Group_2013" data-name="Group 2013" transform="translate(2177.958 2582.014)">
      <path id="Path_2721" data-name="Path 2721" d="M1716.877,1013.719c.7,3.672,14.034,8.025,30.327,4.808s29.05-6.816,28.349-10.488-14.6-6.026-30.888-2.81S1716.176,1010.047,1716.877,1013.719Z" transform="translate(-1716.848 -1003.712)" fill="#131f2d"/>
    </g>
    <g id="Group_2014" data-name="Group 2014" transform="translate(2178.591 2588.048)">
      <path id="Path_2722" data-name="Path 2722" d="M1762.564,1020.489,1745.4,1072.66a19.112,19.112,0,0,1-18.928,13.123h0a8.429,8.429,0,0,1-8.062-9.088l4.122-52.1c.133-1.285,4.483-2.37,5.725-2.618C1738.559,1019.919,1762.674,1015.772,1762.564,1020.489Z" transform="translate(-1718.381 -1018.321)" fill="#c30c17"/>
    </g>
    <g id="Group_2015" data-name="Group 2015" transform="translate(2177.964 2519.483)">
      <path id="Path_2723" data-name="Path 2723" d="M1729.8,862.688s6.16-12.544,22.654-10.036c7.794,1.185,17.123-.164,19.417,14.058,2.06,12.771,4.911,27.608,3.7,52.468,0,0-27.009-7.117-58.676,5.68-.054-1.415-.3-36.831,3.672-61.52C1721.523,857.337,1727.714,866.692,1729.8,862.688Z" transform="translate(-1716.863 -852.32)" fill="#364154"/>
    </g>
    <g id="Group_2016" data-name="Group 2016" transform="translate(2186.405 2513.34)">
      <path id="Path_2724" data-name="Path 2724" d="M1737.3,840.77l.911,24.819s43.278,1.3,46.009-6.42c4.509-12.751-5.751-21.72-5.751-21.72a58.253,58.253,0,0,1-20.171,5.828c-.8.064-2.992-.319-6.616-.379A60.766,60.766,0,0,1,1737.3,840.77Z" transform="translate(-1737.3 -837.448)" fill="#364154"/>
    </g>
    <g id="Group_2017" data-name="Group 2017" transform="translate(2181.314 2516.661)">
      <path id="Path_2725" data-name="Path 2725" d="M1730.065,845.489c-1.834-.046-5.124,3.129-5.091,9.344s1.543,10.049,4.057,9.885c1.893-.124,5.607-5.1,5.492-10.976C1734.406,847.694,1731.373,845.522,1730.065,845.489Z" transform="translate(-1724.974 -845.489)" fill="#131f2d"/>
    </g>
    <g id="Group_2018" data-name="Group 2018" transform="translate(2189.072 2587.121)">
      <path id="Path_2726" data-name="Path 2726" d="M1743.756,1020.541s21.9-6.26,44.276-3.952a2.045,2.045,0,0,1,1.838,1.991l.162,8.236-23.494-3.062Z" transform="translate(-1743.756 -1016.078)" fill="#c30c17"/>
    </g>
    <g id="Group_2019" data-name="Group 2019" transform="translate(2200.788 2497.216)">
      <path id="Path_2727" data-name="Path 2727" d="M1785.044,825.057c3.046-.97.379-5.432.379-5.432a2.22,2.22,0,0,1-2.329-2.362l-.076-1.824-.037-.9-.125-2.889-.11-2.594-.451-10.64-3.215,10.688-.546,1.816-1.884,6.265c-.6,2-2.49,2.346-4.529,2.8A10.514,10.514,0,0,0,1785.044,825.057Z" transform="translate(-1772.122 -798.411)" fill="#ff7955"/>
    </g>
    <g id="Group_2020" data-name="Group 2020" transform="translate(2207.201 2509.72)">
      <path id="Path_2728" data-name="Path 2728" d="M1787.648,828.684s1.658,3.2,4.447,3.62l-.125-2.889C1790.236,829,1787.648,828.684,1787.648,828.684Z" transform="translate(-1787.648 -828.684)" fill="#131f2d"/>
    </g>
    <g id="Group_2021" data-name="Group 2021" transform="translate(2198.771 2496.848)">
      <path id="Path_2729" data-name="Path 2729" d="M1767.3,797.519s.608,1.686.019,5.35c-.861,5.362,5.324,6.848,6.673,5.191.167-.2-1.1-9.011-1.1-9.011l-2.027-.91Z" transform="translate(-1767.238 -797.519)" fill="#131f2d"/>
    </g>
    <g id="Group_2022" data-name="Group 2022" transform="translate(2200.314 2485.475)">
      <ellipse id="Ellipse_6411" data-name="Ellipse 6411" cx="9.982" cy="12.315" rx="9.982" ry="12.315" transform="matrix(0.993, -0.114, 0.114, 0.993, 0, 2.277)" fill="#ff7955"/>
    </g>
    <g id="Group_2023" data-name="Group 2023" transform="translate(2198.482 2484.673)">
      <path id="Path_2730" data-name="Path 2730" d="M1782.542,772.375c-.233.408,2.051,6.522-9.436,9.364s-6.108-12.109,2.459-13.417c12.37-1.888,15.137,6.257,14.289,9.4S1782.542,772.375,1782.542,772.375Z" transform="translate(-1766.539 -768.042)" fill="#131f2d"/>
    </g>
    <g id="Group_2024" data-name="Group 2024" transform="translate(2200.788 2496.218)">
      <path id="Path_2731" data-name="Path 2731" d="M1777.438,795.995s-4.188,5.571-1.946,10.517c0,0-3.111-2.7-3.3-3.823a43.83,43.83,0,0,1,.077-5.275Z" transform="translate(-1772.122 -795.995)" fill="#131f2d"/>
    </g>
    <g id="Group_2025" data-name="Group 2025" transform="translate(2201.941 2497.284)">
      <path id="Path_2732" data-name="Path 2732" d="M1776.229,802.971c1.246.944,2.83.873,3.537-.157a2.745,2.745,0,0,0-.978-3.574c-1.247-.943-2.83-.873-3.536.157A2.744,2.744,0,0,0,1776.229,802.971Z" transform="translate(-1774.914 -798.575)" fill="#ff7955"/>
    </g>
    <g id="Group_2027" data-name="Group 2027" transform="translate(2209.694 2498.299)">
      <g id="Group_2026" data-name="Group 2026">
        <path id="Path_2733" data-name="Path 2733" d="M1796.6,801.589a.227.227,0,0,0-.023-.43,2.459,2.459,0,0,0-2.846.987.229.229,0,0,0,.045.318.25.25,0,0,0,.318-.045,3.885,3.885,0,0,1,2.363-.822A.225.225,0,0,0,1796.6,801.589Z" transform="translate(-1793.684 -801.031)" fill="#080435"/>
      </g>
    </g>
    <g id="Group_2028" data-name="Group 2028" transform="translate(2210.505 2500.49)">
      <path id="Path_2734" data-name="Path 2734" d="M1795.653,807.375c.045.54.4.951.791.919s.673-.5.628-1.037-.4-.951-.791-.919S1795.608,806.834,1795.653,807.375Z" transform="translate(-1795.648 -806.337)" fill="#080435"/>
    </g>
    <g id="Group_2030" data-name="Group 2030" transform="translate(2217.819 2498.096)">
      <g id="Group_2029" data-name="Group 2029">
        <path id="Path_2735" data-name="Path 2735" d="M1816.33,801.552a.227.227,0,0,0,.142-.406,2.458,2.458,0,0,0-3.006-.172.229.229,0,0,0-.08.311.249.249,0,0,0,.311.08,3.888,3.888,0,0,1,2.5.14A.231.231,0,0,0,1816.33,801.552Z" transform="translate(-1813.354 -800.541)" fill="#080435"/>
      </g>
    </g>
    <g id="Group_2031" data-name="Group 2031" transform="translate(2217.583 2499.983)">
      <path id="Path_2736" data-name="Path 2736" d="M1812.845,805.854a.88.88,0,0,0,.381,1.151c.375.119.812-.2.976-.719a.88.88,0,0,0-.381-1.151C1813.447,805.016,1813.01,805.338,1812.845,805.854Z" transform="translate(-1812.783 -805.11)" fill="#080435"/>
    </g>
    <g id="Group_2033" data-name="Group 2033" transform="translate(2186.09 2496.988)">
      <g id="Group_2032" data-name="Group 2032">
        <path id="Path_2737" data-name="Path 2737" d="M1738.23,814.652l.218-.594c-.39-.2-1.615-2.827-1.187-5.155.38-2.067,1.89-3.269,4.487-3.574,7.7-.9,8.224-7.362,8.228-7.427l-.632-.042c-.017.244-.5,6-7.67,6.841-3.827.449-4.882,2.677-5.094,4.467C1736.29,811.632,1737.524,814.393,1738.23,814.652Z" transform="translate(-1736.537 -797.859)" fill="#131f2d"/>
      </g>
    </g>
    <g id="Group_2034" data-name="Group 2034" transform="translate(2136.838 2626.288)">
      <path id="Path_2738" data-name="Path 2738" d="M1669.736,1140.054c-9.4.84-32.692-5.713-45.659-9.668a9.577,9.577,0,0,1-6.379-11.907l.189-.634a9.73,9.73,0,0,1,9.54-6.94l43.177.969S1687.246,1138.489,1669.736,1140.054Z" transform="translate(-1617.293 -1110.903)" fill="#c30c17"/>
    </g>
    <g id="Group_2035" data-name="Group 2035" transform="translate(2206.759 2600.561)">
      <path id="Path_2739" data-name="Path 2739" d="M1787.153,1086.14l-.575-.141c.048-.195,4.8-19.565,6.306-25.649,1.528-6.173,7.618-11.51,7.876-11.734l.388.447c-.062.054-6.207,5.44-7.689,11.429C1791.953,1066.574,1787.2,1085.944,1787.153,1086.14Z" transform="translate(-1786.578 -1048.616)" fill="#020202"/>
    </g>
    <g id="Group_2036" data-name="Group 2036" transform="translate(2211.791 2505.62)">
      <path id="Path_2740" data-name="Path 2740" d="M1804.555,818.758s-.684,2.185-2.634,2.415a3.061,3.061,0,0,1-3.16-2.169A12.788,12.788,0,0,0,1804.555,818.758Z" transform="translate(-1798.761 -818.758)" fill="#fff"/>
    </g>
    <g id="Group_2038" data-name="Group 2038" transform="translate(2159.468 2474.196)">
      <g id="Group_2037" data-name="Group 2037">
        <path id="Path_2741" data-name="Path 2741" d="M1673.839,758.318a141.348,141.348,0,0,1,5.772-15.64l9.87,6.922-6.505-2.584,7.169,1.058c-1.994,4.759-6.833,20.559-2.294,29.43,1.95,3.809,5.4,6.341,10.535,7.723a2.541,2.541,0,0,1,1.688,1.489,16.412,16.412,0,0,1,.582,10.467c-1.317,4.636-3.875,4.636-3.875,4.636C1687.193,799.57,1665.842,786.474,1673.839,758.318Z" transform="translate(-1672.082 -742.678)" fill="#ff7955"/>
      </g>
    </g>
    <g id="Group_2041" data-name="Group 2041" transform="translate(2229.119 2455.028)">
      <g id="Group_2039" data-name="Group 2039">
        <path id="Path_2742" data-name="Path 2742" d="M1855.459,696.283c-2.3-.341.859,5.974.859,5.974s-2.583-4.886-4.514-5.419c-1.539-.424.071,4.439.789,6.435l-.055.018c-.87-1.889-3.119-6.4-4.713-6.33-1.807.08,1.068,6.5,1.585,7.652l-.019.01c-6.108-10.842-4.815-1.9-2.287,3.454-1.228-.34-6.076,1.744-6.372,2.467-.34.831,3.852,1.552,4.725,1.76a5.615,5.615,0,0,1,4.088,4.323c.243.865,11.416-5.058,11.416-5.058a30.472,30.472,0,0,0-1.261-6.878,3.37,3.37,0,0,0-.193-.767c-.122-.326-.277-.765-.456-1.261l0,0h0C1858.192,700.278,1856.758,696.475,1855.459,696.283Z" transform="translate(-1840.713 -696.27)" fill="#ff7955"/>
      </g>
      <g id="Group_2040" data-name="Group 2040" transform="translate(8.932 13.186)">
        <path id="Path_2743" data-name="Path 2743" d="M1868.969,730.652a.174.174,0,0,1-.16-.106,2.413,2.413,0,0,0-2.291-1.47,13.57,13.57,0,0,1-4.058-.541.173.173,0,0,1,.1-.333,13.48,13.48,0,0,0,3.934.528,2.811,2.811,0,0,1,2.636,1.682.174.174,0,0,1-.16.24Z" transform="translate(-1862.336 -728.195)" fill="#ec865c"/>
      </g>
    </g>
    <g id="Group_2043" data-name="Group 2043" transform="translate(2166.624 2461.937)">
      <g id="Group_2042" data-name="Group 2042">
        <path id="Path_2744" data-name="Path 2744" d="M1695.036,713.008c2.29-.314-.917,5.923-.917,5.923s2.616-4.825,4.541-5.333c1.532-.405-.118,4.407-.852,6.381l.055.019c.884-1.866,3.165-6.322,4.748-6.236,1.793.1-1.129,6.443-1.655,7.583l.019.011c6.181-10.7,4.8-1.84,2.234,3.454,1.223-.325,3.842-.694,4.128.026.329.828-2.182,2.482-2.959,2.92-1.792,1.011-4.93,3.741-6.741,4.717-.785.423-8.227-4.344-8.227-4.344a30.268,30.268,0,0,1,1.325-6.817,3.355,3.355,0,0,1,.2-.76c.125-.323.284-.756.466-1.247l0-.005h0C1692.28,716.946,1693.744,713.184,1695.036,713.008Z" transform="translate(-1689.409 -712.996)" fill="#ff7955"/>
      </g>
    </g>
    <g id="Group_2044" data-name="Group 2044" transform="translate(2141.825 2421.469)">
      <path id="Path_2745" data-name="Path 2745" d="M1656,615.021s-23.205.265-25.445,3.66c-2.476,3.754-1.264,31.308,5.293,47.5,3.692,9.115,7.243,9.027,12.107,7.555l21.382-6.474Z" transform="translate(-1629.369 -615.021)" fill="#364154"/>
    </g>
    <g id="Group_2045" data-name="Group 2045" transform="translate(2164.234 2375.5)">
      <path id="Path_2746" data-name="Path 2746" d="M1685.58,550.814c1.542-1.46,15.314-7.5,20.031-18.341,5.088-11.693,1.118-28.51,9.985-28.745,8.6-.228,14.1,30.936,14.424,32.819a.086.086,0,0,0,.1.071c1.739-.36,24.416-4.507,31.554-1.438,7.952,3.419,4.1,12.074,4.1,12.074,2.432.211,12.555,4.049,4.059,15.869a.134.134,0,0,0,.035.179c1.7,1.455,10.66,7.791-2.06,16.314,0,0,7.367,8.26-2.174,13.334s-60.117,11.3-64.456,8.982C1690.667,596.312,1678.882,557.154,1685.58,550.814Z" transform="translate(-1683.621 -503.727)" fill="#c30c17"/>
    </g>
    <g id="Group_2049" data-name="Group 2049" transform="translate(2655.044 2483.844)">
      <g id="Group_2048" data-name="Group 2048">
        <path id="Path_2747" data-name="Path 2747" d="M2926.957,818.385l-2.332-18.6,2.937-3.248c-.072,0-10.14,3.384-18.777-.634a44.04,44.04,0,0,1-24.726-29.865l-12.147,3.548C2885.212,816.133,2925.959,818.424,2926.957,818.385Z" transform="translate(-2871.911 -766.035)" fill="#ff7955"/>
      </g>
    </g>
    <g id="Group_2052" data-name="Group 2052" transform="translate(2652.146 2469.766)">
      <g id="Group_2050" data-name="Group 2050">
        <path id="Path_2748" data-name="Path 2748" d="M2865.393,735.415c1.791-1.488,2.37,5.55,2.37,5.55s-.333-5.517,1.041-6.975c1.094-1.162,2.246,3.829,2.669,5.908l.057-.013c-.238-2.066-.661-7.089.737-7.857,1.585-.871,2.465,6.107,2.623,7.361h.021c-.416-12.437,3.124-4.129,3.749,1.762.872-.929,6.1-1.667,6.726-1.2.722.533-2.484,3.328-3.123,3.959a5.617,5.617,0,0,0-1.246,5.818c.242.865-12.382,1.611-12.382,1.611a30.435,30.435,0,0,1-2.5-6.531,3.4,3.4,0,0,1-.234-.756c-.065-.342-.16-.8-.266-1.314v0h0C2865.135,740.248,2864.384,736.254,2865.393,735.415Z" transform="translate(-2864.894 -731.952)" fill="#ff7955"/>
      </g>
      <g id="Group_2051" data-name="Group 2051" transform="translate(7.645 10.497)">
        <path id="Path_2749" data-name="Path 2749" d="M2883.592,762.874a.173.173,0,0,1-.171-.147,2.806,2.806,0,0,1,1.378-2.807,13.516,13.516,0,0,0,3.087-2.5.173.173,0,0,1,.256.233,13.592,13.592,0,0,1-3.186,2.571,2.413,2.413,0,0,0-1.193,2.447.172.172,0,0,1-.146.2A.135.135,0,0,1,2883.592,762.874Z" transform="translate(-2883.402 -757.367)" fill="#ec865c"/>
      </g>
    </g>
    <g id="Group_2053" data-name="Group 2053" transform="translate(2702.537 2705.123)">
      <path id="Path_2750" data-name="Path 2750" d="M3000.263,1301.768s-.121,4.794-3.389,6.146-12.739,2.572-9.2,5.654c2.031,1.769,11.6.626,14.3.626s5.239,1.168,7.246-.626c2.209-1.974,0-11.8,0-11.8a10.861,10.861,0,0,1-4.428,1.152A8.656,8.656,0,0,1,3000.263,1301.768Z" transform="translate(-2986.894 -1301.768)" fill="#131f2d"/>
    </g>
    <g id="Group_2054" data-name="Group 2054" transform="translate(2740.073 2705.122)">
      <path id="Path_2751" data-name="Path 2751" d="M3091.141,1301.766s-.121,4.794-3.389,6.146-12.739,2.573-9.2,5.655c2.031,1.769,11.6.625,14.3.625s5.239,1.169,7.246-.626c2.208-1.974,0-11.8,0-11.8a10.861,10.861,0,0,1-4.428,1.151A8.65,8.65,0,0,1,3091.141,1301.766Z" transform="translate(-3077.772 -1301.766)" fill="#131f2d"/>
    </g>
    <g id="Group_2055" data-name="Group 2055" transform="translate(2691.598 2573.712)">
      <path id="Path_2752" data-name="Path 2752" d="M2960.425,983.613s-.6,20.065,5.85,58.558c4.659,27.788,10.158,55.79,12.857,69.215a10.528,10.528,0,0,0,9.858,8.505l2.592.1a8.821,8.821,0,0,0,9.067-9.524l-6.548-90.824-1.614-29.893Z" transform="translate(-2960.409 -983.613)" fill="#c30c17"/>
    </g>
    <g id="Group_2056" data-name="Group 2056" transform="translate(2689.39 2581.096)">
      <path id="Path_2753" data-name="Path 2753" d="M3016.32,1011.765c-.3,2.442-14.213,2.145-31.25.005s-30.3-5.8-30-8.245,14.042-2.739,31.079-.6S3016.618,1009.323,3016.32,1011.765Z" transform="translate(-2955.064 -1001.491)" fill="#131f2d"/>
    </g>
    <g id="Group_2057" data-name="Group 2057" transform="translate(2711.162 2586.163)">
      <path id="Path_2754" data-name="Path 2754" d="M3007.787,1015.639l36.374,115.955a11.712,11.712,0,0,0,10.942,8.265l2.186.037a8.255,8.255,0,0,0,8.167-9.8l-19.9-108.954a3.6,3.6,0,0,0-2.51-2.685C3036.225,1016.5,3007.117,1010.843,3007.787,1015.639Z" transform="translate(-3007.775 -1013.758)" fill="#c30c17"/>
    </g>
    <g id="Group_2060" data-name="Group 2060" transform="translate(2733.055 2514.037)">
      <g id="Group_2059" data-name="Group 2059">
        <g id="Group_2058" data-name="Group 2058">
          <path id="Path_2755" data-name="Path 2755" d="M3080.691,908.278l-8.247-9.506c.147-.091,16.335-10.233,14.785-24.676-.808-7.528-5.356-13.585-13.517-18a47.146,47.146,0,0,0-12.931-4.627l1.939-12.333a58.778,58.778,0,0,1,16.777,5.938c11.8,6.385,18.7,15.954,19.96,27.67,1.016,9.462-2.319,18.872-9.642,27.211C3084.562,905.936,3084.8,906.3,3080.691,908.278Z" transform="translate(-3060.782 -839.134)" fill="#ff7955"/>
        </g>
      </g>
    </g>
    <g id="Group_2061" data-name="Group 2061" transform="translate(2689.395 2511.692)">
      <path id="Path_2756" data-name="Path 2756" d="M3010.639,846.376s-4.84-13.513-22.08-12.9-30.258,23.1-33.483,71.418c0,0,28.231-6.143,61.3,8.188C3016.378,913.085,3018.211,866.071,3010.639,846.376Z" transform="translate(-2955.076 -833.458)" fill="#657285"/>
    </g>
    <g id="Group_2062" data-name="Group 2062" transform="translate(2695.36 2511.616)">
      <path id="Path_2757" data-name="Path 2757" d="M3032.655,843.411l-13.645,9.8s-36.2,13.1-42.87,7.887c-11.085-8.661-4.9-24.782-4.9-24.782s5.808.56,21.386-2.4a38.271,38.271,0,0,1,4.412-.549,43.226,43.226,0,0,1,7.626.166C3019.567,835.133,3032.655,843.411,3032.655,843.411Z" transform="translate(-2969.518 -833.273)" fill="#657285"/>
    </g>
    <g id="Group_2063" data-name="Group 2063" transform="translate(2744.72 2521.388)">
      <path id="Path_2758" data-name="Path 2758" d="M3102.8,857.3c.74,1.062-1.715,4.116-5.483,6.823s-7.422,4.04-8.162,2.978,1.715-4.116,5.483-6.823S3102.059,856.237,3102.8,857.3Z" transform="translate(-3089.022 -856.934)" fill="#131f2d"/>
    </g>
    <g id="Group_2064" data-name="Group 2064" transform="translate(2765.521 2545.976)">
      <path id="Path_2759" data-name="Path 2759" d="M3141.647,922.79c-1.248,0-2.264-1.42-2.264-3.165s1.016-3.164,2.264-3.165,2.264,1.42,2.264,3.165S3142.9,922.79,3141.647,922.79Zm0-5.733c-.92,0-1.668,1.152-1.668,2.568s.749,2.568,1.668,2.568,1.668-1.152,1.668-2.568S3142.567,917.057,3141.647,917.057Z" transform="translate(-3139.383 -916.461)" fill="#ec865c"/>
    </g>
    <g id="Group_2065" data-name="Group 2065" transform="translate(2717.731 2492.97)">
      <path id="Path_2760" data-name="Path 2760" d="M3036.422,807.036a5.124,5.124,0,0,1-4.179-3.035l-2.3-5.3-.667-1.537-3.921-9.038.68,9.367.409,5.622.116,1.6a2.562,2.562,0,0,1-2.126,2.7l-.022,0c-.7,1.126-1.662,3.415,1.218,4.324,3.383,1.069,8.856-1.574,10.82-4.707Z" transform="translate(-3023.68 -788.13)" fill="#ff7955"/>
    </g>
    <g id="Group_2066" data-name="Group 2066" transform="translate(2735.197 2565.222)">
      <path id="Path_2761" data-name="Path 2761" d="M3082.137,967.316s-5.109-4.641-9.141-4.231-8.873,3.959-6.318,4.232a26.945,26.945,0,0,0,5.915-.273s-7.125,1.5-6.05,3,7.26.136,7.26.136-8.335,2.457-6.856,3.549,7.8-.819,7.8-.819-7.662,2.594-5.915,3.822,6.318-2.184,7.394-.682,3.092,7.371,7.663,4.914Z" transform="translate(-3065.966 -963.059)" fill="#ff7955"/>
    </g>
    <g id="Group_2067" data-name="Group 2067" transform="translate(2709.421 2603.273)">
      <path id="Path_2762" data-name="Path 2762" d="M3021.572,1091.782l-7.822-23.6a22.411,22.411,0,0,0-10.187-12.47l.3-.53a23.018,23.018,0,0,1,10.465,12.808l7.822,23.6Z" transform="translate(-3003.562 -1055.183)" fill="#020202"/>
    </g>
    <g id="Group_2068" data-name="Group 2068" transform="translate(2747.297 2523.905)">
      <path id="Path_2763" data-name="Path 2763" d="M3095.333,870.859s-.756-2.252,2.671-4.761a19.2,19.2,0,0,1,7.873-3.071l.9,4.3-4.839,2.1Z" transform="translate(-3095.262 -863.027)" fill="#ff7955"/>
    </g>
    <g id="Group_2069" data-name="Group 2069" transform="translate(2725.175 2491.428)">
      <path id="Path_2764" data-name="Path 2764" d="M3046.6,784.4a10.39,10.39,0,0,0,.525,4.688c1.3,4.609-4.005,6.534-5.364,5.218-.168-.163.054-8,.054-8l1.7-1Z" transform="translate(-3041.703 -784.397)" fill="#131f2d"/>
    </g>
    <g id="Group_2070" data-name="Group 2070" transform="translate(2720.088 2501.832)">
      <path id="Path_2765" data-name="Path 2765" d="M3033.3,811.144c0,.052,0,.1-.01.155-.225,3.019-3.48,4.43-3.48,4.43l-.019-.016-.409-5.622c1-.362,2.413-.734,3.242-.329A1.317,1.317,0,0,1,3033.3,811.144Z" transform="translate(-3029.387 -809.585)" fill="#131f2d"/>
    </g>
    <g id="Group_2071" data-name="Group 2071" transform="translate(2710.112 2483.61)">
      <ellipse id="Ellipse_6412" data-name="Ellipse 6412" cx="8.868" cy="10.857" rx="8.868" ry="10.857" fill="#ff7955"/>
    </g>
    <g id="Group_2072" data-name="Group 2072" transform="translate(2709.277 2481.866)">
      <path id="Path_2766" data-name="Path 2766" d="M3009.4,765.515c.247.333-1.149,5.919,9.278,7.253s4.163-11.221-3.531-11.5c-11.109-.41-12.726,7-11.658,9.67S3009.4,765.515,3009.4,765.515Z" transform="translate(-3003.213 -761.246)" fill="#131f2d"/>
    </g>
    <g id="Group_2074" data-name="Group 2074" transform="translate(2723.596 2491.608)">
      <path id="Path_2768" data-name="Path 2768" d="M3037.879,784.833s4.261,4.458,2.783,9.015c0,0,2.472-2.68,2.526-3.68a38.267,38.267,0,0,0-.6-4.613Z" transform="translate(-3037.879 -784.833)" fill="#131f2d"/>
    </g>
    <g id="Group_2075" data-name="Group 2075" transform="translate(2723.097 2492.311)">
      <path id="Path_2769" data-name="Path 2769" d="M3040.237,790.329a2.192,2.192,0,0,1-3.137.218,2.407,2.407,0,0,1,.5-3.229,2.19,2.19,0,0,1,3.137-.218A2.407,2.407,0,0,1,3040.237,790.329Z" transform="translate(-3036.672 -786.535)" fill="#ff7955"/>
    </g>
    <g id="Group_2077" data-name="Group 2077" transform="translate(2718.705 2486.424)">
      <path id="Path_2771" data-name="Path 2771" d="M3032.16,775.953h0a7.651,7.651,0,0,1-6.086-3.35.21.21,0,0,1,.357-.223,7.361,7.361,0,0,0,5.738,3.152.21.21,0,0,1,0,.421Z" transform="translate(-3026.038 -772.281)" fill="#fff"/>
    </g>
    <g id="Group_2078" data-name="Group 2078" transform="translate(2741.771 2568.733)">
      <path id="Path_2772" data-name="Path 2772" d="M3081.988,972.171l-.1-.279c.083-.031,2.048-.747,3.135.018l-.171.244C3083.887,971.477,3082.007,972.164,3081.988,972.171Z" transform="translate(-3081.884 -971.558)" fill="#e9845c"/>
    </g>
    <g id="Group_2079" data-name="Group 2079" transform="translate(2742.979 2571.864)">
      <path id="Path_2773" data-name="Path 2773" d="M3084.916,979.76l-.109-.278a5.3,5.3,0,0,1,3.693,0l-.121.273A5.071,5.071,0,0,0,3084.916,979.76Z" transform="translate(-3084.807 -979.139)" fill="#e9845c"/>
    </g>
    <g id="Group_2080" data-name="Group 2080" transform="translate(2743.922 2574.541)">
      <path id="Path_2774" data-name="Path 2774" d="M3087.2,986.294l-.1-.279c.1-.037,2.42-.887,3.509.025l-.192.228C3089.452,985.468,3087.218,986.285,3087.2,986.294Z" transform="translate(-3087.091 -985.619)" fill="#e9845c"/>
    </g>
    <g id="Group_2081" data-name="Group 2081" transform="translate(2691.92 2584.76)">
      <path id="Path_2775" data-name="Path 2775" d="M2961.189,1010.919A104.22,104.22,0,0,1,2981,1010.7a203.1,203.1,0,0,1,34.058,5.582l-5.846.975-36.606,1.439-7.369-6Z" transform="translate(-2961.189 -1010.36)" fill="#c30c17"/>
    </g>
    <g id="Group_2082" data-name="Group 2082" transform="translate(2714.083 2500.507)">
      <path id="Path_2776" data-name="Path 2776" d="M3014.848,807.365a19.385,19.385,0,0,0,6.059-.987,2.935,2.935,0,0,1-3.029,3.161C3015.969,809.655,3014.848,807.365,3014.848,807.365Z" transform="translate(-3014.848 -806.378)" fill="#e9633e"/>
    </g>
    <g id="Group_2083" data-name="Group 2083" transform="translate(2714.083 2500.507)">
      <path id="Path_2777" data-name="Path 2777" d="M3014.848,807.365a3.986,3.986,0,0,0,2.444.6,7.117,7.117,0,0,0,3.615-1.583A29.149,29.149,0,0,1,3014.848,807.365Z" transform="translate(-3014.848 -806.378)" fill="#fff"/>
    </g>
    <g id="Group_2085" data-name="Group 2085" transform="translate(2717.973 2493.987)">
      <g id="Group_2084" data-name="Group 2084">
        <path id="Path_2778" data-name="Path 2778" d="M3024.415,791.178a.2.2,0,0,1-.023-.379,2.2,2.2,0,0,1,2.611.578.2.2,0,0,1-.007.283.222.222,0,0,1-.285-.007,3.477,3.477,0,0,0-2.168-.482A.2.2,0,0,1,3024.415,791.178Z" transform="translate(-3024.266 -790.593)" fill="#080435"/>
      </g>
    </g>
    <g id="Group_2086" data-name="Group 2086" transform="translate(2718.453 2495.928)">
      <path id="Path_2779" data-name="Path 2779" d="M3026.694,796.136c.015.477-.255.874-.6.885s-.645-.367-.66-.845.255-.874.6-.884S3026.678,795.658,3026.694,796.136Z" transform="translate(-3025.428 -795.291)" fill="#080435"/>
    </g>
    <g id="Group_2088" data-name="Group 2088" transform="translate(2710.695 2494.571)">
      <g id="Group_2087" data-name="Group 2087">
        <path id="Path_2780" data-name="Path 2780" d="M3006.873,793.052a.2.2,0,0,1-.167-.342,2.195,2.195,0,0,1,2.636-.453.2.2,0,0,1,.1.264.222.222,0,0,1-.267.1,3.479,3.479,0,0,0-2.19.374A.2.2,0,0,1,3006.873,793.052Z" transform="translate(-3006.646 -792.006)" fill="#080435"/>
      </g>
    </g>
    <g id="Group_2089" data-name="Group 2089" transform="translate(2711.987 2496.474)">
      <path id="Path_2781" data-name="Path 2781" d="M3011.029,797.187a.772.772,0,0,1-.219,1.046c-.319.142-.737-.1-.935-.532a.772.772,0,0,1,.219-1.046C3010.413,796.513,3010.832,796.751,3011.029,797.187Z" transform="translate(-3009.773 -796.614)" fill="#080435"/>
    </g>
    <g id="Group_2090" data-name="Group 2090" transform="translate(2697.963 2525.731)">
      <path id="Path_2782" data-name="Path 2782" d="M2976.03,877.7a.214.214,0,0,1-.076-.014.211.211,0,0,1-.12-.273,103.091,103.091,0,0,1,4.724-9.853.211.211,0,0,1,.372.2,101.988,101.988,0,0,0-4.7,9.807A.211.211,0,0,1,2976.03,877.7Z" transform="translate(-2975.819 -867.447)" fill="#131f2d"/>
    </g>
    <g id="Group_2091" data-name="Group 2091" transform="translate(2700.494 2411.74)">
      <path id="Path_2783" data-name="Path 2783" d="M2981.948,596.18s22.22-6.694,25.374-4.125c3.486,2.84,10.579,29.493,9.17,46.9-.794,9.8-4.208,10.782-9.29,10.833l-22.34.225Z" transform="translate(-2981.948 -591.467)" fill="#364154"/>
    </g>
    <g id="Group_2092" data-name="Group 2092" transform="translate(2620.287 2380.669)">
      <path id="Path_2784" data-name="Path 2784" d="M2870.467,552.414c-1.909-.931-16.856-2.569-24.6-11.5-8.355-9.634-9.6-26.868-18.133-24.437-8.273,2.357-4.191,33.739-3.937,35.633a.087.087,0,0,1-.078.1c-1.767.177-24.645,3.009-30.537,8.075-6.564,5.643-.3,12.748-.3,12.748-2.257.929-10.767,7.622.878,16.357a.133.133,0,0,1,.021.181c-1.189,1.9-7.839,10.625,6.849,14.949,0,0-4.555,10.087,6.066,12.071s60.743-7.215,64.189-10.727C2879.235,597.348,2878.755,556.457,2870.467,552.414Z" transform="translate(-2787.761 -516.242)" fill="#c30c17"/>
    </g>
    <g id="Group_2095" data-name="Group 2095" transform="translate(2418.118 2475.696)">
      <path id="Path_2785" data-name="Path 2785" d="M2337.99,750.6a6.332,6.332,0,0,1,7.493,2.473c2.955,4.3,2.693,1.8,7.24,6.7s-2.856,7.427-1.3,11.56,5.2,4.361,4.1,9.8-5.468,3.569-5.245,7.021,2.64,6.6-1.311,7.39-5.117.576-7.357,5.59-9.291.617-14.61,2.714-19.141,1.312-20.023-1.8-11.659-4.8-6.414-13.514c2.892-4.806-1.582-3.68-2.235-9.955-.534-5.139,6.293-4.163,3.494-8.759a8.841,8.841,0,0,1,2.794-11.159c4.779-3.5,3.925-10.647,11.3-9.323s8.1-1.5,12.469-2.832S2335.194,751.053,2337.99,750.6Z" transform="translate(-2298.294 -746.309)" fill="#131f2d"/>
    </g>
    <g id="Group_2097" data-name="Group 2097" transform="translate(2456.941 2466.623)">
      <g id="Group_2096" data-name="Group 2096">
        <path id="Path_2786" data-name="Path 2786" d="M2404.161,794.642l-7.676-17.105-4.2-1.249c.062-.036,10.421-2.379,15.713-10.3a44.04,44.04,0,0,0,5.6-38.365l12.222-3.282C2438.656,771.024,2405.034,794.156,2404.161,794.642Z" transform="translate(-2392.288 -724.341)" fill="#b05638"/>
      </g>
    </g>
    <g id="Group_2098" data-name="Group 2098" transform="translate(2441.622 2705.967)">
      <path id="Path_2787" data-name="Path 2787" d="M2364.333,1303.813s.111,4.7,3.115,6.028,11.706,2.523,8.454,5.546c-1.866,1.734-10.659.613-13.142.613s-4.813,1.146-6.659-.614c-2.03-1.936,0-11.573,0-11.573a9.508,9.508,0,0,0,4.069,1.129A7.592,7.592,0,0,0,2364.333,1303.813Z" transform="translate(-2355.199 -1303.813)" fill="#131f2d"/>
    </g>
    <g id="Group_2099" data-name="Group 2099" transform="translate(2399.941 2697.923)">
      <path id="Path_2788" data-name="Path 2788" d="M2266.259,1287.7s-1.608,4.384.681,6.834,9.884,7.107,5.783,8.568c-2.353.839-10.059-3.785-12.35-4.8s-4.859-.907-5.921-3.284c-1.168-2.615,4.211-10.68,4.211-10.68a10.043,10.043,0,0,0,3.344,2.7A7.5,7.5,0,0,0,2266.259,1287.7Z" transform="translate(-2254.287 -1284.338)" fill="#131f2d"/>
    </g>
    <g id="Group_2100" data-name="Group 2100" transform="translate(2434.364 2577.078)">
      <path id="Path_2789" data-name="Path 2789" d="M2376.342,991.763s-.214,21.669-1.86,59.9c-1.291,29.975-1.025,57.754-3.5,70.921-.887,4.71-33.7,2.308-33.348-2.875l7.767-92.605,1.484-29.32Z" transform="translate(-2337.627 -991.763)" fill="#c30c17"/>
    </g>
    <g id="Group_2101" data-name="Group 2101" transform="translate(2418.428 2587.733)">
      <path id="Path_2790" data-name="Path 2790" d="M2299.046,1023.566c.062,2.412,12.818,3.383,28.59,2.838s28.221-2.921,28.159-5.332-12.611-3.948-28.382-3.4S2298.984,1021.154,2299.046,1023.566Z" transform="translate(-2299.045 -1017.559)" fill="#131f2d"/>
    </g>
    <g id="Group_2102" data-name="Group 2102" transform="translate(2393.396 2590.79)">
      <path id="Path_2791" data-name="Path 2791" d="M2300.16,1027.286l-29.15,114.759c-1.4,4.76-33.417-8.6-32.552-13.659l26.984-97.689a3.443,3.443,0,0,1,2.307-2.634C2274.018,1026.149,2300.776,1022.583,2300.16,1027.286Z" transform="translate(-2238.441 -1024.959)" fill="#c30c17"/>
    </g>
    <g id="Group_2103" data-name="Group 2103" transform="translate(2418.201 2519.247)">
      <path id="Path_2792" data-name="Path 2792" d="M2302.262,858.993s12.371-8.438,28.182-7.1c21.938,1.857,21.117,6.153,25.029,71.855,0,0-25.3-8.558-56.791,2.439C2298.682,926.187,2297.266,891.129,2302.262,858.993Z" transform="translate(-2298.496 -851.749)" fill="#657285"/>
    </g>
    <g id="Group_2104" data-name="Group 2104" transform="translate(2426.912 2515.208)">
      <path id="Path_2793" data-name="Path 2793" d="M2321.566,841.972l-1.981,20.293s37.49,12.746,41.411,6.018c9.311-15.977-5.543-26.311-5.543-26.311a31.2,31.2,0,0,1-13.169,3.1c-2.285-.046-6.687-.5-9-.677A61.1,61.1,0,0,1,2321.566,841.972Z" transform="translate(-2319.585 -841.972)" fill="#657285"/>
    </g>
    <g id="Group_2105" data-name="Group 2105" transform="translate(2437.907 2606.084)">
      <path id="Path_2794" data-name="Path 2794" d="M2346.771,1114.868l-.565-.125,8.9-40.172a22.33,22.33,0,0,1,9.621-12.582l.3.495a21.741,21.741,0,0,0-9.363,12.235Z" transform="translate(-2346.206 -1061.989)" fill="#020202"/>
    </g>
    <g id="Group_2106" data-name="Group 2106" transform="translate(2440.586 2499.386)">
      <path id="Path_2795" data-name="Path 2795" d="M2352.716,821.906a4.487,4.487,0,0,0,3.259-3.168l1.448-5.03.42-1.46,2.47-8.583.314,8.557.188,5.137.054,1.464c.043,1.194.372,3.505.848,3.76,0,0,2.969,1.4.611,2.514-2.771,1.307-7.67-.542-9.635-3.185Z" transform="translate(-2352.691 -803.665)" fill="#b05638"/>
    </g>
    <g id="Group_2107" data-name="Group 2107" transform="translate(2445.271 2507.698)">
      <path id="Path_2796" data-name="Path 2796" d="M2364.058,825.381c.006.047.014.093.023.14.478,2.714,3.376,3.667,3.376,3.667l.015-.017-.187-5.136a3.913,3.913,0,0,0-2.783.026A1.239,1.239,0,0,0,2364.058,825.381Z" transform="translate(-2364.033 -823.789)" fill="#131f2d"/>
    </g>
    <g id="Group_2108" data-name="Group 2108" transform="translate(2440.307 2490.188)">
      <ellipse id="Ellipse_6413" data-name="Ellipse 6413" cx="7.58" cy="9.895" rx="7.58" ry="9.895" transform="translate(0 1.311) rotate(-4.96)" fill="#b05638"/>
    </g>
    <g id="Group_2109" data-name="Group 2109" transform="translate(2448.2 2506.303)">
      <path id="Path_2797" data-name="Path 2797" d="M2376.362,820.7a15.542,15.542,0,0,1-5.238-.289,2.6,2.6,0,0,0,2.873,2.563C2375.628,822.887,2376.362,820.7,2376.362,820.7Z" transform="translate(-2371.124 -820.41)" fill="#fff"/>
    </g>
    <g id="Group_2111" data-name="Group 2111" transform="translate(2447.239 2500.26)">
      <g id="Group_2110" data-name="Group 2110">
        <path id="Path_2798" data-name="Path 2798" d="M2371.013,806.23a.181.181,0,0,0,.1-.121.184.184,0,0,0-.12-.225,1.8,1.8,0,0,0-2.162.785.192.192,0,0,0,.033.256.182.182,0,0,0,.241-.035,2.836,2.836,0,0,1,1.8-.653A.166.166,0,0,0,2371.013,806.23Z" transform="translate(-2368.799 -805.779)" fill="#080435"/>
      </g>
    </g>
    <g id="Group_2112" data-name="Group 2112" transform="translate(2448.304 2502.031)">
      <path id="Path_2799" data-name="Path 2799" d="M2371.38,810.9c.032.434.3.766.6.741s.513-.4.48-.831-.3-.766-.6-.741S2371.347,810.466,2371.38,810.9Z" transform="translate(-2371.376 -810.068)" fill="#080435"/>
    </g>
    <g id="Group_2114" data-name="Group 2114" transform="translate(2453.408 2500.119)">
      <g id="Group_2113" data-name="Group 2113">
        <path id="Path_2800" data-name="Path 2800" d="M2385.992,806.256a.17.17,0,0,0,.139-.071.19.19,0,0,0-.03-.256,1.789,1.789,0,0,0-2.281-.147.19.19,0,0,0-.061.25.183.183,0,0,0,.236.065,2.8,2.8,0,0,1,1.9.12A.168.168,0,0,0,2385.992,806.256Z" transform="translate(-2383.734 -805.439)" fill="#080435"/>
      </g>
    </g>
    <g id="Group_2115" data-name="Group 2115" transform="translate(2453.783 2501.869)">
      <path id="Path_2801" data-name="Path 2801" d="M2384.691,810.272c-.126.414,0,.829.286.926s.616-.16.743-.575,0-.829-.286-.926S2384.817,809.858,2384.691,810.272Z" transform="translate(-2384.642 -809.677)" fill="#080435"/>
    </g>
    <g id="Group_2116" data-name="Group 2116" transform="translate(2421.967 2515.208)">
      <path id="Path_2802" data-name="Path 2802" d="M2314.615,842.011c-2.813-.449-4.261,3-5.821,9.571s-1.879,9.3.934,9.752,5.59-2.256,7.219-8.813C2318.143,847.709,2317.428,842.459,2314.615,842.011Z" transform="translate(-2307.613 -841.972)" fill="#131f2d"/>
    </g>
    <g id="Group_2117" data-name="Group 2117" transform="translate(2424.743 2590.071)">
      <path id="Path_2803" data-name="Path 2803" d="M2314.333,1026.52s28.448-7.248,48.054-.263l-4.857,2.979-18.061,1.082Z" transform="translate(-2314.333 -1023.219)" fill="#c30c17"/>
    </g>
    <g id="Group_2118" data-name="Group 2118" transform="translate(2440.49 2499.523)">
      <path id="Path_2804" data-name="Path 2804" d="M2353.451,807.528a1.792,1.792,0,0,0,2.684-.116,2.284,2.284,0,0,0-.732-2.876,1.792,1.792,0,0,0-2.684.116A2.284,2.284,0,0,0,2353.451,807.528Z" transform="translate(-2352.459 -803.996)" fill="#b05638"/>
    </g>
    <g id="Group_2119" data-name="Group 2119" transform="translate(2438.915 2489)">
      <path id="Path_2805" data-name="Path 2805" d="M2361.375,782.884a2.964,2.964,0,0,1-2.948,2.9s.307,2.306-2.519,2.019c0,0,.366,1.541-1.583,1.909,0,0-.649,1.6-2.934.9s-3.874-5.267-1.744-7.928,8-5.213,11.722-3.722,6.4,9.281,5.5,9.827a2.29,2.29,0,0,1-3.3-1.476,2.226,2.226,0,0,1-1.585-2.5A5.512,5.512,0,0,1,2361.375,782.884Z" transform="translate(-2348.645 -778.518)" fill="#131f2d"/>
    </g>
    <g id="Group_2120" data-name="Group 2120" transform="translate(2438.915 2501.891)">
      <path id="Path_2806" data-name="Path 2806" d="M2351.6,817.354c-.046,0-.089,0-.129,0a2.955,2.955,0,0,1-2.79-2.114c-.311-2,1.393-3.818,1.466-3.895a.2.2,0,0,1,.29.275c-.016.017-1.641,1.757-1.361,3.558a2.54,2.54,0,0,0,2.413,1.777c1.3.063,2.282-.83,2.688-2.442a3.625,3.625,0,0,0-.313-2.991,3.673,3.673,0,0,0-2.3-1.394.2.2,0,0,1,.055-.4,3.6,3.6,0,0,1,2.944,4.877C2353.954,817.039,2352.377,817.354,2351.6,817.354Z" transform="translate(-2348.645 -809.729)" fill="#00a3fe"/>
    </g>
    <g id="Group_2121" data-name="Group 2121" transform="translate(2452.608 2504.634)">
      <path id="Path_2807" data-name="Path 2807" d="M2383.334,822.386a3.611,3.611,0,0,1-1.425-.29.2.2,0,0,1,.175-.359,2.948,2.948,0,0,0,3.66-1.045,3.313,3.313,0,0,0,.059-4,.2.2,0,0,1,.315-.246,3.767,3.767,0,0,1-.053,4.485A3.3,3.3,0,0,1,2383.334,822.386Z" transform="translate(-2381.798 -816.37)" fill="#00a3fe"/>
    </g>
    <g id="Group_2122" data-name="Group 2122" transform="translate(2437.235 2474.233)">
      <path id="Path_2808" data-name="Path 2808" d="M2346.443,745.691a8.354,8.354,0,0,1-1.7-.179.2.2,0,1,1,.081-.391,7.641,7.641,0,0,0,7.189-2.282.2.2,0,1,1,.308.254A8.11,8.11,0,0,1,2346.443,745.691Z" transform="translate(-2344.579 -742.766)" fill="#131f2d"/>
    </g>
    <g id="Group_2123" data-name="Group 2123" transform="translate(2455.57 2477.941)">
      <path id="Path_2809" data-name="Path 2809" d="M2404.851,760.31a.192.192,0,0,1-.075-.015,14.918,14.918,0,0,1-5.849-4.787c-2.641-3.65-5.515-3.106-6.629-2.7a3.354,3.354,0,0,1-3.266-.715.2.2,0,0,1,.272-.291,3.012,3.012,0,0,0,2.858.631c1.2-.434,4.288-1.025,7.088,2.845a14.806,14.806,0,0,0,5.676,4.652.2.2,0,0,1-.075.384Z" transform="translate(-2388.969 -751.745)" fill="#131f2d"/>
    </g>
    <g id="Group_2124" data-name="Group 2124" transform="translate(2418.526 2491.633)">
      <path id="Path_2810" data-name="Path 2810" d="M2300.233,796.674a.2.2,0,0,1-.12-.359c1.818-1.367,1.389-2.294-.242-5.019-1.707-2.851.825-6.185.934-6.325a.2.2,0,1,1,.315.244c-.025.032-2.473,3.261-.907,5.876,1.658,2.771,2.247,3.958.139,5.543A.2.2,0,0,1,2300.233,796.674Z" transform="translate(-2299.281 -784.893)" fill="#131f2d"/>
    </g>
    <g id="Group_2125" data-name="Group 2125" transform="translate(2418.303 2513.571)">
      <path id="Path_2811" data-name="Path 2811" d="M2298.942,842.911a.2.2,0,0,1-.136-.346,3.01,3.01,0,0,0,.476-4.233.2.2,0,0,1,.309-.253,3.442,3.442,0,0,1-.513,4.778A.2.2,0,0,1,2298.942,842.911Z" transform="translate(-2298.742 -838.006)" fill="#764678"/>
    </g>
    <g id="Group_2126" data-name="Group 2126" transform="translate(2428.545 2483.424)">
      <path id="Path_2812" data-name="Path 2812" d="M2324.782,775.7a.2.2,0,0,1-.158-.077,5.555,5.555,0,0,1-1.049-3.767,5.043,5.043,0,0,1,2.123-3.351,5.189,5.189,0,0,1,4.754-1.136,6.359,6.359,0,0,0,5.148-1.025c2.558-1.591,4.452-1.463,5.591-1.077a4.22,4.22,0,0,1,1.9,1.26.2.2,0,0,1-.316.243c-.094-.122-2.361-2.951-6.962-.088a6.773,6.773,0,0,1-5.422,1.08,4.805,4.805,0,0,0-4.448,1.059,4.663,4.663,0,0,0-1.97,3.082,5.24,5.24,0,0,0,.969,3.475.2.2,0,0,1-.036.28A.2.2,0,0,1,2324.782,775.7Z" transform="translate(-2323.539 -765.019)" fill="#fff"/>
    </g>
    <g id="Group_2127" data-name="Group 2127" transform="translate(2456.297 2490.563)">
      <path id="Path_2813" data-name="Path 2813" d="M2401.165,798.965l-.033,0a.2.2,0,0,1-.164-.229c.28-1.71-.582-2.049-2.01-2.612a12.1,12.1,0,0,1-2-.942c-.519-.32-.77-.62-.79-.945-.029-.465.42-.826.941-1.244.706-.567,1.505-1.208,1.451-2.256-.069-1.326-.736-1.423-1.747-1.569a4.419,4.419,0,0,1-2.135-.724,2.628,2.628,0,0,1-.968-2.339c-.019-.757-.056-1.124-.682-1.208-1.764-.234-2.275-2.259-2.3-2.345a.2.2,0,0,1,.388-.095c0,.019.469,1.846,1.96,2.044.991.132,1.01.875,1.028,1.594a2.269,2.269,0,0,0,.806,2.027,4.1,4.1,0,0,0,1.955.651c1.03.149,2,.289,2.088,1.943a3.183,3.183,0,0,1-1.6,2.587c-.416.334-.809.649-.793.908.011.179.214.392.6.63a11.782,11.782,0,0,0,1.936.911c1.447.57,2.589,1.02,2.257,3.048A.2.2,0,0,1,2401.165,798.965Z" transform="translate(-2390.728 -782.304)" fill="#fff"/>
    </g>
    <g id="Group_2128" data-name="Group 2128" transform="translate(2425.815 2501.974)">
      <path id="Path_2814" data-name="Path 2814" d="M2321.208,822.843h0a.2.2,0,0,1-.2-.2c.034-1.585-1.264-2.693-2.41-3.67-.917-.782-1.71-1.458-1.667-2.259.027-.5.382-.975,1.087-1.457a3.918,3.918,0,0,0,1.837-2.514,3.616,3.616,0,0,0-.582-2.492.2.2,0,0,1,.321-.237,3.963,3.963,0,0,1,.655,2.791,4.3,4.3,0,0,1-2.006,2.781c-.6.407-.894.783-.914,1.149-.032.6.691,1.22,1.527,1.934,1.154.984,2.589,2.209,2.551,3.983A.2.2,0,0,1,2321.208,822.843Z" transform="translate(-2316.929 -809.93)" fill="#fff"/>
    </g>
    <g id="Group_2130" data-name="Group 2130" transform="translate(2400.772 2472.431)">
      <g id="Group_2129" data-name="Group 2129">
        <path id="Path_2815" data-name="Path 2815" d="M2258.055,754.044a141.441,141.441,0,0,1,5.772-15.64l9.871,6.922-6.505-2.584,7.169,1.058c-1.994,4.759-6.833,20.559-2.294,29.43,1.95,3.809,5.4,6.342,10.535,7.723a2.539,2.539,0,0,1,1.688,1.489,16.418,16.418,0,0,1,.582,10.467c-1.317,4.637-3.876,4.637-3.876,4.637C2271.409,795.3,2250.059,782.2,2258.055,754.044Z" transform="translate(-2256.298 -738.404)" fill="#b05638"/>
      </g>
    </g>
    <g id="Group_2133" data-name="Group 2133" transform="translate(2470.423 2453.263)">
      <g id="Group_2131" data-name="Group 2131">
        <path id="Path_2816" data-name="Path 2816" d="M2439.676,692.009c-2.3-.341.86,5.973.86,5.973s-2.583-4.886-4.514-5.418c-1.539-.424.071,4.438.789,6.434l-.055.018c-.87-1.889-3.119-6.4-4.713-6.329-1.807.079,1.068,6.5,1.584,7.652l-.019.01c-6.108-10.842-4.815-1.9-2.287,3.454-1.229-.34-6.076,1.744-6.372,2.467-.341.831,3.851,1.552,4.725,1.76a5.615,5.615,0,0,1,4.087,4.323c.243.864,11.417-5.058,11.417-5.058a30.436,30.436,0,0,0-1.261-6.878,3.355,3.355,0,0,0-.193-.767c-.122-.326-.278-.764-.456-1.261l0,0h0C2442.408,696,2440.975,692.2,2439.676,692.009Z" transform="translate(-2424.929 -691.996)" fill="#b05638"/>
      </g>
      <g id="Group_2132" data-name="Group 2132" transform="translate(9.104 13.36)">
        <path id="Path_2817" data-name="Path 2817" d="M2446.972,724.341a13.6,13.6,0,0,0,4,.534,2.61,2.61,0,0,1,2.464,1.576Z" transform="translate(-2446.972 -724.341)" fill="#b05638"/>
      </g>
    </g>
    <g id="Group_2135" data-name="Group 2135" transform="translate(2407.929 2460.171)">
      <g id="Group_2134" data-name="Group 2134">
        <path id="Path_2818" data-name="Path 2818" d="M2279.252,708.734c2.291-.314-.917,5.923-.917,5.923s2.617-4.825,4.541-5.333c1.533-.405-.117,4.407-.852,6.381l.055.019c.884-1.867,3.165-6.322,4.748-6.236,1.793.1-1.129,6.442-1.655,7.583l.018.011c6.181-10.7,4.8-1.84,2.235,3.454,1.223-.325,3.842-.694,4.128.027.329.829-2.182,2.482-2.959,2.92-1.791,1.01-4.93,3.741-6.741,4.717-.785.423-8.227-4.344-8.227-4.344a30.243,30.243,0,0,1,1.325-6.817,3.351,3.351,0,0,1,.2-.76c.125-.322.283-.756.466-1.247l0,0h0C2276.5,712.672,2277.961,708.91,2279.252,708.734Z" transform="translate(-2273.626 -708.722)" fill="#b05638"/>
      </g>
    </g>
    <g id="Group_2136" data-name="Group 2136" transform="translate(2383.174 2419.602)">
      <path id="Path_2819" data-name="Path 2819" d="M2240.181,610.5s-23.2.529-25.4,3.95c-2.433,3.781-.907,31.32,5.833,47.432,3.8,9.072,7.345,8.944,12.192,7.417l21.307-6.717Z" transform="translate(-2213.692 -610.501)" fill="#364154"/>
    </g>
    <g id="Group_2137" data-name="Group 2137" transform="translate(2405.531 2373.319)">
      <path id="Path_2820" data-name="Path 2820" d="M2269.7,545.873c1.526-1.477,15.228-7.672,19.821-18.568,4.954-11.751.793-28.521,9.657-28.857,8.6-.326,14.451,30.774,14.8,32.653a.086.086,0,0,0,.1.069c1.735-.38,24.363-4.785,31.535-1.8,7.991,3.328,4.24,12.026,4.24,12.026,2.434.183,12.6,3.906,4.24,15.822a.133.133,0,0,0,.036.179c1.72,1.435,10.749,7.669-1.873,16.336,0,0,7.459,8.176-2.022,13.358s-59.985,11.984-64.351,9.715C2275.3,591.31,2263.073,552.289,2269.7,545.873Z" transform="translate(-2267.821 -498.446)" fill="#c30c17"/>
    </g>
    <g id="Group_2142" data-name="Group 2142" transform="translate(2362.688 2717.958)">
      <g id="Group_2140" data-name="Group 2140" transform="translate(0.271 2.748)">
        <path id="Path_2821" data-name="Path 2821" d="M2169.975,1358s-7.179-7.39-4.709-11.6,6.638,9.042,6.638,9.042-2.161-15.669,2.316-15.94,0,15.94,0,15.94,1.66-3.781,3.281-4.014,1.158,3.206-1.737,6.572Z" transform="translate(-2164.749 -1339.496)" fill="#eaeaea"/>
      </g>
      <g id="Group_2141" data-name="Group 2141">
        <path id="Path_2822" data-name="Path 2822" d="M2170.1,1354.276a32.976,32.976,0,0,1-3.755-4.832c-2.293-3.663-2.84-6.571-1.624-8.642.453-.772,1-1.131,1.62-1.059,1.257.143,2.672,2.062,4.326,5.866.5,1.139.934,2.278,1.278,3.222-.4-4.111-.853-12.291,1.394-15.033a2.4,2.4,0,0,1,1.751-.951,1.833,1.833,0,0,1,1.617.7c2.023,2.5.2,11.39-.8,15.551.745-1.217,1.8-2.571,2.878-2.726a1.049,1.049,0,0,1,1.144.534c.66,1.2-.235,4.282-2.876,7.353l-.4-.344c2.6-3.02,3.3-5.864,2.813-6.754a.527.527,0,0,0-.605-.266c-1.388.2-3.009,3.242-3.517,4.4l-.5-.176c.01-.036.993-3.615,1.652-7.53.862-5.12.79-8.477-.207-9.707a1.319,1.319,0,0,0-1.174-.51,1.875,1.875,0,0,0-1.375.76c-2.839,3.464-1.025,16.886-1.007,17.021l-.513.116c-.937-2.979-3.832-10.763-5.945-11-.4-.044-.763.217-1.105.8-2.668,4.546,5.223,12.757,5.3,12.839Z" transform="translate(-2164.093 -1332.843)" fill="#364154"/>
      </g>
    </g>
    <g id="Group_2145" data-name="Group 2145" transform="translate(2482.068 2681.045)">
      <g id="Group_2143" data-name="Group 2143" transform="translate(0.271 2.748)">
        <path id="Path_2823" data-name="Path 2823" d="M2459,1268.629s-7.179-7.39-4.709-11.6,6.638,9.042,6.638,9.042-2.162-15.668,2.316-15.941,0,15.941,0,15.941,1.66-3.78,3.281-4.014,1.158,3.205-1.737,6.571Z" transform="translate(-2453.778 -1250.128)" fill="#eaeaea"/>
      </g>
      <g id="Group_2144" data-name="Group 2144">
        <path id="Path_2824" data-name="Path 2824" d="M2459.131,1264.909a32.957,32.957,0,0,1-3.755-4.832c-2.293-3.663-2.84-6.57-1.624-8.641.453-.773,1-1.13,1.62-1.059,1.256.142,2.672,2.061,4.325,5.866.5,1.139.934,2.278,1.278,3.221-.4-4.11-.854-12.29,1.393-15.033a2.408,2.408,0,0,1,1.751-.952,1.837,1.837,0,0,1,1.617.7c2.023,2.5.2,11.39-.8,15.551.745-1.217,1.8-2.571,2.878-2.726a1.047,1.047,0,0,1,1.144.535c.66,1.2-.235,4.282-2.876,7.353l-.4-.344c2.6-3.02,3.3-5.863,2.814-6.755a.528.528,0,0,0-.606-.266c-1.388.2-3.01,3.242-3.518,4.4l-.5-.176c.01-.036.993-3.615,1.652-7.531.861-5.12.79-8.476-.207-9.706a1.324,1.324,0,0,0-1.174-.51,1.876,1.876,0,0,0-1.375.76c-2.838,3.464-1.025,16.886-1.006,17.021l-.513.116c-.937-2.979-3.832-10.763-5.945-11-.4-.044-.762.217-1.105.8-2.669,4.548,5.222,12.757,5.3,12.839Z" transform="translate(-2453.122 -1243.475)" fill="#364154"/>
      </g>
    </g>
    <g id="Group_2148" data-name="Group 2148" transform="translate(2506.638 2716.493)">
      <g id="Group_2146" data-name="Group 2146" transform="translate(0.271 2.748)">
        <path id="Path_2825" data-name="Path 2825" d="M2518.489,1354.45s-7.179-7.39-4.709-11.6,6.639,9.042,6.639,9.042-2.161-15.669,2.316-15.94,0,15.94,0,15.94,1.659-3.781,3.281-4.014,1.158,3.206-1.737,6.572Z" transform="translate(-2513.263 -1335.949)" fill="#eaeaea"/>
      </g>
      <g id="Group_2147" data-name="Group 2147">
        <path id="Path_2826" data-name="Path 2826" d="M2518.617,1350.729a32.95,32.95,0,0,1-3.756-4.832c-2.293-3.663-2.839-6.57-1.624-8.642.454-.774,1-1.13,1.621-1.059,1.257.142,2.672,2.061,4.326,5.866.5,1.139.934,2.277,1.278,3.221-.4-4.11-.854-12.291,1.393-15.032a2.409,2.409,0,0,1,1.751-.952,1.83,1.83,0,0,1,1.616.7c2.023,2.5.2,11.39-.8,15.551.745-1.217,1.8-2.57,2.879-2.726a1.047,1.047,0,0,1,1.144.535c.66,1.2-.235,4.281-2.876,7.352l-.4-.344c2.6-3.021,3.3-5.864,2.814-6.755a.526.526,0,0,0-.606-.266c-1.389.2-3.01,3.242-3.517,4.4l-.5-.177c.01-.036.993-3.615,1.652-7.53.861-5.12.789-8.476-.208-9.706a1.318,1.318,0,0,0-1.174-.51,1.876,1.876,0,0,0-1.375.76c-2.839,3.464-1.025,16.886-1.006,17.021l-.514.115c-.937-2.979-3.832-10.763-5.945-11-.4-.044-.763.217-1.105.8-2.669,4.548,5.222,12.756,5.3,12.839Z" transform="translate(-2512.608 -1329.297)" fill="#364154"/>
      </g>
    </g>
    <g id="Group_2151" data-name="Group 2151" transform="translate(2667.775 2685.036)">
      <g id="Group_2149" data-name="Group 2149" transform="translate(0.271 2.747)">
        <path id="Path_2827" data-name="Path 2827" d="M2908.614,1278.29s-7.179-7.39-4.709-11.6,6.639,9.041,6.639,9.041-2.161-15.668,2.315-15.94,0,15.94,0,15.94,1.66-3.78,3.281-4.014,1.158,3.206-1.737,6.572Z" transform="translate(-2903.387 -1259.788)" fill="#eaeaea"/>
      </g>
      <g id="Group_2150" data-name="Group 2150">
        <path id="Path_2828" data-name="Path 2828" d="M2908.741,1274.569a32.949,32.949,0,0,1-3.755-4.832c-2.293-3.663-2.84-6.571-1.624-8.642.454-.773,1-1.13,1.621-1.059,1.257.143,2.672,2.062,4.326,5.866.5,1.139.934,2.278,1.278,3.222-.4-4.111-.854-12.291,1.393-15.033a2.407,2.407,0,0,1,1.751-.951,1.833,1.833,0,0,1,1.617.7c2.023,2.5.2,11.39-.8,15.551.745-1.217,1.8-2.571,2.878-2.726a1.048,1.048,0,0,1,1.144.535c.66,1.2-.235,4.282-2.876,7.353l-.4-.344c2.6-3.02,3.3-5.863,2.813-6.754a.527.527,0,0,0-.605-.266c-1.389.2-3.01,3.242-3.517,4.4l-.5-.176c.009-.036.994-3.615,1.652-7.53.86-5.12.789-8.477-.208-9.707a1.32,1.32,0,0,0-1.174-.51,1.877,1.877,0,0,0-1.375.76c-2.838,3.464-1.025,16.886-1.006,17.021l-.514.116c-.937-2.979-3.832-10.763-5.945-11-.4-.044-.762.216-1.105.8-2.669,4.548,5.223,12.757,5.3,12.839Z" transform="translate(-2902.732 -1253.136)" fill="#364154"/>
      </g>
    </g>
    <g id="Group_2154" data-name="Group 2154" transform="translate(2240.603 2686.277)">
      <g id="Group_2152" data-name="Group 2152" transform="translate(0.271 2.748)">
        <path id="Path_2829" data-name="Path 2829" d="M1874.4,1281.3s-7.179-7.39-4.709-11.6,6.639,9.042,6.639,9.042-2.161-15.668,2.316-15.941,0,15.941,0,15.941,1.66-3.78,3.281-4.014,1.158,3.206-1.737,6.572Z" transform="translate(-1869.171 -1262.795)" fill="#eaeaea"/>
      </g>
      <g id="Group_2153" data-name="Group 2153">
        <path id="Path_2830" data-name="Path 2830" d="M1874.525,1277.575a32.948,32.948,0,0,1-3.756-4.832c-2.293-3.663-2.839-6.57-1.624-8.642.453-.773,1-1.131,1.62-1.059,1.257.143,2.672,2.061,4.326,5.866.495,1.139.934,2.278,1.278,3.221-.4-4.111-.853-12.291,1.394-15.033a2.407,2.407,0,0,1,1.751-.952,1.837,1.837,0,0,1,1.616.7c2.023,2.5.2,11.389-.8,15.551.745-1.217,1.8-2.57,2.879-2.726a1.047,1.047,0,0,1,1.144.535c.66,1.2-.235,4.282-2.876,7.353l-.4-.344c2.6-3.02,3.3-5.863,2.814-6.755a.527.527,0,0,0-.605-.266c-1.39.2-3.01,3.242-3.518,4.4l-.5-.176c.01-.036.993-3.615,1.652-7.531.861-5.12.789-8.476-.207-9.706a1.322,1.322,0,0,0-1.174-.51,1.875,1.875,0,0,0-1.375.759c-2.839,3.464-1.026,16.886-1.007,17.021l-.513.115c-.937-2.979-3.833-10.762-5.945-11-.4-.043-.762.217-1.1.8-2.668,4.546,5.222,12.756,5.3,12.839Z" transform="translate(-1868.516 -1256.143)" fill="#364154"/>
      </g>
    </g>
    <g id="Group_2157" data-name="Group 2157" transform="translate(2182.359 2711.305)">
      <g id="Group_2155" data-name="Group 2155" transform="translate(0.222 2.251)">
        <path id="Path_2831" data-name="Path 2831" d="M1732.322,1337.344s-5.882-6.055-3.858-9.5,5.439,7.408,5.439,7.408-1.771-12.837,1.9-13.06,0,13.06,0,13.06,1.36-3.1,2.688-3.289.949,2.626-1.423,5.385Z" transform="translate(-1728.04 -1322.185)" fill="#eaeaea"/>
      </g>
      <g id="Group_2156" data-name="Group 2156" transform="translate(0)">
        <path id="Path_2832" data-name="Path 2832" d="M1732.427,1334.3a27.019,27.019,0,0,1-3.077-3.959c-1.879-3-2.326-5.384-1.33-7.081.372-.633.818-.924,1.328-.867,1.03.117,2.189,1.689,3.544,4.807.406.933.765,1.866,1.047,2.639-.324-3.368-.7-10.07,1.142-12.317a1.971,1.971,0,0,1,1.435-.779,1.508,1.508,0,0,1,1.325.577c1.658,2.046.167,9.332-.652,12.741.61-1,1.475-2.106,2.358-2.234a.86.86,0,0,1,.938.438c.541.985-.193,3.508-2.356,6.024l-.328-.282c2.128-2.474,2.706-4.8,2.306-5.534a.432.432,0,0,0-.5-.218c-1.137.164-2.466,2.657-2.882,3.6l-.406-.145c.032-.117,3.186-11.652,1.184-14.123a1.079,1.079,0,0,0-.962-.418,1.537,1.537,0,0,0-1.126.622c-2.325,2.837-.84,13.835-.825,13.946l-.421.095c-.768-2.441-3.14-8.818-4.871-9.015-.33-.035-.625.178-.906.656-2.187,3.726,4.279,10.452,4.345,10.519Z" transform="translate(-1727.503 -1316.736)" fill="#364154"/>
      </g>
    </g>
    <g id="Group_2160" data-name="Group 2160" transform="translate(2549.105 2700.071)">
      <g id="Group_2158" data-name="Group 2158" transform="translate(0.222 2.251)">
        <path id="Path_2833" data-name="Path 2833" d="M2620.242,1310.147s-5.882-6.055-3.858-9.5,5.439,7.408,5.439,7.408-1.771-12.837,1.9-13.06,0,13.06,0,13.06,1.36-3.1,2.688-3.289.949,2.627-1.423,5.385Z" transform="translate(-2615.961 -1294.988)" fill="#eaeaea"/>
      </g>
      <g id="Group_2159" data-name="Group 2159">
        <path id="Path_2834" data-name="Path 2834" d="M2620.347,1307.1a27.007,27.007,0,0,1-3.077-3.958c-1.878-3-2.326-5.384-1.33-7.081.371-.633.818-.925,1.328-.867,1.029.117,2.189,1.689,3.544,4.807.405.933.765,1.866,1.047,2.639-.324-3.368-.7-10.07,1.142-12.317a1.969,1.969,0,0,1,1.435-.779,1.507,1.507,0,0,1,1.324.577c1.658,2.046.167,9.332-.652,12.741.61-1,1.475-2.106,2.358-2.234a.862.862,0,0,1,.937.438c.541.986-.192,3.509-2.356,6.024l-.328-.282c2.127-2.475,2.706-4.8,2.305-5.534a.432.432,0,0,0-.5-.218c-1.137.164-2.465,2.657-2.881,3.6l-.406-.145c.032-.116,3.186-11.652,1.183-14.123a1.074,1.074,0,0,0-.962-.418,1.537,1.537,0,0,0-1.126.622c-2.326,2.838-.839,13.836-.824,13.946l-.421.095c-.768-2.441-3.14-8.818-4.871-9.014-.324-.036-.624.177-.905.656-2.187,3.726,4.279,10.452,4.345,10.519Z" transform="translate(-2615.424 -1289.538)" fill="#364154"/>
      </g>
    </g>
  </g>
</svg>
