<svg xmlns="http://www.w3.org/2000/svg" width="633.296" height="346.039" viewBox="0 0 633.296 346.039">
  <g id="Group_3180" data-name="Group 3180" transform="translate(-2112.347 -1862.481)">
    <g id="Group_1887" data-name="Group 1887" transform="translate(2112.347 2206.704)">
      <path id="Rectangle_51" data-name="Rectangle 51" d="M.908,0H632.388a.908.908,0,0,1,.908.908v0a.908.908,0,0,1-.908.908H.908A.908.908,0,0,1,0,.908v0A.908.908,0,0,1,.908,0Z" transform="translate(633.296 1.815) rotate(180)" fill="#a0462d"/>
    </g>
    <g id="Group_1889" data-name="Group 1889" transform="translate(2373.177 2126.342)">
      <path id="Path_2571" data-name="Path 2571" d="M2247.629,1237.844s-9.356-10.915-.577-17.848c0,0,6.413-3.883,11.642-3.567,0,0-7.409,12.424-5.012,13.66s7.258-14.439,7.258-14.439,14.593-1.415,19.287.842c0,0-12.475,10.209-9.848,10.817s16.1-9.412,16.1-9.412,13.582,2.311,12.858,10.6-5.4,10.844-7.461,10.623-14.089-4.813-14.351-3.128,6.981,7.193,12.052,7.451c0,0-9.575,10.56-15.939,7.513s-6.907-7.879-10.874-9.691-7.354-1.807-5.716.041,8.817,3.644,11.086,7.657,4.3,6.72-2.28,5.729-17.287-5.808-17.757-11.325Z" transform="translate(-2231.815 -1215.211)" fill="#b8c1c9"/>
      <g id="Group_1888" data-name="Group 1888" transform="translate(0 13.44)">
        <path id="Path_2572" data-name="Path 2572" d="M2285.946,1252.018s-36.889-1.422-45.036,9.128a26.68,26.68,0,0,1-7.345,10.31l-.864,2.355s6.392-6.74,8.68-7.148C2241.38,1266.663,2237.8,1253.593,2285.946,1252.018Z" transform="translate(-2225.096 -1251.954)" fill="#b8c1c9"/>
        <path id="Path_2573" data-name="Path 2573" d="M2220.381,1303.658a23.164,23.164,0,0,0-8.468,16.319l1.437.128s2.529-10.818,7.1-15.049S2220.381,1303.658,2220.381,1303.658Z" transform="translate(-2211.913 -1284.156)" fill="#b8c1c9"/>
      </g>
    </g>
    <g id="Group_1891" data-name="Group 1891" transform="translate(2301.687 2096.707)">
      <path id="Path_2574" data-name="Path 2574" d="M2071.067,1172.736s14.883-8.335,7.938-19.646c0,0-5.556-6.945-11.51-8.731,0,0,3.175,16.868,0,17.264s-2.183-19.051-2.183-19.051-15.677-7.541-21.828-6.945c0,0,9.723,16.471,6.549,16.074s-14.089-17.066-14.089-17.066-16.074-2.977-18.653,6.548,1.587,14.288,3.969,14.883,17.661.4,17.264,2.381-10.716,5.159-16.471,3.373c0,0,6.35,15.677,14.685,14.883s10.914-5.953,16.074-6.35,8.93.992,6.35,2.381-11.311.455-15.479,4-7.541,5.726.2,7.313,21.63.6,24.408-5.358Z" transform="translate(-2016.476 -1134.195)" fill="#d5d6da"/>
      <g id="Group_1890" data-name="Group 1890" transform="translate(8.156 9.965)">
        <path id="Path_2575" data-name="Path 2575" d="M2038.773,1161.438s41.673,13.494,46.435,28.576a31.66,31.66,0,0,0,3.969,14.486v2.976s-4.365-10.12-6.747-11.51C2082.43,1195.967,2091.757,1182.869,2038.773,1161.438Z" transform="translate(-2038.773 -1161.438)" fill="#b8c1c9"/>
        <path id="Path_2576" data-name="Path 2576" d="M2173.114,1275.948s6.427,9.759,2.763,21.638l-1.654-.444s1.605-13.085-1.757-19.665S2173.114,1275.948,2173.114,1275.948Z" transform="translate(-2122.71 -1232.886)" fill="#b8c1c9"/>
      </g>
    </g>
    <g id="Group_1893" data-name="Group 1893" transform="translate(2367.059 2072.949)">
      <path id="Path_2577" data-name="Path 2577" d="M2208.085,1120.051s-19.618-10.987-10.463-25.9c0,0,7.325-9.155,15.172-11.51,0,0-4.186,22.235,0,22.758s2.877-25.112,2.877-25.112,20.665-9.94,28.774-9.156c0,0-12.817,21.711-8.632,21.188s18.573-22.5,18.573-22.5,21.188-3.923,24.589,8.632-2.093,18.834-5.232,19.619-23.281.523-22.757,3.139,14.125,6.8,21.711,4.447c0,0-8.37,20.665-19.357,19.619s-14.387-7.847-21.188-8.37-11.771,1.308-8.37,3.139,14.91.6,20.4,5.27,9.94,7.548-.261,9.64-28.512.785-32.175-7.062Z" transform="translate(-2195.188 -1069.246)" fill="#d5d6da"/>
      <g id="Group_1892" data-name="Group 1892" transform="translate(2.536 13.137)">
        <path id="Path_2578" data-name="Path 2578" d="M2282.587,1105.159s-54.932,17.787-61.211,37.667a41.728,41.728,0,0,1-5.231,19.1v3.924s5.754-13.341,8.894-15.172C2225.039,1150.674,2212.744,1133.41,2282.587,1105.159Z" transform="translate(-2211.015 -1105.159)" fill="#b8c1c9"/>
        <path id="Path_2579" data-name="Path 2579" d="M2207.25,1256.1s-8.471,12.865-3.642,28.524l2.18-.585s-2.116-17.248,2.316-25.923S2207.25,1256.1,2207.25,1256.1Z" transform="translate(-2202.12 -1199.34)" fill="#b8c1c9"/>
      </g>
    </g>
    <path id="Path_2580" data-name="Path 2580" d="M2162.011,1364.521a38.429,38.429,0,0,0,38.429-38.43h-76.859A38.429,38.429,0,0,0,2162.011,1364.521Z" transform="translate(217.285 840.81)" fill="#c30c17"/>
    <path id="Path_2581" data-name="Path 2581" d="M2200.051,1428.275H2122.13a4.741,4.741,0,0,1,4.741-4.741h68.438a4.741,4.741,0,0,1,4.741,4.741Z" transform="translate(218.205 779.011)" fill="#c30c17"/>
    <rect id="Rectangle_52" data-name="Rectangle 52" width="78.997" height="1.179" transform="translate(2339.602 2166.901)" fill="#a1050f"/>
    <rect id="Rectangle_53" data-name="Rectangle 53" width="154.948" height="219.539" transform="translate(2528.27 1862.481) rotate(89.993)" fill="#586166"/>
    <rect id="Rectangle_54" data-name="Rectangle 54" width="215.719" height="151.127" transform="matrix(-1, 0, 0, -1, 2526.378, 2015.519)" fill="#fafafa"/>
    <path id="Path_2582" data-name="Path 2582" d="M2263.8,823.289l-75.666.009a2.713,2.713,0,0,1-2.713-2.712h0a2.712,2.712,0,0,1,2.712-2.713l75.666-.01a2.713,2.713,0,0,1,2.713,2.712h0A2.713,2.713,0,0,1,2263.8,823.289Z" transform="translate(178.063 1163.131)" fill="#f30a18"/>
    <path id="Path_2583" data-name="Path 2583" d="M2263.809,866.881l-75.666.009a2.713,2.713,0,0,1-2.713-2.712h0a2.713,2.713,0,0,1,2.712-2.713l75.666-.009a2.712,2.712,0,0,1,2.713,2.712h0A2.713,2.713,0,0,1,2263.809,866.881Z" transform="translate(178.06 1135.485)" fill="#f30a18"/>
    <rect id="Rectangle_55" data-name="Rectangle 55" width="175.136" height="1.402" transform="translate(2326.546 1970.201)" fill="#a1050f"/>
    <path id="Path_2584" data-name="Path 2584" d="M2557.861,788.144v-5.725l7.851,2.862Z" transform="translate(-58.139 1185.61)" fill="#a1050f"/>
    <rect id="Rectangle_56" data-name="Rectangle 56" width="93.112" height="1.466" transform="translate(2334.715 1980.317) rotate(-90.007)" fill="#a1050f"/>
    <path id="Path_2585" data-name="Path 2585" d="M2100.557,556.368h5.988l-2.995-7.127Z" transform="translate(231.886 1333.494)" fill="#a1050f"/>
    <path id="Path_2586" data-name="Path 2586" d="M2148.049,823.49h-.453a4.92,4.92,0,0,1-4.921-4.92h0a4.921,4.921,0,0,1,4.92-4.921h.452a4.92,4.92,0,0,1,4.921,4.92h0A4.92,4.92,0,0,1,2148.049,823.49Z" transform="translate(205.175 1165.804)" fill="#131f2d"/>
    <path id="Path_2587" data-name="Path 2587" d="M2148.053,862.12h-.452a4.92,4.92,0,0,1-4.921-4.92h0a4.92,4.92,0,0,1,4.92-4.921h.452a4.92,4.92,0,0,1,4.921,4.92h0A4.92,4.92,0,0,1,2148.053,862.12Z" transform="translate(205.172 1141.305)" fill="#f30a18"/>
    <path id="Path_2588" data-name="Path 2588" d="M2276.511,573.08l-10.058.84,1.322,2.608L2236.2,591.391l-29.493,49.572L2171.9,611.125l-28.078,13.616-.08.038-17.9,16.674.817.8,17.772-16.555,27.284-13.231,35.292,30.254,30.034-50.48,31.242-14.709,1.305,2.574Z" transform="translate(215.849 1318.375)" fill="#f30a18"/>
    <path id="Path_2589" data-name="Path 2589" d="M2168.67,714.022h-.334a3.639,3.639,0,0,1-3.64-3.639h0a3.64,3.64,0,0,1,3.639-3.64h.335a3.64,3.64,0,0,1,3.64,3.639h0A3.64,3.64,0,0,1,2168.67,714.022Z" transform="translate(191.21 1233.605)" fill="#131f2d"/>
    <path id="Path_2590" data-name="Path 2590" d="M2421.8,623.673h-.334a3.64,3.64,0,0,1-3.64-3.639h0a3.64,3.64,0,0,1,3.639-3.64h.334a3.639,3.639,0,0,1,3.64,3.639h0A3.64,3.64,0,0,1,2421.8,623.673Z" transform="translate(30.671 1290.905)" fill="#131f2d"/>
    <path id="Path_2591" data-name="Path 2591" d="M2244.618,678.794h-.335a3.639,3.639,0,0,1-3.64-3.639h0a3.639,3.639,0,0,1,3.639-3.64h.334a3.64,3.64,0,0,1,3.64,3.639h0A3.64,3.64,0,0,1,2244.618,678.794Z" transform="translate(143.043 1255.947)" fill="#131f2d"/>
    <path id="Path_2592" data-name="Path 2592" d="M2340.437,755.582h-.334a3.64,3.64,0,0,1-3.64-3.639h0a3.64,3.64,0,0,1,3.639-3.64h.334a3.639,3.639,0,0,1,3.64,3.639h0A3.639,3.639,0,0,1,2340.437,755.582Z" transform="translate(82.274 1207.247)" fill="#c30c17"/>
    <path id="Path_2593" data-name="Path 2593" d="M1792.867,673.678s8.584,10.184,19.515,5.924c0,0,2.352-5.688,2.385-9.88,0-.516.01-1.016.019-1.491.058-4.721.217-7.37.217-7.37l-.011,0c-.5-.207-16.711-6.864-16.7-6.311C1798.573,667.315,1792.867,673.678,1792.867,673.678Z" transform="translate(427.026 1266.729)" fill="#ff7955"/>
    <path id="Path_2594" data-name="Path 2594" d="M1812.137,662.719c1.564,2.9,6.928,8.568,14.863,10.639.058-4.721.217-7.37.217-7.37l-.011,0C1826.757,665.865,1811.671,661.865,1812.137,662.719Z" transform="translate(414.811 1261.601)" fill="#ef6343"/>
    <path id="Path_2595" data-name="Path 2595" d="M1821.934,618.418s-18.234,4.286-20.728-7.11-6.528-18.518,5.008-21.737,14.758.633,16.516,4.234S1826.613,617.009,1821.934,618.418Z" transform="translate(423.49 1308.68)" fill="#ff7955"/>
    <path id="Path_2596" data-name="Path 2596" d="M1785.719,598.922c-.249.159-4.173,1.365-11.6-13.437a12.891,12.891,0,0,1,.758-11.791c2.719-4.441,12.359-7.933,20.369-9.453s9.932,2.987,11.818,7.517c1.98,4.755,7.7,8.67,7.7,8.67-6.907,3.858-15.226-1.66-18.108-.753s-3.9,5.45-4.116,6.905-.549,2.666-4.173,1.366-1.639,5.135-1.058,6.367C1787.3,594.312,1787.8,597.59,1785.719,598.922Z" transform="translate(439.601 1324.171)" fill="#131f2d"/>
    <g id="Group_1897" data-name="Group 1897" transform="translate(2155.214 2028.099)">
      <path id="Path_2597" data-name="Path 2597" d="M1639.184,1389.215h-11.041c-2.314,0-4.886-2.318-5.53-6.56s-5.4-6.56-6.431-10.033,4.246-8.363,4.246-8.363l.882-1.133.917-1.182,8.746,2.057s.216,2.083.351,4.735a60.582,60.582,0,0,1,.036,6.071c-.258,4.632,1.3,9.618,5.411,10.519S1639.184,1389.215,1639.184,1389.215Z" transform="translate(-1616.048 -1210.027)" fill="#131f2d"/>
      <path id="Path_2598" data-name="Path 2598" d="M1835.2,1408.87H1805.93a2.662,2.662,0,0,1-.621-.18c-1.954-.979-1.342-8.459-1.107-10.771.045-.428.077-.679.077-.679s10.291-8.231,11.707-1.928c.045.2.1.39.151.579v0c1.786,5.9,9.772,8.575,14.385,9.322C1834.047,1405.79,1834.961,1407.843,1835.2,1408.87Z" transform="translate(-1735.2 -1229.683)" fill="#131f2d"/>
      <path id="Path_2599" data-name="Path 2599" d="M1797.579,970.436s-1.563,19.5-3.4,42.939c-2.5,31.84-5.5,70.951-5.8,78.361-.513,12.866-2.574,33.445-2.574,33.445s-4.885,4.89-14.664,2.829c0,0-8.714-29.379-11.2-60.462l-.116-1.536c-2.315-31.644-5.916-98.277-5.916-98.277Z" transform="translate(-1703.482 -960.017)" fill="#364154"/>
      <path id="Path_2600" data-name="Path 2600" d="M1797.579,970.436s-1.563,19.5-3.4,42.939l-34.237,54.173-.116-1.536c-2.315-31.644-5.916-98.277-5.916-98.277Z" transform="translate(-1703.482 -960.017)" fill="#131f2d"/>
      <path id="Path_2601" data-name="Path 2601" d="M1710.6,959.371s-28.171,70.619-46.694,103.807-24.311,42.449-24.311,42.449-10.612-4.245-11.577-7.139c0,0,7.084-64.069,19.488-79.688,7.009-8.826,15.243-35.31,15.629-44.571s2.509-27.592,2.509-27.592Z" transform="translate(-1623.638 -946.636)" fill="#364154"/>
    </g>
    <path id="Path_2602" data-name="Path 2602" d="M1661.744,943.493l-.3,4.542a9.787,9.787,0,0,1-5.4,12.208s-3.592,1.449-3.738-1.348.314-1.745.022-5.683,1.256-7.66,3.861-8.914l2.137-2.466Z" transform="translate(516.186 1084.51)" fill="#ff7955"/>
    <path id="Path_2603" data-name="Path 2603" d="M1662.463,799.764c3.118,1,3.618.775,3.618.775s15.176-27.63,16.714-30.16,32.222-30.984,32.222-30.984l-7.886-29.405s-34.9,45.194-38.669,51.679c-6.228,10.717-9.877,35.605-9.877,35.605A9.126,9.126,0,0,0,1662.463,799.764Z" transform="translate(512.188 1231.546)" fill="#a1050f"/>
    <path id="Path_2604" data-name="Path 2604" d="M1727.84,797.88c7.712,4.556,14.991,7.936,23.443,9.719,10.017,2.181,22.253,1.25,26.355,1.765a1.758,1.758,0,0,0,1.2-.307c.3-.189,1.913-12.545,3.451-28.182.042-.36.083-.74.112-1.117.021-.253.035-.507.041-.752l.027-.221c.168-1.624.33-3.28.48-4.954.377-4.173.7-8.455,1.008-12.728.03-.407.059-.816.086-1.226.474-6.893.825-13.682.934-19.721,0-.145.006-.289.006-.433a130.621,130.621,0,0,0-.324-13.167c-.065-.757-.141-1.468-.233-2.137-1.2-9.065-5.584-15.442-9.7-20.231l-4.029-4.571c-3.866.339-7.214.478-10.99-1.945-4.09-2.623-6.732-5.093-7.56-4.63-6.33,3.7-13.186,12.813-16.622,25.179a140.182,140.182,0,0,0-4.084,22.04q-.491,4.544-.755,9.23a303.393,303.393,0,0,1-5.039,39.368c-.436,2.393-.781,4.294-.969,5.611C1724.484,795.67,1726.818,797.272,1727.84,797.88Z" transform="translate(470.282 1242.328)" fill="#c30c17"/>
    <path id="Path_2605" data-name="Path 2605" d="M1812.859,765.778s3.445,38.083,25.476,60.145c.021-.253.035-.507.041-.752l.027-.221c.168-1.624.33-3.28.48-4.954.377-4.173.7-8.455,1.008-12.728.03-.407.059-.816.086-1.226.474-6.893.825-13.682.934-19.721,0-.144.006-.289.006-.433-.044-3.61-.15-6.9-.324-9.793C1833.538,770.464,1824.382,766.53,1812.859,765.778Z" transform="translate(414.347 1196.164)" fill="#a1050f"/>
    <g id="Group_1899" data-name="Group 1899" transform="translate(2296.282 1916.063)">
      <path id="Path_2606" data-name="Path 2606" d="M2006.072,762.346l40.991-120.483c.189-.549.441-1.073-.1-1.272l-.5-.181c-.559-.2-.723.157-.926.716l-43.7,118.751a2.3,2.3,0,0,0,1.226,2.885l1.012.45A1.475,1.475,0,0,0,2006.072,762.346Z" transform="translate(-2001.7 -640.353)" fill="#131f2d"/>
    </g>
    <path id="Path_2607" data-name="Path 2607" d="M2036.931,814.47c.021-1.763,4.672-5.84,4.981-5.349.222.354-.259,2.206-.519,2.985,1.932-1.293,2.374-5.864,5.636-7.9.9-.566,4.124,8.269,1.071,11.475s-4.518,2.849-9.6,5.815l-3.683.248L2033,816.017S2034.96,815.3,2036.931,814.47Z" transform="translate(274.733 1171.811)" fill="#ff7955"/>
    <path id="Path_2608" data-name="Path 2608" d="M1881.676,767.083c.241-3.474-4.34-5.484-4.34-5.484s-34.9,3.638-37.9,2.694S1814,731.16,1814,731.16s-9.84-11.1-17.9-8.647c-7,2.129-9.739,7.591-10.67,12.794a15.327,15.327,0,0,0,7.117,15.732c12.052,7.392,33.134,27.767,38.817,29.433,12.648,3.708,48.772-8.412,48.772-8.412A12.5,12.5,0,0,0,1881.676,767.083Z" transform="translate(431.893 1223.827)" fill="#f30a18"/>
    <path id="Path_2609" data-name="Path 2609" d="M3010.036,1019.358a314.8,314.8,0,0,1,3.636-38.611c2.607-15.077,4.955-23.751,4.982-23.843.344-1.326,5.3-6.691,16.337-6.525s9.985,7.2,9.985,7.2h0a2.266,2.266,0,0,1-.079.625c-.106.363-10.232,37.079-9.794,84.486.006.666.081,1.817.034,2.582,0,0-25.564.66-25.57,0C3008.674,1041.131,3009.109,1029.65,3010.036,1019.358Z" transform="translate(-344.304 1079.091)" fill="#d5d6da"/>
    <path id="Path_2610" data-name="Path 2610" d="M3002,1042.458c.008.661.356,1.189.781,1.189h.01c.425-.01.764-.539.769-1.189h21.909c.008.661.356,1.189.781,1.189h.01c.433-.01.776-.556.771-1.224a330.876,330.876,0,0,1,1.817-37.427c2.913-27.891,8.3-46.533,8.373-46.791a2.325,2.325,0,0,0,.079-.625s1.046-7.035-9.984-7.2-16,5.2-16.338,6.526c-.021.07-1.349,4.981-3.116,13.811-.586,2.925-1.217,6.28-1.866,10.03a315.1,315.1,0,0,0-3.635,38.611C3001.434,1029.65,3001.108,1038.316,3002,1042.458Z" transform="translate(-339.482 1079.091)" fill="#b8c1c9"/>
    <path id="Path_2611" data-name="Path 2611" d="M2926.848,1193.207h-85.893s2-8.094,51.744-6.889C2927.9,1187.171,2926.848,1193.207,2926.848,1193.207Z" transform="translate(-237.679 929.533)" fill="#b8c1c9"/>
    <g id="Group_1901" data-name="Group 1901" transform="translate(2681.599 2123.993)">
      <path id="Path_2612" data-name="Path 2612" d="M3069.635,1292.084c-9.959-50.416-7.4-81.353-7.386-81.742.025-.777-1.406-1.481-2.175-1.506s-4.216-.229-4.614.435c-.521.87-2.527,38.987,12.316,82.814Z" transform="translate(-3055.074 -1208.791)" fill="#d5d6da"/>
    </g>
    <g id="Group_1902" data-name="Group 1902" transform="translate(2615.963 2123.993)">
      <path id="Path_2613" data-name="Path 2613" d="M2875.638,1292.084c9.959-50.416,7.4-81.353,7.386-81.742-.025-.777,1.405-1.481,2.175-1.506s4.216-.229,4.614.435c.521.87,2.527,38.987-12.316,82.814Z" transform="translate(-2875.638 -1208.791)" fill="#d5d6da"/>
    </g>
    <g id="Group_1903" data-name="Group 1903" transform="translate(2600.07 2123.993)">
      <path id="Path_2614" data-name="Path 2614" d="M2832.19,1292.084c9.959-50.416,7.4-81.353,7.385-81.742-.025-.777,1.406-1.481,2.175-1.506s4.217-.229,4.615.435c.521.87,2.526,38.987-12.316,82.814Z" transform="translate(-2832.19 -1208.791)" fill="#d5d6da"/>
    </g>
    <g id="Group_1904" data-name="Group 1904" transform="translate(2665.599 2123.993)">
      <path id="Path_2615" data-name="Path 2615" d="M3025.894,1292.084c-9.959-50.416-7.4-81.353-7.386-81.742.025-.777-1.406-1.481-2.175-1.506s-4.216-.229-4.614.435c-.521.87-2.527,38.987,12.316,82.814Z" transform="translate(-3011.333 -1208.791)" fill="#d5d6da"/>
    </g>
    <rect id="Rectangle_57" data-name="Rectangle 57" width="89.412" height="4.676" rx="2.338" transform="translate(2690.877 2125.323) rotate(180)" fill="#d5d6da"/>
    <path id="Path_2616" data-name="Path 2616" d="M2796.647,989.646l-28.551-6.184-1.682,4.1s31.5,18.746,34.455,17.828S2796.647,989.646,2796.647,989.646Z" transform="translate(-190.405 1058.108)" fill="#ff7955"/>
    <path id="Path_2617" data-name="Path 2617" d="M2880.356,1313.914a2.536,2.536,0,0,1,.452,2.713.019.019,0,0,1-.007.014c-.654,1.809-2.817,3.828-5.328,5.845-.321.259-.606.495-.855.713-.065.057-.131.115-.192.172s-.1.091-.147.133c-2.342,2.159-1.461,2.653-5.668,7.035-4.8,4.992-8.1,5.082-9.041,4.627-.8-.388.82-3.035,2.61-6.011.086-.143.172-.289.261-.434.238-.4.475-.8.711-1.195,2.1-3.582,1.559-5.262,1.062-10.592-.4-4.331-6.738-24.2-6.738-24.2l9.194-1.584s2.769,15.819,5.82,18.255c1.631,1.3,3.457,1.315,5.025,2.277q.166.1.326.206A12.055,12.055,0,0,1,2880.356,1313.914Z" transform="translate(-248.156 862.968)" fill="#ff7955"/>
    <path id="Path_2618" data-name="Path 2618" d="M2883.626,1349.513a2.536,2.536,0,0,1,.452,2.713.019.019,0,0,1-.007.014c-.8,1.807-2.909,3.816-5.337,5.827-.317.263-.6.505-.847.731-.065.057-.13.115-.192.172s-.1.091-.147.133c-2.342,2.159-1.461,2.653-5.669,7.035-4.8,4.992-8.1,5.082-9.041,4.627-.795-.388.82-3.035,2.61-6.011a20.45,20.45,0,0,0,8.552-6.3c2.889-3.686,4.816-8.423,6.783-11.167.111.067.219.136.326.206A12.061,12.061,0,0,1,2883.626,1349.513Z" transform="translate(-251.426 827.368)" fill="#131f2d"/>
    <path id="Path_2619" data-name="Path 2619" d="M2669.505,1303.32c-.568,2.838-4.613,2.365-9.133,1.26s-3.446.208-9.878-.5-8.381-3.111-8.577-4.067c-.176-.849,3-1.148,6.412-1.541.429-.048.859-.1,1.29-.154,3.849-.483,6.668-2.966,10.165-5.006,3.312-1.932,8.254-9.8,8.254-9.8l8.822.7s-4.629,7.031-6.42,10.088c-1.053,1.8-1,4.176-.866,6.012A11.32,11.32,0,0,1,2669.505,1303.32Z" transform="translate(-111.443 867.819)" fill="#ff7955"/>
    <path id="Path_2620" data-name="Path 2620" d="M2660.372,1330.526c-4.52-1.1-3.446.208-9.878-.5s-8.381-3.111-8.577-4.067c-.176-.849,3-1.148,6.412-1.541l.032.065a18.131,18.131,0,0,0,9.212,2.863c4.364.106,8.986-1.144,12-1.1a11.32,11.32,0,0,1-.068,3.017C2668.937,1332.1,2664.892,1331.631,2660.372,1330.526Z" transform="translate(-111.443 841.873)" fill="#131f2d"/>
    <path id="Path_2621" data-name="Path 2621" d="M2745.343,972.868s-2.1-5.15-4.414-5.36-9.669-1.366-10.194-.315,0,4.834,1.576,6.2,11.35,3.573,11.35,3.573Z" transform="translate(-167.652 1068.702)" fill="#ff7955"/>
    <path id="Path_2622" data-name="Path 2622" d="M2809.771,1158.951l19.012,51.166a17.408,17.408,0,0,0,5.721-.524,24.628,24.628,0,0,0,5.53-2.693s-4.717-49.128-13.363-59.347S2809.771,1158.951,2809.771,1158.951Z" transform="translate(-217.902 955.78)" fill="#131f2d"/>
    <path id="Path_2623" data-name="Path 2623" d="M2814.957,1100.717s-54.631-18.473-66.814-14.542-48.766,76.712-48.766,76.712a7.057,7.057,0,0,0,3.079,1.943c2.1.786,7.17.736,7.17.736s33.014-28.3,36.945-36.552,5.5-16.114,9.433-15.328,50.7,19.258,61.312,8.253,7.837-25.3,7.837-25.3Z" transform="translate(-147.889 993.315)" fill="#364154"/>
    <path id="Path_2624" data-name="Path 2624" d="M2915.11,811.392c-.872-1.8-1.848-5-2.325-10.7.074.566,1.057,7.759,3.822,11.831,11.362,7.459,33.139,32.366,32.708,37.086,0,0,7.67-13.01,7.8-13.088,0,0,14.149-17.993-2.621-28.3-8.523-5.238-8.48-11.961-8.124-17.8s-2.325-30.98-19.4-24.4c0,0-2.739-1.218-3.967-1.035a3.351,3.351,0,0,1,1.512.718,13.248,13.248,0,0,0-7.171,1.372C2911.091,770.627,2905.49,802.537,2915.11,811.392Z" transform="translate(-281.427 1196.704)" fill="#131f2d"/>
    <path id="Path_2625" data-name="Path 2625" d="M2930.013,866.884c-.057.026,5.486,2.9,9.655,1.763,3.921-1.069,6.484-6.154,6.43-6.165-1.661-.33-2.139-2.612-2.1-12.419l-.751.148-12.624,2.5s.287,3.973.3,7.715C2930.923,863.568,2930.733,866.549,2930.013,866.884Z" transform="translate(-294.16 1142.71)" fill="#ff7955"/>
    <path id="Path_2626" data-name="Path 2626" d="M2931.67,852.967s.287,3.973.3,7.715c7.064-.2,10.8-6.643,12.328-10.215Z" transform="translate(-295.211 1142.454)" fill="#ef6343"/>
    <path id="Path_2627" data-name="Path 2627" d="M2931.813,801.739s3.7-5.849,4.591-10.85c.634-3.571-1.185-16.807-14.485-14.9a18.074,18.074,0,0,0-7.494,2.833c-2.888,1.95-7.055,6.161-2.4,17.711l1.21,3.9Z" transform="translate(-281.427 1189.807)" fill="#131f2d"/>
    <path id="Path_2628" data-name="Path 2628" d="M2915.569,818.093s16.714.276,16.725-10.135,2.176-17.387-8.494-18-12.749,3.354-13.6,6.828S2911.222,817.753,2915.569,818.093Z" transform="translate(-281.47 1180.872)" fill="#ff7955"/>
    <path id="Path_2629" data-name="Path 2629" d="M2926.912,784.973s4.576,12.214,11.6,14.02,10.069-.076,10.069-.076a66.943,66.943,0,0,1-3.687-13.753S2930.364,779.159,2926.912,784.973Z" transform="translate(-292.194 1185.599)" fill="#131f2d"/>
    <path id="Path_2630" data-name="Path 2630" d="M2915.34,788.626s-3.417,2.727-4.25,5.378-1.208,8.109-2.8,7.923c0,0-3.448-8.3.427-13C2912.826,783.949,2915.34,788.626,2915.34,788.626Z" transform="translate(-279.488 1182.937)" fill="#131f2d"/>
    <path id="Path_2631" data-name="Path 2631" d="M2910.132,933.367c1.648-6.913-3.959-20.326-9.813-31.431-5.312-10.065-10.825-18.23-11.32-17.936-14.008,8.314-15.274,1.4-15.274,1.4h0c-.005,0-12.725,1.689-16.327,7.891-4.469,7.7-9.3,29.2-14.093,33.268.737,2.254.421,3.455-.36,6.247q-.252.9-.555,1.707a32.894,32.894,0,0,1-2.407,4.944c2.438,1.481,7.146,4.3,10.614,2.273,5.288-3.095,9.413-12.516,11.735-16.267l.026-.042c5.047,28.567-1.815,35.073,1.658,38.085,3.668,3.181,8.909-1.514,20.438,3.482,7.563,3.281,18.057,8.023,25.121,8.849,3.705.435,6.47-.21,7.371-2.712C2919.565,965.856,2906.987,946.545,2910.132,933.367Z" transform="translate(-237.062 1121.192)" fill="#c30c17"/>
    <path id="Path_2632" data-name="Path 2632" d="M2924.487,848.27s-.312,1.323-3.6,1.119c0,0-2.763-.171-2.678-1.624A8.889,8.889,0,0,1,2924.487,848.27Z" transform="translate(-286.671 1144.383)" fill="#fff"/>
    <path id="Path_2633" data-name="Path 2633" d="M2992.91,1026.584c-.9,2.5-3.666,3.147-7.371,2.712-4.889-2.13-26.012-10.314-25.776-15.858.351-8.209,4.062-8.471,1.441-18.6-2.1-8.136,17.413-23.264,20.526-26.552,5.854,11.105,6.016,11.63,4.367,18.542C2982.953,1000,2995.53,1019.312,2992.91,1026.584Z" transform="translate(-313.027 1067.735)" fill="#a1050f"/>
    <path id="Path_2634" data-name="Path 2634" d="M3004.32,943.53a30.973,30.973,0,0,0-10.215-9.44c.591-1.523-15.756-21.563-15.756-24.669,0-3.144-4.361-25.411-4.361-25.411s13.62.841,18.336,7.418C2998.221,899.653,3010.47,931.308,3004.32,943.53Z" transform="translate(-322.049 1121.181)" fill="#f30a18"/>
    <path id="Path_2635" data-name="Path 2635" d="M2981.792,1020.917l-27.219,7.1,2.554,4.586s33.125-.231,34.88-2.247S2981.792,1020.917,2981.792,1020.917Z" transform="translate(-309.737 1034.353)" fill="#ff7955"/>
    <path id="Path_2636" data-name="Path 2636" d="M2862.33,997.37c-2.322,3.752-6.447,13.172-11.735,16.267-3.468,2.025-8.176-.792-10.614-2.273a32.9,32.9,0,0,0,2.407-4.944c1.946.445,4.32,1.014,5.851,1.476C2851.219,1008.8,2862.33,997.37,2862.33,997.37Z" transform="translate(-237.062 1049.287)" fill="#a1050f"/>
    <path id="Path_2637" data-name="Path 2637" d="M2922.136,1036.971s-8.548-2.419-10.584-1.853-9.012,5.184-8.031,6.439,7.126-.751,9.954-.371,5.015,1.775,7.051,1.473a23.611,23.611,0,0,0,4.165-1.1Z" transform="translate(-277.3 1025.401)" fill="#ff7955"/>
    <path id="Path_2638" data-name="Path 2638" d="M2943.906,1034.317s-4.182-2.149-5.372-3.371a.333.333,0,0,0-.519.06c-.319.5-.618,1.474.849,2.439A7.888,7.888,0,0,0,2943.906,1034.317Z" transform="translate(-299.069 1028.056)" fill="#ff7955"/>
    <path id="Path_2639" data-name="Path 2639" d="M2846.584,1067.7h39.878a3.179,3.179,0,0,0-3.179-3.179h-36.7Z" transform="translate(-241.249 1006.701)" fill="#131f2d"/>
    <path id="Path_2640" data-name="Path 2640" d="M2740,954.477h-61.655l14.789,43.431h62.055Z" transform="translate(-134.551 1076.49)" fill="#131f2d"/>
    <path id="Path_2641" data-name="Path 2641" d="M2675.86,954.477l14.791,43.43H2752.7l-15.188-43.43Z" transform="translate(-132.975 1076.49)" fill="#131f2d"/>
    <path id="Path_2642" data-name="Path 2642" d="M2766.6,1007.535a4.009,4.009,0,0,0,3.7,3,2.314,2.314,0,0,0,2.311-3,4.008,4.008,0,0,0-3.7-3A2.313,2.313,0,0,0,2766.6,1007.535Z" transform="translate(-190.471 1044.745)" fill="#f9ddbf"/>
    <path id="Path_2643" data-name="Path 2643" d="M3124.314,1217.705a1.594,1.594,0,0,1-1.58-1.3l-7.744-43.892-11.138-63.126-3.115-17.652,7.934-.226,1.376,10.247,9.665,72.011,5.729,42.685A1.118,1.118,0,0,1,3124.314,1217.705Z" transform="translate(-402.435 989.581)" fill="#657285"/>
    <path id="Path_2644" data-name="Path 2644" d="M3110.048,1101.76a11.382,11.382,0,0,0-6.2,7.631l-3.115-17.652,7.934-.226Z" transform="translate(-402.435 989.581)" fill="#657285"/>
    <path id="Path_2645" data-name="Path 2645" d="M2623.766,1217.705a1.593,1.593,0,0,0,1.579-1.3l7.744-43.892,11.138-63.126,3.115-17.652-7.933-.226-1.376,10.247-9.665,72.011-5.73,42.685A1.118,1.118,0,0,0,2623.766,1217.705Z" transform="translate(-99.215 989.581)" fill="#657285"/>
    <path id="Path_2646" data-name="Path 2646" d="M2664.741,1101.76a11.381,11.381,0,0,1,6.2,7.631l3.115-17.652-7.933-.226Z" transform="translate(-125.923 989.581)" fill="#657285"/>
    <rect id="Rectangle_58" data-name="Rectangle 58" width="212.84" height="13.861" rx="6.93" transform="translate(2519.171 2074.389)" fill="#657285"/>
  </g>
</svg>
