<svg xmlns="http://www.w3.org/2000/svg" xmlns:xlink="http://www.w3.org/1999/xlink" width="481.733" height="469.509" viewBox="0 0 481.733 469.509">
  <defs>
    <linearGradient id="linear-gradient" x1="1" y1="0.5" x2="0" y2="0.5" gradientUnits="objectBoundingBox">
      <stop offset="0" stop-color="#5761d7"/>
      <stop offset="0.073" stop-color="#5471d8"/>
      <stop offset="0.279" stop-color="#4d9bda"/>
      <stop offset="0.48" stop-color="#48bddd"/>
      <stop offset="0.672" stop-color="#44d4de"/>
      <stop offset="0.849" stop-color="#42e3df"/>
      <stop offset="1" stop-color="#42e8e0"/>
    </linearGradient>
    <linearGradient id="linear-gradient-2" x1="1" y1="0.5" x2="0" y2="0.5" gradientUnits="objectBoundingBox">
      <stop offset="0" stop-color="#42e8e0"/>
      <stop offset="0.151" stop-color="#42e3df"/>
      <stop offset="0.328" stop-color="#44d4de"/>
      <stop offset="0.52" stop-color="#48bddd"/>
      <stop offset="0.721" stop-color="#4d9bda"/>
      <stop offset="0.927" stop-color="#5471d8"/>
      <stop offset="1" stop-color="#5761d7"/>
    </linearGradient>
  </defs>
  <g id="Group_3182" data-name="Group 3182" transform="translate(-2135.963 -1084.23)">
    <path id="Path_3086" data-name="Path 3086" d="M324.971,310.732a8.548,8.548,0,0,0,4.213-.987l94.732-54.692a3.333,3.333,0,0,0,1.9-2.853c0-1.31-.922-2.592-2.528-3.516l-93.462-53.963c-2.859-1.65-7.062-1.812-9.565-.364l-94.733,54.692a3.333,3.333,0,0,0-1.894,2.853c0,1.31.922,2.592,2.528,3.518l93.462,53.961A10.959,10.959,0,0,0,324.971,310.732Zm3.481-2.257c-2.027,1.169-5.736,1-8.1-.365l-93.462-53.961c-1.124-.649-1.794-1.488-1.794-2.247a1.981,1.981,0,0,1,1.161-1.58l94.732-54.693c2.025-1.165,5.735-1,8.1.365l93.462,53.961c1.124.649,1.793,1.488,1.793,2.247a1.977,1.977,0,0,1-1.159,1.58Z" transform="translate(2051.864 1073.125)" fill="#8686f2" style="mix-blend-mode: lighten;isolation: isolate"/>
    <path id="Path_3087" data-name="Path 3087" d="M275.8,295.827a.734.734,0,0,0,.367-1.37l-59.843-34.549a.733.733,0,1,0-.733,1.27l59.843,34.55A.719.719,0,0,0,275.8,295.827Z" transform="translate(2212.231 1094.318)" opacity="0.5" fill="url(#linear-gradient)"/>
    <path id="Path_3088" data-name="Path 3088" d="M339.73,295.633a.716.716,0,0,0,.365-.1L399.6,261.178a.733.733,0,1,0-.733-1.27l-59.505,34.355a.735.735,0,0,0,.367,1.37Z" transform="translate(1925.541 1094.317)" opacity="0.5" fill="url(#linear-gradient-2)"/>
    <path id="Path_3089" data-name="Path 3089" d="M327.522,390.285a13.928,13.928,0,0,0,6.975-1.868c24.391-14.139,105.619-61.1,107.567-61.965a.705.705,0,0,0,.47-.9.76.76,0,0,0-.942-.489c-1.265.365-106.766,61.465-107.832,62.082a12.5,12.5,0,0,1-12.491,0l-107.3-62.19a.735.735,0,0,0-.736,1.272l107.3,62.189A13.964,13.964,0,0,0,327.522,390.285Z" transform="translate(2049.306 1115.064)" fill="#e5cbcd" opacity="0.5"/>
    <g id="Group_3149" data-name="Group 3149" transform="translate(2276.226 1227.069)">
      <path id="Path_3090" data-name="Path 3090" d="M223.814,207.516v11.625l100.6,58.082,100.6-58.084V207.514Z" transform="translate(-223.814 -149.432)" fill="#e4d3d4"/>
      <path id="Path_3091" data-name="Path 3091" d="M324.415,279.644l100.6-58.084-100.6-58.082-100.6,58.084Z" transform="translate(-223.814 -163.478)" fill="#e4d3d4"/>
      <path id="Path_3092" data-name="Path 3092" d="M324.415,264.4,423.843,207l1.176.679-100.6,58.084-100.6-58.082L224.99,207Z" transform="translate(-223.814 -149.596)" fill="#e4d3d4"/>
    </g>
    <path id="Path_3093" data-name="Path 3093" d="M318.8,263l77.378-44.674L318.8,173.654l-77.378,44.674Z" transform="translate(2058.029 1066.837)" fill="#0f054c"/>
    <path id="Path_3094" data-name="Path 3094" d="M318.8,263l77.38-44.675L318.8,173.654l-77.38,44.675Z" transform="translate(2058.028 1066.837)" fill="#c30c17" opacity="0.5"/>
    <g id="Group_3150" data-name="Group 3150" transform="translate(2299.45 1229.226)">
      <path id="Path_3095" data-name="Path 3095" d="M377.467,165.113l-77.38,44.675v11.265l77.38-44.675Z" transform="translate(-300.087 -165.113)" fill="#c30c17" opacity="0.5"/>
      <path id="Path_3096" data-name="Path 3096" d="M241.422,176.378l77.38,44.674V209.787l-77.377-44.674Z" transform="translate(-164.045 -165.113)" fill="#c30c17" opacity="0.5"/>
      <path id="Path_3097" data-name="Path 3097" d="M318.8,254.462l77.38-44.675L318.8,165.113l-77.38,44.675Z" transform="translate(-241.422 -165.113)" fill="#c30c17" opacity="0.5"/>
      <path id="Path_3098" data-name="Path 3098" d="M307.565,221.151,338.484,203.3l-30.918-17.851L276.646,203.3Z" transform="translate(-230.187 -158.626)" fill="#c30c17" opacity="0.5"/>
      <path id="Path_3099" data-name="Path 3099" d="M307.566,187.092l-29.5,17.03-1.422-.821,30.919-17.851L338.484,203.3l-1.423.821Z" transform="translate(-230.187 -158.626)" fill="#c30c17" opacity="0.5"/>
      <path id="Path_3100" data-name="Path 3100" d="M377.466,243.658v11.265l-77.377-44.674V198.984Z" transform="translate(-300.089 -154.309)" fill="#c30c17" opacity="0.5"/>
    </g>
    <path id="Path_3101" data-name="Path 3101" d="M318.8,198.983v11.265l-77.38,44.675V243.658Z" transform="translate(2134.584 1076.389)" fill="#c30c17" opacity="0.5"/>
    <path id="Path_3102" data-name="Path 3102" d="M318.8,242.577l76.315-44.061,1.065.615L318.8,243.807l-77.377-44.674,1.065-.615Z" transform="translate(2058.028 1074.768)" fill="#d5787e" opacity="0.8"/>
    <g id="Group_3154" data-name="Group 3154" transform="translate(2446.82 1365.933)" opacity="0.11">
      <path id="Path_3103" data-name="Path 3103" d="M196.3,270.515a13.109,13.109,0,0,1,13.092-.007l78.029,44.946a1.842,1.842,0,0,1,0,3.192l-78.679,45.425a11.553,11.553,0,0,1-11.554,0l-78.8-45.383a1.842,1.842,0,0,1,0-3.191Z" transform="translate(-117.47 -268.761)" fill="#e4d0d2"/>
    </g>
    <g id="Group_3155" data-name="Group 3155" transform="translate(2446.82 1352.788)" opacity="0.11">
      <path id="Path_3104" data-name="Path 3104" d="M196.3,260.549a13.106,13.106,0,0,1,13.092-.007l78.029,44.946a1.842,1.842,0,0,1,0,3.192l-78.679,45.425a11.553,11.553,0,0,1-11.554,0l-78.8-45.383a1.842,1.842,0,0,1,0-3.191Z" transform="translate(-117.47 -258.794)" fill="#e4d0d2"/>
    </g>
    <g id="Group_3156" data-name="Group 3156" transform="translate(2446.82 1339.643)" opacity="0.11">
      <path id="Path_3105" data-name="Path 3105" d="M196.3,250.583a13.105,13.105,0,0,1,13.092-.007l78.029,44.946a1.842,1.842,0,0,1,0,3.192L208.745,344.14a11.553,11.553,0,0,1-11.554,0l-78.8-45.383a1.842,1.842,0,0,1,0-3.191Z" transform="translate(-117.47 -248.828)" fill="#e4d0d2"/>
    </g>
    <g id="Group_3157" data-name="Group 3157" transform="translate(2446.82 1326.498)" opacity="0.11">
      <path id="Path_3106" data-name="Path 3106" d="M196.3,240.618a13.1,13.1,0,0,1,13.092-.007l78.029,44.946a1.842,1.842,0,0,1,0,3.192l-78.679,45.425a11.553,11.553,0,0,1-11.554,0l-78.8-45.383a1.842,1.842,0,0,1,0-3.191Z" transform="translate(-117.47 -238.862)" fill="#e4d0d2"/>
    </g>
    <path id="Path_3107" data-name="Path 3107" d="M118.391,285.6,196.3,240.618a13.1,13.1,0,0,1,13.092-.007l78.029,44.946a1.826,1.826,0,0,1,.922,1.6v26.429a1.824,1.824,0,0,1-.922,1.595L208.745,360.6a11.559,11.559,0,0,1-11.554,0l-78.8-45.383a1.828,1.828,0,0,1-.921-1.6V287.2h0A1.824,1.824,0,0,1,118.391,285.6Z" transform="translate(2329.35 1087.636)" fill="#e4d0d2" opacity="0.5"/>
    <g id="Group_3158" data-name="Group 3158" transform="translate(2446.82 1326.498)" opacity="0.11">
      <path id="Path_3108" data-name="Path 3108" d="M196.3,240.618a13.1,13.1,0,0,1,13.092-.007l78.029,44.946a1.842,1.842,0,0,1,0,3.192l-78.679,45.425a11.553,11.553,0,0,1-11.554,0l-78.8-45.383a1.842,1.842,0,0,1,0-3.191Z" transform="translate(-117.47 -238.862)" fill="#e4d0d2"/>
    </g>
    <g id="Group_3159" data-name="Group 3159" transform="translate(2494.138 1353.275)" opacity="0.5">
      <path id="Path_3109" data-name="Path 3109" d="M188.665,259.908a5.549,5.549,0,0,1,5.549,0l34.96,20.138a.821.821,0,0,1,0,1.423l-35.1,20.269a5.155,5.155,0,0,1-5.154,0l-35.16-20.249a.823.823,0,0,1,0-1.424Z" transform="translate(-153.345 -259.163)" fill="#dea9ac"/>
    </g>
    <path id="Path_3110" data-name="Path 3110" d="M229.172,281.306l-34.96-20.138a5.555,5.555,0,0,0-5.549,0l-34.909,20.155c-.036.02-.049.055-.079.08a.809.809,0,0,1,.079-1.344l34.909-20.154a5.549,5.549,0,0,1,5.549,0l34.96,20.138a.808.808,0,0,1,.08,1.343C229.221,281.362,229.208,281.327,229.172,281.306Z" transform="translate(2340.794 1094.112)" fill="#e4d0d2"/>
    <path id="Path_3111" data-name="Path 3111" d="M118.39,275.518l78.8,45.383a11.559,11.559,0,0,0,11.554,0l78.679-45.426a1.829,1.829,0,0,0,.685-.687,1.844,1.844,0,0,1-.685,2.5l-78.679,45.425a11.553,11.553,0,0,1-11.554,0l-78.8-45.383a1.844,1.844,0,0,1-.683-2.5A1.838,1.838,0,0,0,118.39,275.518Z" transform="translate(2329.35 1099.095)" fill="#e4d0d2"/>
    <g id="Group_3161" data-name="Group 3161" transform="translate(2135.963 1365.933)" opacity="0.11">
      <path id="Path_3112" data-name="Path 3112" d="M431.986,270.515a13.109,13.109,0,0,1,13.092-.007l78.029,44.946a1.842,1.842,0,0,1,0,3.192l-78.679,45.425a11.55,11.55,0,0,1-11.553,0l-78.8-45.383a1.842,1.842,0,0,1,0-3.191Z" transform="translate(-353.153 -268.761)" fill="#e4d4d5"/>
    </g>
    <g id="Group_3162" data-name="Group 3162" transform="translate(2135.963 1352.788)" opacity="0.11">
      <path id="Path_3113" data-name="Path 3113" d="M431.986,260.549a13.106,13.106,0,0,1,13.092-.007l78.029,44.946a1.842,1.842,0,0,1,0,3.192l-78.679,45.425a11.55,11.55,0,0,1-11.553,0l-78.8-45.383a1.842,1.842,0,0,1,0-3.191Z" transform="translate(-353.153 -258.794)" fill="#e4d4d5"/>
    </g>
    <g id="Group_3163" data-name="Group 3163" transform="translate(2135.963 1339.643)" opacity="0.11">
      <path id="Path_3114" data-name="Path 3114" d="M431.986,250.583a13.105,13.105,0,0,1,13.092-.007l78.029,44.946a1.842,1.842,0,0,1,0,3.192L444.428,344.14a11.551,11.551,0,0,1-11.553,0l-78.8-45.383a1.842,1.842,0,0,1,0-3.191Z" transform="translate(-353.153 -248.828)" fill="#e4d4d5"/>
    </g>
    <g id="Group_3164" data-name="Group 3164" transform="translate(2135.963 1326.498)" opacity="0.11">
      <path id="Path_3115" data-name="Path 3115" d="M431.986,240.618a13.1,13.1,0,0,1,13.092-.007l78.029,44.946a1.842,1.842,0,0,1,0,3.192l-78.679,45.425a11.55,11.55,0,0,1-11.553,0l-78.8-45.383a1.842,1.842,0,0,1,0-3.191Z" transform="translate(-353.153 -238.862)" fill="#e4d4d5"/>
    </g>
    <path id="Path_3116" data-name="Path 3116" d="M354.074,285.6l77.912-44.983a13.1,13.1,0,0,1,13.092-.007l78.029,44.946a1.826,1.826,0,0,1,.922,1.6v26.429a1.824,1.824,0,0,1-.922,1.595L444.428,360.6a11.557,11.557,0,0,1-11.553,0l-78.8-45.383a1.828,1.828,0,0,1-.921-1.6V287.2h0A1.824,1.824,0,0,1,354.074,285.6Z" transform="translate(1782.81 1087.636)" fill="#e4d4d5" opacity="0.5"/>
    <g id="Group_3165" data-name="Group 3165" transform="translate(2135.963 1326.498)" opacity="0.11">
      <path id="Path_3117" data-name="Path 3117" d="M431.986,240.618a13.1,13.1,0,0,1,13.092-.007l78.029,44.946a1.842,1.842,0,0,1,0,3.192l-78.679,45.425a11.55,11.55,0,0,1-11.553,0l-78.8-45.383a1.842,1.842,0,0,1,0-3.191Z" transform="translate(-353.153 -238.862)" fill="#e4d4d5"/>
    </g>
    <g id="Group_3166" data-name="Group 3166" transform="translate(2183.281 1353.275)" opacity="0.5">
      <path id="Path_3118" data-name="Path 3118" d="M424.347,259.908a5.549,5.549,0,0,1,5.549,0l34.962,20.138a.822.822,0,0,1,0,1.423l-35.105,20.269a5.155,5.155,0,0,1-5.155,0l-35.16-20.249a.823.823,0,0,1,0-1.424Z" transform="translate(-389.028 -259.163)" fill="#dea9ac"/>
    </g>
    <path id="Path_3119" data-name="Path 3119" d="M464.854,281.306l-34.96-20.138a5.556,5.556,0,0,0-5.549,0l-34.909,20.155c-.036.02-.049.055-.079.08a.809.809,0,0,1,.079-1.344l34.909-20.154a5.549,5.549,0,0,1,5.549,0l34.96,20.138a.808.808,0,0,1,.08,1.343C464.9,281.362,464.89,281.327,464.854,281.306Z" transform="translate(1794.255 1094.112)" fill="#c30c17"/>
    <path id="Path_3120" data-name="Path 3120" d="M354.073,275.518l78.8,45.383a11.557,11.557,0,0,0,11.553,0l78.679-45.426a1.829,1.829,0,0,0,.685-.687,1.844,1.844,0,0,1-.685,2.5l-78.679,45.425a11.551,11.551,0,0,1-11.553,0l-78.8-45.383a1.844,1.844,0,0,1-.683-2.5A1.838,1.838,0,0,0,354.073,275.518Z" transform="translate(1782.81 1099.095)" fill="#e4d4d5"/>
    <path id="Path_3121" data-name="Path 3121" d="M413.938,227.6V180.862c1.083-15.928,7.386-31.11,17.967-44.99v46.736c-10.581,13.879-16.884,29.062-17.967,44.99Zm23.375-51.554V129.308a133.719,133.719,0,0,1,12.375-12.191v46.736a133.718,133.718,0,0,0-12.375,12.191Zm20.03-18.421V110.887a181.186,181.186,0,0,1,15.771-10.73v46.736a181.189,181.189,0,0,0-15.771,10.73Zm26.36-2.937V80.328c-43.056,22.843-69.931,55.51-69.931,91.652v74.357c0-36.142,26.875-68.809,69.931-91.651Z" transform="translate(1743.185 1037.07)" fill="#e8b4b7" opacity="0.502"/>
    <path id="Path_3122" data-name="Path 3122" d="M281.874,127.009V113.582q4.928-.944,9.96-1.756v13.427q-5.031.811-9.96,1.756Zm17.915-16.372V98.754q5.108-.706,10.308-1.27v11.883q-5.2.566-10.308,1.27Zm-35.157,6.724v-16.2q4.729-1.171,9.573-2.217v16.2q-4.843,1.045-9.573,2.217Zm53.69-8.795V84.648q5.263-.453,10.606-.761V107.8q-5.344.309-10.606.761Zm38.479-1.347V83.3q5.409.083,10.752.314v23.919q-5.342-.231-10.752-.314Zm19.114.769V77.907q5.286.346,10.495.838v30.082q-5.207-.491-10.495-.838Zm-38.536-.575V73q4.829-.17,9.716-.22l1.155-.009v34.409l-1.155.011q-4.885.049-9.716.219Zm57.174,2.271V66.64q5.146.6,10.2,1.34v43.046q-5.057-.74-10.2-1.341Zm32.125-46.727A365.641,365.641,0,0,0,347.1,55.2c-37.369.375-72.374,6.128-102.811,15.953V145.51c30.436-9.824,65.442-15.578,102.811-15.952a365.643,365.643,0,0,1,79.584,7.755V62.958Z" transform="translate(2023.752 1029.049)" fill="rgba(243,10,24,0.44)" opacity="0.502"/>
    <path id="Path_3123" data-name="Path 3123" d="M219.127,158.693v-14.97A90.411,90.411,0,0,1,229.7,163.669V208.01a90.419,90.419,0,0,0-10.568-19.948v-14.97q-1.933-2.782-4.09-5.5v8.073a120.819,120.819,0,0,0-8.944-10.031v-8.073c-14.026-14.117-32.708-26.5-54.823-36.469V106.7q5.9,2.661,11.472,5.548,2.786,1.444,5.484,2.941a170.225,170.225,0,0,1,36.6,26.723q.639.627,1.265,1.257v-8.073a120.811,120.811,0,0,1,8.944,10.031V153.2q2.156,2.714,4.09,5.5Zm13.461-.468c-8.456-36.286-44-67.536-94.426-86.986V145.6c50.423,19.449,85.97,50.7,94.426,86.986V158.225Z" transform="translate(2357.813 1034.171)" fill="#e8b4b7" opacity="0.502"/>
    <path id="Path_3124" data-name="Path 3124" d="M203.192,134.59q-.625-.631-1.265-1.257v14.4A160.643,160.643,0,0,0,175.741,127.2q-5.023-3.2-10.416-6.193v-14.4q-2.7-1.5-5.484-2.941v14.4q-5.565-2.885-11.472-5.548v0c22.115,9.971,40.8,22.352,54.823,36.469v-14.4Zm13.034,15.528q-1.933-2.782-4.09-5.5v14.4q2.156,2.714,4.09,5.5v-14.4Z" transform="translate(2360.715 1042.745)" fill="#f0414b" opacity="0.753"/>
    <path id="Path_3125" data-name="Path 3125" d="M202.59,103.669q-5.565-2.885-11.472-5.548v14.4q5.9,2.661,11.472,5.548v-14.4Z" transform="translate(2317.967 1042.745)" fill="#f0414b" opacity="0.878"/>
    <path id="Path_3126" data-name="Path 3126" d="M185.4,129.783a160.645,160.645,0,0,0-26.185-20.531v14.4A160.642,160.642,0,0,1,185.4,144.182v-14.4Z" transform="translate(2377.247 1046.296)" fill="#f0414b" opacity="0.878"/>
    <path id="Path_3127" data-name="Path 3127" d="M189.479,110.75q-5.023-3.2-10.416-6.193v14.4q5.389,2.993,10.416,6.193v-14.4Z" transform="translate(2346.978 1044.798)" fill="#f0414b" opacity="0.973"/>
    <path id="Path_3128" data-name="Path 3128" d="M150.925,146.141a90.412,90.412,0,0,0-10.568-19.947v14.97a90.441,90.441,0,0,1,10.568,19.947v14.4a90.44,90.44,0,0,0-10.568-19.947v14.97a90.42,90.42,0,0,1,10.568,19.948V146.141Z" transform="translate(2436.584 1051.699)" fill="#f0414b" opacity="0.753"/>
    <path id="Path_3129" data-name="Path 3129" d="M150.925,157.491a90.44,90.44,0,0,0-10.568-19.947v14.4a90.442,90.442,0,0,1,10.568,19.947v-14.4Z" transform="translate(2436.584 1055.319)" fill="#f04650" opacity="0.878"/>
    <path id="Path_3130" data-name="Path 3130" d="M160.414,152.153a120.822,120.822,0,0,0-8.944-10.031V150.2a120.824,120.824,0,0,1,8.944,10.031v-8.073Zm0-22.473a120.823,120.823,0,0,0-8.944-10.031v8.073a120.817,120.817,0,0,1,8.944,10.031v-8.073Z" transform="translate(2412.437 1049.612)" fill="#f30a18" opacity="0.753"/>
    <path id="Path_3131" data-name="Path 3131" d="M160.414,135.8a120.824,120.824,0,0,0-8.944-10.031v14.4a120.824,120.824,0,0,1,8.944,10.031V135.8Z" transform="translate(2412.437 1051.564)" fill="#f0414b" opacity="0.878"/>
    <path id="Path_3132" data-name="Path 3132" d="M471.008,122.44c-10.581,13.879-16.884,29.062-17.967,44.99v46.736c1.083-15.928,7.386-31.11,17.967-44.99V122.44Z" transform="translate(1704.082 1050.502)" fill="#f30a18" opacity="0.753"/>
    <path id="Path_3133" data-name="Path 3133" d="M451.934,108.22a133.719,133.719,0,0,0-12.375,12.191v46.736a133.713,133.713,0,0,1,12.375-12.191V108.22Z" transform="translate(1740.939 1045.966)" fill="#f30a18"/>
    <path id="Path_3134" data-name="Path 3134" d="M437.569,95.362a181.175,181.175,0,0,0-15.771,10.73v46.736a181.176,181.176,0,0,1,15.771-10.73V95.362Z" transform="translate(1778.73 1041.865)" fill="#f30a18" opacity="0.753"/>
    <path id="Path_3135" data-name="Path 3135" d="M369.459,88.36q-4.843,1.045-9.573,2.217v16.2q4.729-1.171,9.573-2.217V88.36Z" transform="translate(1928.499 1039.632)" fill="#f30a18" opacity="0.753"/>
    <path id="Path_3136" data-name="Path 3136" d="M356.48,98.128q-5.031.811-9.96,1.756v13.427q4.928-.944,9.96-1.756V98.128Z" transform="translate(1959.105 1042.747)" fill="#f30a18" opacity="0.753"/>
    <path id="Path_3137" data-name="Path 3137" d="M342.982,87.254q-5.2.564-10.308,1.27v11.883q5.108-.7,10.308-1.27V87.254Z" transform="translate(1990.868 1039.279)" fill="#f30a18" opacity="0.753"/>
    <path id="Path_3138" data-name="Path 3138" d="M329,76.945q-5.344.307-10.606.761v23.918q5.263-.453,10.606-.761V76.945Z" transform="translate(2023.678 1035.991)" fill="#f30a18" opacity="0.753"/>
    <path id="Path_3139" data-name="Path 3139" d="M314.618,68.52l-1.155.009q-4.885.049-9.716.22v34.409q4.829-.17,9.716-.219l1.155-.011V68.52Z" transform="translate(2057.385 1033.303)" fill="#f30a18" opacity="0.753"/>
    <path id="Path_3140" data-name="Path 3140" d="M299.864,76.814q-5.342-.231-10.752-.314v23.919q5.409.081,10.752.314V76.814Z" transform="translate(2091.442 1035.849)" fill="#f30a18"/>
    <path id="Path_3141" data-name="Path 3141" d="M285.31,73.249q-5.207-.491-10.5-.838v30.082q5.286.346,10.5.838V73.249Z" transform="translate(2124.853 1034.544)" fill="#f30a18" opacity="0.753"/>
    <path id="Path_3142" data-name="Path 3142" d="M271.109,65.209q-5.057-.738-10.2-1.34v43.044q5.146.6,10.2,1.341V65.209Z" transform="translate(2157.403 1031.82)" fill="#f30a18"/>
    <g id="Group_3169" data-name="Group 3169" transform="translate(2296.833 1462.674)" opacity="0.11">
      <path id="Path_3143" data-name="Path 3143" d="M325.473,343.757a12.318,12.318,0,0,0-12.309-.007L239.8,386.008a1.733,1.733,0,0,0,0,3l73.971,42.708a10.864,10.864,0,0,0,10.863,0l74.085-42.668a1.731,1.731,0,0,0,0-3Z" transform="translate(-238.938 -342.106)" fill="#e5cbcd"/>
    </g>
    <g id="Group_3170" data-name="Group 3170" transform="translate(2296.833 1450.315)" opacity="0.11">
      <path id="Path_3144" data-name="Path 3144" d="M325.473,334.387a12.318,12.318,0,0,0-12.309-.007L239.8,376.638a1.733,1.733,0,0,0,0,3l73.971,42.708a10.865,10.865,0,0,0,10.863,0l74.085-42.667a1.732,1.732,0,0,0,0-3Z" transform="translate(-238.938 -332.736)" fill="#e5cbcd"/>
    </g>
    <g id="Group_3171" data-name="Group 3171" transform="translate(2296.833 1437.957)" opacity="0.11">
      <path id="Path_3145" data-name="Path 3145" d="M325.473,325.017a12.318,12.318,0,0,0-12.309-.005L239.8,367.267a1.733,1.733,0,0,0,0,3l73.971,42.708a10.864,10.864,0,0,0,10.863,0l74.085-42.667a1.732,1.732,0,0,0,0-3Z" transform="translate(-238.938 -323.367)" fill="#e5cbcd"/>
    </g>
    <g id="Group_3172" data-name="Group 3172" transform="translate(2296.833 1425.599)" opacity="0.11">
      <path id="Path_3146" data-name="Path 3146" d="M325.473,315.647a12.321,12.321,0,0,0-12.309-.005L239.8,357.9a1.733,1.733,0,0,0,0,3l73.971,42.707a10.865,10.865,0,0,0,10.863,0l74.085-42.667a1.732,1.732,0,0,0,0-3Z" transform="translate(-238.938 -313.997)" fill="#e5cbcd"/>
    </g>
    <path id="Path_3147" data-name="Path 3147" d="M398.722,357.938l-73.25-42.291a12.321,12.321,0,0,0-12.309-.005L239.8,357.9a1.713,1.713,0,0,0-.865,1.5v37.076a1.714,1.714,0,0,0,.865,1.5l73.971,42.708a10.865,10.865,0,0,0,10.863,0l74.085-42.668a1.714,1.714,0,0,0,.867-1.5V359.439h0A1.716,1.716,0,0,0,398.722,357.938Z" transform="translate(2057.895 1111.601)" fill="#e5cbcd" opacity="0.11"/>
    <g id="Group_3179" data-name="Group 3179" transform="translate(2279.759 1349.989)">
      <g id="Group_3174" data-name="Group 3174" transform="translate(0 44.956)" opacity="0.11">
        <path id="Path_3148" data-name="Path 3148" d="M330.923,292.757A14.938,14.938,0,0,0,316,292.75l-88.954,51.238a2.1,2.1,0,0,0,0,3.639l89.695,51.785a13.17,13.17,0,0,0,13.171,0l89.833-51.736a2.1,2.1,0,0,0,0-3.639Z" transform="translate(-225.993 -290.756)" fill="#e5cbcd"/>
      </g>
      <g id="Group_3175" data-name="Group 3175" transform="translate(0 29.971)" opacity="0.11">
        <path id="Path_3149" data-name="Path 3149" d="M330.923,281.4A14.941,14.941,0,0,0,316,281.388l-88.954,51.239a2.1,2.1,0,0,0,0,3.639l89.695,51.785a13.176,13.176,0,0,0,13.171,0l89.833-51.738a2.1,2.1,0,0,0,0-3.638Z" transform="translate(-225.993 -279.395)" fill="#e5cbcd"/>
      </g>
      <g id="Group_3176" data-name="Group 3176" transform="translate(0 14.985)" opacity="0.11">
        <path id="Path_3150" data-name="Path 3150" d="M330.923,270.035A14.934,14.934,0,0,0,316,270.027l-88.954,51.239a2.1,2.1,0,0,0,0,3.638l89.695,51.785a13.17,13.17,0,0,0,13.171,0l89.833-51.736a2.1,2.1,0,0,0,0-3.638Z" transform="translate(-225.993 -268.033)" fill="#e5cbcd"/>
      </g>
      <g id="Group_3177" data-name="Group 3177" opacity="0.11">
        <path id="Path_3151" data-name="Path 3151" d="M330.923,258.673A14.941,14.941,0,0,0,316,258.665L227.044,309.9a2.1,2.1,0,0,0,0,3.639l89.695,51.785a13.17,13.17,0,0,0,13.171,0l89.833-51.736a2.1,2.1,0,0,0,0-3.639Z" transform="translate(-225.993 -256.672)" fill="#e5cbcd"/>
      </g>
      <path id="Path_3152" data-name="Path 3152" d="M419.742,309.953l-88.82-51.28A14.941,14.941,0,0,0,316,258.665L227.043,309.9a2.081,2.081,0,0,0-1.05,1.82V356.68a2.081,2.081,0,0,0,1.05,1.819l89.695,51.785a13.17,13.17,0,0,0,13.171,0l89.833-51.736a2.084,2.084,0,0,0,1.05-1.819V311.773h0A2.084,2.084,0,0,0,419.742,309.953Z" transform="translate(-225.992 -256.672)" fill="#e5cbcd" opacity="0.5"/>
      <g id="Group_3178" data-name="Group 3178" opacity="0.11">
        <path id="Path_3153" data-name="Path 3153" d="M330.923,258.673A14.941,14.941,0,0,0,316,258.665L227.044,309.9a2.1,2.1,0,0,0,0,3.639l89.695,51.785a13.17,13.17,0,0,0,13.171,0l89.833-51.736a2.1,2.1,0,0,0,0-3.639Z" transform="translate(-225.993 -256.672)" fill="#e5cbcd"/>
      </g>
      <path id="Path_3154" data-name="Path 3154" d="M419.743,298.458,329.91,350.2a13.176,13.176,0,0,1-13.171,0l-89.695-51.786a2.075,2.075,0,0,1-.78-.783,2.1,2.1,0,0,0,.78,2.854l89.695,51.785a13.17,13.17,0,0,0,13.171,0l89.833-51.736a2.1,2.1,0,0,0,.778-2.854A2.089,2.089,0,0,1,419.743,298.458Z" transform="translate(-225.993 -243.609)" fill="#e5cbcd"/>
    </g>
    <ellipse id="Ellipse_6418" data-name="Ellipse 6418" cx="48.974" cy="28.275" rx="48.974" ry="28.275" transform="translate(2328.184 1376.924)" fill="#c30c17" opacity="0.2"/>
    <path id="Path_3155" data-name="Path 3155" d="M319.978,280.354s-1.191,1.241-2.426,2.7-4.709,3.5-6.167,4.4-8.143,5.971-9.54,10.961,3.379,5.65,8.265,4.783,9.452-5.373,10.781-7,5.954-5.322,11.95-8.426,2.372-7.277,2.372-7.277Z" transform="translate(2038.54 1100.87)" fill="#131f2d"/>
    <path id="Path_3156" data-name="Path 3156" d="M292.487,291.59a18.583,18.583,0,0,1,1.269,5.129c.28,2.886.685,9.14.834,10.971a15.478,15.478,0,0,1-3.011,10.594c-3.221,4.287-4.884,5.98-9.164,4.294s-4.184-8.871-3.427-12.566a102.219,102.219,0,0,0,1.384-12.83,2.57,2.57,0,0,1,.245-1.423Z" transform="translate(2110.549 1104.454)" fill="#131f2d"/>
    <path id="Path_3157" data-name="Path 3157" d="M277.981,219.4s.9,32.945,8.58,50.433a127.146,127.146,0,0,1,6.226,33.723,6.55,6.55,0,0,0,.532,5.719c1.8,2.565,13.072,4.912,14.936-3.512s1.146-24.187-.9-30.761.728-24.692.728-24.692,3.081,1.968,7.12,14.985,7.01,17.983,8.4,21.578,2.667,25.655,1.786,36.427c0,0,9.129,1.3,11.768-3.068s3.522-26.937,2.852-34.133-3.677-30.252-3.264-37.386,1.9-12.927.268-20.052-49.8-22.957-49.8-22.957Z" transform="translate(2065.766 1077.061)" fill="#364154"/>
    <path id="Path_3158" data-name="Path 3158" d="M336.742,246.343c.414-7.134,1.9-12.927.268-20.052-.613-2.679-7.8-6.587-16.538-10.422-14.741-1.345-33.436-2.908-34.724-2.712a48.383,48.383,0,0,0-6.736,2.348l-1.03,1.526s.055,2,.253,5.276c3.437,1.027,10.053-.034,10.053-.034.931,2.312,6.675,10.528,13.819,14.073s28.05,2.331,29.251,3.677,1.432,19.385,1.3,21.678,1.971,16.731,3.915,29.5c1.912,12.562-1,27.826-1.095,28.317a5.155,5.155,0,0,0,1.679-1.653c2.639-4.363,3.522-26.937,2.852-34.133S336.329,253.478,336.742,246.343Z" transform="translate(2065.766 1079.432)" fill="#131f2d"/>
    <path id="Path_3159" data-name="Path 3159" d="M297.649,135.452s-10.686,2.437-14.282,3.282a1.85,1.85,0,0,0-1.3,1.129c-1.038,2.627-3.64,10.79-1.679,22.71,2.41,14.648,1.646,24.51,1.646,24.51l-4.942,25.725s-6.215,24.5-5.678,25.171,14.308,11.152,18.612,9.676,2.89-3.912,2.89-3.912,3.487,17.756,18.922,17.586,28.042-.121,30.662-6.36-.716-32.466-3.437-42.849-9.19-31.083-9.19-31.083l22.6-25.022-19.319-14.754s-4.615-8.576-6.512-9.667-2.889-.166-2.889-.166Z" transform="translate(2062.221 1053.252)" fill="#c30c17"/>
    <path id="Path_3160" data-name="Path 3160" d="M335.693,216.049c.013.89-.506,2.217-3.28,3.169-3,1.027-10.341-3.436-15.155-6.8,2.4,2,14.234,10.633,18.17,9.283a7.042,7.042,0,0,0,1.938-.967A31.639,31.639,0,0,1,335.693,216.049Z" transform="translate(2016.817 1079.203)" fill="#f30a18"/>
    <path id="Path_3161" data-name="Path 3161" d="M320.707,225.667c-2.765,6.584-16.072,6.531-32.359,6.712a17.417,17.417,0,0,1-10.124-2.919,16.456,16.456,0,0,0,11.935,4.648c15.433-.17,28.042-.121,30.662-6.36.86-2.048,1.076-6.256.885-11.344C321.741,220.538,321.457,223.881,320.707,225.667Z" transform="translate(2083.898 1080.473)" fill="#f30a18"/>
    <path id="Path_3162" data-name="Path 3162" d="M315.125,131.376s3.946,4.776-1.732,11.22c-3.5,3.967-9.508,12.524-14.633,21.408-3.2,5.549-6.16,8.507-7.836,13.275,0,0-.235-5.665-.46-14.411-.212-8.254-.323-16.831.046-18.992C291.272,139.428,310.763,129.213,315.125,131.376Z" transform="translate(2073.32 1053.257)" fill="#f0f6ff"/>
    <path id="Path_3163" data-name="Path 3163" d="M306.267,155.032s-2.022,1.257-2.72,1.153-2.935-2.279-2.935-2.279-5.6-.1-6.215-2.5a51.833,51.833,0,0,0-1.581-6.069c-.566-1.246-2.984-7.235-3-9.664s.073-6.77-.976-9.068-2.465-25.292,19.74-24.645,15.307,23.7,15.307,23.7,1.621.691.64,3.659-1.2,3.275-1.7,4.748a6.57,6.57,0,0,1-2.159,3.614l-.368,2.734a10.975,10.975,0,0,1-1.705,8.233C315.828,152.71,306.267,155.032,306.267,155.032Z" transform="translate(2067.418 1043.965)" fill="#fcd1c5"/>
    <path id="Path_3164" data-name="Path 3164" d="M332.277,137.081s-2.368.352-10.05,19.676c-4.285,10.784-10.9,21.95-12.3,29.964s-.621,16.581.964,17.185c1.525.58,29.125,10.908,37.763,14.168a.813.813,0,0,0,1.086-.623l2.382-13.329-17.128-6.616s-3.263-3.987-6.328-5.483c0,0,3.433-6.328,3.214-8.056s.306-19.6-1.7-26.877S332.277,137.081,332.277,137.081Z" transform="translate(2012.703 1055.172)" fill="#c30c17"/>
    <path id="Path_3165" data-name="Path 3165" d="M330.45,176.643a34.412,34.412,0,0,0-2.941-1.811c-.584-.226-3.738-1.3-4.341-1.572a11.937,11.937,0,0,0-3.205.046,1,1,0,0,0-.783.521c-.729,1.352-2.759,5.286-2.531,6.789,0,0,5.7,3.6,6.339,5.21l.911.2S327.719,177.827,330.45,176.643Z" transform="translate(2024.56 1066.68)" fill="#fcd1c5"/>
    <path id="Path_3166" data-name="Path 3166" d="M316.671,194.66c-.655-2.5-1.527-5.6-2.474-8.857l-34.687,14.869A36.573,36.573,0,0,0,308.09,212.62a23.913,23.913,0,0,0,11.272-3.561A138.627,138.627,0,0,0,316.671,194.66Z" transform="translate(2084.611 1070.712)" fill="#f30a18"/>
    <path id="Path_3167" data-name="Path 3167" d="M338.406,149.981s-9.148,1.26-16.538,12.975a177.393,177.393,0,0,0-12.777,25.271l-.255,1.523a6.169,6.169,0,0,1-8.6,4.622c-7.8-3.485-19.362-8.754-21.518-10.335a19.893,19.893,0,0,0-8.8,12.848c-1.5,7.2-1.121,7.22-1.121,7.22s30.8,14.377,42.7,14.237S338.488,179.088,340.149,171,343.643,152.267,338.406,149.981Z" transform="translate(2076.289 1059.286)" fill="#24126a"/>
    <path id="Path_3168" data-name="Path 3168" d="M338.406,149.981s-9.148,1.26-16.538,12.975a177.393,177.393,0,0,0-12.777,25.271l-.255,1.523a6.169,6.169,0,0,1-8.6,4.622c-7.8-3.485-19.362-8.754-21.518-10.335a19.893,19.893,0,0,0-8.8,12.848c-1.5,7.2-1.121,7.22-1.121,7.22s30.8,14.377,42.7,14.237S338.488,179.088,340.149,171,343.643,152.267,338.406,149.981Z" transform="translate(2076.289 1059.286)" fill="#f30a18"/>
    <path id="Path_3169" data-name="Path 3169" d="M287.153,187.012s3.886,3.634,5.578,1.643,1.192-2.211,1.192-2.211,3.5-.032,3.921-2.222,2.147-1.033,2.246-3.473-2.829-1.94-2.829-1.94Z" transform="translate(2093.797 1068.468)" fill="#c30c17"/>
    <path id="Path_3170" data-name="Path 3170" d="M287.99,186.6s1.068-.995,2.447-2.16,3.607-5.991,3.983-6.417,5.024-3.991,7.265-4.052.578,2.445.062,2.8-2.7,1.442-2.7,1.442-2.251,1.89-2.507,2.167,6.257-.448,7.291.187a1.762,1.762,0,0,1,.065,2.751,2.537,2.537,0,0,1-1.287.437,2.266,2.266,0,0,1-1.221,2.87c-1.955.909-2.4.4-2.4.4s-.168,3.386-3.4,2.714Z" transform="translate(2088.264 1066.938)" fill="#fcd1c5"/>
    <path id="Path_3171" data-name="Path 3171" d="M288.241,115.6s-2.9,9.226,4.73,6.6,14.532-7.018,16.928-5.346c1.824,1.274,1.74,5.178,1.6,6.969a2.653,2.653,0,0,0,.458,1.72l2.262,3.288a2.527,2.527,0,0,1,.438,1.253l.161,2.286a1.148,1.148,0,0,0,1.078,1.064l.521.03a1.146,1.146,0,0,0,1.2-.947l.588-3.359s1.8-4.519,5.592-2.743c0,0,2.538-3.411,1.695-10.7s-4.111-14.874-18.421-16.086S288.241,115.6,288.241,115.6Z" transform="translate(2067.514 1043.207)" fill="#131f2d"/>
    <path id="Path_3172" data-name="Path 3172" d="M306.511,149.047l-2.141-1.662a11.564,11.564,0,0,0-2.754,3.391c-.772,1.745,0,7.291,0,7.291l-.653,1.122-.8-1.468-.679-6.558s.729-4.847.8-4.971,4.13.431,4.13.431A8.411,8.411,0,0,1,306.511,149.047Z" transform="translate(2071.114 1058.072)" fill="#c4ccd6"/>
    <path id="Path_3173" data-name="Path 3173" d="M310.608,143.4a7.259,7.259,0,0,0-3.317,1.009s2.4.117,2.782.161S310.608,143.4,310.608,143.4Z" transform="translate(2056.721 1057.188)" fill="#c4ccd6"/>
    <path id="Path_3174" data-name="Path 3174" d="M306.624,143.907l3.839,3.589s-3.371,1.552-4.312,4.565c0,0-4.178.781-4.56-.733s.011-5.325-.488-7.016S306.624,143.907,306.624,143.907Z" transform="translate(2065.064 1057.2)" fill="#f30a18"/>
    <path id="Path_3175" data-name="Path 3175" d="M306.761,149.373a21.276,21.276,0,0,1-1.493,4.441c-.78,1.3-1.579,2.751-1.579,2.751l.095,18.423s6.777-13.966,8.246-16.794c0,0-.224-6.728-.864-8S306.761,149.373,306.761,149.373Z" transform="translate(2060.05 1059.068)" fill="#f30a18"/>
    <path id="Path_3176" data-name="Path 3176" d="M308.533,128.712c-4.452,12.844-16.975,16.656-16.975,16.656s2.238,2.175,2.935,2.279,2.72-1.153,2.72-1.153,9.561-2.321,12.322-6.38a10.975,10.975,0,0,0,1.705-8.233l.368-2.734A3.022,3.022,0,0,1,308.533,128.712Z" transform="translate(2076.473 1052.502)" fill="#e2b1a6"/>
    <path id="Path_3177" data-name="Path 3177" d="M315.982,140.111s-1.757,6.062-1.984,6.29-4.416-.256-4.416-.256L311.618,150s-21.081,22.607-25.451,34.768A257.975,257.975,0,0,1,313.7,150.945l-2.485-3.76,4.309.841Z" transform="translate(2079.209 1056.138)" fill="#f30a18"/>
    <path id="Path_3178" data-name="Path 3178" d="M317.618,136.053l-1.117,1.278,1.314,1.227-3.9,3.523s-1.191,24.728,3.569,41.111c0,0-6.463-15.027-5-41.785l4.218-2.861-1.381-1.359Z" transform="translate(2042.945 1054.844)" fill="#f30a18"/>
    <path id="Path_3179" data-name="Path 3179" d="M307.42,240.9a1.738,1.738,0,0,1,.146.115L302.1,235.2c2.521,3.555-.383,19.833-.683,23.559s2.916,11.424,4.12,20.441-1.262,21.859-1.27,21.9a6.952,6.952,0,0,0,3.321-4.747c1.862-8.424,1.146-24.187-.9-30.761S307.42,240.9,307.42,240.9Z" transform="translate(2066.427 1086.47)" fill="#131f2d"/>
    <path id="Path_3180" data-name="Path 3180" d="M312.184,214.276c11.9-.142,26.989-39.254,28.649-47.339.278-1.348.557-2.77.81-4.211-.042.117-3.125,8.563-6.1,16.049-2.993,7.539-18.89,30.392-27.014,31.881-7.326,1.343-33.678-10.959-38.781-13.387-.462,2.746-.265,2.771-.265,2.771S300.289,214.416,312.184,214.276Z" transform="translate(2075.604 1063.352)" fill="#a1050f"/>
    <path id="Path_3181" data-name="Path 3181" d="M292.166,129.428a1.146,1.146,0,0,0,1.2-.947l.588-3.359s1.8-4.519,5.592-2.743c0,0,2.394-3.239,1.746-10.131-4.219,6.335-13.583,9.259-13.583,9.259l2.262,3.288a2.528,2.528,0,0,1,.438,1.252l.161,2.287a1.147,1.147,0,0,0,1.078,1.064Z" transform="translate(2091.759 1047.251)" fill="#444"/>
    <path id="Path_3182" data-name="Path 3182" d="M161.352,300.988V288.423q-3.777,2.024-7.717,3.945v12.563q3.939-1.919,7.717-3.944Zm24.742-15.7V262.136q-3.138,2.364-6.463,4.637v23.153q3.326-2.273,6.463-4.637ZM174.3,293.438V266.13q-3.468,2.2-7.115,4.305v27.308q3.646-2.105,7.115-4.305Zm31.641-26.077v-30.3q-2.408,2.649-5.028,5.223v30.3q2.619-2.574,5.028-5.223Zm-9.275,9.221V243.759q-2.784,2.513-5.769,4.945v32.824q2.983-2.432,5.769-4.946Zm23.645-29.037V211.959q-1.6,2.89-3.439,5.719v35.587q1.836-2.829,3.439-5.72Zm-6.46,10.119V211.369q-2.016,2.778-4.256,5.487v46.293q2.24-2.709,4.256-5.486Zm11.4-20.619V184.761q-1.165,2.991-2.577,5.929v52.284q1.411-2.936,2.577-5.929Zm-87.492,11.6c49.746-20.042,84.116-51.7,91.313-87.972v74.357c-7.2,36.271-41.567,67.931-91.313,87.972V248.647Z" transform="translate(2361.861 1062.697)" fill="#e8b4b7" opacity="0.502"/>
    <path id="Path_3184" data-name="Path 3184" d="M472.764,280.691v-14.4c-34.7-20.489-57.288-47.807-60.981-78.2v14.4c3.693,30.392,26.28,57.71,60.981,78.2Zm-61.482-54.833V151.5c1.107,36.369,29.218,68.835,73.179,91.219v74.357c-43.961-22.384-72.072-54.849-73.179-91.219Z" transform="translate(1745.708 1059.771)" fill="#e8b4b7" opacity="0.502"/>
    <path id="Path_3185" data-name="Path 3185" d="M420.15,179.244c3.693,30.392,26.28,57.71,60.981,78.2v14.4c-34.7-20.489-57.288-47.807-60.981-78.2v-14.4Z" transform="translate(1737.341 1068.62)" fill="#f0414b" opacity="0.753"/>
    <path id="Path_3190" data-name="Path 3190" d="M140.657,184.865q1.411-2.938,2.577-5.929V231.22q-1.165,2.991-2.577,5.929V184.865Z" transform="translate(2443.879 1068.522)" fill="#f0414b"/>
    <path id="Path_3191" data-name="Path 3191" d="M144.4,205.276q1.836-2.827,3.439-5.719v35.586q-1.6,2.891-3.439,5.72V205.276Z" transform="translate(2434.33 1075.099)" fill="#f0414b"/>
    <path id="Path_3192" data-name="Path 3192" d="M149.3,204.6q2.24-2.709,4.256-5.487V245.4q-2.016,2.776-4.256,5.486V204.6Z" transform="translate(2422.154 1074.957)" fill="#f0414b" opacity="0.753"/>
    <path id="Path_3193" data-name="Path 3193" d="M155.3,223.813q2.619-2.574,5.028-5.223v30.3q-2.408,2.649-5.028,5.223v-30.3Z" transform="translate(2407.476 1081.17)" fill="#f0414b"/>
    <path id="Path_3194" data-name="Path 3194" d="M162.33,228.612q2.983-2.432,5.769-4.945v32.822q-2.784,2.515-5.769,4.946V228.612Z" transform="translate(2390.428 1082.79)" fill="#f0414b" opacity="0.753"/>
    <path id="Path_3195" data-name="Path 3195" d="M170.345,242.237q3.326-2.273,6.463-4.637v23.153q-3.138,2.362-6.463,4.637V242.237Z" transform="translate(2371.148 1087.234)" fill="#f0414b" opacity="0.753"/>
    <path id="Path_3196" data-name="Path 3196" d="M179.287,244.933q3.646-2.105,7.114-4.305v27.308q-3.468,2.2-7.114,4.305V244.933Z" transform="translate(2349.76 1088.199)" fill="#f0414b" opacity="0.753"/>
    <path id="Path_3197" data-name="Path 3197" d="M189.1,261.475q3.939-1.921,7.717-3.945v12.564q-3.777,2.024-7.717,3.944V261.475Z" transform="translate(2326.392 1093.591)" fill="#f0414b" opacity="0.753"/>
    <path id="Path_3183" data-name="Path 3183" d="M323.064,308.072V291.3q-12.838-.7-25.223-2.24v16.773q12.369,1.531,25.223,2.24Zm40.227.078V277.582q-7.692.39-15.536.47-5.358.053-10.659-.041v30.568q5.3.093,10.659.04,7.841-.077,15.536-.468Zm38.771-4.011V257.4q-12.162,1.927-24.872,3.051v46.736q12.7-1.114,24.872-3.049Zm-117.471-.2V254.58q-12.072-1.961-23.555-4.681v49.36q11.467,2.712,23.555,4.681ZM241.2,233.324c31.691,9.752,68.043,15.127,106.556,14.742a362.328,362.328,0,0,0,76.055-8.648v74.357a362.326,362.326,0,0,1-76.055,8.65c-38.514.385-74.866-4.99-106.556-14.742V233.324Z" transform="translate(2030.691 1085.87)" fill="#e8b4b7" opacity="0.502"/>
    <path id="Path_3186" data-name="Path 3186" d="M257.688,254.63q12.7-1.116,24.872-3.051v46.737q-12.161,1.925-24.872,3.049V254.63Z" transform="translate(2150.194 1091.693)" fill="#f0414b"/>
    <path id="Path_3187" data-name="Path 3187" d="M317.582,275.581q12.369,1.531,25.223,2.24v16.773q-12.838-.7-25.223-2.24V275.581Z" transform="translate(2010.951 1099.348)" fill="#f0414b"/>
    <path id="Path_3188" data-name="Path 3188" d="M346.751,245.891q11.467,2.712,23.555,4.681v49.36q-12.072-1.961-23.555-4.681v-49.36Z" transform="translate(1944.976 1089.878)" fill="#f0414b"/>
    <path id="Path_3189" data-name="Path 3189" d="M287.083,267.308q5.3.093,10.659.041,7.841-.079,15.536-.47v30.568q-7.692.388-15.536.468-5.358.053-10.659-.04V267.308Z" transform="translate(2080.705 1096.573)" fill="#f0414b" opacity="0.753"/>
  </g>
</svg>
