<svg xmlns="http://www.w3.org/2000/svg" width="83.531" height="67.401" viewBox="0 0 83.531 67.401">
  <g id="Group_1879" data-name="Group 1879" transform="translate(-1137.66 -758.434)">
    <g id="Group_1860" data-name="Group 1860">
      <path id="Path_2434" data-name="Path 2434" d="M1195.532,783.149h-16.3v-16.3h16.3Zm-14.3-2h12.3v-12.3h-12.3Z" fill="#c20c17"/>
    </g>
    <g id="Group_1861" data-name="Group 1861">
      <rect id="Rectangle_45" data-name="Rectangle 45" width="3.957" height="3.957" transform="translate(1185.404 768.064)" fill="#c20c17"/>
    </g>
    <g id="Group_1862" data-name="Group 1862">
      <path id="Path_2435" data-name="Path 2435" d="M1214.532,783.149h-16.3v-16.3h16.3Zm-14.3-2h12.3v-12.3h-12.3Z" fill="#c20c17"/>
    </g>
    <g id="Group_1863" data-name="Group 1863">
      <rect id="Rectangle_46" data-name="Rectangle 46" width="3.957" height="3.957" transform="translate(1204.404 768.064)" fill="#c20c17"/>
    </g>
    <g id="Group_1864" data-name="Group 1864">
      <path id="Path_2436" data-name="Path 2436" d="M1195.532,800.4h-16.3v-16.3h16.3Zm-14.3-2h12.3v-12.3h-12.3Z" fill="#c20c17"/>
    </g>
    <g id="Group_1865" data-name="Group 1865">
      <rect id="Rectangle_47" data-name="Rectangle 47" width="3.957" height="3.957" transform="translate(1185.404 785.319)" fill="#c20c17"/>
    </g>
    <g id="Group_1866" data-name="Group 1866">
      <path id="Path_2437" data-name="Path 2437" d="M1214.532,800.4h-16.3v-16.3h16.3Zm-14.3-2h12.3v-12.3h-12.3Z" fill="#c20c17"/>
    </g>
    <g id="Group_1867" data-name="Group 1867">
      <rect id="Rectangle_48" data-name="Rectangle 48" width="3.957" height="3.957" transform="translate(1204.404 785.319)" fill="#c20c17"/>
    </g>
    <g id="Group_1868" data-name="Group 1868">
      <path id="Path_2438" data-name="Path 2438" d="M1221.191,814.447h-83.51v-3.936a9.245,9.245,0,0,1,9.234-9.235h74.276Zm-81.51-2h79.51v-9.171h-72.276a7.242,7.242,0,0,0-7.234,7.235Z" fill="#c20c17"/>
    </g>
    <g id="Group_1869" data-name="Group 1869">
      <rect id="Rectangle_49" data-name="Rectangle 49" width="83.489" height="6.894" transform="translate(1137.66 810.66)" fill="#c20c17"/>
    </g>
    <g id="Group_1870" data-name="Group 1870">
      <path id="Path_2439" data-name="Path 2439" d="M1175.1,803.032h-29.937v-9.1l15.518-12.727H1175.1Zm-26.937-3H1172.1V784.2h-10.347l-13.59,11.147Z" fill="#c20c17"/>
    </g>
    <g id="Group_1871" data-name="Group 1871">
      <rect id="Rectangle_50" data-name="Rectangle 50" width="3" height="5.17" transform="translate(1165.106 777.532)" fill="#c20c17"/>
    </g>
    <g id="Group_1872" data-name="Group 1872">
      <circle id="Ellipse_6404" data-name="Ellipse 6404" cx="3.016" cy="3.016" r="3.016" transform="translate(1163.606 772.138)" fill="#c20c17"/>
    </g>
    <g id="Group_1876" data-name="Group 1876">
      <g id="Group_1873" data-name="Group 1873">
        <path id="Path_2440" data-name="Path 2440" d="M1164.524,760.979c.945.138,1.519-.246,1.609-1.013.1-.736-.388-1.25-1.32-1.385a13.074,13.074,0,0,0-9.507,2.208,12.944,12.944,0,0,0-4.206,4.7,12.209,12.209,0,0,0-1.306,3.83,1.176,1.176,0,0,0,.92,1.369,1.146,1.146,0,0,0,1.374-.79c.106-.3.179-.621.26-.944a10.614,10.614,0,0,1,3.926-5.879A10.753,10.753,0,0,1,1164.524,760.979Z" fill="#c20c17"/>
      </g>
      <g id="Group_1874" data-name="Group 1874">
        <path id="Path_2441" data-name="Path 2441" d="M1163.779,765.781a1.215,1.215,0,0,0,1.484-1.036c.091-.73-.375-1.247-1.259-1.367a8.372,8.372,0,0,0-5.871,1.317,8.613,8.613,0,0,0-3.406,4.73c-.342,1.2-.114,1.877.675,2.123s1.352-.241,1.677-1.425a5.783,5.783,0,0,1,1.829-2.914A6.072,6.072,0,0,1,1163.779,765.781Z" fill="#c20c17"/>
      </g>
      <g id="Group_1875" data-name="Group 1875">
        <path id="Path_2442" data-name="Path 2442" d="M1165.612,769.4a.809.809,0,0,0,.987-.689c.06-.486-.249-.829-.837-.909a5.572,5.572,0,0,0-3.9.876,5.721,5.721,0,0,0-2.265,3.145c-.227.8-.076,1.248.448,1.412s.9-.16,1.116-.948a3.845,3.845,0,0,1,1.216-1.937A4.034,4.034,0,0,1,1165.612,769.4Z" fill="#c20c17"/>
      </g>
    </g>
    <g id="Group_1877" data-name="Group 1877">
      <path id="Path_2443" data-name="Path 2443" d="M1155.213,825.835a7.2,7.2,0,1,1,7.2-7.205A7.213,7.213,0,0,1,1155.213,825.835Zm0-11.409a4.2,4.2,0,1,0,4.2,4.2A4.21,4.21,0,0,0,1155.213,814.426Z" fill="#c20c17"/>
    </g>
    <g id="Group_1878" data-name="Group 1878">
      <path id="Path_2444" data-name="Path 2444" d="M1204.4,825.835a7.2,7.2,0,1,1,7.2-7.205A7.214,7.214,0,0,1,1204.4,825.835Zm0-11.409a4.2,4.2,0,1,0,4.2,4.2A4.21,4.21,0,0,0,1204.4,814.426Z" fill="#c20c17"/>
    </g>
  </g>
</svg>
