<svg xmlns="http://www.w3.org/2000/svg" width="67.853" height="67.85" viewBox="0 0 67.853 67.85">
  <g id="Group_1856" data-name="Group 1856" transform="translate(-1143.44 -639.82)">
    <path id="Path_2377" data-name="Path 2377" d="M1180.77,644.34a5.65,5.65,0,1,0,5.62,5.68A5.7,5.7,0,0,0,1180.77,644.34Zm-.02,9.03a3.376,3.376,0,0,1-3.39-3.4,3.385,3.385,0,1,1,6.77.06A3.361,3.361,0,0,1,1180.75,653.37Zm.02-9.03a5.65,5.65,0,1,0,5.62,5.68A5.7,5.7,0,0,0,1180.77,644.34Zm-.02,9.03a3.376,3.376,0,0,1-3.39-3.4,3.385,3.385,0,1,1,6.77.06A3.361,3.361,0,0,1,1180.75,653.37Zm-10.23,4.58a1.049,1.049,0,0,0-.78.34c-1.5,1.49-3.01,2.97-4.48,4.49a1.109,1.109,0,0,0,.49,1.89,1.076,1.076,0,0,0,1.09-.31q2.235-2.2,4.45-4.44a1.388,1.388,0,0,0,.23-.31A1.113,1.113,0,0,0,1170.52,657.95Zm10.25-13.61a5.65,5.65,0,1,0,5.62,5.68A5.7,5.7,0,0,0,1180.77,644.34Zm-.02,9.03a3.376,3.376,0,0,1-3.39-3.4,3.385,3.385,0,1,1,6.77.06A3.361,3.361,0,0,1,1180.75,653.37Zm.02-9.03a5.65,5.65,0,1,0,5.62,5.68A5.7,5.7,0,0,0,1180.77,644.34Zm-.02,9.03a3.376,3.376,0,0,1-3.39-3.4,3.385,3.385,0,1,1,6.77.06A3.361,3.361,0,0,1,1180.75,653.37Zm-10.23,4.58a1.049,1.049,0,0,0-.78.34c-1.5,1.49-3.01,2.97-4.48,4.49a1.109,1.109,0,0,0,.49,1.89,1.076,1.076,0,0,0,1.09-.31q2.235-2.2,4.45-4.44a1.388,1.388,0,0,0,.23-.31A1.113,1.113,0,0,0,1170.52,657.95Zm0,0a1.049,1.049,0,0,0-.78.34c-1.5,1.49-3.01,2.97-4.48,4.49a1.109,1.109,0,0,0,.49,1.89,1.076,1.076,0,0,0,1.09-.31q2.235-2.2,4.45-4.44a1.388,1.388,0,0,0,.23-.31A1.113,1.113,0,0,0,1170.52,657.95Zm10.25-13.61a5.65,5.65,0,1,0,5.62,5.68A5.7,5.7,0,0,0,1180.77,644.34Zm-.02,9.03a3.376,3.376,0,0,1-3.39-3.4,3.385,3.385,0,1,1,6.77.06A3.361,3.361,0,0,1,1180.75,653.37Zm.02-9.03a5.65,5.65,0,1,0,5.62,5.68A5.7,5.7,0,0,0,1180.77,644.34Zm-.02,9.03a3.376,3.376,0,0,1-3.39-3.4,3.385,3.385,0,1,1,6.77.06A3.361,3.361,0,0,1,1180.75,653.37Zm-10.23,4.58a1.049,1.049,0,0,0-.78.34c-1.5,1.49-3.01,2.97-4.48,4.49a1.109,1.109,0,0,0,.49,1.89,1.076,1.076,0,0,0,1.09-.31q2.235-2.2,4.45-4.44a1.388,1.388,0,0,0,.23-.31A1.113,1.113,0,0,0,1170.52,657.95Zm0,0a1.049,1.049,0,0,0-.78.34c-1.5,1.49-3.01,2.97-4.48,4.49a1.109,1.109,0,0,0,.49,1.89,1.076,1.076,0,0,0,1.09-.31q2.235-2.2,4.45-4.44a1.388,1.388,0,0,0,.23-.31A1.113,1.113,0,0,0,1170.52,657.95Zm10.25-13.61a5.65,5.65,0,1,0,5.62,5.68A5.7,5.7,0,0,0,1180.77,644.34Zm-.02,9.03a3.376,3.376,0,0,1-3.39-3.4,3.385,3.385,0,1,1,6.77.06A3.361,3.361,0,0,1,1180.75,653.37Zm.02-9.03a5.65,5.65,0,1,0,5.62,5.68A5.7,5.7,0,0,0,1180.77,644.34Zm-.02,9.03a3.376,3.376,0,0,1-3.39-3.4,3.385,3.385,0,1,1,6.77.06A3.361,3.361,0,0,1,1180.75,653.37Zm-10.23,4.58a1.049,1.049,0,0,0-.78.34c-1.5,1.49-3.01,2.97-4.48,4.49a1.109,1.109,0,0,0,.49,1.89,1.076,1.076,0,0,0,1.09-.31q2.235-2.2,4.45-4.44a1.388,1.388,0,0,0,.23-.31A1.113,1.113,0,0,0,1170.52,657.95Zm40.74,21.39a5.379,5.379,0,0,0-2.97-4.89.713.713,0,0,1-.42-.73c.01-1.25.03-2.51-.03-3.77a5.511,5.511,0,0,0-4.33-5.05,1.69,1.69,0,0,1-.98-.59q-5.595-6.36-11.23-12.71a1.532,1.532,0,0,1-.42-1.17,9.954,9.954,0,0,0-5.72-9.59,16.876,16.876,0,0,0-3.16-1.02h-2.52c-.59.17-1.22.1-1.81.3a10.269,10.269,0,0,0-7.24,9.66,1.522,1.522,0,0,1-.44,1.07q-6.1,6.105-12.22,12.22a1.256,1.256,0,0,1-.8.42,10.3,10.3,0,0,0-6.24,17.45,1.726,1.726,0,0,1,.48,1.25c-.01,5.17,0,10.33,0,15.49,0,.75-.05.79-.8.79-1.87.01-3.75,0-5.62.01-.85,0-1.07.18-1.35.97v7.42a1.579,1.579,0,0,0,1.53.8q21.09-.015,42.2-.01c1.1,0,1.48-.37,1.48-1.46.01-1.96.01-3.93.01-5.89,0-1.38-.3-1.68-1.66-1.68-7.16,0-14.31-.01-21.47.01-.48,0-.63-.1-.63-.61.02-5.41.01-10.82.01-16.23a.985.985,0,0,1,.33-.81,9.765,9.765,0,0,0,2.98-8.28,1.129,1.129,0,0,1,.36-.99c3.46-3.44,6.93-6.87,10.34-10.36a3.377,3.377,0,0,1,2.77-1.28,2.317,2.317,0,0,1,1.44.44c3.82,3.04,7.65,6.05,11.48,9.07.66.52,1.55.94,1.88,1.62s.05,1.64.1,2.48a.787.787,0,0,1-.49.81,5.185,5.185,0,0,0-2.85,4.41c-.18,3.88-.05,7.77-.05,11.66-.01,1.09.82,1.54,1.83,1.05,1.3-.64,2.58-1.34,3.91-1.94a1.637,1.637,0,0,0,1.05-1.71c-.03-2.27.01-4.55-.02-6.82-.01-.54.17-.66.67-.64,1.06.03,2.12.04,3.18-.01.53-.02.71.11.7.68-.03,2.34,0,4.68-.02,7.02a1.324,1.324,0,0,0,.77,1.34c1.42.69,2.83,1.43,4.26,2.11a1.136,1.136,0,0,0,1.75-1.11C1211.29,686.81,1211.31,683.08,1211.26,679.34Zm-5.65-8.93c.03.94-.02,1.89.02,2.84.01.44-.15.51-.53.5-.97-.02-1.94-.01-2.92-.01s-1.94-.01-2.91.01c-.35.01-.45-.1-.44-.45.02-.97-.02-1.94.01-2.91a3.38,3.38,0,0,1,3.4-3.41A3.342,3.342,0,0,1,1205.61,670.41Zm-39.51,30.48c6.49,0,12.98.01,19.47-.02.72,0,.88.21.84.87-.06,1.02-.04,2.04,0,3.05.01.48-.09.64-.61.63-2.43-.03-4.86-.01-7.29-.01q-16.035,0-32.06.01c-.57,0-.81-.09-.77-.73a28.245,28.245,0,0,0,0-3.05c-.03-.58.11-.77.74-.77C1152.98,700.9,1159.54,700.89,1166.1,700.89Zm-12.48-18.03a10.265,10.265,0,0,0,9.03,0v.57q0,7.275.02,14.56c0,.53-.15.65-.66.65-2.6-.03-5.21-.01-7.81-.01-.32,0-.59.04-.59-.45C1153.63,693.11,1153.62,688.03,1153.62,682.86Zm4.51-1.2a7.92,7.92,0,1,1,7.93-7.92A7.958,7.958,0,0,1,1158.13,681.66Zm9.24-12.17a10.182,10.182,0,0,0-6.72-5.59q5.25-5.25,10.49-10.48c2.49,4.25,2.96,4.71,6.16,6.15Q1172.365,664.49,1167.37,669.49Zm13.38-11.58a7.915,7.915,0,1,1,7.9-7.91A7.906,7.906,0,0,1,1180.75,657.91Zm15.75,10.27q-3.135-2.445-6.25-4.91c-1.69-1.33-3.39-2.67-5.17-4.07a10.581,10.581,0,0,0,4.55-4.25c.21-.36.23-1,.66-1,.28,0,.57.56.84.87q4.26,4.815,8.51,9.62c.17.2.34.4.54.64a6.061,6.061,0,0,0-3.16,3.16C1196.81,668.73,1196.62,668.28,1196.5,668.18Zm12.51,20.68c-.71-.36-1.37-.69-2.04-1.01-.31-.15-.2-.41-.2-.64-.01-2.45,0-4.9,0-7.35-.01-1.21-.38-1.6-1.58-1.6-1.98,0-3.97-.01-5.96,0-1.12,0-1.51.38-1.51,1.51,0,2.48-.01,4.95.01,7.42a.738.738,0,0,1-.5.8c-.57.24-1.11.54-1.77.87,0-1.98-.01-3.86,0-5.73,0-1.31-.04-2.61.03-3.91a3.259,3.259,0,0,1,3.25-3.2q3.51-.09,7.02,0a3.268,3.268,0,0,1,3.24,3.22C1209.06,682.42,1209.01,685.6,1209.01,688.86Zm-28.24-44.52a5.65,5.65,0,1,0,5.62,5.68A5.7,5.7,0,0,0,1180.77,644.34Zm-.02,9.03a3.376,3.376,0,0,1-3.39-3.4,3.385,3.385,0,1,1,6.77.06A3.361,3.361,0,0,1,1180.75,653.37Zm-10.23,4.58a1.049,1.049,0,0,0-.78.34c-1.5,1.49-3.01,2.97-4.48,4.49a1.109,1.109,0,0,0,.49,1.89,1.076,1.076,0,0,0,1.09-.31q2.235-2.2,4.45-4.44a1.388,1.388,0,0,0,.23-.31A1.113,1.113,0,0,0,1170.52,657.95ZM1157,696.35c.67,0,1.13-.52,1.14-1.35q.015-3.165,0-6.35c-.01-.83-.47-1.34-1.16-1.32-.66.01-1.09.5-1.09,1.3-.01,1.06-.01,2.12-.01,3.18v3.17C1155.89,695.83,1156.32,696.34,1157,696.35Zm13.52-38.4a1.049,1.049,0,0,0-.78.34c-1.5,1.49-3.01,2.97-4.48,4.49a1.109,1.109,0,0,0,.49,1.89,1.076,1.076,0,0,0,1.09-.31q2.235-2.2,4.45-4.44a1.388,1.388,0,0,0,.23-.31A1.113,1.113,0,0,0,1170.52,657.95Zm10.25-13.61a5.65,5.65,0,1,0,5.62,5.68A5.7,5.7,0,0,0,1180.77,644.34Zm-.02,9.03a3.376,3.376,0,0,1-3.39-3.4,3.385,3.385,0,1,1,6.77.06A3.361,3.361,0,0,1,1180.75,653.37Zm.02-9.03a5.65,5.65,0,1,0,5.62,5.68A5.7,5.7,0,0,0,1180.77,644.34Zm-.02,9.03a3.376,3.376,0,0,1-3.39-3.4,3.385,3.385,0,1,1,6.77.06A3.361,3.361,0,0,1,1180.75,653.37Zm-10.23,4.58a1.049,1.049,0,0,0-.78.34c-1.5,1.49-3.01,2.97-4.48,4.49a1.109,1.109,0,0,0,.49,1.89,1.076,1.076,0,0,0,1.09-.31q2.235-2.2,4.45-4.44a1.388,1.388,0,0,0,.23-.31A1.113,1.113,0,0,0,1170.52,657.95Zm0,0a1.049,1.049,0,0,0-.78.34c-1.5,1.49-3.01,2.97-4.48,4.49a1.109,1.109,0,0,0,.49,1.89,1.076,1.076,0,0,0,1.09-.31q2.235-2.2,4.45-4.44a1.388,1.388,0,0,0,.23-.31A1.113,1.113,0,0,0,1170.52,657.95Zm10.25-13.61a5.65,5.65,0,1,0,5.62,5.68A5.7,5.7,0,0,0,1180.77,644.34Zm-.02,9.03a3.376,3.376,0,0,1-3.39-3.4,3.385,3.385,0,1,1,6.77.06A3.361,3.361,0,0,1,1180.75,653.37Zm.02-9.03a5.65,5.65,0,1,0,5.62,5.68A5.7,5.7,0,0,0,1180.77,644.34Zm-.02,9.03a3.376,3.376,0,0,1-3.39-3.4,3.385,3.385,0,1,1,6.77.06A3.361,3.361,0,0,1,1180.75,653.37Zm-10.23,4.58a1.049,1.049,0,0,0-.78.34c-1.5,1.49-3.01,2.97-4.48,4.49a1.109,1.109,0,0,0,.49,1.89,1.076,1.076,0,0,0,1.09-.31q2.235-2.2,4.45-4.44a1.388,1.388,0,0,0,.23-.31A1.113,1.113,0,0,0,1170.52,657.95Zm0,0a1.049,1.049,0,0,0-.78.34c-1.5,1.49-3.01,2.97-4.48,4.49a1.109,1.109,0,0,0,.49,1.89,1.076,1.076,0,0,0,1.09-.31q2.235-2.2,4.45-4.44a1.388,1.388,0,0,0,.23-.31A1.113,1.113,0,0,0,1170.52,657.95Zm10.25-13.61a5.65,5.65,0,1,0,5.62,5.68A5.7,5.7,0,0,0,1180.77,644.34Zm-.02,9.03a3.376,3.376,0,0,1-3.39-3.4,3.385,3.385,0,1,1,6.77.06A3.361,3.361,0,0,1,1180.75,653.37Zm.02-9.03a5.65,5.65,0,1,0,5.62,5.68A5.7,5.7,0,0,0,1180.77,644.34Zm-.02,9.03a3.376,3.376,0,0,1-3.39-3.4,3.385,3.385,0,1,1,6.77.06A3.361,3.361,0,0,1,1180.75,653.37Zm-10.23,4.58a1.049,1.049,0,0,0-.78.34c-1.5,1.49-3.01,2.97-4.48,4.49a1.109,1.109,0,0,0,.49,1.89,1.076,1.076,0,0,0,1.09-.31q2.235-2.2,4.45-4.44a1.388,1.388,0,0,0,.23-.31A1.113,1.113,0,0,0,1170.52,657.95Z" fill="#c20c17"/>
    <path id="Path_2378" data-name="Path 2378" d="M1158.14,688.65q.015,3.18,0,6.35c-.01.83-.47,1.35-1.14,1.35s-1.11-.52-1.12-1.37v-3.17c0-1.06,0-2.12.01-3.18,0-.8.43-1.29,1.09-1.3C1157.67,687.31,1158.13,687.82,1158.14,688.65Z" fill="#fefefe"/>
    <path id="Path_2379" data-name="Path 2379" d="M1171.52,659.61a1.388,1.388,0,0,1-.23.31q-2.22,2.235-4.45,4.44a1.076,1.076,0,0,1-1.09.31,1.109,1.109,0,0,1-.49-1.89c1.47-1.52,2.98-3,4.48-4.49a1.049,1.049,0,0,1,.78-.34A1.113,1.113,0,0,1,1171.52,659.61Z" fill="#fefefe"/>
    <path id="Path_2380" data-name="Path 2380" d="M1180.77,644.34a5.65,5.65,0,1,0,5.62,5.68A5.7,5.7,0,0,0,1180.77,644.34Zm-.02,9.03a3.376,3.376,0,0,1-3.39-3.4,3.385,3.385,0,1,1,6.77.06A3.361,3.361,0,0,1,1180.75,653.37Z" fill="#fefefe"/>
    <path id="Path_2381" data-name="Path 2381" d="M1158.14,688.65q.015,3.18,0,6.35c-.01.83-.47,1.35-1.14,1.35s-1.11-.52-1.12-1.37v-3.17c0-1.06,0-2.12.01-3.18,0-.8.43-1.29,1.09-1.3C1157.67,687.31,1158.13,687.82,1158.14,688.65Z" fill="#c20c17"/>
    <path id="Path_2382" data-name="Path 2382" d="M1171.52,659.61a1.388,1.388,0,0,1-.23.31q-2.22,2.235-4.45,4.44a1.076,1.076,0,0,1-1.09.31,1.109,1.109,0,0,1-.49-1.89c1.47-1.52,2.98-3,4.48-4.49a1.049,1.049,0,0,1,.78-.34A1.113,1.113,0,0,1,1171.52,659.61Z" fill="#c20c17"/>
    <path id="Path_2383" data-name="Path 2383" d="M1158.12,668.09a5.655,5.655,0,1,0,5.66,5.64A5.724,5.724,0,0,0,1158.12,668.09Zm.01,9.04a3.385,3.385,0,1,1,.01-6.77,3.385,3.385,0,0,1-.01,6.77Z" fill="#c20c17"/>
    <path id="Path_2384" data-name="Path 2384" d="M1180.77,644.34a5.65,5.65,0,1,0,5.62,5.68A5.7,5.7,0,0,0,1180.77,644.34Zm-.02,9.03a3.376,3.376,0,0,1-3.39-3.4,3.385,3.385,0,1,1,6.77.06A3.361,3.361,0,0,1,1180.75,653.37Z" fill="#c20c17"/>
  </g>
</svg>
