<svg xmlns="http://www.w3.org/2000/svg" width="63.842" height="63.788" viewBox="0 0 63.842 63.788">
  <g id="Group_1857" data-name="Group 1857" transform="translate(-1145.44 -641.876)">
    <path id="Path_2386" data-name="Path 2386" d="M1171.16,686.58a2.87,2.87,0,1,0,2.86,2.84A2.849,2.849,0,0,0,1171.16,686.58Zm-.07,3.87a1.043,1.043,0,0,1-.94-1.05,1.017,1.017,0,0,1,1.11-.94.967.967,0,0,1,.88,1.07A.985.985,0,0,1,1171.09,690.45Zm.07-3.87a2.87,2.87,0,1,0,2.86,2.84A2.849,2.849,0,0,0,1171.16,686.58Zm-.07,3.87a1.043,1.043,0,0,1-.94-1.05,1.017,1.017,0,0,1,1.11-.94.967.967,0,0,1,.88,1.07A.985.985,0,0,1,1171.09,690.45Zm.07-3.87a2.87,2.87,0,1,0,2.86,2.84A2.849,2.849,0,0,0,1171.16,686.58Zm-.07,3.87a1.043,1.043,0,0,1-.94-1.05,1.017,1.017,0,0,1,1.11-.94.967.967,0,0,1,.88,1.07A.985.985,0,0,1,1171.09,690.45Zm.07-3.87a2.87,2.87,0,1,0,2.86,2.84A2.849,2.849,0,0,0,1171.16,686.58Zm-.07,3.87a1.043,1.043,0,0,1-.94-1.05,1.017,1.017,0,0,1,1.11-.94.967.967,0,0,1,.88,1.07A.985.985,0,0,1,1171.09,690.45Zm-3.12-33.66a3.751,3.751,0,1,0,3.67,3.78A3.75,3.75,0,0,0,1167.97,656.79Zm-.09,5.63a1.88,1.88,0,1,1,1.89-1.88A1.876,1.876,0,0,1,1167.88,662.42Zm3.28,24.16a2.87,2.87,0,1,0,2.86,2.84A2.849,2.849,0,0,0,1171.16,686.58Zm-.07,3.87a1.043,1.043,0,0,1-.94-1.05,1.017,1.017,0,0,1,1.11-.94.967.967,0,0,1,.88,1.07A.985.985,0,0,1,1171.09,690.45Zm.07-3.87a2.87,2.87,0,1,0,2.86,2.84A2.849,2.849,0,0,0,1171.16,686.58Zm-.07,3.87a1.043,1.043,0,0,1-.94-1.05,1.017,1.017,0,0,1,1.11-.94.967.967,0,0,1,.88,1.07A.985.985,0,0,1,1171.09,690.45Zm-3.12-33.66a3.751,3.751,0,1,0,3.67,3.78A3.75,3.75,0,0,0,1167.97,656.79Zm-.09,5.63a1.88,1.88,0,1,1,1.89-1.88A1.876,1.876,0,0,1,1167.88,662.42Zm.09-5.63a3.751,3.751,0,1,0,3.67,3.78A3.75,3.75,0,0,0,1167.97,656.79Zm-.09,5.63a1.88,1.88,0,1,1,1.89-1.88A1.876,1.876,0,0,1,1167.88,662.42Zm3.28,24.16a2.87,2.87,0,1,0,2.86,2.84A2.849,2.849,0,0,0,1171.16,686.58Zm-.07,3.87a1.043,1.043,0,0,1-.94-1.05,1.017,1.017,0,0,1,1.11-.94.967.967,0,0,1,.88,1.07A.985.985,0,0,1,1171.09,690.45Zm.07-3.87a2.87,2.87,0,1,0,2.86,2.84A2.849,2.849,0,0,0,1171.16,686.58Zm-.07,3.87a1.043,1.043,0,0,1-.94-1.05,1.017,1.017,0,0,1,1.11-.94.967.967,0,0,1,.88,1.07A.985.985,0,0,1,1171.09,690.45Zm-3.12-33.66a3.751,3.751,0,1,0,3.67,3.78A3.75,3.75,0,0,0,1167.97,656.79Zm-.09,5.63a1.88,1.88,0,1,1,1.89-1.88A1.876,1.876,0,0,1,1167.88,662.42Zm.09-5.63a3.751,3.751,0,1,0,3.67,3.78A3.75,3.75,0,0,0,1167.97,656.79Zm-.09,5.63a1.88,1.88,0,1,1,1.89-1.88A1.876,1.876,0,0,1,1167.88,662.42Zm3.28,24.16a2.87,2.87,0,1,0,2.86,2.84A2.849,2.849,0,0,0,1171.16,686.58Zm-.07,3.87a1.043,1.043,0,0,1-.94-1.05,1.017,1.017,0,0,1,1.11-.94.967.967,0,0,1,.88,1.07A.985.985,0,0,1,1171.09,690.45Zm.07-3.87a2.87,2.87,0,1,0,2.86,2.84A2.849,2.849,0,0,0,1171.16,686.58Zm-.07,3.87a1.043,1.043,0,0,1-.94-1.05,1.017,1.017,0,0,1,1.11-.94.967.967,0,0,1,.88,1.07A.985.985,0,0,1,1171.09,690.45Zm-3.12-33.66a3.751,3.751,0,1,0,3.67,3.78A3.75,3.75,0,0,0,1167.97,656.79Zm-.09,5.63a1.88,1.88,0,1,1,1.89-1.88A1.876,1.876,0,0,1,1167.88,662.42Zm22.25,41.38a6.686,6.686,0,0,0-1,0c-.34.02-.42-.12-.41-.43.02-.65,0-1.29,0-1.94a3.794,3.794,0,0,0-4.1-4.12c-2.12-.01-4.24-.02-6.36.01-.52.01-.71-.08-.69-.67.05-1.51.04-3.03.01-4.55-.04-1.87.26-3.78-.57-5.65h.75c3.08,0,6.15.01,9.23,0a2.449,2.449,0,0,0,2.64-2.59c.01-1.33.02-2.66-.01-3.99a2.4,2.4,0,0,0-2.43-2.46c-.88-.03-1.75-.02-2.62,0-.7.01-1.09.36-1.1.92,0,.58.38.93,1.08.94.79.01,1.58,0,2.37.01.69,0,.84.15.84.84.01,1.17.01,2.33,0,3.49,0,.85-.12.97-.98.97q-5.265,0-10.53.01a1.259,1.259,0,0,1-.9-.33,6.271,6.271,0,0,0-8.02-.27,2.418,2.418,0,0,1-1.86.59c-.1-.01-.21,0-.31,0-.84,0-.99-.15-1-.97v-3.24c0-1,.1-1.1,1.11-1.1,4.97,0,9.94.01,14.9,0,.74,0,1.17-.34,1.18-.91s-.42-.95-1.15-.95c-5.11-.01-10.22-.02-15.33,0a2.438,2.438,0,0,0-2.57,2.6c-.01.98,0,1.96-.01,2.93a3.76,3.76,0,0,0,.64,2.7c-.21-.03-.29-.04-.37-.06a10.865,10.865,0,0,1-1.15-20.43.555.555,0,0,1,.77.21,7.084,7.084,0,0,0,4.25,2.51c.46.09.61.25.58.72a2.56,2.56,0,0,0,1.43,2.68,2.858,2.858,0,0,1,1.48,1.62c.18.4.39.78.59,1.17a2.072,2.072,0,0,0,1.94,1.23q1.71.015,3.42,0a2.11,2.11,0,0,0,1.99-1.27c.33-.66.67-1.33,1.01-2a.785.785,0,0,1,.46-.45,2.9,2.9,0,0,0,2.02-3.02V652.02a2.326,2.326,0,0,0-2.63-2.64c-1.19-.01-1.17-.01-1.15-1.21.01-.37.15-.45.48-.44a13.82,13.82,0,0,0,1.44-.01,1.893,1.893,0,0,0,1.85-1.89c.03-.7.03-1.41,0-2.12a1.859,1.859,0,0,0-1.46-1.78,1.689,1.689,0,0,0-.67-.04q-5.265-.015-10.51,0a.75.75,0,0,0-.21.02,1.739,1.739,0,0,0-1.63,1.69,22.036,22.036,0,0,0,0,2.3,1.983,1.983,0,0,0,2.03,1.95h.87c.78,0,.83.05.83.72-.01.65-.04.69-.8.69-.16,0-.33.01-.49,0a2.228,2.228,0,0,0-1.87.83,2.511,2.511,0,0,0-.59,1.84c.01.97,0,.98-.9,1.21a7.161,7.161,0,0,0-2.86,1.47,2.569,2.569,0,0,1-1.24.54,19.41,19.41,0,0,0-6.92,2.7,1.128,1.128,0,0,0-.64.8,1.044,1.044,0,0,0,.37,1.06,1.13,1.13,0,0,0,1.29.06c.68-.37,1.33-.77,2.04-1.08a12.228,12.228,0,0,1,2.65-.97c.06.08.07.12.06.16a.526.526,0,0,1-.04.18,7.358,7.358,0,0,0-.08,4.66c.13.41-.02.6-.39.77a12.71,12.71,0,0,0-4.68,3.73,12.45,12.45,0,0,0-2.6,9.9,12.665,12.665,0,0,0,4.56,8,12.9,12.9,0,0,0,6.61,2.85c.42.06.55.2.54.63-.03,1.31,0,2.61-.01,3.92,0,.74-.1.81-.79.73a18,18,0,0,1-11.87-6.2,17.68,17.68,0,0,1-4.26-14.53,17.439,17.439,0,0,1,4.13-9.13c.38-.45.82-.84,1.18-1.29a1.078,1.078,0,0,0-.53-1.76c-.52-.18-.87.12-1.21.44a19.576,19.576,0,0,0-4.36,6.39,18.1,18.1,0,0,0-1.45,5.83v.62a.3.3,0,0,1,0,.38v1.37a.974.974,0,0,1,0,.75v1.12c.19.07.12.24.14.37a19.55,19.55,0,0,0,2.72,7.88,19.919,19.919,0,0,0,15.02,9.73c1.44.19,1.41.18,1.45,1.5.01.54-.19.6-.64.6-2.29-.02-4.57-.03-6.86,0a3.743,3.743,0,0,0-3.63,3.23,17.729,17.729,0,0,0-.06,2.06c-.01.37.1.82-.08,1.09s-.66.05-1,.1h-.07a.926.926,0,0,0-.19,1.79,1.852,1.852,0,0,0,.74.07h36.72a4.181,4.181,0,0,0,.5-.01.954.954,0,0,0,.87-.96A.93.93,0,0,0,1190.13,703.8Zm-13.96-30.58c-.13.26-.38.2-.61.2-.91.01-1.82-.02-2.73.01a.749.749,0,0,1-.81-.5c-.61-1.22-.62-1.21.77-1.21h4.13C1176.65,672.27,1176.41,672.74,1176.17,673.22Zm3.31-4.63c-.01.88-.37,1.26-1.25,1.26-1.37.02-2.74.01-4.11.01h-3.93a1.256,1.256,0,0,1-1.32-1.69c.05-.22.2-.24.36-.27a7.2,7.2,0,0,0,3.21-1.41,1,1,0,0,1,.64-.18q2.955.015,5.91,0c.37,0,.52.08.5.48C1179.46,667.39,1179.49,667.99,1179.48,668.59Zm-10.09-22.72c-.39.01-.57-.08-.52-.51.05-.53-.22-1.22.11-1.55s1.02-.1,1.55-.1c2.8-.01,5.6,0,8.4-.02.42,0,.6.09.56.54-.05.51.16,1.19-.1,1.5-.31.37-1.01.12-1.54.13-1.24.02-2.49,0-3.73,0C1172.54,645.86,1170.97,645.85,1169.39,645.87Zm5.2,3.51h-.81c-1.18,0-1.17,0-1.16-1.18.01-.34.08-.49.45-.47.74.02,1.49.01,2.24,0,.33-.01.41.13.42.44C1175.76,649.38,1175.77,649.38,1174.59,649.38Zm-4.34,1.87c2.81,0,5.61-.01,8.42,0,.76,0,.81.05.81.81,0,3.93-.01,7.86.01,11.78.01.49-.12.63-.61.62-1.49-.04-2.98-.01-4.54-.01a16.248,16.248,0,0,0,.78-1.9,7.493,7.493,0,0,0-5.77-9.34c-.4-.09-.49-.22-.48-.6C1168.89,651.15,1168.7,651.25,1170.25,651.25Zm-2.36,3.67a5.615,5.615,0,1,1-5.62,5.62A5.619,5.619,0,0,1,1167.89,654.92Zm-1.27,37.84c.01-1.2-.01-2.41.01-3.61a4.5,4.5,0,0,1,4.37-4.59,4.449,4.449,0,0,1,4.68,4.33c.1,2.68.03,5.36.04,8.04,0,.32-.12.38-.41.38q-4.14-.015-8.29,0c-.34.01-.4-.13-.4-.43C1166.63,695.51,1166.62,694.14,1166.62,692.76Zm19.66,11.04c-3.93-.02-7.86-.01-11.79-.01h-3.37c-5,0-10.01-.01-15.02.01-.5.01-.7-.1-.66-.64.05-.64,0-1.28.01-1.93a1.948,1.948,0,0,1,2.09-2.05h27.24a1.917,1.917,0,0,1,2.07,2.05c.01.67-.03,1.34.01,2C1186.9,703.71,1186.73,703.8,1186.28,703.8Zm-15.13-11.48a2.87,2.87,0,1,0-2.87-2.85A2.905,2.905,0,0,0,1171.15,692.32Zm.11-3.86a.967.967,0,0,1,.88,1.07.985.985,0,0,1-1.05.92,1.043,1.043,0,0,1-.94-1.05A1.017,1.017,0,0,1,1171.26,688.46Zm-3.41-24.17a3.751,3.751,0,1,0-3.71-3.81A3.735,3.735,0,0,0,1167.85,664.29Zm.02-5.63a1.88,1.88,0,1,1-1.86,1.91A1.876,1.876,0,0,1,1167.87,658.66Zm.1-1.87a3.751,3.751,0,1,0,3.67,3.78A3.75,3.75,0,0,0,1167.97,656.79Zm-.09,5.63a1.88,1.88,0,1,1,1.89-1.88A1.876,1.876,0,0,1,1167.88,662.42Zm3.28,24.16a2.87,2.87,0,1,0,2.86,2.84A2.849,2.849,0,0,0,1171.16,686.58Zm-.07,3.87a1.043,1.043,0,0,1-.94-1.05,1.017,1.017,0,0,1,1.11-.94.967.967,0,0,1,.88,1.07A.985.985,0,0,1,1171.09,690.45Zm.07-3.87a2.87,2.87,0,1,0,2.86,2.84A2.849,2.849,0,0,0,1171.16,686.58Zm-.07,3.87a1.043,1.043,0,0,1-.94-1.05,1.017,1.017,0,0,1,1.11-.94.967.967,0,0,1,.88,1.07A.985.985,0,0,1,1171.09,690.45Zm-3.12-33.66a3.751,3.751,0,1,0,3.67,3.78A3.75,3.75,0,0,0,1167.97,656.79Zm-.09,5.63a1.88,1.88,0,1,1,1.89-1.88A1.876,1.876,0,0,1,1167.88,662.42Zm.09-5.63a3.751,3.751,0,1,0,3.67,3.78A3.75,3.75,0,0,0,1167.97,656.79Zm-.09,5.63a1.88,1.88,0,1,1,1.89-1.88A1.876,1.876,0,0,1,1167.88,662.42Zm3.28,24.16a2.87,2.87,0,1,0,2.86,2.84A2.849,2.849,0,0,0,1171.16,686.58Zm-.07,3.87a1.043,1.043,0,0,1-.94-1.05,1.017,1.017,0,0,1,1.11-.94.967.967,0,0,1,.88,1.07A.985.985,0,0,1,1171.09,690.45Zm.07-3.87a2.87,2.87,0,1,0,2.86,2.84A2.849,2.849,0,0,0,1171.16,686.58Zm-.07,3.87a1.043,1.043,0,0,1-.94-1.05,1.017,1.017,0,0,1,1.11-.94.967.967,0,0,1,.88,1.07A.985.985,0,0,1,1171.09,690.45Zm-3.12-33.66a3.751,3.751,0,1,0,3.67,3.78A3.75,3.75,0,0,0,1167.97,656.79Zm-.09,5.63a1.88,1.88,0,1,1,1.89-1.88A1.876,1.876,0,0,1,1167.88,662.42Zm.09-5.63a3.751,3.751,0,1,0,3.67,3.78A3.75,3.75,0,0,0,1167.97,656.79Zm-.09,5.63a1.88,1.88,0,1,1,1.89-1.88A1.876,1.876,0,0,1,1167.88,662.42Zm3.28,24.16a2.87,2.87,0,1,0,2.86,2.84A2.849,2.849,0,0,0,1171.16,686.58Zm-.07,3.87a1.043,1.043,0,0,1-.94-1.05,1.017,1.017,0,0,1,1.11-.94.967.967,0,0,1,.88,1.07A.985.985,0,0,1,1171.09,690.45Zm.07-3.87a2.87,2.87,0,1,0,2.86,2.84A2.849,2.849,0,0,0,1171.16,686.58Zm-.07,3.87a1.043,1.043,0,0,1-.94-1.05,1.017,1.017,0,0,1,1.11-.94.967.967,0,0,1,.88,1.07A.985.985,0,0,1,1171.09,690.45Zm-3.12-33.66a3.751,3.751,0,1,0,3.67,3.78A3.75,3.75,0,0,0,1167.97,656.79Zm-.09,5.63a1.88,1.88,0,1,1,1.89-1.88A1.876,1.876,0,0,1,1167.88,662.42Zm3.28,24.16a2.87,2.87,0,1,0,2.86,2.84A2.849,2.849,0,0,0,1171.16,686.58Zm-.07,3.87a1.043,1.043,0,0,1-.94-1.05,1.017,1.017,0,0,1,1.11-.94.967.967,0,0,1,.88,1.07A.985.985,0,0,1,1171.09,690.45Zm.07-3.87a2.87,2.87,0,1,0,2.86,2.84A2.849,2.849,0,0,0,1171.16,686.58Zm-.07,3.87a1.043,1.043,0,0,1-.94-1.05,1.017,1.017,0,0,1,1.11-.94.967.967,0,0,1,.88,1.07A.985.985,0,0,1,1171.09,690.45Z" fill="#c20c17"/>
    <path id="Path_2387" data-name="Path 2387" d="M1188.578,672.829c3.284-.138,6.462.293,9.585-.22a10.934,10.934,0,0,0,6.2-18.35c-.083-.092-.179-.173-.262-.266a.954.954,0,0,1-.043-1.388.918.918,0,0,1,1.382.088,12.447,12.447,0,0,1,3.332,5.539,12.839,12.839,0,0,1-11.89,16.4c-2.947.1-5.9.044-8.852.029a1.383,1.383,0,0,1-1.329-2.167,2.17,2.17,0,0,0-.348-2.829,12.783,12.783,0,0,1,8.283-20.511,12.591,12.591,0,0,1,6.828.88c.766.327,1.044.8.8,1.367-.23.54-.761.67-1.5.368a10.924,10.924,0,0,0-14.978,7.631,10.608,10.608,0,0,0,3.017,10.279c.749.765.786.874.35,1.842C1188.982,671.917,1188.808,672.312,1188.578,672.829Z" fill="#c20c17"/>
    <path id="Path_2388" data-name="Path 2388" d="M1201.52,657.66a1.167,1.167,0,0,0-.61-.11c-.32.02-.56.02-.72-.38s-.03-.59.22-.85a.966.966,0,0,0,.13-1.47c-.43-.4-.95-.36-1.47.19a.659.659,0,0,1-.85.17c-.51-.18-.35-.53-.37-.85-.05-.62-.37-.97-.9-.99a.943.943,0,0,0-.97.94,2.083,2.083,0,0,0,0,.25c.05.36-.09.53-.44.69a.539.539,0,0,1-.74-.19,1.147,1.147,0,0,0-.89-.47.893.893,0,0,0-.8.54.981.981,0,0,0,.26,1.14c.2.21.55.35.32.8-.17.34-.31.56-.72.48a1.087,1.087,0,0,0-.31.01.934.934,0,0,0-.86.97.881.881,0,0,0,.93.88c.41.02.77-.06.97.5.18.51-.18.61-.37.86a1.044,1.044,0,0,0-.28.54.868.868,0,0,0,.49.98.959.959,0,0,0,1.22-.31c.22-.22.39-.43.79-.23a.651.651,0,0,1,.44.69c-.01.77.37,1.21.96,1.19.56-.01.9-.43.89-1.18a.622.622,0,0,1,.43-.69.6.6,0,0,1,.8.19,1.3,1.3,0,0,0,.38.32.918.918,0,0,0,1.24-1.27c-.74-1.29-.74-1.28.64-1.6a.927.927,0,0,0,.19-1.74Zm-4.54,2.51a1.694,1.694,0,0,1-1.75-1.65,1.729,1.729,0,0,1,1.7-1.72,1.693,1.693,0,0,1,1.67,1.67A1.65,1.65,0,0,1,1196.98,660.17Z" fill="#c20c17"/>
    <path id="Path_2389" data-name="Path 2389" d="M1198.18,668.17c.02-.79-.59-.93-1.32-1.02.5-.52.76-1.04.27-1.58-.54-.59-1.08-.25-1.66.18-.01-.69-.19-1.22-.89-1.27-.82-.06-.97.57-1.09,1.31-.5-.52-1.01-.75-1.54-.28-.61.54-.26,1.1.17,1.66-.67.06-1.24.19-1.28.91-.06.84.61.95,1.28,1.08-.44.5-.73,1-.25,1.53.55.63,1.11.24,1.68-.13.01.69.21,1.19.91,1.27.55.06.86-.32,1.07-1.25.51.37,1.05.72,1.59.14.53-.54.2-1.06-.21-1.58C1197.55,669.04,1198.17,668.94,1198.18,668.17Zm-3.62.74a.774.774,0,0,1-.84-.73.785.785,0,0,1,.77-.81.76.76,0,0,1,.8.77A.736.736,0,0,1,1194.56,668.91Z" fill="#c20c17"/>
    <path id="Path_2390" data-name="Path 2390" d="M1202.151,664.769a3.448,3.448,0,0,1,.5,0,.866.866,0,0,1,.818.866.841.841,0,0,1-.714.951,3.4,3.4,0,0,1-1.236,0,.844.844,0,0,1-.724-1,.866.866,0,0,1,.86-.823,4.875,4.875,0,0,1,.5,0Z" fill="#c20d18"/>
    <path id="Path_2391" data-name="Path 2391" d="M1189.41,661.274a1.083,1.083,0,0,1-1.149-.432.877.877,0,0,1,.167-1.178,1.894,1.894,0,0,1,1.929-.033.872.872,0,0,1,.23,1.166A1.065,1.065,0,0,1,1189.41,661.274Z" fill="#c30d18"/>
    <path id="Path_2392" data-name="Path 2392" d="M1171.16,686.58a2.87,2.87,0,1,0,2.86,2.84A2.849,2.849,0,0,0,1171.16,686.58Zm-.07,3.87a1.043,1.043,0,0,1-.94-1.05,1.017,1.017,0,0,1,1.11-.94.967.967,0,0,1,.88,1.07A.985.985,0,0,1,1171.09,690.45Z" fill="#c20c17"/>
    <path id="Path_2393" data-name="Path 2393" d="M1167.97,656.79a3.751,3.751,0,1,0,3.67,3.78A3.75,3.75,0,0,0,1167.97,656.79Zm-.09,5.63a1.88,1.88,0,1,1,1.89-1.88A1.876,1.876,0,0,1,1167.88,662.42Z" fill="#fefefe"/>
    <path id="Path_2394" data-name="Path 2394" d="M1167.97,656.79a3.751,3.751,0,1,0,3.67,3.78A3.75,3.75,0,0,0,1167.97,656.79Zm-.09,5.63a1.88,1.88,0,1,1,1.89-1.88A1.876,1.876,0,0,1,1167.88,662.42Z" fill="#c20c17"/>
  </g>
</svg>
