<svg xmlns="http://www.w3.org/2000/svg" width="65.887" height="65.845" viewBox="0 0 65.887 65.845">
  <g id="Group_1858" data-name="Group 1858" transform="translate(-1145.033 -649.929)">
    <path id="Path_2395" data-name="Path 2395" d="M1145.438,675.368a.563.563,0,0,1,0,.748Z" fill="#c20c17"/>
    <path id="Path_2396" data-name="Path 2396" d="M1145.438,673.622c.19.124.145.249,0,.374Z" fill="#c20c17"/>
    <path id="Path_2397" data-name="Path 2397" d="M1152.51,705.16a3.18,3.18,0,1,0,3.19,3.19A3.218,3.218,0,0,0,1152.51,705.16Zm0,4.22a1.045,1.045,0,0,1-.02-2.09,1.08,1.08,0,0,1,1.08,1.04A1.052,1.052,0,0,1,1152.51,709.38Zm5.33-9.54c-1.07,0-1.07,0-1.07,1.05,0,1.09,0,1.09.97,1.09,1.14,0,1.14,0,1.14-1.13C1158.88,699.84,1158.88,699.84,1157.84,699.84Zm3.13,3.2a3.17,3.17,0,1,0,3.23,3.15A3.213,3.213,0,0,0,1160.97,703.04Zm.01,4.23a1.051,1.051,0,1,1,1.08-1.04A1.08,1.08,0,0,1,1160.98,707.27Zm6.29,2.02v.01h.01v-.01Zm0,.01a5.185,5.185,0,0,1-1.62.09c-.25.01-.37.04-.39.34-.16,1.79-.1,1.85,1.67,1.8h.2c.14,0,.25-.04.24-.21A8.043,8.043,0,0,0,1167.27,709.3Zm2.11-1.95c-.36-.27-1.07-.05-1.62-.07-.31-.02-.39.09-.4.39a4.646,4.646,0,0,1-.08,1.62,5.06,5.06,0,0,0,2.29-.01c-.02-.12-.05-.24-.06-.37C1169.46,708.38,1169.76,707.63,1169.38,707.35Zm-.92-8.56a3.17,3.17,0,1,0,0,6.34,3.17,3.17,0,0,0,0-6.34Zm.01,4.24a1.1,1.1,0,0,1-1.08-1.05,1.055,1.055,0,1,1,2.11.01A1.125,1.125,0,0,1,1168.47,703.03Zm3.16,6.78c-.01-.34-.13-.41-.45-.43a3.944,3.944,0,0,1-1.6-.1,14.169,14.169,0,0,0-.08,1.84c-.03.36.13.41.44.42C1171.72,711.58,1171.71,711.58,1171.63,709.81Zm0,0c-.01-.34-.13-.41-.45-.43a3.944,3.944,0,0,1-1.6-.1,14.169,14.169,0,0,0-.08,1.84c-.03.36.13.41.44.42C1171.72,711.58,1171.71,711.58,1171.63,709.81Zm-3.17-11.02a3.17,3.17,0,1,0,0,6.34,3.17,3.17,0,0,0,0-6.34Zm.01,4.24a1.1,1.1,0,0,1-1.08-1.05,1.055,1.055,0,1,1,2.11.01A1.125,1.125,0,0,1,1168.47,703.03Zm.91,4.32c-.36-.27-1.07-.05-1.62-.07-.31-.02-.39.09-.4.39a4.646,4.646,0,0,1-.08,1.62,5.06,5.06,0,0,0,2.29-.01c-.02-.12-.05-.24-.06-.37C1169.46,708.38,1169.76,707.63,1169.38,707.35Zm-2.11,1.95a5.185,5.185,0,0,1-1.62.09c-.25.01-.37.04-.39.34-.16,1.79-.1,1.85,1.67,1.8h.2c.14,0,.25-.04.24-.21A8.043,8.043,0,0,0,1167.27,709.3Zm0-.01v.01h.01v-.01Zm-6.3-6.25a3.17,3.17,0,1,0,3.23,3.15A3.213,3.213,0,0,0,1160.97,703.04Zm.01,4.23a1.051,1.051,0,1,1,1.08-1.04A1.08,1.08,0,0,1,1160.98,707.27Zm-3.14-7.43c-1.07,0-1.07,0-1.07,1.05,0,1.09,0,1.09.97,1.09,1.14,0,1.14,0,1.14-1.13C1158.88,699.84,1158.88,699.84,1157.84,699.84Zm-5.33,5.32a3.18,3.18,0,1,0,3.19,3.19A3.218,3.218,0,0,0,1152.51,705.16Zm0,4.22a1.045,1.045,0,0,1-.02-2.09,1.08,1.08,0,0,1,1.08,1.04A1.052,1.052,0,0,1,1152.51,709.38Zm0-4.22a3.18,3.18,0,1,0,3.19,3.19A3.218,3.218,0,0,0,1152.51,705.16Zm0,4.22a1.045,1.045,0,0,1-.02-2.09,1.08,1.08,0,0,1,1.08,1.04A1.052,1.052,0,0,1,1152.51,709.38Zm5.33-9.54c-1.07,0-1.07,0-1.07,1.05,0,1.09,0,1.09.97,1.09,1.14,0,1.14,0,1.14-1.13C1158.88,699.84,1158.88,699.84,1157.84,699.84Zm3.13,3.2a3.17,3.17,0,1,0,3.23,3.15A3.213,3.213,0,0,0,1160.97,703.04Zm.01,4.23a1.051,1.051,0,1,1,1.08-1.04A1.08,1.08,0,0,1,1160.98,707.27Zm6.29,2.02v.01h.01v-.01Zm0,.01a5.185,5.185,0,0,1-1.62.09c-.25.01-.37.04-.39.34-.16,1.79-.1,1.85,1.67,1.8h.2c.14,0,.25-.04.24-.21A8.043,8.043,0,0,0,1167.27,709.3Zm2.11-1.95c-.36-.27-1.07-.05-1.62-.07-.31-.02-.39.09-.4.39a4.646,4.646,0,0,1-.08,1.62,5.06,5.06,0,0,0,2.29-.01c-.02-.12-.05-.24-.06-.37C1169.46,708.38,1169.76,707.63,1169.38,707.35Zm-.92-8.56a3.17,3.17,0,1,0,0,6.34,3.17,3.17,0,0,0,0-6.34Zm.01,4.24a1.1,1.1,0,0,1-1.08-1.05,1.055,1.055,0,1,1,2.11.01A1.125,1.125,0,0,1,1168.47,703.03Zm3.16,6.78c-.01-.34-.13-.41-.45-.43a3.944,3.944,0,0,1-1.6-.1,14.169,14.169,0,0,0-.08,1.84c-.03.36.13.41.44.42C1171.72,711.58,1171.71,711.58,1171.63,709.81Zm0,0c-.01-.34-.13-.41-.45-.43a3.944,3.944,0,0,1-1.6-.1,14.169,14.169,0,0,0-.08,1.84c-.03.36.13.41.44.42C1171.72,711.58,1171.71,711.58,1171.63,709.81Zm-3.17-11.02a3.17,3.17,0,1,0,0,6.34,3.17,3.17,0,0,0,0-6.34Zm.01,4.24a1.1,1.1,0,0,1-1.08-1.05,1.055,1.055,0,1,1,2.11.01A1.125,1.125,0,0,1,1168.47,703.03Zm.91,4.32c-.36-.27-1.07-.05-1.62-.07-.31-.02-.39.09-.4.39a4.646,4.646,0,0,1-.08,1.62,5.06,5.06,0,0,0,2.29-.01c-.02-.12-.05-.24-.06-.37C1169.46,708.38,1169.76,707.63,1169.38,707.35Zm-2.11,1.95a5.185,5.185,0,0,1-1.62.09c-.25.01-.37.04-.39.34-.16,1.79-.1,1.85,1.67,1.8h.2c.14,0,.25-.04.24-.21A8.043,8.043,0,0,0,1167.27,709.3Zm0-.01v.01h.01v-.01Zm-6.3-6.25a3.17,3.17,0,1,0,3.23,3.15A3.213,3.213,0,0,0,1160.97,703.04Zm.01,4.23a1.051,1.051,0,1,1,1.08-1.04A1.08,1.08,0,0,1,1160.98,707.27Zm-3.14-7.43c-1.07,0-1.07,0-1.07,1.05,0,1.09,0,1.09.97,1.09,1.14,0,1.14,0,1.14-1.13C1158.88,699.84,1158.88,699.84,1157.84,699.84Zm-5.33,5.32a3.18,3.18,0,1,0,3.19,3.19A3.218,3.218,0,0,0,1152.51,705.16Zm0,4.22a1.045,1.045,0,0,1-.02-2.09,1.08,1.08,0,0,1,1.08,1.04A1.052,1.052,0,0,1,1152.51,709.38Zm0-4.22a3.18,3.18,0,1,0,3.19,3.19A3.218,3.218,0,0,0,1152.51,705.16Zm0,4.22a1.045,1.045,0,0,1-.02-2.09,1.08,1.08,0,0,1,1.08,1.04A1.052,1.052,0,0,1,1152.51,709.38Zm5.33-9.54c-1.07,0-1.07,0-1.07,1.05,0,1.09,0,1.09.97,1.09,1.14,0,1.14,0,1.14-1.13C1158.88,699.84,1158.88,699.84,1157.84,699.84Zm3.13,3.2a3.17,3.17,0,1,0,3.23,3.15A3.213,3.213,0,0,0,1160.97,703.04Zm.01,4.23a1.051,1.051,0,1,1,1.08-1.04A1.08,1.08,0,0,1,1160.98,707.27Zm6.29,2.02v.01h.01v-.01Zm0,.01a5.185,5.185,0,0,1-1.62.09c-.25.01-.37.04-.39.34-.16,1.79-.1,1.85,1.67,1.8h.2c.14,0,.25-.04.24-.21A8.043,8.043,0,0,0,1167.27,709.3Zm2.11-1.95c-.36-.27-1.07-.05-1.62-.07-.31-.02-.39.09-.4.39a4.646,4.646,0,0,1-.08,1.62,5.06,5.06,0,0,0,2.29-.01c-.02-.12-.05-.24-.06-.37C1169.46,708.38,1169.76,707.63,1169.38,707.35Zm-.92-8.56a3.17,3.17,0,1,0,0,6.34,3.17,3.17,0,0,0,0-6.34Zm.01,4.24a1.1,1.1,0,0,1-1.08-1.05,1.055,1.055,0,1,1,2.11.01A1.125,1.125,0,0,1,1168.47,703.03Zm3.16,6.78c-.01-.34-.13-.41-.45-.43a3.944,3.944,0,0,1-1.6-.1,14.169,14.169,0,0,0-.08,1.84c-.03.36.13.41.44.42C1171.72,711.58,1171.71,711.58,1171.63,709.81Zm0,0c-.01-.34-.13-.41-.45-.43a3.944,3.944,0,0,1-1.6-.1,14.169,14.169,0,0,0-.08,1.84c-.03.36.13.41.44.42C1171.72,711.58,1171.71,711.58,1171.63,709.81Zm-3.17-4.68a3.17,3.17,0,0,0,0-6.34,3.17,3.17,0,1,0,0,6.34Zm-.01-4.22a1.1,1.1,0,0,1,1.05,1.08,1.125,1.125,0,0,1-1.03,1.04,1.1,1.1,0,0,1-1.08-1.05A1.089,1.089,0,0,1,1168.45,700.91Zm1.12,8.37c-.02-.12-.05-.24-.06-.37-.05-.53.25-1.28-.13-1.56-.36-.27-1.07-.05-1.62-.07-.31-.02-.39.09-.4.39a4.646,4.646,0,0,1-.08,1.62A5.06,5.06,0,0,0,1169.57,709.28Zm-3.92.11c-.25.01-.37.04-.39.34-.16,1.79-.1,1.85,1.67,1.8h.2c.14,0,.25-.04.24-.21a8.043,8.043,0,0,0-.1-2.02A5.185,5.185,0,0,1,1165.65,709.39Zm1.63-.1h-.01v.01h.01Zm-6.31-6.25a3.17,3.17,0,1,0,3.23,3.15A3.213,3.213,0,0,0,1160.97,703.04Zm.01,4.23a1.051,1.051,0,1,1,1.08-1.04A1.08,1.08,0,0,1,1160.98,707.27Zm-2.1-6.42c0-1.01,0-1.01-1.04-1.01-1.07,0-1.07,0-1.07,1.05,0,1.09,0,1.09.97,1.09C1158.88,701.98,1158.88,701.98,1158.88,700.85Zm-6.37,4.31a3.18,3.18,0,1,0,3.19,3.19A3.218,3.218,0,0,0,1152.51,705.16Zm0,4.22a1.045,1.045,0,0,1-.02-2.09,1.08,1.08,0,0,1,1.08,1.04A1.052,1.052,0,0,1,1152.51,709.38Zm41.26-5.94a10.265,10.265,0,0,0-5.72-7.74.8.8,0,0,1-.52-.82c.04-2.06.03-4.12.01-6.17-.01-.46.13-.57.57-.57,1.63.01,1.62-.01,1.59-1.64,0-.37-.11-.46-.47-.46q-5.91.015-11.82,0c-.36,0-.5.09-.46.46.05.53-.22,1.2.1,1.55.29.32.97.1,1.48.09.41-.01.54.1.53.53-.02,1.82-.05,3.65.01,5.46.04.9-.07,1.58-1.05,1.86a1.329,1.329,0,0,0-.53.35c-.35.3-.5.15-.69-.19q-3-5.55-6.04-11.09a1.507,1.507,0,0,1-.21-.72c.01-1.4.02-2.79,0-4.18-.01-.38.07-.55.49-.51s.86,0,1.29.01c.25.01.36-.06.38-.35.14-1.75.15-1.74-1.55-1.76h-.07c-.4.07-.57-.07-.54-.51.04-.69.01-1.37.01-2.06,0-1.42-.21-1.66-1.61-1.66-.4,0-.51-.12-.5-.51.03-.84.02-1.67,0-2.51s-.4-1.23-1.21-1.24q-3.06-.015-6.11,0a1.033,1.033,0,0,0-1.16,1.15,19.788,19.788,0,0,0,0,2.31c.06.66-.15.84-.8.8-.98-.05-1.34.36-1.35,1.35-.01.75-.03,1.5.01,2.25.02.48-.08.71-.62.64a8.828,8.828,0,0,0-1.15-.01c-.17,0-.36-.02-.35.25a4.566,4.566,0,0,0,.1,1.75c.16.32.91.07,1.39.1a.286.286,0,0,0,.13,0c.41-.07.5.11.5.5-.03,1.32-.02,2.65,0,3.98a2.159,2.159,0,0,1-.28,1.09q-4.02,7.35-8.02,14.69c-1.23,2.27-2.48,4.53-3.71,6.81a6.676,6.676,0,0,0,.64,7.29,5.963,5.963,0,0,0,3.25,1.76h28.81a7.115,7.115,0,0,1,3.34,0h.51a.171.171,0,0,1,.26,0h1.8a24.594,24.594,0,0,0,2.8-.75A10.555,10.555,0,0,0,1193.77,703.44Zm-10.91-15.29h.45c.58,0,1.16.01,1.73-.01.3-.01.43.09.41.4q-.03.675,0,1.35c.01.29-.06.42-.39.41-1.15-.01-2.31-.01-3.46,0-.31.01-.39-.08-.41-.39C1181.1,688.15,1181.09,688.15,1182.86,688.15Zm-2.97,9.25c1.27-.57,1.31-.6,1.31-2.01,0-.85.01-1.71-.01-2.57-.01-.34.11-.43.44-.43,1.12.02,2.23.03,3.34,0,.44-.01.49.16.48.53-.02.94.03,1.88-.02,2.82a1.438,1.438,0,0,0,1.04,1.56,8.439,8.439,0,0,1,5.04,5.72,3.432,3.432,0,0,0-2.38,1.19c-1.06,1.27-2.07,1.25-3.13.02a3.505,3.505,0,0,0-3.86-1.03,4.072,4.072,0,0,0-1.76,1.26c-.94.95-1.69.96-2.62.01a3.852,3.852,0,0,0-2.65-1.43A8.474,8.474,0,0,1,1179.89,697.4Zm-16.17-26.24h.51c.52,0,1.03.04,1.54-.01.48-.04.56.15.55.58-.01,1.58.01,1.58-1.59,1.58-.73,0-1.46-.02-2.19,0-.34.01-.48-.06-.49-.45C1162.01,671.16,1162,671.16,1163.72,671.16Zm-2.18,4.25h2.64c1.26,0,2.52.01,3.78-.01.4-.01.5.11.51.5.01,1.65.03,1.65-1.6,1.65-2.12,0-4.24-.01-6.36.02-.45,0-.56-.14-.56-.58C1159.96,675.41,1159.94,675.41,1161.54,675.41Zm-5.24,16.53c1.02-1.9,2.04-3.8,3.1-5.68a3.907,3.907,0,0,0,.57-2.19c-.04-1.3,0-2.61-.02-3.92,0-.38.09-.51.5-.5q3.75.015,7.52,0c.4-.01.5.11.5.5-.03,1.48,0,2.96-.02,4.44a2.521,2.521,0,0,0,.33,1.28c1.18,2.15,2.35,4.31,3.59,6.57a3.852,3.852,0,0,0-2.65,1.43,1.5,1.5,0,0,1-2.56-.02,3.817,3.817,0,0,0-3.65-1.38,3.492,3.492,0,0,0-1.93,1.06,4.836,4.836,0,0,1-.96.85,1.318,1.318,0,0,1-1.61-.18c-.81-.75-1.52-1.62-2.75-1.76C1155.91,692.4,1156.23,692.08,1156.3,691.94Zm-5.49,21.7c-1.85,0-3.09-.79-3.46-2.34a4.89,4.89,0,0,1,.33-3.56q3.495-6.42,7-12.83a1.434,1.434,0,0,1,1.76-.19,2.382,2.382,0,0,1,.53.47,3.728,3.728,0,0,0,5.95,0,1.6,1.6,0,0,1,1.38-.66,1.952,1.952,0,0,1,1.37.87,3.669,3.669,0,0,0,3.28,1.23,3.523,3.523,0,0,0,2.38-1.38,2.021,2.021,0,0,1,1.82-.72.583.583,0,0,1,.55.34c.51.96,1.03,1.92,1.57,2.86.18.3.06.45-.11.67a10.59,10.59,0,0,0,1.81,15.24Zm40.86-7.06a8.492,8.492,0,0,1-16.85-.96c-.02-.46.13-.52.5-.4a1.167,1.167,0,0,1,.57.4,3.855,3.855,0,0,0,6.33.04,1.4,1.4,0,0,1,2.19-.02c.22.21.43.42.64.63a3.546,3.546,0,0,0,3.57.87,3.8,3.8,0,0,0,1.78-1.2c.36-.37.78-.96,1.24-.72C1192.03,705.43,1191.75,706.11,1191.67,706.58Zm-20.49,2.8a3.944,3.944,0,0,1-1.6-.1,14.169,14.169,0,0,0-.08,1.84c-.03.36.13.41.44.42,1.78.04,1.77.04,1.69-1.73C1171.62,709.47,1171.5,709.4,1171.18,709.38Zm-2.72-4.25a3.17,3.17,0,0,0,0-6.34,3.17,3.17,0,1,0,0,6.34Zm-.01-4.22a1.1,1.1,0,0,1,1.05,1.08,1.125,1.125,0,0,1-1.03,1.04,1.1,1.1,0,0,1-1.08-1.05A1.089,1.089,0,0,1,1168.45,700.91Zm1.12,8.37c-.02-.12-.05-.24-.06-.37-.05-.53.25-1.28-.13-1.56-.36-.27-1.07-.05-1.62-.07-.31-.02-.39.09-.4.39a4.646,4.646,0,0,1-.08,1.62A5.06,5.06,0,0,0,1169.57,709.28Zm-3.92.11c-.25.01-.37.04-.39.34-.16,1.79-.1,1.85,1.67,1.8h.2c.14,0,.25-.04.24-.21a8.043,8.043,0,0,0-.1-2.02A5.185,5.185,0,0,1,1165.65,709.39Zm1.63-.1h-.01v.01h.01Zm-6.31-6.25a3.17,3.17,0,1,0,3.23,3.15A3.213,3.213,0,0,0,1160.97,703.04Zm.01,4.23a1.051,1.051,0,1,1,1.08-1.04A1.08,1.08,0,0,1,1160.98,707.27Zm-2.1-6.42c0-1.01,0-1.01-1.04-1.01-1.07,0-1.07,0-1.07,1.05,0,1.09,0,1.09.97,1.09C1158.88,701.98,1158.88,701.98,1158.88,700.85Zm-6.37,4.31a3.18,3.18,0,1,0,3.19,3.19A3.218,3.218,0,0,0,1152.51,705.16Zm0,4.22a1.045,1.045,0,0,1-.02-2.09,1.08,1.08,0,0,1,1.08,1.04A1.052,1.052,0,0,1,1152.51,709.38Zm0-4.22a3.18,3.18,0,1,0,3.19,3.19A3.218,3.218,0,0,0,1152.51,705.16Zm0,4.22a1.045,1.045,0,0,1-.02-2.09,1.08,1.08,0,0,1,1.08,1.04A1.052,1.052,0,0,1,1152.51,709.38Zm5.33-9.54c-1.07,0-1.07,0-1.07,1.05,0,1.09,0,1.09.97,1.09,1.14,0,1.14,0,1.14-1.13C1158.88,699.84,1158.88,699.84,1157.84,699.84Zm3.13,3.2a3.17,3.17,0,1,0,3.23,3.15A3.213,3.213,0,0,0,1160.97,703.04Zm.01,4.23a1.051,1.051,0,1,1,1.08-1.04A1.08,1.08,0,0,1,1160.98,707.27Zm6.29,2.02v.01h.01v-.01Zm0,.01a5.185,5.185,0,0,1-1.62.09c-.25.01-.37.04-.39.34-.16,1.79-.1,1.85,1.67,1.8h.2c.14,0,.25-.04.24-.21A8.043,8.043,0,0,0,1167.27,709.3Zm2.11-1.95c-.36-.27-1.07-.05-1.62-.07-.31-.02-.39.09-.4.39a4.646,4.646,0,0,1-.08,1.62,5.06,5.06,0,0,0,2.29-.01c-.02-.12-.05-.24-.06-.37C1169.46,708.38,1169.76,707.63,1169.38,707.35Zm-.92-8.56a3.17,3.17,0,1,0,0,6.34,3.17,3.17,0,0,0,0-6.34Zm.01,4.24a1.1,1.1,0,0,1-1.08-1.05,1.055,1.055,0,1,1,2.11.01A1.125,1.125,0,0,1,1168.47,703.03Zm3.16,6.78c-.01-.34-.13-.41-.45-.43a3.944,3.944,0,0,1-1.6-.1,14.169,14.169,0,0,0-.08,1.84c-.03.36.13.41.44.42C1171.72,711.58,1171.71,711.58,1171.63,709.81Zm0,0c-.01-.34-.13-.41-.45-.43a3.944,3.944,0,0,1-1.6-.1,14.169,14.169,0,0,0-.08,1.84c-.03.36.13.41.44.42C1171.72,711.58,1171.71,711.58,1171.63,709.81Zm-3.17-11.02a3.17,3.17,0,1,0,0,6.34,3.17,3.17,0,0,0,0-6.34Zm.01,4.24a1.1,1.1,0,0,1-1.08-1.05,1.055,1.055,0,1,1,2.11.01A1.125,1.125,0,0,1,1168.47,703.03Zm.91,4.32c-.36-.27-1.07-.05-1.62-.07-.31-.02-.39.09-.4.39a4.646,4.646,0,0,1-.08,1.62,5.06,5.06,0,0,0,2.29-.01c-.02-.12-.05-.24-.06-.37C1169.46,708.38,1169.76,707.63,1169.38,707.35Zm-2.11,1.95a5.185,5.185,0,0,1-1.62.09c-.25.01-.37.04-.39.34-.16,1.79-.1,1.85,1.67,1.8h.2c.14,0,.25-.04.24-.21A8.043,8.043,0,0,0,1167.27,709.3Zm0-.01v.01h.01v-.01Zm-6.3-6.25a3.17,3.17,0,1,0,3.23,3.15A3.213,3.213,0,0,0,1160.97,703.04Zm.01,4.23a1.051,1.051,0,1,1,1.08-1.04A1.08,1.08,0,0,1,1160.98,707.27Zm-3.14-7.43c-1.07,0-1.07,0-1.07,1.05,0,1.09,0,1.09.97,1.09,1.14,0,1.14,0,1.14-1.13C1158.88,699.84,1158.88,699.84,1157.84,699.84Zm-5.33,5.32a3.18,3.18,0,1,0,3.19,3.19A3.218,3.218,0,0,0,1152.51,705.16Zm0,4.22a1.045,1.045,0,0,1-.02-2.09,1.08,1.08,0,0,1,1.08,1.04A1.052,1.052,0,0,1,1152.51,709.38Zm0-4.22a3.18,3.18,0,1,0,3.19,3.19A3.218,3.218,0,0,0,1152.51,705.16Zm0,4.22a1.045,1.045,0,0,1-.02-2.09,1.08,1.08,0,0,1,1.08,1.04A1.052,1.052,0,0,1,1152.51,709.38Zm5.33-9.54c-1.07,0-1.07,0-1.07,1.05,0,1.09,0,1.09.97,1.09,1.14,0,1.14,0,1.14-1.13C1158.88,699.84,1158.88,699.84,1157.84,699.84Zm3.13,3.2a3.17,3.17,0,1,0,3.23,3.15A3.213,3.213,0,0,0,1160.97,703.04Zm.01,4.23a1.051,1.051,0,1,1,1.08-1.04A1.08,1.08,0,0,1,1160.98,707.27Zm6.29,2.02v.01h.01v-.01Zm0,.01a5.185,5.185,0,0,1-1.62.09c-.25.01-.37.04-.39.34-.16,1.79-.1,1.85,1.67,1.8h.2c.14,0,.25-.04.24-.21A8.043,8.043,0,0,0,1167.27,709.3Zm2.11-1.95c-.36-.27-1.07-.05-1.62-.07-.31-.02-.39.09-.4.39a4.646,4.646,0,0,1-.08,1.62,5.06,5.06,0,0,0,2.29-.01c-.02-.12-.05-.24-.06-.37C1169.46,708.38,1169.76,707.63,1169.38,707.35Zm-.92-8.56a3.17,3.17,0,1,0,0,6.34,3.17,3.17,0,0,0,0-6.34Zm.01,4.24a1.1,1.1,0,0,1-1.08-1.05,1.055,1.055,0,1,1,2.11.01A1.125,1.125,0,0,1,1168.47,703.03Zm3.16,6.78c-.01-.34-.13-.41-.45-.43a3.944,3.944,0,0,1-1.6-.1,14.169,14.169,0,0,0-.08,1.84c-.03.36.13.41.44.42C1171.72,711.58,1171.71,711.58,1171.63,709.81Zm0,0c-.01-.34-.13-.41-.45-.43a3.944,3.944,0,0,1-1.6-.1,14.169,14.169,0,0,0-.08,1.84c-.03.36.13.41.44.42C1171.72,711.58,1171.71,711.58,1171.63,709.81Zm-3.17-11.02a3.17,3.17,0,1,0,0,6.34,3.17,3.17,0,0,0,0-6.34Zm.01,4.24a1.1,1.1,0,0,1-1.08-1.05,1.055,1.055,0,1,1,2.11.01A1.125,1.125,0,0,1,1168.47,703.03Zm.91,4.32c-.36-.27-1.07-.05-1.62-.07-.31-.02-.39.09-.4.39a4.646,4.646,0,0,1-.08,1.62,5.06,5.06,0,0,0,2.29-.01c-.02-.12-.05-.24-.06-.37C1169.46,708.38,1169.76,707.63,1169.38,707.35Zm-2.11,1.95a5.185,5.185,0,0,1-1.62.09c-.25.01-.37.04-.39.34-.16,1.79-.1,1.85,1.67,1.8h.2c.14,0,.25-.04.24-.21A8.043,8.043,0,0,0,1167.27,709.3Zm0-.01v.01h.01v-.01Zm-6.3-6.25a3.17,3.17,0,1,0,3.23,3.15A3.213,3.213,0,0,0,1160.97,703.04Zm.01,4.23a1.051,1.051,0,1,1,1.08-1.04A1.08,1.08,0,0,1,1160.98,707.27Zm-3.14-7.43c-1.07,0-1.07,0-1.07,1.05,0,1.09,0,1.09.97,1.09,1.14,0,1.14,0,1.14-1.13C1158.88,699.84,1158.88,699.84,1157.84,699.84Zm-5.33,5.32a3.18,3.18,0,1,0,3.19,3.19A3.218,3.218,0,0,0,1152.51,705.16Zm0,4.22a1.045,1.045,0,0,1-.02-2.09,1.08,1.08,0,0,1,1.08,1.04A1.052,1.052,0,0,1,1152.51,709.38Zm0-4.22a3.18,3.18,0,1,0,3.19,3.19A3.218,3.218,0,0,0,1152.51,705.16Zm0,4.22a1.045,1.045,0,0,1-.02-2.09,1.08,1.08,0,0,1,1.08,1.04A1.052,1.052,0,0,1,1152.51,709.38Zm5.33-9.54c-1.07,0-1.07,0-1.07,1.05,0,1.09,0,1.09.97,1.09,1.14,0,1.14,0,1.14-1.13C1158.88,699.84,1158.88,699.84,1157.84,699.84Zm3.13,3.2a3.17,3.17,0,1,0,3.23,3.15A3.213,3.213,0,0,0,1160.97,703.04Zm.01,4.23a1.051,1.051,0,1,1,1.08-1.04A1.08,1.08,0,0,1,1160.98,707.27Zm6.29,2.02v.01h.01v-.01Zm0,.01a5.185,5.185,0,0,1-1.62.09c-.25.01-.37.04-.39.34-.16,1.79-.1,1.85,1.67,1.8h.2c.14,0,.25-.04.24-.21A8.043,8.043,0,0,0,1167.27,709.3Zm2.11-1.95c-.36-.27-1.07-.05-1.62-.07-.31-.02-.39.09-.4.39a4.646,4.646,0,0,1-.08,1.62,5.06,5.06,0,0,0,2.29-.01c-.02-.12-.05-.24-.06-.37C1169.46,708.38,1169.76,707.63,1169.38,707.35Zm-.92-8.56a3.17,3.17,0,1,0,0,6.34,3.17,3.17,0,0,0,0-6.34Zm.01,4.24a1.1,1.1,0,0,1-1.08-1.05,1.055,1.055,0,1,1,2.11.01A1.125,1.125,0,0,1,1168.47,703.03Zm3.16,6.78c-.01-.34-.13-.41-.45-.43a3.944,3.944,0,0,1-1.6-.1,14.169,14.169,0,0,0-.08,1.84c-.03.36.13.41.44.42C1171.72,711.58,1171.71,711.58,1171.63,709.81Zm0,0c-.01-.34-.13-.41-.45-.43a3.944,3.944,0,0,1-1.6-.1,14.169,14.169,0,0,0-.08,1.84c-.03.36.13.41.44.42C1171.72,711.58,1171.71,711.58,1171.63,709.81Zm-3.17-11.02a3.17,3.17,0,1,0,0,6.34,3.17,3.17,0,0,0,0-6.34Zm.01,4.24a1.1,1.1,0,0,1-1.08-1.05,1.055,1.055,0,1,1,2.11.01A1.125,1.125,0,0,1,1168.47,703.03Zm.91,4.32c-.36-.27-1.07-.05-1.62-.07-.31-.02-.39.09-.4.39a4.646,4.646,0,0,1-.08,1.62,5.06,5.06,0,0,0,2.29-.01c-.02-.12-.05-.24-.06-.37C1169.46,708.38,1169.76,707.63,1169.38,707.35Zm-2.11,1.95a5.185,5.185,0,0,1-1.62.09c-.25.01-.37.04-.39.34-.16,1.79-.1,1.85,1.67,1.8h.2c.14,0,.25-.04.24-.21A8.043,8.043,0,0,0,1167.27,709.3Zm0-.01v.01h.01v-.01Zm-6.3-6.25a3.17,3.17,0,1,0,3.23,3.15A3.213,3.213,0,0,0,1160.97,703.04Zm.01,4.23a1.051,1.051,0,1,1,1.08-1.04A1.08,1.08,0,0,1,1160.98,707.27Zm-3.14-7.43c-1.07,0-1.07,0-1.07,1.05,0,1.09,0,1.09.97,1.09,1.14,0,1.14,0,1.14-1.13C1158.88,699.84,1158.88,699.84,1157.84,699.84Zm-5.33,5.32a3.18,3.18,0,1,0,3.19,3.19A3.218,3.218,0,0,0,1152.51,705.16Zm0,4.22a1.045,1.045,0,0,1-.02-2.09,1.08,1.08,0,0,1,1.08,1.04A1.052,1.052,0,0,1,1152.51,709.38Z" fill="#c20c17"/>
    <path id="Path_2398" data-name="Path 2398" d="M1209.4,664.8c-1.69.03-3.38.01-5.08.01-3.02,0-6.04-.01-9.06,0-.9,0-1.3.34-1.31,1.13q-.03,2.055,0,4.11a1.037,1.037,0,0,0,1.08,1.11,3.739,3.739,0,0,0,.58,0c.33-.04.46.07.44.42-.03.45-.01.9-.01,1.35q0,18.03.01,36.06a6.369,6.369,0,0,0,3.71,6.16,15.547,15.547,0,0,0,1.65.62h1.93a6.655,6.655,0,0,0,1.85-.44,6.315,6.315,0,0,0,3.75-5.95V672.82c0-.26.01-.51,0-.77-.02-.48.19-.71.68-.7a1.131,1.131,0,0,0,1.3-.97v-4.89A1.555,1.555,0,0,0,1209.4,664.8Zm-2.73,44.37a4.234,4.234,0,0,1-6.42,3.86,4.129,4.129,0,0,1-2.06-3.82V698.09c0-3.79.01-7.58-.02-11.38-.01-.59.17-.68.71-.67,2.4.03,4.8.02,7.19,0,.44,0,.62.04.62.57C1206.67,694.13,1206.69,701.65,1206.67,709.17Zm.02-25.75c0,.39-.1.49-.5.49q-3.75-.03-7.52,0c-.39,0-.5-.09-.49-.49.01-3.92.01-7.85,0-11.77,0-.39.08-.5.49-.5q3.765.03,7.52,0c.4,0,.5.11.5.5-.02,1.97-.01,3.94-.01,5.92C1206.68,679.52,1206.67,681.47,1206.69,683.42Zm.6-14.36c-3.51,0-7.02-.02-10.54.01-.61.01-.73-.18-.72-.75.04-1.41.01-1.41,1.39-1.41h5.01c1.93,0,3.86.02,5.78-.01.5-.01.6.14.6.61C1208.79,669.06,1208.8,669.06,1207.29,669.06Zm-3.77,26.53c-1.09,0-1.09,0-1.09,1.09v.07c0,.98,0,.98,1.02.98,1.09,0,1.09,0,1.09-1.1C1204.54,695.59,1204.54,695.59,1203.52,695.59Zm-.02,8.49c-1.07,0-1.07,0-1.07,1.06,0,1.09,0,1.09.97,1.09,1.14,0,1.14,0,1.14-1.13C1204.54,704.08,1204.54,704.08,1203.5,704.08Zm-2.15-10.6c1.08,0,1.08,0,1.08-1.06,0-1.08,0-1.08-1.11-1.08-1.03,0-1.03,0-1.03,1.05C1200.29,693.48,1200.29,693.48,1201.35,693.48Zm-.04,8.5c1.12,0,1.12,0,1.12-1.08,0-1.06,0-1.06-1.01-1.06-1.13,0-1.13,0-1.13,1.14C1200.29,701.98,1200.29,701.98,1201.31,701.98Zm.05,6.35c-1.07,0-1.07,0-1.07,1.06,0,1.09,0,1.09,1.06,1.09,1.08,0,1.08,0,1.08-1.1C1202.43,708.33,1202.43,708.33,1201.36,708.33Z" fill="#c20c17"/>
    <path id="Path_2399" data-name="Path 2399" d="M1182.375,715.774c.086-.192.171-.159.257,0Z" fill="#c20c17"/>
    <path id="Path_2400" data-name="Path 2400" d="M1187.6,649.93q8.872,0,17.744,0a3.192,3.192,0,0,1,3.329,2.364,4.664,4.664,0,0,1,.119,1.144c.009,2.893-.006,5.786.016,8.679,0,.452-.115.566-.562.562-1.566-.016-1.566,0-1.566-1.534q0-3.827,0-7.651c0-1.08-.342-1.433-1.416-1.433q-17.712,0-35.423,0c-1.043,0-1.376.344-1.379,1.389-.005,1.479.01,2.958-.009,4.436-.006.389.055.55.507.546q4.789-.033,9.579,0c.419,0,.526-.106.527-.525.01-2.524,1.238-3.73,3.755-3.73q5.882,0,11.765,0a3.267,3.267,0,0,1,3.6,3.63c0,1.458-.015,2.915.01,4.372.007.393-.089.5-.491.5-1.66.006-1.66.022-1.66-1.648,0-1.115.005-2.229,0-3.343-.006-1.035-.345-1.374-1.392-1.376q-6.01-.006-12.022,0a1.376,1.376,0,0,0-1.434,1.924c.075.268.254.18.4.181.836.009,1.671,0,2.507.005a3.182,3.182,0,0,1,3.442,3.384c.013,7.2,0,14.4.014,21.6,0,.381-.075.506-.486.507-1.625.006-1.625.023-1.625-1.609q0-10.06,0-20.122c0-1.328-.293-1.622-1.617-1.623-.708,0-1.417.03-2.121-.01-.445-.026-.518.143-.516.541.015,3.086.008,6.172.008,9.258,0,4.307-.008,8.615.01,12.922,0,.482-.088.657-.618.646-1.539-.033-1.539-.007-1.539-1.516q0-10.608.01-21.215c0-.483-.093-.644-.617-.639q-4.692.04-9.386,0c-.531-.005-.62.169-.613.645.027,1.735-.005,3.472.021,5.207.007.435-.127.571-.541.52-.524-.063-1.224.234-1.529-.124-.257-.3-.083-.979-.085-1.49,0-1.393-.018-2.786.009-4.178.008-.429-.069-.6-.547-.578-.79.044-1.585,0-2.378.014-.946.012-1.324.385-1.329,1.327-.009,1.521-.013,3.043.005,4.564,0,.35-.071.5-.451.468-.529-.042-1.222.162-1.551-.1-.348-.281-.1-1-.105-1.527-.019-1.135-.014-2.271,0-3.407a3.208,3.208,0,0,1,3.5-3.462c.792,0,1.587-.027,2.378.01.417.02.489-.124.484-.5-.022-1.478-.012-2.957-.009-4.436a3.25,3.25,0,0,1,3.543-3.561Q1178.726,649.926,1187.6,649.93Z" fill="#c20c17"/>
    <path id="Path_2401" data-name="Path 2401" d="M1150.44,649.93a5.31,5.31,0,1,0,5.26,5.31A5.354,5.354,0,0,0,1150.44,649.93Zm-.02,8.49a3.175,3.175,0,1,1,3.15-3.22A3.184,3.184,0,0,1,1150.42,658.42Z" fill="#c20c17"/>
    <path id="Path_2402" data-name="Path 2402" d="M1149.31,671.17a4.306,4.306,0,0,0-3.83,2.48.355.355,0,0,1-.04.09,4.353,4.353,0,0,0-.35,1.65,4.24,4.24,0,1,0,4.22-4.22Zm-.06,6.37a2.127,2.127,0,0,1-2.03-2.2,2.111,2.111,0,0,1,4.22.15A2.127,2.127,0,0,1,1149.25,677.54Z" fill="#c20c17"/>
    <path id="Path_2403" data-name="Path 2403" d="M1154.63,662.67a3.19,3.19,0,1,0,3.18,3.13A3.2,3.2,0,0,0,1154.63,662.67Zm0,4.24a1.087,1.087,0,0,1-1.05-1.07,1.062,1.062,0,0,1,1.1-1.02,1.044,1.044,0,0,1,1.01,1.03A1.067,1.067,0,0,1,1154.63,666.91Z" fill="#c20c17"/>
    <path id="Path_2404" data-name="Path 2404" d="M1152.51,705.16a3.18,3.18,0,1,0,3.19,3.19A3.218,3.218,0,0,0,1152.51,705.16Zm0,4.22a1.045,1.045,0,0,1-.02-2.09,1.08,1.08,0,0,1,1.08,1.04A1.052,1.052,0,0,1,1152.51,709.38Z" fill="#c20c17"/>
    <path id="Path_2405" data-name="Path 2405" d="M1157.74,701.98c-.97,0-.97,0-.97-1.09,0-1.05,0-1.05,1.07-1.05,1.04,0,1.04,0,1.04,1.01C1158.88,701.98,1158.88,701.98,1157.74,701.98Z" fill="#c20c17"/>
    <path id="Path_2406" data-name="Path 2406" d="M1160.97,703.04a3.17,3.17,0,1,0,3.23,3.15A3.213,3.213,0,0,0,1160.97,703.04Zm.01,4.23a1.051,1.051,0,1,1,1.08-1.04A1.08,1.08,0,0,1,1160.98,707.27Z" fill="#c20c17"/>
    <rect id="Rectangle_43" data-name="Rectangle 43" width="0.01" height="0.01" transform="translate(1167.27 709.29)" fill="#c20c17"/>
    <path id="Path_2407" data-name="Path 2407" d="M1167.27,709.3a8.043,8.043,0,0,1,.1,2.02c.01.17-.1.21-.24.21h-.2c-1.77.05-1.83-.01-1.67-1.8.02-.3.14-.33.39-.34A5.185,5.185,0,0,0,1167.27,709.3Z" fill="#c20c17"/>
    <path id="Path_2408" data-name="Path 2408" d="M1167.28,709.29a4.646,4.646,0,0,0,.08-1.62c.01-.3.09-.41.4-.39.55.02,1.26-.2,1.62.07.38.28.08,1.03.13,1.56.01.13.04.25.06.37A5.06,5.06,0,0,1,1167.28,709.29Z" fill="#c20c17"/>
    <path id="Path_2409" data-name="Path 2409" d="M1168.46,698.79a3.17,3.17,0,1,0,0,6.34,3.17,3.17,0,0,0,0-6.34Zm.01,4.24a1.1,1.1,0,0,1-1.08-1.05,1.055,1.055,0,1,1,2.11.01A1.125,1.125,0,0,1,1168.47,703.03Z" fill="#c20c17"/>
    <path id="Path_2410" data-name="Path 2410" d="M1169.94,711.54c-.31-.01-.47-.06-.44-.42a14.169,14.169,0,0,1,.08-1.84,3.944,3.944,0,0,0,1.6.1c.32.02.44.09.45.43C1171.71,711.58,1171.72,711.58,1169.94,711.54Z" fill="#c20c17"/>
    <path id="Path_2411" data-name="Path 2411" d="M1202.43,709.38c0,1.1,0,1.1-1.08,1.1-1.06,0-1.06,0-1.06-1.09,0-1.06,0-1.06,1.07-1.06S1202.43,708.33,1202.43,709.38Z" fill="#c20c17"/>
    <path id="Path_2412" data-name="Path 2412" d="M1200.29,700.98c0-1.14,0-1.14,1.13-1.14,1.01,0,1.01,0,1.01,1.06,0,1.08,0,1.08-1.12,1.08C1200.29,701.98,1200.29,701.98,1200.29,700.98Z" fill="#c20c17"/>
    <path id="Path_2413" data-name="Path 2413" d="M1200.29,692.39c0-1.05,0-1.05,1.03-1.05,1.11,0,1.11,0,1.11,1.08,0,1.06,0,1.06-1.08,1.06C1200.29,693.48,1200.29,693.48,1200.29,692.39Z" fill="#c20c17"/>
    <path id="Path_2414" data-name="Path 2414" d="M1204.54,705.1c0,1.13,0,1.13-1.14,1.13-.97,0-.97,0-.97-1.09,0-1.06,0-1.06,1.07-1.06C1204.54,704.08,1204.54,704.08,1204.54,705.1Z" fill="#c20c17"/>
    <path id="Path_2415" data-name="Path 2415" d="M1202.43,696.68c0-1.09,0-1.09,1.09-1.09,1.02,0,1.02,0,1.02,1.04,0,1.1,0,1.1-1.09,1.1-1.02,0-1.02,0-1.02-.98Z" fill="#c20c17"/>
    <path id="Path_2416" data-name="Path 2416" d="M1160.97,703.04a3.17,3.17,0,1,0,3.23,3.15A3.213,3.213,0,0,0,1160.97,703.04Zm.01,4.23a1.051,1.051,0,1,1,1.08-1.04A1.08,1.08,0,0,1,1160.98,707.27Z" fill="#c20c17"/>
    <path id="Path_2417" data-name="Path 2417" d="M1152.51,705.16a3.18,3.18,0,1,0,3.19,3.19A3.218,3.218,0,0,0,1152.51,705.16Zm0,4.22a1.045,1.045,0,0,1-.02-2.09,1.08,1.08,0,0,1,1.08,1.04A1.052,1.052,0,0,1,1152.51,709.38Z" fill="#c20c17"/>
    <path id="Path_2418" data-name="Path 2418" d="M1168.46,698.79a3.17,3.17,0,1,0,0,6.34,3.17,3.17,0,0,0,0-6.34Zm.01,4.24a1.1,1.1,0,0,1-1.08-1.05,1.055,1.055,0,1,1,2.11.01A1.125,1.125,0,0,1,1168.47,703.03Z" fill="#c20c17"/>
    <path id="Path_2419" data-name="Path 2419" d="M1158.88,700.85c0,1.13,0,1.13-1.14,1.13-.97,0-.97,0-.97-1.09,0-1.05,0-1.05,1.07-1.05C1158.88,699.84,1158.88,699.84,1158.88,700.85Z" fill="#c20c17"/>
    <rect id="Rectangle_44" data-name="Rectangle 44" width="0.01" height="0.01" transform="translate(1167.27 709.29)" fill="#c20c17"/>
    <path id="Path_2420" data-name="Path 2420" d="M1169.51,708.91c.01.13.04.25.06.37a5.06,5.06,0,0,1-2.29.01,4.646,4.646,0,0,0,.08-1.62c.01-.3.09-.41.4-.39.55.02,1.26-.2,1.62.07C1169.76,707.63,1169.46,708.38,1169.51,708.91Z" fill="#c20c17"/>
    <path id="Path_2421" data-name="Path 2421" d="M1167.37,711.32c.01.17-.1.21-.24.21h-.2c-1.77.05-1.83-.01-1.67-1.8.02-.3.14-.33.39-.34a5.185,5.185,0,0,0,1.62-.09A8.043,8.043,0,0,1,1167.37,711.32Z" fill="#c20c17"/>
    <path id="Path_2422" data-name="Path 2422" d="M1169.94,711.54c-.31-.01-.47-.06-.44-.42a14.169,14.169,0,0,1,.08-1.84,3.944,3.944,0,0,0,1.6.1c.32.02.44.09.45.43C1171.71,711.58,1171.72,711.58,1169.94,711.54Z" fill="#c20c17"/>
    <path id="Path_2423" data-name="Path 2423" d="M1202.43,700.9c0,1.08,0,1.08-1.12,1.08-1.02,0-1.02,0-1.02-1,0-1.14,0-1.14,1.13-1.14C1202.43,699.84,1202.43,699.84,1202.43,700.9Z" fill="#c20c17"/>
    <path id="Path_2424" data-name="Path 2424" d="M1202.43,692.42c0,1.06,0,1.06-1.08,1.06-1.06,0-1.06,0-1.06-1.09,0-1.05,0-1.05,1.03-1.05C1202.43,691.34,1202.43,691.34,1202.43,692.42Z" fill="#c20c17"/>
    <path id="Path_2425" data-name="Path 2425" d="M1202.43,709.38c0,1.1,0,1.1-1.08,1.1-1.06,0-1.06,0-1.06-1.09,0-1.06,0-1.06,1.07-1.06S1202.43,708.33,1202.43,709.38Z" fill="#c20c17"/>
    <path id="Path_2426" data-name="Path 2426" d="M1204.54,696.63c0,1.1,0,1.1-1.09,1.1-1.02,0-1.02,0-1.02-.98v-.07c0-1.09,0-1.09,1.09-1.09C1204.54,695.59,1204.54,695.59,1204.54,696.63Z" fill="#c20c17"/>
    <path id="Path_2427" data-name="Path 2427" d="M1204.54,705.1c0,1.13,0,1.13-1.14,1.13-.97,0-.97,0-.97-1.09,0-1.06,0-1.06,1.07-1.06C1204.54,704.08,1204.54,704.08,1204.54,705.1Z" fill="#c20c17"/>
  </g>
</svg>
