<svg xmlns="http://www.w3.org/2000/svg" width="71.863" height="71.837" viewBox="0 0 71.863 71.837">
  <g id="Group_1854" data-name="Group 1854" transform="translate(-1234.107 -479.433)">
    <path id="Path_2367" data-name="Path 2367" d="M1305.97,538.36c-.15-.04-.13-.17-.14-.28a43.675,43.675,0,0,0-.87-5.46,51.809,51.809,0,0,0-1.37-5.21,1.384,1.384,0,0,0-2.68.69,7.038,7.038,0,0,0,.24.87,42.886,42.886,0,0,1,1.99,12.62,11.005,11.005,0,0,1-.96,4.62,3.738,3.738,0,0,1-2.96,2.21,5.606,5.606,0,0,1-2.98-.64,64.547,64.547,0,0,1-10.72-6.18,8.9,8.9,0,0,0-3.82-1.69,6.132,6.132,0,0,1-5.19-6.28c-.01-5.87.01-11.74.02-17.61v-.41c.32.04.43.27.58.43,1.53,1.51,3.04,3.05,4.58,4.55a1.385,1.385,0,0,1,.44,1.1c-.02,3.67-.01,7.34-.01,11.01,0,1.06.56,1.73,1.42,1.72.84-.02,1.38-.67,1.38-1.69.01-2.69,0-5.38,0-8.06V524c.07-.05.15-.1.22-.15a3.713,3.713,0,0,0,.37.57q2.625,2.64,5.26,5.26a1.445,1.445,0,0,0,2.16.17,1.428,1.428,0,0,0-.2-2.16c-1.56-1.57-3.14-3.14-4.71-4.71-.35-.36-.72-.7-1.21-1.18h5a1.436,1.436,0,0,0,1.52-1.41,1.39,1.39,0,0,0-1.51-1.39q-3.615-.015-7.23,0a1.075,1.075,0,0,1-.87-.31q-3.255-3.3-6.54-6.55a.861.861,0,0,1-.28-.8,29.035,29.035,0,0,1,1.21-5.53,10.747,10.747,0,0,1,1.88-3.65,3.291,3.291,0,0,1,4.03-1.02,8.59,8.59,0,0,1,2.45,1.47,25.818,25.818,0,0,1,4.62,5.06,61.414,61.414,0,0,1,5.23,8.85,1.4,1.4,0,1,0,2.52-1.19,53.286,53.286,0,0,0-8.11-12.55,16.04,16.04,0,0,0-5.15-4.03,6.052,6.052,0,0,0-6.15.23c-.32.21-.47.1-.68-.12q-1.275-1.3-2.58-2.58a6.217,6.217,0,0,1-1.91-4.66c.02-3.5.01-7.01,0-10.52,0-1.15-.51-1.66-1.67-1.66-1.64-.01-3.28-.01-4.91,0-1.35,0-1.83.47-1.83,1.8v10.67a5.652,5.652,0,0,1-1.7,4.16c-.9.91-1.83,1.81-2.71,2.74-.29.3-.49.36-.86.11a5.328,5.328,0,0,0-3.54-.86,9.133,9.133,0,0,0-4.76,2.04,28.433,28.433,0,0,0-6.64,7.53,74.062,74.062,0,0,0-11.16,28.76,22.517,22.517,0,0,0,.08,8.58c.71,3.14,2.29,5.5,5.68,6.19.03.01.05.07.08.11h1.12c.24-.15.51-.04.76-.08a9.369,9.369,0,0,0,4.12-1.24,79.7,79.7,0,0,0,10.88-6.49,2.54,2.54,0,0,1,1.09-.44,9.41,9.41,0,0,0,8.31-9.4c0-5.57-.02-11.13.01-16.69a42.949,42.949,0,0,0-1-9.18,1.292,1.292,0,0,1,.37-1.32c1.17-1.15,2.32-2.31,3.48-3.47.55-.55.63-.55,1.19,0,1.09,1.09,2.16,2.21,3.28,3.26a1.641,1.641,0,0,1,.52,1.74,35.826,35.826,0,0,0-.92,7.85c-.06,5.96-.02,11.92-.02,17.88a9.421,9.421,0,0,0,8.18,9.32,2.785,2.785,0,0,1,1.28.49,84.488,84.488,0,0,0,7.71,4.85c2.28,1.22,4.51,2.58,7.15,2.92h.28a2.25,2.25,0,0,1,1.26,0h.28a9.616,9.616,0,0,0,1.75-.39,7.014,7.014,0,0,0,3.65-3.77,13.135,13.135,0,0,0,.92-3.84v-.7a.179.179,0,0,1,0-.28v-1.97a1.379,1.379,0,0,1,0-.98Zm-42.37-22.31c.01,5.85.02,11.69,0,17.54a6.339,6.339,0,0,1-6.12,6.47,2.817,2.817,0,0,0-1.53.6,80.755,80.755,0,0,1-10.95,6.63,16.881,16.881,0,0,1-2.47.97,3.74,3.74,0,0,1-4.48-1.82,10.028,10.028,0,0,1-1.09-4.8,35.955,35.955,0,0,1,1.25-9.84,72.8,72.8,0,0,1,10.56-23.8,22.223,22.223,0,0,1,5.7-6.02c2.88-1.96,5.03-1.41,6.62,1.7a24.453,24.453,0,0,1,2.16,7.86.58.58,0,0,1-.25.54c-2.22,2.21-4.44,4.41-6.65,6.64a.984.984,0,0,1-.82.27c-2.41,0-4.81,0-7.22.01a1.418,1.418,0,0,0-1.53,1.39,1.457,1.457,0,0,0,1.53,1.41h4.83c-1.96,1.98-3.84,3.89-5.73,5.8a1.558,1.558,0,0,0-.6,1.42,1.371,1.371,0,0,0,.95,1.11,1.349,1.349,0,0,0,1.47-.39c1.14-1.11,2.26-2.23,3.38-3.36.82-.82,1.62-1.66,2.58-2.64v8.97c0,1.05.58,1.72,1.43,1.71s1.37-.67,1.37-1.69c.01-3.69.01-7.39-.01-11.08a1.4,1.4,0,0,1,.47-1.1c1.67-1.66,3.32-3.35,4.97-5.02C1263.71,515.68,1263.6,515.89,1263.6,516.05Zm12.44-12.64c-.16.39-.29.39-.57.11-1.04-1.07-2.1-2.13-3.16-3.18a2.847,2.847,0,0,0-4.47-.01c-1.06,1.06-2.12,2.11-3.17,3.18-.26.26-.4.41-.6-.08a15.233,15.233,0,0,0-.92-1.8c-.19-.31-.13-.47.11-.7.97-.95,1.92-1.92,2.87-2.88a8.4,8.4,0,0,0,2.52-6.11c.01-2.99.02-5.98-.01-8.97,0-.55.08-.82.71-.74.68.09,1.61-.28,2,.15.34.38.11,1.29.11,1.96.01,1.1,0,2.2,0,3.63.08,1.51-.13,3.36.12,5.2a8.33,8.33,0,0,0,2.31,4.77c.95.99,1.92,1.97,2.92,2.92a.573.573,0,0,1,.09.87A13.279,13.279,0,0,0,1276.04,503.41Z" fill="#c20c17"/>
    <path id="Path_2368" data-name="Path 2368" d="M1298.111,551.267a1.259,1.259,0,0,1,1.263,0Z" fill="#c92630"/>
    <path id="Path_2369" data-name="Path 2369" d="M1305.967,540.323a.808.808,0,0,1,0-.982Z" fill="#ce3a43"/>
    <path id="Path_2370" data-name="Path 2370" d="M1242.181,551.151a.346.346,0,0,1-.042.116h-.7C1241.657,551.047,1241.923,551.121,1242.181,551.151Z" fill="#cd3841"/>
    <path id="Path_2371" data-name="Path 2371" d="M1305.967,542.568c-.177-.094-.15-.187,0-.281Z" fill="#d9696f"/>
    <path id="Path_2372" data-name="Path 2372" d="M1301.609,521.807a1.4,1.4,0,1,1-2.8-.027,1.4,1.4,0,0,1,1.443-1.381A1.414,1.414,0,0,1,1301.609,521.807Z" fill="#c20d18"/>
  </g>
</svg>
