<svg xmlns="http://www.w3.org/2000/svg" width="71.838" height="61.902" viewBox="0 0 71.838 61.902">
  <path id="Path_2376" data-name="Path 2376" d="M1208.05,709.119a1.746,1.746,0,0,1-1.849,1.072q-34.055-.015-68.107-.009c-1.43,0-1.876-.456-1.876-1.9q0-3.261,0-6.522c0-1.231.51-1.73,1.759-1.738.631-.005,1.264-.028,1.893.008.445.025.546-.142.541-.56-.022-1.707-.009-3.414-.009-5.12q0-14.414.016-28.826c0-.634-.165-.8-.772-.754a16.915,16.915,0,0,1-1.963.007,1.385,1.385,0,0,1-1.459-1.456q-.024-3.612,0-7.224a1.366,1.366,0,0,1,1.53-1.444c1.917-.016,3.835-.031,5.751.01.606.013.734-.181.716-.746-.042-1.332-.019-2.665-.012-4,.006-1.077.505-1.622,1.572-1.625q6.8-.021,13.607,0a1.423,1.423,0,0,1,1.6,1.609c.02,1.355.035,2.713-.009,4.067-.018.575.177.7.713.689,1.285-.036,2.572-.019,3.858-.009,1.017.008,1.662.57,1.648,1.41s-.665,1.391-1.682,1.391q-12.836.006-25.672-.014c-.665,0-.88.136-.837.827.066,1.071.036,2.15.008,3.225-.011.408.128.545.513.491a2.422,2.422,0,0,1,.351,0q32.265,0,64.53.019c.728,0,.893-.194.852-.877a25.258,25.258,0,0,1,0-3.014c.035-.6-.214-.662-.714-.661q-11.433.02-22.866.009c-.982,0-1.964.007-2.946,0-1.01-.009-1.664-.571-1.665-1.409s.639-1.385,1.666-1.392c1.309-.009,2.619-.024,3.928.009.5.013.633-.154.622-.635-.029-1.332-.018-2.665-.008-4,.01-1.237.51-1.735,1.758-1.736q6.628-.009,13.257,0c1.293,0,1.765.486,1.767,1.786,0,1.333.022,2.666-.01,4-.012.469.134.589.589.583,1.87-.023,3.741.018,5.611-.022a1.72,1.72,0,0,1,1.8,1.029v8.137a1.462,1.462,0,0,1-1.641,1.2c-.49.021-.981,0-1.472.01-.8.016-.855.077-.872.9,0,.14,0,.28,0,.42v32.16c0,1.287,0,1.286,1.325,1.288.351,0,.7-.007,1.051.014a1.564,1.564,0,0,1,1.611,1.191Zm-37.3-53.055a1.446,1.446,0,0,0,1.385,1.391,1.417,1.417,0,0,0,1.407-1.354,1.362,1.362,0,0,0-1.37-1.438A1.389,1.389,0,0,0,1170.754,656.064Zm29.5,43.98c.7,0,.821-.192.82-.846q-.033-16.83,0-33.659c0-.6-.117-.768-.75-.767q-28.189.03-56.381,0c-.636,0-.749.175-.748.77q.029,16.863,0,33.728c0,.594.11.775.75.774q14.094-.038,28.19-.017Q1186.2,700.026,1200.255,700.044Zm-8.195,7.333c4.16,0,8.321-.014,12.481.016.6,0,.743-.172.716-.741a25.7,25.7,0,0,1,.005-3.014c.048-.7-.193-.822-.848-.822q-32.292.029-64.583.016a2.4,2.4,0,0,1-.35,0c-.384-.054-.47.128-.464.48.018,1.1.052,2.2-.011,3.295-.038.669.2.787.812.786q16.164-.027,32.327-.013Zm-44.478-56.289c-.466-.008-.6.133-.579.591.036.817.026,1.637,0,2.454-.011.378.077.531.5.529q5.085-.024,10.169,0c.4,0,.534-.12.522-.517-.023-.794-.037-1.591,0-2.384.028-.517-.117-.686-.656-.675-1.659.036-3.32.013-4.979.013S1149.242,651.115,1147.582,651.088Zm39.144,0c-.452-.006-.686.066-.657.6.045.816.028,1.636.005,2.454-.012.4.123.518.522.517q5.084-.021,10.169,0c.42,0,.507-.151.5-.529-.023-.818-.033-1.637,0-2.454.021-.458-.113-.6-.579-.591-1.66.027-3.32.01-4.98.01S1188.386,651.111,1186.726,651.09Zm2.111,32.727c.441.028,1.012-.138,1.294.081.346.269.09.873.126,1.33a1.421,1.421,0,0,0,1.463,1.458,1.373,1.373,0,0,0,1.344-1.483c.047-1.308.047-1.308,1.391-1.383a1.448,1.448,0,0,0,1.514-1.419,1.423,1.423,0,0,0-1.534-1.384c-1.321-.054-1.321-.054-1.371-1.407a1.4,1.4,0,0,0-1.35-1.487,1.428,1.428,0,0,0-1.448,1.407c-.035.464.136,1.07-.1,1.359-.284.351-.921.085-1.4.132a1.4,1.4,0,1,0,.071,2.8Zm-38.962-2.8a1.406,1.406,0,1,0-.036,2.795q2.769.03,5.538,0a1.4,1.4,0,1,0-.034-2.793c-.911-.018-1.823,0-2.734,0S1150.786,681,1149.875,681.02Zm30.035-2.35c-1.5-.01-2.99-.02-4.49.01-.5.01-.68-.09-.67-.64.04-1.44.02-2.89.02-4.34s0-2.9-.01-4.35a1.432,1.432,0,0,0-2.75-.73q-4.47,7.605-8.93,15.22c-.73,1.25-.12,2.29,1.34,2.3s2.9.03,4.35-.01c.57-.01.75.13.74.72-.03,2.88-.01,5.75-.01,8.63a1.464,1.464,0,0,0,1.03,1.57,1.415,1.415,0,0,0,1.69-.8q4.515-7.65,9-15.33A1.406,1.406,0,0,0,1179.91,678.67Zm-7.47,11.66a.584.584,0,0,1-.13-.02v-2.95c0-.82.01-1.63-.01-2.45a1.392,1.392,0,0,0-1.55-1.56c-1.33-.02-2.66-.01-4.13-.01,1.78-3.02,3.48-5.92,5.19-8.82l.15.03v3.24c0,.72-.01,1.45,0,2.17a1.392,1.392,0,0,0,1.54,1.51c1.34.02,2.69.01,4.15.01C1175.88,684.49,1174.16,687.41,1172.44,690.33Z" transform="translate(-1136.212 -648.289)" fill="#c20c17"/>
</svg>
