<svg xmlns="http://www.w3.org/2000/svg" width="78.55" height="71.317" viewBox="0 0 78.55 71.317">
  <g id="Group_1859" data-name="Group 1859" transform="translate(-1235.867 -648.51)">
    <path id="Path_2428" data-name="Path 2428" d="M1266.974,672.86a6.261,6.261,0,0,0,.023,12.522,6.186,6.186,0,0,0,6.266-6.175A6.257,6.257,0,0,0,1266.974,672.86ZM1267,683.1a3.988,3.988,0,0,1-3.919-4.033,3.91,3.91,0,0,1,4.056-3.862,3.97,3.97,0,0,1,3.874,3.919A4.054,4.054,0,0,1,1267,683.1Z" transform="translate(3.465 3.393)" fill="#c20c17"/>
    <path id="Path_2429" data-name="Path 2429" d="M1288.554,656.315a6.261,6.261,0,1,0-.046,12.522,6.261,6.261,0,0,0,.046-12.522Zm-1.6,9.8h3.167A2.778,2.778,0,0,1,1286.959,666.113Zm4.261-2.245a21.949,21.949,0,0,0-2.6-.023,19.6,19.6,0,0,0-2.586.023c-1.356.171-1.527-.524-1.436-1.606a3.907,3.907,0,0,1,4.147-3.6,3.962,3.962,0,0,1,3.748,4.033C1292.474,663.538,1292.177,663.982,1291.22,663.869Zm-2.666-7.554a6.261,6.261,0,1,0-.046,12.522,6.261,6.261,0,0,0,.046-12.522Zm-1.6,9.8h3.167A2.778,2.778,0,0,1,1286.959,666.113Zm4.261-2.245a21.949,21.949,0,0,0-2.6-.023,19.6,19.6,0,0,0-2.586.023c-1.356.171-1.527-.524-1.436-1.606a3.907,3.907,0,0,1,4.147-3.6,3.962,3.962,0,0,1,3.748,4.033C1292.474,663.538,1292.177,663.982,1291.22,663.869Zm-2.666-7.554a6.261,6.261,0,1,0-.046,12.522,6.261,6.261,0,0,0,.046-12.522Zm-1.6,9.8h3.167A2.778,2.778,0,0,1,1286.959,666.113Zm4.261-2.245a21.949,21.949,0,0,0-2.6-.023,19.6,19.6,0,0,0-2.586.023c-1.356.171-1.527-.524-1.436-1.606a3.907,3.907,0,0,1,4.147-3.6,3.962,3.962,0,0,1,3.748,4.033C1292.474,663.538,1292.177,663.982,1291.22,663.869Zm-2.666-7.554a6.261,6.261,0,1,0-.046,12.522,6.261,6.261,0,0,0,.046-12.522Zm-1.6,9.8h3.167A2.778,2.778,0,0,1,1286.959,666.113Zm4.261-2.245a21.949,21.949,0,0,0-2.6-.023,19.6,19.6,0,0,0-2.586.023c-1.356.171-1.527-.524-1.436-1.606a3.907,3.907,0,0,1,4.147-3.6,3.962,3.962,0,0,1,3.748,4.033C1292.474,663.538,1292.177,663.982,1291.22,663.869Zm17.66,45.859a5.986,5.986,0,0,0,.365-2.712V677.723c0-.365.011-.718-.023-1.071a1.1,1.1,0,0,0-2.2-.034c-.046.456-.023.911-.023,1.379v28.985c0,2.3-.593,2.883-2.917,2.883H1246.1c-2.21-.011-2.814-.6-2.814-2.837V669c0-2.313.581-2.894,2.905-2.894h29.429c-.387,2.347-.387,2.347-2.655,2.347h-25.317c-1.88,0-2.005.125-2.017,2.005q0,11.28.011,22.548a8.4,8.4,0,0,0,.034,1.071.993.993,0,0,0,1.071.9.968.968,0,0,0,1.082-.866,9.288,9.288,0,0,0,.057-1.379c0-6.848.034-13.7-.034-20.554-.011-1.242.353-1.538,1.538-1.493,2.655.08,5.321.023,7.976.023,2.814,0,5.628.023,8.443-.011.695-.011.968.068.809.912-.365,1.9-1.812,2.689-4.01,2.017-2.279-.7-3.088-.365-4.352,1.834-1.3,2.245-1.219,3.076.5,4.694,1.88,1.755,1.88,3.019.023,4.74-1.709,1.606-1.823,2.438-.615,4.557,1.367,2.37,2.108,2.712,4.409,2.028,2.427-.729,3.5-.114,4.113,2.37.581,2.336,1.253,2.814,3.976,2.8,2.358-.011,3.076-.57,3.6-2.848.547-2.347,1.755-3.053,4.01-2.359,2.3.706,3.167.365,4.4-1.755,1.356-2.324,1.265-3.145-.513-4.82s-1.766-3.053-.011-4.671c1.7-1.549,1.857-2.472.752-4.409-1.436-2.518-2.176-2.883-4.478-2.187-2.609.786-3.9-.091-4.1-2.871.946.1,2.005-.422,2.791.285,1.185,1.048,2.381.911,3.714.467,2.085-.7,3.4.08,3.84,2.188a3.441,3.441,0,0,0,1.686,2.757,4.037,4.037,0,0,0,6.038-2.94,2.632,2.632,0,0,1,3.7-2.062c1.367.467,2.643.729,3.851-.433.6-.592,1.47-.342,2.188-.182.456.091.251.706.251,1.082.011,10.744,0,21.477.034,32.21,0,.991-.319,1.174-1.231,1.174q-26.08-.034-52.16.011c-.991,0-1.2-.353-1.162-1.242.068-1.584,0-3.167.034-4.751.011-.809-.194-1.527-1.071-1.572-.991-.046-1.208.706-1.2,1.584.023,2.1.068,4.193-.023,6.278-.057,1.481.513,1.96,1.971,1.96q27.533-.051,55.065-.023c1.857,0,1.994-.148,1.994-2.039q.017-17.4,0-34.807c0-2.131,0-2.153-2.108-2.21-.649-.011-.934-.046-.991-.877-.091-1.174.125-1.686,1.379-1.493a16.658,16.658,0,0,0,1.686.023c1.652.046,2.336.706,2.381,2.324.034,1.071.023,2.142.011,3.224,0,.8.387,1.3,1.173,1.276a1.075,1.075,0,0,0,1.071-1.242c-.011-1.23.034-2.45-.011-3.68a4.081,4.081,0,0,0-4.193-4.147c-1.436-.057-2.86-.023-4.3-.023-1.72,0-2.176-.615-1.732-2.29.171-.615.718-.843,1.117-1.219,1.823-1.72,1.948-2.541.638-4.808-1.287-2.233-2.085-2.552-4.5-1.8-2.142.661-3.441-.114-3.931-2.347-.513-2.336-1.208-2.871-3.726-2.871-2.677-.011-3.4.524-3.919,2.86s-1.732,3.042-4.045,2.3c-1.174-.376-2.45-.672-3.281.365-2.245,2.814-2.94,4.364-.1,6.586a3.894,3.894,0,0,1,.456.41A2.494,2.494,0,0,1,1278,663.5c-.171.684-.98.331-1.492.331q-15.108.034-30.216.011c-3.828,0-5.252,1.436-5.252,5.264q-.017,17.4,0,34.819a24.88,24.88,0,0,0,.285,5.936h-1.185c-4.3.011-4.3.011-4.273,4.307.023,3.6,2.073,5.617,5.776,5.617h52c.934,0,2.245.262,2.21-1.162-.034-1.4-1.356-1.094-2.279-1.094h-51.225c-3.4,0-4.273-.934-4.2-4.3.023-.854.251-1.139,1.128-1.139,8.853.034,17.694.023,26.536.011.695,0,1.048.068,1.162.934.273,1.914,1.31,2.734,3.236,2.746q4.99.051,9.981,0c1.743-.023,2.905-.877,3.076-2.564.114-1.139.65-1.117,1.47-1.117,5.264.023,10.539.011,15.8.011,3.475,0,6.95-.011,10.425.011.422,0,.923-.205,1.139.456a3.554,3.554,0,0,1-3.521,4.933q-4.136.034-8.283,0c-.832,0-1.664.091-1.686,1.094-.023,1.105.866,1.185,1.743,1.185,2.564-.023,5.116-.125,7.668.011,3.167.171,5.321-1.048,6.392-4.068v-4.911C1312.879,709.078,1310.76,710.252,1308.88,709.728Zm-30.079-33.85a1.993,1.993,0,0,1,2.438,1.857c-.159.5-.672.8-1.071,1.162a4.741,4.741,0,0,0,.046,7.3c.718.627,1.31,1.06.592,2.233-.672,1.105-1.276.991-2.233.672a4.8,4.8,0,0,0-6.426,3.7c-.182.934-.319,1.561-1.561,1.549-1.151-.011-1.561-.376-1.789-1.47a4.719,4.719,0,0,0-6.472-3.749c-.934.308-1.538.376-2.119-.661a1.462,1.462,0,0,1,.387-2.176c2.518-2.21,2.518-5.321-.011-7.577a1.452,1.452,0,0,1-.353-2.176c.536-.923,1.037-.991,1.948-.7,3.373,1.082,5.891-.353,6.665-3.817a1.458,1.458,0,0,1,1.72-1.379c1.083.011,1.367.467,1.561,1.4C1272.808,675.467,1275.395,676.914,1278.8,675.877Zm-.1-9.548a4.738,4.738,0,0,0,0-7.486c-.729-.649-1.071-1.139-.478-2.165a1.447,1.447,0,0,1,2.062-.752c3.281,1.071,5.845-.41,6.574-3.737.205-.946.479-1.493,1.663-1.481,1.151.023,1.47.49,1.664,1.47.649,3.281,3.327,4.808,6.585,3.749a1.448,1.448,0,0,1,2.062.752c.6,1.014.308,1.481-.433,2.142-2.552,2.267-2.552,5.264.034,7.577a1.4,1.4,0,0,1,.365,2.153,1.383,1.383,0,0,1-1.971.7c-3.327-1.082-5.947.444-6.654,3.862-.194.934-.524,1.527-1.606,1.231-1.139.319-1.493-.319-1.7-1.3-.729-3.35-3.372-4.911-6.563-3.828a1.462,1.462,0,0,1-2.085-.729C1277.582,667.469,1277.981,666.979,1278.7,666.33Zm1.493,47.215H1270.1a.775.775,0,0,1-.832-.877c-.011-.775.581-.547.991-.547,1.629-.023,3.259-.011,4.888-.011s3.259-.011,4.888.011c.4,0,.991-.228.991.547A.775.775,0,0,1,1280.191,713.544Zm8.317-44.708a6.261,6.261,0,0,0,.046-12.522,6.261,6.261,0,1,0-.046,12.522Zm-1.55-2.723h3.167A2.778,2.778,0,0,1,1286.959,666.113Zm-2.358-3.851a3.907,3.907,0,0,1,4.147-3.6,3.962,3.962,0,0,1,3.748,4.033c-.023.843-.319,1.287-1.276,1.174a21.949,21.949,0,0,0-2.6-.023,19.6,19.6,0,0,0-2.586.023C1284.68,664.039,1284.51,663.344,1284.6,662.262Zm3.953-5.948a6.261,6.261,0,1,0-.046,12.522,6.261,6.261,0,0,0,.046-12.522Zm-1.6,9.8h3.167A2.778,2.778,0,0,1,1286.959,666.113Zm4.261-2.245a21.949,21.949,0,0,0-2.6-.023,19.6,19.6,0,0,0-2.586.023c-1.356.171-1.527-.524-1.436-1.606a3.907,3.907,0,0,1,4.147-3.6,3.962,3.962,0,0,1,3.748,4.033C1292.474,663.538,1292.177,663.982,1291.22,663.869Zm-2.666-7.554a6.261,6.261,0,1,0-.046,12.522,6.261,6.261,0,0,0,.046-12.522Zm-1.6,9.8h3.167A2.778,2.778,0,0,1,1286.959,666.113Zm4.261-2.245a21.949,21.949,0,0,0-2.6-.023,19.6,19.6,0,0,0-2.586.023c-1.356.171-1.527-.524-1.436-1.606a3.907,3.907,0,0,1,4.147-3.6,3.962,3.962,0,0,1,3.748,4.033C1292.474,663.538,1292.177,663.982,1291.22,663.869Zm-2.666-7.554a6.261,6.261,0,1,0-.046,12.522,6.261,6.261,0,0,0,.046-12.522Zm-1.6,9.8h3.167A2.778,2.778,0,0,1,1286.959,666.113Zm4.261-2.245a21.949,21.949,0,0,0-2.6-.023,19.6,19.6,0,0,0-2.586.023c-1.356.171-1.527-.524-1.436-1.606a3.907,3.907,0,0,1,4.147-3.6,3.962,3.962,0,0,1,3.748,4.033C1292.474,663.538,1292.177,663.982,1291.22,663.869Zm-2.666-7.554a6.261,6.261,0,1,0-.046,12.522,6.261,6.261,0,0,0,.046-12.522Zm-1.6,9.8h3.167A2.778,2.778,0,0,1,1286.959,666.113Zm4.261-2.245a21.949,21.949,0,0,0-2.6-.023,19.6,19.6,0,0,0-2.586.023c-1.356.171-1.527-.524-1.436-1.606a3.907,3.907,0,0,1,4.147-3.6,3.962,3.962,0,0,1,3.748,4.033C1292.474,663.538,1292.177,663.982,1291.22,663.869Z" transform="translate(0 0)" fill="#c20c17"/>
    <path id="Path_2430" data-name="Path 2430" d="M1266.974,672.86a6.261,6.261,0,0,0,.023,12.522,6.186,6.186,0,0,0,6.266-6.175A6.257,6.257,0,0,0,1266.974,672.86ZM1267,683.1a3.988,3.988,0,0,1-3.919-4.033,3.91,3.91,0,0,1,4.056-3.862,3.97,3.97,0,0,1,3.874,3.919A4.054,4.054,0,0,1,1267,683.1Z" transform="translate(3.465 3.393)" fill="#c20c17"/>
    <path id="Path_2431" data-name="Path 2431" d="M1282.882,655.36a6.261,6.261,0,1,0-.046,12.522,6.261,6.261,0,0,0,.046-12.522Zm-1.6,9.8h3.167A2.778,2.778,0,0,1,1281.287,665.159Zm4.261-2.245a21.949,21.949,0,0,0-2.6-.023,19.6,19.6,0,0,0-2.586.023c-1.356.171-1.527-.524-1.436-1.606a3.907,3.907,0,0,1,4.147-3.6,3.962,3.962,0,0,1,3.748,4.033C1286.8,662.584,1286.505,663.028,1285.548,662.914Z" transform="translate(5.672 0.955)" fill="#c20c17"/>
    <path id="Path_2432" data-name="Path 2432" d="M1266.974,672.86a6.261,6.261,0,0,0,.023,12.522,6.186,6.186,0,0,0,6.266-6.175A6.257,6.257,0,0,0,1266.974,672.86ZM1267,683.1a3.988,3.988,0,0,1-3.919-4.033,3.91,3.91,0,0,1,4.056-3.862,3.97,3.97,0,0,1,3.874,3.919A4.054,4.054,0,0,1,1267,683.1Z" transform="translate(3.465 3.393)" fill="#c20c17"/>
    <path id="Path_2433" data-name="Path 2433" d="M1282.882,655.36a6.261,6.261,0,1,0-.046,12.522,6.261,6.261,0,0,0,.046-12.522Zm-1.6,9.8h3.167A2.778,2.778,0,0,1,1281.287,665.159Zm4.261-2.245a21.949,21.949,0,0,0-2.6-.023,19.6,19.6,0,0,0-2.586.023c-1.356.171-1.527-.524-1.436-1.606a3.907,3.907,0,0,1,4.147-3.6,3.962,3.962,0,0,1,3.748,4.033C1286.8,662.584,1286.505,663.028,1285.548,662.914Z" transform="translate(5.672 0.955)" fill="#c20c17"/>
  </g>
</svg>
