<svg xmlns="http://www.w3.org/2000/svg" width="78.55" height="78.568" viewBox="0 0 78.55 78.568">
  <g id="Group_1855" data-name="Group 1855" transform="translate(-1131.94 -638.404)">
    <path id="Path_2373" data-name="Path 2373" d="M1208.87,714.35c-1.77-.01-3.54-.04-5.31.02-.73.02-.94-.16-.94-.92q.045-18.99.02-37.97c0-1.29-.43-1.72-1.71-1.72-2.26-.01-4.52,0-6.79,0-1.63,0-1.97.34-1.97,1.94v36.91c0,1.74,0,1.7-1.71,1.76-.74.02-.93-.17-.93-.92.03-9.17.02-18.33.02-27.5,0-1.28-.43-1.72-1.71-1.72h-6.88c-1.51,0-1.89.37-1.89,1.87v26.51c0,1.74,0,1.7-1.71,1.76-.75.02-.93-.19-.92-.93q.03-15.705.01-31.42c0-1.28-.43-1.71-1.71-1.72h-6.88c-1.51,0-1.88.38-1.88,1.88v30.44c0,1.73,0,1.69-1.72,1.75-.76.03-.92-.2-.92-.93.03-8.73.02-17.46.02-26.19,0-1.28-.44-1.71-1.72-1.71h-6.88c-1.5,0-1.88.37-1.88,1.88v25.12c0,1.81,0,1.77-1.8,1.83-.71.02-.83-.2-.83-.86q.03-10.47.01-20.95c0-1.38-.41-1.78-1.81-1.78h-6.87c-1.39,0-1.79.4-1.79,1.8,0,6.96-.01,13.91.02,20.87,0,.76-.21.94-.94.92-1.85-.06-3.7-.03-5.56-.01a1.282,1.282,0,0,0-1.37,1.31,1.3,1.3,0,0,0,1.31,1.29c.24.02.49.01.73.01h74.88c1.03,0,1.63-.48,1.63-1.3S1209.9,714.35,1208.87,714.35Zm-61.81.01c-1.33-.03-2.67-.04-4,0-.55.02-.67-.16-.66-.68.02-3.3.01-6.6.01-9.89,0-3.25.01-6.49-.01-9.73-.01-.54.14-.69.67-.68,1.34.04,2.67.04,4.01.01.47-.02.58.15.57.6q-.015,9.885.01,19.78C1147.66,714.24,1147.52,714.37,1147.06,714.36Zm12.94,0c-1.31-.05-2.62-.03-3.93,0-.47.01-.58-.15-.58-.6q.03-12.51,0-25.02c0-.46.13-.6.59-.59,1.34.03,2.67.04,4.01,0,.55-.02.66.16.66.68-.02,4.17-.01,8.34-.01,12.51,0,4.09-.01,8.18.02,12.27C1160.76,714.22,1160.61,714.39,1160,714.36Zm13.83-15.7c0,4.93-.02,9.87.03,14.8,0,.78-.24.94-.95.9-1.19-.05-2.4-.04-3.6,0-.55.02-.73-.1-.73-.7q.03-15,0-30.01c0-.65.19-.76.78-.74,1.19.04,2.4.05,3.59,0,.69-.04.91.11.91.86C1173.81,688.73,1173.83,693.69,1173.83,698.66Zm13.11,15.11c0,.47-.14.6-.59.59-1.34-.03-2.68-.04-4.01,0-.56.02-.66-.17-.66-.68.02-4.39.01-8.78.01-13.17,0-4.31.02-8.61-.01-12.92-.01-.62.15-.78.76-.76,1.28.06,2.56.04,3.84.01.46-.01.66.05.66.6Q1186.91,700.61,1186.94,713.77Zm13.08-18.39c0,6.03-.01,12.05.02,18.08.01.78-.23.94-.94.9-1.22-.05-2.45-.03-3.68,0-.48.01-.65-.08-.65-.62q.03-18.36,0-36.72c0-.57.19-.67.69-.66,1.26.04,2.51.07,3.76-.01.74-.04.82.24.82.87C1200.01,683.28,1200.02,689.33,1200.02,695.38Z" fill="#c20c17"/>
    <path id="Path_2374" data-name="Path 2374" d="M1189.41,654.7a18.317,18.317,0,1,0-35.22,8.81,18.034,18.034,0,0,0,5.19,7.22,1.28,1.28,0,0,0,1.72.13,1.261,1.261,0,0,0,.42-1.54,2.015,2.015,0,0,0-.68-.8,12.965,12.965,0,0,1-2.42-2.75c1.85,0,3.58,0,5.32-.01.38,0,.41.24.48.52.2.85.41,1.69.66,2.53a1.316,1.316,0,0,0,1.64.97,1.33,1.33,0,0,0,.88-1.69c-.13-.53-.26-1.06-.44-1.57-.2-.58-.13-.79.57-.77,1.96.05,3.92,0,5.89.02.72.01,1.7-.32,2.07.16.28.35-.23,1.31-.4,1.99-.24.94.06,1.63.81,1.86a1.363,1.363,0,0,0,1.69-1.12c.23-.81.45-1.62.63-2.45.08-.33.21-.45.54-.45,1.71.01,3.42.01,5.27.01a15.824,15.824,0,0,1-1.93,2.31,1.269,1.269,0,0,0-.04,1.83,1.315,1.315,0,0,0,1.9,0c.12-.11.24-.23.35-.35A17.881,17.881,0,0,0,1189.41,654.7Zm-22.07-9.13c.41-1.32.85-2.64,1.37-3.92a.706.706,0,0,1,.64-.51,14.263,14.263,0,0,1,3.75.01.621.621,0,0,1,.59.43c.54,1.32.99,2.65,1.41,4,.15.47-.03.56-.46.55-1.14-.02-2.29-.01-3.43-.01s-2.29-.02-3.44.01C1167.31,646.14,1167.2,646.01,1167.34,645.57ZM1163,663.16c-1.88-.03-3.75-.03-5.63,0a.631.631,0,0,1-.71-.48,17.572,17.572,0,0,1-1.05-4.09c-.05-.44.04-.57.48-.56,1.08.03,2.17.01,3.26.01s2.18.01,3.27,0c.33,0,.57.01.57.46a27.7,27.7,0,0,0,.35,4.06C1163.6,663.03,1163.48,663.16,1163,663.16Zm.8-13.8a34.18,34.18,0,0,0-.62,5.44c-.01.26.12.63-.39.63-2.4-.01-4.79-.01-7.21-.01a15.447,15.447,0,0,1,1.84-6.2.8.8,0,0,1,.82-.49c1.66.02,3.32.03,4.99,0C1163.71,648.73,1163.91,648.79,1163.8,649.36Zm.75-3.53a.358.358,0,0,1-.41.29h-4.5a15.484,15.484,0,0,1,6.05-4.06C1165.28,643.42,1164.9,644.62,1164.55,645.83Zm11.71,16.8c-.05.41-.24.53-.64.52q-4.41-.015-8.83.01c-.43,0-.57-.17-.62-.55-.15-1.33-.32-2.65-.38-3.98-.02-.46.1-.61.57-.6,1.64.03,3.27.01,4.91.01,1.6,0,3.21.01,4.82,0,.4-.01.57.06.55.52C1176.59,659.93,1176.41,661.28,1176.26,662.63Zm-.19-7.2c-1.64-.02-3.27-.01-4.91-.01-1.58,0-3.16-.02-4.74.01-.5.01-.65-.1-.63-.62a46,46,0,0,1,.67-5.6c.07-.39.24-.47.6-.47q4.17.015,8.34,0c.38-.01.51.13.58.5a45.561,45.561,0,0,1,.66,5.59C1176.66,655.29,1176.54,655.44,1176.07,655.43Zm2.25-9.31c-.2,0-.36-.02-.43-.26-.36-1.24-.75-2.47-1.16-3.83a15.776,15.776,0,0,1,6.05,4.09Zm.29,3.12c-.08-.42.09-.51.47-.5,1.75.01,3.49.01,5.24-.01a.647.647,0,0,1,.64.39,15.964,15.964,0,0,1,1.87,5.87c.04.42-.12.44-.44.44-1.12-.01-2.23-.01-3.35-.01-1.09,0-2.18-.01-3.27.01-.39.01-.52-.12-.53-.51A32.927,32.927,0,0,0,1178.61,649.24Zm8.22,9.3a17.159,17.159,0,0,1-1.07,4.17.575.575,0,0,1-.64.45q-2.82-.045-5.64,0c-.49,0-.67-.1-.59-.63a25.374,25.374,0,0,0,.35-3.98c0-.47.23-.52.61-.51,1.08.01,2.17,0,3.26,0s2.18.02,3.27-.01C1186.77,658.03,1186.87,658.12,1186.83,658.54Z" fill="#c20c17"/>
    <path id="Path_2375" data-name="Path 2375" d="M1207.87,656.8a1.238,1.238,0,0,0-1.22-1.36c-1.37-.04-2.73-.03-4.09,0a1.186,1.186,0,0,0-1.15.89,1.245,1.245,0,0,0,.34,1.35,1.912,1.912,0,0,0,1.51.37c-1.48,1.39-2.83,2.65-4.16,3.93-.28.27-.55.16-.83.1a3.905,3.905,0,0,0-4.71,4.54.792.792,0,0,1-.28.84q-3.39,3.15-6.74,6.33a.774.774,0,0,1-.93.2,3.737,3.737,0,0,0-4.12.99.754.754,0,0,1-.91.23c-1.58-.49-3.17-.99-4.77-1.43a.966.966,0,0,1-.78-.85,3.9,3.9,0,0,0-4.06-3.09,3.938,3.938,0,0,0-3.66,3.56c-.04.37-.12.57-.49.71q-2.67,1.035-5.31,2.12a.627.627,0,0,1-.78-.14,3.709,3.709,0,0,0-4.03-.74,3.762,3.762,0,0,0-2.48,3.35.646.646,0,0,1-.49.64q-2.655,1.035-5.3,2.12a.627.627,0,0,1-.79-.12,3.673,3.673,0,0,0-4.1-.72,3.749,3.749,0,0,0-2.42,3.39.717.717,0,0,1-.51.7q-2.49,1.05-4.96,2.12c-.95.41-1.31,1.07-.99,1.83s1.05.98,2,.58c1.65-.7,3.3-1.4,4.95-2.12a.747.747,0,0,1,.93.12,3.715,3.715,0,0,0,3.99.6,3.76,3.76,0,0,0,2.39-3.24.774.774,0,0,1,.57-.75q2.595-.99,5.15-2.06a.763.763,0,0,1,.93.15,3.7,3.7,0,0,0,3.97.7,3.785,3.785,0,0,0,2.48-3.27.783.783,0,0,1,.56-.76c1.73-.66,3.44-1.36,5.15-2.06a.765.765,0,0,1,.93.15,3.8,3.8,0,0,0,5.37-.24.771.771,0,0,1,.91-.23c1.54.48,3.07.96,4.61,1.39a1.125,1.125,0,0,1,.97.97,3.9,3.9,0,1,0,7.56-1.89.936.936,0,0,1,.34-1.1q3.18-2.955,6.31-5.95a.85.85,0,0,1,1.12-.17,3.688,3.688,0,0,0,4.24-.74,3.6,3.6,0,0,0,1-4.1.925.925,0,0,1,.35-1.28,6.312,6.312,0,0,0,.6-.56c1.04-.98,2.08-1.95,3.22-3.03v.74a1.319,1.319,0,1,0,2.62-.02C1207.89,659.26,1207.9,658.03,1207.87,656.8Zm-62.88,28.74a1.307,1.307,0,1,1,1.34-1.25A1.317,1.317,0,0,1,1144.99,685.54Zm13.13-5.24a1.305,1.305,0,1,1,.05-2.61,1.305,1.305,0,0,1-.05,2.61Zm13.1-5.24a1.305,1.305,0,1,1,1.3-1.29A1.308,1.308,0,0,1,1171.22,675.06Zm13.08,3.93a1.305,1.305,0,1,1,.06-2.61,1.305,1.305,0,0,1-.06,2.61Zm13.15-11.79a1.3,1.3,0,0,1-1.35-1.24,1.306,1.306,0,1,1,1.35,1.24Z" fill="#c20c17"/>
  </g>
</svg>
