<svg version="1.2" xmlns="http://www.w3.org/2000/svg" viewBox="0 0 40 40" width="40" height="40">
	<title>close-01-svg</title>
	<style>
		.s0 { fill: #ffffff } 
		.s1 { fill: #02185a } 
	</style>
	<g id="Layer">
		<path id="Layer" class="s0" d="m20 39c-10.5 0-19-8.5-19-19 0-10.5 8.5-19 19-19 10.5 0 19 8.5 19 19 0 10.5-8.5 19-19 19z"/>
		<path id="Layer" fill-rule="evenodd" class="s1" d="m20 39.5c-10.8 0-19.5-8.7-19.5-19.5 0-10.8 8.7-19.5 19.5-19.5 10.8 0 19.5 8.7 19.5 19.5 0 10.8-8.7 19.5-19.5 19.5zm0-38c-10.2 0-18.5 8.3-18.5 18.5 0 10.2 8.3 18.5 18.5 18.5 10.2 0 18.5-8.3 18.5-18.5 0-10.2-8.3-18.5-18.5-18.5z"/>
	</g>
	<g id="Layer_1_1_">
	</g>
	<g id="Layer_2_1_">
	</g>
	<g id="Layer_3">
		<g id="Layer">
			<path id="Layer" class="s1" d="m16.8 20c-0.8-1-1.9-1.9-2.7-2.9-1.5-1.7-3.1-3.2-4.6-4.9-0.7-0.7-1-1.7-0.8-2.7 0.1-0.5 0.3-1 0.8-1.5 0.7-0.7 1.5-0.7 2.2-0.3 0.5 0.2 1.2 0.5 1.5 1 2.2 2.2 4.2 4.4 6.3 6.8 0.2 0.2 0.3 0.3 0.3 0.5 1-1.2 2.2-2.4 3.2-3.6 1.2-1.4 2.4-2.5 3.7-3.7 0.3-0.3 0.8-0.7 1.4-0.8 1.4-0.6 2.6 0.1 2.9 1.5 0.2 0.8 0.2 1.9-0.5 2.5-1.4 1.5-2.7 2.9-3.9 4.4-1 1.2-2.2 2.4-3.4 3.4 0.2 0.2 0.2 0.2 0 0.3 0.7 0.7 1.4 1.5 2 2.2 1.5 1.5 3.1 3.1 4.6 4.7 0.3 0.5 0.8 0.8 1.2 1.4 0.7 1 0.5 2.4-0.2 3.2-0.5 0.7-1.4 1-2.2 0.7-0.7-0.2-1.2-0.5-1.7-1-2.2-2.4-4.4-4.7-6.6-7-0.2-0.2-0.2-0.2-0.3-0.3-0.7 0.7-1.2 1.5-1.9 2.2-1.7 1.7-3.2 3.4-4.9 5.1-0.7 0.7-1.4 1-2.2 1.2-0.5 0-1-0.2-1.4-0.5-1-0.8-1.2-2.5-0.3-3.7 0.8-1.2 1.9-2.2 2.9-3.4 1.4-1.5 2.9-2.9 4.2-4.4 0 0 0.2-0.2 0.4-0.4z"/>
		</g>
	</g>
</svg>