<?xml version="1.0" encoding="utf-8"?>
<!-- Generator: Adobe Illustrator 25.0.0, SVG Export Plug-In . SVG Version: 6.00 Build 0)  -->
<svg version="1.0" xmlns="http://www.w3.org/2000/svg" xmlns:xlink="http://www.w3.org/1999/xlink" x="0px" y="0px"
	 viewBox="0 0 30 30" style="enable-background:new 0 0 30 30;" xml:space="preserve">
<style type="text/css">
	.st0{fill:#FFFFFF;}
	.st1{fill:none;stroke:#046489;stroke-miterlimit:10;}
	.st2{opacity:0.35;fill:#CCCCCC;}
	.st3{fill:#046489;}
	.st4{opacity:0.22;fill:#028202;}
	.st5{opacity:0.2;fill:#FF0000;}
	.st6{fill:#028202;}
	.st7{fill:#FF0000;}
	.st8{fill:none;stroke:#FFFFFF;stroke-miterlimit:10;}
	.st9{fill:#FF7B00;}
	.st10{fill:#231F20;}
	.st11{fill:#DBDCDD;}
	.st12{fill:#24B700;}
	.st13{opacity:0.22;fill:#FFFFFF;}
	.st14{fill:none;stroke:#FFFFFF;stroke-width:0.5;stroke-miterlimit:10;}
	.st15{fill:#8C1622;}
	.st16{fill:#8D1622;}
	.st17{fill:url(#SVGID_1_);}
	.st18{fill:url(#SVGID_2_);}
	.st19{fill:#FF4751;}
	.st20{fill:url(#SVGID_3_);}
	.st21{fill:url(#SVGID_4_);}
	.st22{fill:#FD4233;}
	.st23{fill:#FF402F;}
	.st24{fill:#007732;}
	.st25{fill:#FF5A29;}
</style>
<g id="Layer_1">
</g>
<g id="Layer_2">
	<g>
		<g>
			<path class="st6" d="M4.2,16.5c0.3-1.5,2.2-2.4,3.5-1.6c0.7,0.4,1.2,1,1.8,1.5c0.4,0.5,0.8,1.1,1.2,1.7c0.1-0.2,0.3-0.4,0.4-0.5
				c2.4-3.4,5-6.6,8.1-9.3c1.6-1.4,3.5-2.5,5.4-3.3c0.3-0.1,0.6,0,1.1,0c-0.7,0.7-1.3,1.3-1.8,1.9c-3.9,3.7-7.3,7.9-9.9,12.6
				c-1,1.8-2.1,3.5-3.2,5.3c-0.4,0.7-0.7,0.7-1.1,0c-0.6-1.1-1.1-2.2-1.6-3.4c-0.6-1.1-1.1-2.3-1.7-3.4C6,16.9,5.4,16.3,4.2,16.5z"
				/>
		</g>
	</g>
</g>
<g id="Layer_3">
</g>
</svg>
