<?xml version="1.0" encoding="utf-8"?>
<!-- Generator: Adobe Illustrator 25.0.0, SVG Export Plug-In . SVG Version: 6.00 Build 0)  -->
<svg version="1.0" xmlns="http://www.w3.org/2000/svg" xmlns:xlink="http://www.w3.org/1999/xlink" x="0px" y="0px"
	 viewBox="0 0 30 30" style="enable-background:new 0 0 30 30;" xml:space="preserve">
<style type="text/css">
	.st0{fill:#FFFFFF;}
	.st1{fill:none;stroke:#046489;stroke-miterlimit:10;}
	.st2{opacity:0.35;fill:#CCCCCC;}
	.st3{fill:#046489;}
	.st4{opacity:0.22;fill:#028202;}
	.st5{opacity:0.2;fill:#FF0000;}
	.st6{fill:#028202;}
	.st7{fill:#FF0000;}
	.st8{fill:none;stroke:#FFFFFF;stroke-miterlimit:10;}
	.st9{fill:#FF7B00;}
	.st10{fill:#231F20;}
	.st11{fill:#DBDCDD;}
	.st12{fill:#24B700;}
	.st13{opacity:0.22;fill:#FFFFFF;}
	.st14{fill:none;stroke:#FFFFFF;stroke-width:0.5;stroke-miterlimit:10;}
	.st15{fill:#8C1622;}
	.st16{fill:#8D1622;}
	.st17{fill:url(#SVGID_1_);}
	.st18{fill:url(#SVGID_2_);}
	.st19{fill:#FF4751;}
	.st20{fill:url(#SVGID_3_);}
	.st21{fill:url(#SVGID_4_);}
	.st22{fill:#FD4233;}
	.st23{fill:#FF402F;}
	.st24{fill:#007732;}
	.st25{fill:#FF5A29;}
</style>
<g id="Layer_1">
</g>
<g id="Layer_2">
</g>
<g id="Layer_3">
	<g>
		<path class="st0" d="M3.8,24.7c0-0.7,0.7-1.4,1.7-1.5c0.9-0.1,1.8,0.5,1.9,1.2c0,0.3,0,0.6,0,0.9h0.8c0-0.6,0-1.2,0-1.8
			c0-0.8,0.6-1.4,1.5-1.5c0.8-0.1,1.7,0.3,2,1c0.1,0.2,0.1,0.3,0.1,0.5c0,0.6,0,1.2,0,1.8h0.8c0-0.6,0-1.2,0-1.8
			c0-1.2,1.2-2,2.6-1.9c1.1,0.1,1.9,0.9,1.9,1.8c0,0.6,0,1.2,0,1.8h0.8c0-0.6,0-1.2,0-1.8c0-0.7,0.7-1.3,1.6-1.5
			c0.8-0.1,1.7,0.3,2,1c0.1,0.2,0.1,0.4,0.1,0.6c0,0.6,0,1.1,0,1.7h0.8c0-0.2,0-0.4,0-0.6c0-0.9,0.9-1.6,2-1.5
			c1,0.1,1.6,0.7,1.7,1.5c0,0.2,0,0.5,0,0.7H27c0-0.3,0-0.6,0-0.9c0-0.1,0-0.1,0.2-0.1c0.2,0,0.5,0,0.7,0c0.4,0,0.5-0.1,0.5-0.4
			c0-4.4,0-8.8,0-13.2c0-0.3-0.2-0.4-0.5-0.4c-2.1,0-4.3,0-6.4,0c-0.2,0-0.2,0-0.2-0.2c0-1.6,0-3.3,0-4.9c0-0.3-0.1-0.4-0.5-0.4
			c-3.8,0-7.6,0-11.4,0c-0.4,0-0.5,0.1-0.5,0.4c0,1.6,0,3.3,0,4.9c0,0.2,0,0.2-0.2,0.2c-2.1,0-4.3,0-6.4,0c-0.4,0-0.5,0.1-0.5,0.4
			c0,4.4,0,8.8,0,13.2c0,0.3,0.1,0.4,0.5,0.4c0.3,0,0.5,0,0.8,0c0,0,0,0.1,0,0.1c0,0.3,0,0.6,0,0.9h0.8C3.8,25.1,3.8,24.9,3.8,24.7z
			 M24.4,22.5c-0.5,0-0.9-0.4-0.9-0.8c0-0.4,0.4-0.8,0.9-0.8c0.5,0,0.9,0.3,0.9,0.8C25.3,22.2,24.9,22.5,24.4,22.5z M21.4,10.9
			c2,0,4,0,6,0c0.2,0,0.2,0.1,0.2,0.2c0,3.7,0,7.4,0,11.2c0,0.4,0,0.8,0,1.2c0,0.1,0,0.1,0,0.2c-0.3,0-0.5,0-0.8,0
			c0,0-0.1,0-0.1-0.1c-0.2-0.3-0.5-0.5-0.9-0.7c-0.1-0.1-0.1-0.1,0-0.2c0.4-0.4,0.5-1,0.3-1.5c-0.2-0.5-0.7-0.8-1.4-0.9
			c-0.9-0.1-1.8,0.4-2,1.2c-0.1,0.4,0,0.8,0.4,1.2c0.1,0.1,0.1,0.1,0,0.2c-0.2,0.1-0.3,0.2-0.5,0.3c0,0,0-0.1-0.1-0.1
			c-0.2-0.5-0.6-1-1.1-1.3c-0.1-0.1-0.1-0.1,0-0.2c0.5-0.6,0.5-1.2,0-1.8c0-0.1-0.1-0.1-0.1-0.2c0-2.8,0-5.6,0-8.5
			C21.2,11,21.3,10.9,21.4,10.9z M15,21c-0.8,0-1.4-0.5-1.4-1.1c0-0.6,0.6-1.1,1.4-1.1c0.7,0,1.4,0.5,1.4,1.1
			C16.4,20.5,15.8,21,15,21z M20.8,20.6c0,0.4-0.4,0.8-0.9,0.8c-0.5,0-0.9-0.3-0.9-0.8c0-0.4,0.4-0.8,0.9-0.8
			C20.4,19.8,20.8,20.2,20.8,20.6z M9.9,5.3c3.4,0,6.8,0,10.3,0c0.3,0,0.3,0,0.3,0.2c0,4.5,0,9,0,13.4c0,0.1,0,0.1,0,0.2
			c-0.9-0.1-1.5,0.1-2,0.7c-0.4,0.6-0.3,1.2,0.2,1.7c-0.3,0.2-0.6,0.5-0.9,0.7c-0.3-0.4-0.7-0.8-1.3-1c0.7-0.5,0.9-1.1,0.7-1.9
			c-0.1-0.4-0.4-0.8-0.8-1c-0.8-0.5-2-0.5-2.8,0.1c-0.5,0.4-0.7,0.8-0.7,1.4c0,0.6,0.3,1,0.8,1.4c-0.6,0.2-1,0.6-1.3,1
			c0,0,0,0-0.1,0c0,0,0-0.1-0.1-0.1c-0.2-0.2-0.5-0.4-0.7-0.5c-0.1-0.1-0.1-0.1,0-0.2c0.4-0.4,0.5-0.8,0.3-1.3c-0.2-0.7-1.1-1.2-2-1
			c-0.1,0-0.2,0-0.1-0.1c0,0,0-0.1,0-0.1c0-4.5,0-8.9,0-13.4C9.6,5.3,9.6,5.3,9.9,5.3z M10.1,19.8c0.5,0,0.9,0.4,0.9,0.8
			c0,0.4-0.4,0.8-0.9,0.8c-0.5,0-0.9-0.3-0.9-0.8C9.2,20.2,9.6,19.8,10.1,19.8z M5.6,22.5c-0.5,0-0.9-0.4-0.9-0.8
			c0-0.4,0.4-0.8,0.9-0.8c0.5,0,0.9,0.4,0.9,0.8C6.5,22.2,6.1,22.5,5.6,22.5z M3.4,23.5c-0.1,0.1-0.1,0.1-0.3,0.1
			c-0.2,0-0.4,0-0.6,0c-0.1,0-0.1,0-0.1-0.1c0,0,0-0.1,0-0.1c0-4.1,0-8.1,0-12.2c0,0,0-0.1,0-0.1c0-0.1,0-0.2,0.2-0.2c2,0,4,0,6,0
			c0.1,0,0.2,0,0.2,0.2c0,2.8,0,5.6,0,8.4c0,0.1,0,0.1-0.1,0.2c-0.5,0.6-0.5,1.2,0,1.8c0.1,0.1,0.1,0.2,0,0.2
			C8.1,22,7.7,22.5,7.5,23c0,0,0,0.1-0.1,0.1c-0.2-0.1-0.4-0.2-0.6-0.4c0.4-0.4,0.6-0.9,0.4-1.4c-0.1-0.3-0.3-0.6-0.7-0.8
			c-0.7-0.4-1.6-0.3-2.2,0.1c-0.3,0.3-0.5,0.6-0.5,1c0,0.4,0.2,0.7,0.5,1.1c-0.1,0-0.1,0.1-0.1,0.1C3.9,23,3.6,23.2,3.4,23.5z"/>
		<path class="st0" d="M12.4,9.8c1.7,0,3.5,0,5.2,0c0.3,0,0.5-0.1,0.5-0.4c0-1,0-1.9,0-2.9c0-0.3-0.2-0.4-0.5-0.4
			c-0.9,0-1.7,0-2.6,0c-0.9,0-1.7,0-2.6,0c-0.3,0-0.5,0.1-0.5,0.4c0,1,0,1.9,0,2.9C11.9,9.7,12.1,9.8,12.4,9.8z M12.7,7
			c0-0.1,0-0.1,0.2-0.1c0.7,0,1.4,0,2.1,0c0.7,0,1.4,0,2.1,0c0.1,0,0.2,0,0.2,0.1c0,0.7,0,1.3,0,2c0,0.1,0,0.1-0.2,0.1
			c-1.4,0-2.8,0-4.2,0c-0.1,0-0.2,0-0.2-0.1C12.7,8.3,12.7,7.6,12.7,7z"/>
		<path class="st0" d="M17.2,13.9c0-0.3,0-0.3-0.4-0.3c-0.4,0-0.4,0-0.4,0.3c0,0,0,0,0,0c0,0.3,0,0.3,0.4,0.3
			C17.2,14.3,17.2,14.3,17.2,13.9z"/>
		<path class="st0" d="M18.6,13.6c-0.4,0-0.4,0-0.4,0.4c0,0.3,0,0.3,0.4,0.3c0.4,0,0.4,0,0.4-0.4c0,0,0,0,0,0
			C19,13.6,19,13.6,18.6,13.6z"/>
		<path class="st0" d="M15.4,15.4c0-0.3,0-0.3-0.4-0.3c-0.5,0-0.5,0-0.5,0.4c0,0.3,0,0.3,0.4,0.3c0.1,0,0.2,0,0.3,0
			c0.1,0,0.2,0,0.2-0.1C15.4,15.5,15.4,15.5,15.4,15.4z"/>
		<path class="st0" d="M16.8,15.8c0.4,0,0.4,0,0.4-0.3c0,0,0,0,0,0c0-0.3,0-0.3-0.4-0.3c-0.4,0-0.4,0-0.4,0.4
			C16.4,15.8,16.4,15.8,16.8,15.8z"/>
		<path class="st0" d="M11.4,14.3c0.4,0,0.4,0,0.4-0.4c0-0.3,0-0.3-0.4-0.3c-0.4,0-0.4,0-0.4,0.3c0,0,0,0,0,0
			C11,14.3,11,14.3,11.4,14.3z"/>
		<path class="st0" d="M13.5,13.6c-0.2,0-0.4,0-0.5,0c-0.1,0-0.1,0-0.1,0.1c0,0.1,0,0.2,0,0.3c0,0.3,0,0.3,0.4,0.3
			c0.4,0,0.4,0,0.4-0.4c0-0.1,0-0.1,0-0.2C13.6,13.6,13.6,13.6,13.5,13.6z"/>
		<path class="st0" d="M14.6,13.9c0,0.3,0,0.3,0.4,0.3c0.4,0,0.4,0,0.4-0.4c0,0,0,0,0,0c0-0.3,0-0.3-0.4-0.3
			C14.6,13.6,14.6,13.6,14.6,13.9z"/>
		<path class="st0" d="M11.4,15.8c0.4,0,0.4,0,0.4-0.4c0-0.3,0-0.3-0.4-0.3c-0.4,0-0.4,0-0.4,0.3c0,0,0,0,0,0
			C11,15.8,11,15.8,11.4,15.8z"/>
		<path class="st0" d="M13.6,15.4c0-0.3,0-0.3-0.4-0.3c-0.4,0-0.4,0-0.4,0.3c0,0.4,0,0.4,0.4,0.4c0.1,0,0.2,0,0.2,0
			c0.1,0,0.2,0,0.2-0.1C13.6,15.5,13.6,15.5,13.6,15.4z"/>
		<path class="st0" d="M18.6,15.1c-0.4,0-0.4,0-0.4,0.4c0,0.3,0,0.3,0.4,0.3c0.4,0,0.4,0,0.4-0.3C19,15.1,19,15.1,18.6,15.1z"/>
		<path class="st0" d="M11.4,16.6c-0.4,0-0.4,0-0.4,0.3c0,0.3,0,0.3,0.4,0.3c0.4,0,0.4,0,0.4-0.3C11.8,16.6,11.8,16.6,11.4,16.6z"/>
		<path class="st0" d="M13.2,16.6c-0.4,0-0.4,0-0.4,0.3c0,0.3,0,0.3,0.4,0.3c0.4,0,0.4,0,0.4-0.3C13.6,16.6,13.6,16.6,13.2,16.6z"/>
		<path class="st0" d="M15,16.6c-0.4,0-0.4,0-0.4,0.4c0,0.3,0,0.3,0.4,0.3c0.4,0,0.4,0,0.4-0.4C15.4,16.6,15.4,16.6,15,16.6z"/>
		<path class="st0" d="M16.8,16.6c-0.4,0-0.4,0-0.4,0.3c0,0.3,0,0.3,0.4,0.3c0.4,0,0.4,0,0.4-0.3C17.2,16.6,17.2,16.6,16.8,16.6z"/>
		<path class="st0" d="M18.6,16.6c-0.4,0-0.4,0-0.4,0.3c0,0.4,0,0.4,0.4,0.4c0.4,0,0.4,0,0.4-0.3C19,16.6,19,16.6,18.6,16.6z"/>
		<path class="st0" d="M18.6,12.8c0.4,0,0.4,0,0.4-0.4c0-0.3,0-0.3-0.4-0.3c-0.4,0-0.4,0-0.4,0.3C18.2,12.8,18.2,12.8,18.6,12.8z"/>
		<path class="st0" d="M16.8,12.1c-0.4,0-0.4,0-0.4,0.4c0,0.3,0,0.3,0.4,0.3c0.4,0,0.4,0,0.4-0.4C17.2,12.1,17.2,12.1,16.8,12.1z"/>
		<path class="st0" d="M15,12.1c-0.4,0-0.4,0-0.4,0.3c0,0.4,0,0.4,0.4,0.4c0.4,0,0.4,0,0.4-0.3C15.4,12.1,15.4,12.1,15,12.1z"/>
		<path class="st0" d="M13.2,12.8c0.4,0,0.4,0,0.4-0.4c0-0.3,0-0.3-0.4-0.3c-0.4,0-0.4,0-0.4,0.3c0,0,0,0,0,0
			C12.8,12.8,12.7,12.8,13.2,12.8z"/>
		<path class="st0" d="M11.4,12.8c0.4,0,0.4,0,0.4-0.3c0-0.4,0-0.4-0.4-0.4c-0.4,0-0.4,0-0.4,0.3C11,12.8,11,12.8,11.4,12.8z"/>
		<path class="st0" d="M13.2,11.3c0.4,0,0.4,0,0.4-0.3c0-0.3,0-0.3-0.4-0.3c-0.4,0-0.4,0-0.4,0.3C12.8,11.3,12.8,11.3,13.2,11.3z"/>
		<path class="st0" d="M17.2,10.9c0-0.3,0-0.3-0.4-0.3c-0.4,0-0.4,0-0.4,0.4c0,0.3,0,0.3,0.4,0.3C17.2,11.3,17.2,11.3,17.2,10.9z"/>
		<path class="st0" d="M15,10.6c-0.4,0-0.4,0-0.4,0.3c0,0.3,0,0.3,0.4,0.3c0.4,0,0.4,0,0.4-0.3C15.4,10.6,15.4,10.6,15,10.6z"/>
		<path class="st0" d="M6.5,16.1c0,0.9,0,1.9,0,2.8c0,0.1,0,0.2,0.2,0.2c0.1,0,0.3,0,0.4,0c0.2,0,0.2,0,0.2-0.2c0-1.8,0-3.7,0-5.5
			c0,0,0-0.1,0-0.1c0-0.1,0-0.1-0.1-0.1c-0.2,0-0.3,0-0.5,0c-0.2,0-0.2,0-0.2,0.2C6.5,14.3,6.5,15.2,6.5,16.1z"/>
		<path class="st0" d="M4.1,19.1c0.1,0,0.3,0,0.4,0c0.2,0,0.2,0,0.2-0.2c0-0.9,0-1.8,0-2.8c0-0.3,0-0.5,0-0.8c0-0.7,0-1.3,0-2
			c0-0.1,0-0.2-0.2-0.2c-0.1,0-0.3,0-0.4,0c-0.2,0-0.2,0-0.2,0.2c0,1.6,0,3.3,0,4.9c0,0.2,0,0.4,0,0.6C3.8,19.1,3.9,19.1,4.1,19.1z"
			/>
		<path class="st0" d="M22.8,19.1c0.1,0,0.3,0,0.4,0c0.2,0,0.2,0,0.2-0.2c0-1.5,0-3,0-4.5c0-0.4,0-0.7,0-1.1c0-0.1,0-0.2-0.2-0.2
			c-0.1,0-0.3,0-0.4,0c-0.2,0-0.2,0-0.2,0.2c0,0.9,0,1.8,0,2.8c0,0.9,0,1.9,0,2.8C22.6,19.1,22.7,19.1,22.8,19.1z"/>
		<path class="st0" d="M25.3,16.1c0,0.9,0,1.9,0,2.8c0,0.1,0.1,0.2,0.2,0.2c0.1,0,0.2,0,0.4,0c0.3,0,0.3,0,0.3-0.2
			c0-1.8,0-3.6,0-5.5c0,0,0,0,0-0.1c0-0.1,0-0.2-0.2-0.1c-0.2,0-0.3,0-0.5,0c-0.2,0-0.2,0-0.2,0.2C25.3,14.3,25.3,15.2,25.3,16.1z"
			/>
	</g>
</g>
</svg>
