<?xml version="1.0" encoding="utf-8"?>
<!-- Generator: Adobe Illustrator 25.0.0, SVG Export Plug-In . SVG Version: 6.00 Build 0)  -->
<svg version="1.0" xmlns="http://www.w3.org/2000/svg" xmlns:xlink="http://www.w3.org/1999/xlink" x="0px" y="0px"
	 viewBox="0 0 30 30" style="enable-background:new 0 0 30 30;" xml:space="preserve">
<style type="text/css">
	.st0{fill:#FFFFFF;}
	.st1{fill:none;stroke:#046489;stroke-miterlimit:10;}
	.st2{opacity:0.35;fill:#CCCCCC;}
	.st3{fill:#046489;}
	.st4{opacity:0.22;fill:#028202;}
	.st5{opacity:0.2;fill:#FF0000;}
	.st6{fill:#028202;}
	.st7{fill:#FF0000;}
	.st8{fill:none;stroke:#FFFFFF;stroke-miterlimit:10;}
	.st9{fill:#FF7B00;}
	.st10{fill:#231F20;}
	.st11{fill:#DBDCDD;}
	.st12{fill:#24B700;}
	.st13{opacity:0.22;fill:#FFFFFF;}
	.st14{fill:none;stroke:#FFFFFF;stroke-width:0.5;stroke-miterlimit:10;}
	.st15{fill:#8C1622;}
	.st16{fill:#8D1622;}
	.st17{fill:url(#SVGID_1_);}
	.st18{fill:url(#SVGID_2_);}
	.st19{fill:#FF4751;}
	.st20{fill:url(#SVGID_3_);}
	.st21{fill:url(#SVGID_4_);}
	.st22{fill:#FD4233;}
	.st23{fill:#FF402F;}
	.st24{fill:#007732;}
	.st25{fill:#FF5A29;}
</style>
<g id="Layer_1">
</g>
<g id="Layer_2">
</g>
<g id="Layer_3">
	<g id="Exel">
		<g>
			<g>
				<path class="st24" d="M18.8,22.5h-1.9l-1.9-3.1l-1.9,3.1h-1.8l2.7-4.2l-2.5-3.9h1.9l1.7,2.9l1.7-2.9h1.8l-2.5,4L18.8,22.5z"/>
			</g>
			<g>
				<path class="st24" d="M24.4,29.6H5.6c-1.3,0-2.3-1.1-2.3-2.3V2.8c0-1.3,1.1-2.3,2.3-2.3h9.6c0.6,0,1.2,0.2,1.7,0.7l9.2,9.2
					c0.4,0.4,0.7,1,0.7,1.7v15.2C26.7,28.5,25.7,29.6,24.4,29.6z M5.6,1.4C4.8,1.4,4.2,2,4.2,2.8v24.4c0,0.8,0.6,1.4,1.4,1.4h18.8
					c0.8,0,1.4-0.6,1.4-1.4V12c0-0.4-0.1-0.7-0.4-1l-9.2-9.2c-0.3-0.3-0.6-0.4-1-0.4H5.6z"/>
			</g>
		</g>
	</g>
</g>
</svg>
