<?xml version="1.0" encoding="utf-8"?>
<!-- Generator: Adobe Illustrator 25.0.0, SVG Export Plug-In . SVG Version: 6.00 Build 0)  -->
<svg version="1.0" xmlns="http://www.w3.org/2000/svg" xmlns:xlink="http://www.w3.org/1999/xlink" x="0px" y="0px"
	 viewBox="0 0 30 30" style="enable-background:new 0 0 30 30;" xml:space="preserve">
<style type="text/css">
	.st0{fill:#FFFFFF;}
	.st1{fill:none;stroke:#046489;stroke-miterlimit:10;}
	.st2{opacity:0.35;fill:#CCCCCC;}
	.st3{fill:#046489;}
	.st4{opacity:0.22;fill:#028202;}
	.st5{opacity:0.2;fill:#FF0000;}
	.st6{fill:#028202;}
	.st7{fill:#FF0000;}
	.st8{fill:none;stroke:#FFFFFF;stroke-miterlimit:10;}
	.st9{fill:#FF7B00;}
	.st10{fill:#231F20;}
	.st11{fill:#DBDCDD;}
	.st12{fill:#24B700;}
	.st13{opacity:0.22;fill:#FFFFFF;}
	.st14{fill:none;stroke:#FFFFFF;stroke-width:0.5;stroke-miterlimit:10;}
	.st15{fill:#8C1622;}
	.st16{fill:#8D1622;}
	.st17{fill:url(#SVGID_1_);}
	.st18{fill:url(#SVGID_2_);}
	.st19{fill:#FF4751;}
	.st20{fill:url(#SVGID_3_);}
	.st21{fill:url(#SVGID_4_);}
	.st22{fill:#FD4233;}
	.st23{fill:#FF402F;}
	.st24{fill:#007732;}
	.st25{fill:#FF5A29;}
</style>
<g id="Layer_1">
</g>
<g id="Layer_2">
</g>
<g id="Layer_3">
	<g>
		<g>
			<path class="st0" d="M17.5,17.3c1.2-0.8,2.1-2.2,2.1-3.8c0-2.5-2.1-4.6-4.6-4.6c-2.5,0-4.6,2.1-4.6,4.6c0,1.6,0.8,3,2.1,3.8
				c-2.8,1-4.8,3.7-4.8,6.9h1.2c0-3.4,2.7-6.1,6.1-6.1c3.4,0,6.1,2.7,6.1,6.1h1.2C22.3,21,20.3,18.3,17.5,17.3z M11.6,13.5
				c0-1.9,1.5-3.4,3.4-3.4c1.9,0,3.4,1.5,3.4,3.4s-1.5,3.4-3.4,3.4C13.1,16.8,11.6,15.3,11.6,13.5z"/>
			<path class="st0" d="M23.6,14.2c1.2-0.8,2.1-2.2,2.1-3.8c0-2.5-2.1-4.6-4.6-4.6c-1.2,0-2.3,0.5-3.2,1.3c-0.3,0.3-0.6,0.6-0.8,1
				c0.4,0.2,0.7,0.3,1.1,0.6c0.2-0.4,0.5-0.7,0.8-0.9c0.6-0.4,1.3-0.7,2-0.7c1.9,0,3.4,1.5,3.4,3.4c0,1.5-1,2.8-2.4,3.2
				c-0.3,0.1-0.6,0.1-0.9,0.1c-0.1,0-0.2,0-0.3,0c0,0.4-0.1,0.9-0.2,1.3c0.2,0,0.3,0,0.5,0c0.2,0,0.5,0,0.7,0c3,0.4,5.4,2.9,5.4,6.1
				h1.2C28.4,18,26.4,15.3,23.6,14.2z"/>
			<path class="st0" d="M8.9,15c0.2,0,0.4,0,0.5,0c-0.1-0.4-0.2-0.8-0.2-1.3c-0.1,0-0.2,0-0.3,0c-0.3,0-0.6,0-0.9-0.1
				c-1.4-0.4-2.4-1.7-2.4-3.2c0-1.9,1.5-3.4,3.4-3.4c0.8,0,1.5,0.3,2,0.7c0.3,0.3,0.6,0.6,0.8,0.9c0.3-0.2,0.7-0.4,1.1-0.6
				c-0.2-0.4-0.5-0.7-0.8-1c-0.8-0.8-1.9-1.3-3.2-1.3c-2.5,0-4.6,2.1-4.6,4.6c0,1.6,0.8,3,2.1,3.8c-2.8,1-4.8,3.7-4.8,6.9h1.2
				c0-3.1,2.3-5.7,5.4-6.1C8.4,15,8.7,15,8.9,15z"/>
		</g>
	</g>
</g>
</svg>
