<?xml version="1.0" encoding="utf-8"?>
<!-- Generator: Adobe Illustrator 16.0.0, SVG Export Plug-In . SVG Version: 6.00 Build 0)  -->
<!DOCTYPE svg PUBLIC "-//W3C//DTD SVG 1.1//EN" "http://www.w3.org/Graphics/SVG/1.1/DTD/svg11.dtd">
<svg version="1.1" id="Layer_1" xmlns="http://www.w3.org/2000/svg" xmlns:xlink="http://www.w3.org/1999/xlink" x="0px" y="0px"
	 width="452px" height="214px" viewBox="0 0 452 214" enable-background="new 0 0 452 214" xml:space="preserve">
<g>
	<path fill="#FFFFFF" d="M133.78,112.59H29.019c-4.448,0-8.054,3.605-8.054,8.053v68.944c0,4.447,3.605,8.054,8.054,8.054H133.78
		c4.447,0,8.054-3.604,8.054-8.054v-68.944C141.833,116.195,138.227,112.59,133.78,112.59L133.78,112.59z"/>
	<path fill="#FFFFFF" d="M423.412,17.102H310.391c-4.162,0-7.537,3.375-7.537,7.537v67.526c0,4.163,3.375,7.537,7.537,7.537h113.021
		c4.163,0,7.537-3.374,7.537-7.537V24.639C430.949,20.477,427.575,17.102,423.412,17.102L423.412,17.102z"/>
	<g>
		<g>
			<path fill="#0077A6" d="M423.095,112.59h-112.47c-4.449,0-8.055,3.605-8.055,8.053v68.944c0,4.447,3.604,8.054,8.055,8.054
				h112.47c4.447,0,8.057-3.604,8.057-8.054v-68.944C431.148,116.195,427.542,112.59,423.095,112.59L423.095,112.59z"/>
		</g>
	</g>
	<g>
		<path fill="#FFFFFF" d="M285.777,190.01c0,4.018-3.237,7.242-7.241,7.242H170.242c-4.005,0-7.242-3.225-7.242-7.242v-70.166
			c0-4.017,3.237-7.254,7.242-7.254h108.259c4.017,0,7.254,3.237,7.254,7.254v70.166H285.777z"/>
		<path fill="#F79F1A" d="M190.241,155.441l-2.878-13.859c-0.479-1.895-1.906-2.446-3.716-2.555h-13.213l-0.12,0.66
			C180.601,142.157,187.411,148.176,190.241,155.441z"/>
		<g>
			<polygon fill="#059BBF" points="220.876,139.314 212.351,139.314 206.992,170.609 215.54,170.609 			"/>
			<path fill="#059BBF" d="M195.444,170.563l13.43-31.246h-9.028l-8.358,21.347l-0.899-3.238
				c-1.642-3.872-6.319-9.442-11.798-12.973l7.637,26.104L195.444,170.563L195.444,170.563z"/>
			<path fill="#059BBF" d="M245.24,160.369c0.035-3.549-2.266-6.281-7.182-8.488c-2.979-1.475-4.82-2.41-4.8-3.885
				c0-1.295,1.562-2.697,4.884-2.697c2.793-0.023,4.832,0.587,6.391,1.211l0.768,0.348l1.174-6.811
				c-1.678-0.636-4.34-1.271-7.637-1.271c-8.453,0-14.365,4.233-14.424,10.324c-0.061,4.496,4.244,7.019,7.457,8.488
				c3.322,1.535,4.436,2.494,4.4,3.874c-0.023,2.122-2.65,3.058-5.101,3.058c-3.43,0-5.252-0.479-8.033-1.65l-1.08-0.479
				l-1.21,7.018c2.015,0.852,5.661,1.617,9.503,1.654C239.354,171.09,245.18,166.869,245.24,160.369z"/>
			<path fill="#059BBF" d="M255.371,165.909c0.958,0,9.663,0,10.936,0c0.264,1.104,1.03,4.7,1.03,4.7h7.938l-6.936-31.295h-6.604
				c-2.037,0-3.563,0.553-4.446,2.59l-12.687,28.705h8.967C253.583,170.633,255.034,166.773,255.371,165.909z M261.223,150.768
				c-0.021,0.1,0.719-1.813,1.127-2.975l0.604,2.686c0,0,1.604,7.459,1.967,9.021h-7.102
				C258.536,157.732,261.223,150.768,261.223,150.768z"/>
			<path fill="#059BBF" d="M278.536,112.59H170.242c-4.005,0-7.242,3.237-7.242,7.254v7.53h122.779v-7.53
				C285.777,115.827,282.54,112.59,278.536,112.59z"/>
		</g>
		<path fill="#F79F1A" d="M278.536,197.252H170.242c-4.005,0-7.242-3.225-7.242-7.242v-7.529h122.779v7.529
			C285.777,194.027,282.54,197.252,278.536,197.252z"/>
	</g>
	<g>
		<path fill="#0099DF" d="M285.393,93.031c0,3.998-3.225,7.221-7.223,7.221H170.275c-3.998,0-7.221-3.223-7.221-7.221v-69.92
			c0-3.998,3.224-7.221,7.221-7.221h107.864c3.995,0,7.221,3.223,7.221,7.221L285.393,93.031L285.393,93.031z"/>
		<g>
			<path fill="#EA001B" d="M212.827,58.087c0-9.638,4.448-18.246,11.379-23.887c-5.287-4.288-12.024-6.867-19.342-6.867
				c-16.988,0-30.753,13.765-30.753,30.753c0,16.989,13.765,30.754,30.753,30.754c7.317,0,14.055-2.579,19.342-6.866
				C217.275,76.333,212.827,67.726,212.827,58.087z"/>
			<path fill="#F79F1A" d="M243.581,27.334c-7.317,0-14.056,2.579-19.342,6.867c6.963,5.641,11.411,14.249,11.411,23.887
				c0,9.639-4.445,18.247-11.411,23.888c5.286,4.288,12.024,6.866,19.342,6.866c16.989,0,30.753-13.765,30.753-30.754
				C274.303,41.099,260.537,27.334,243.581,27.334z"/>
			<path fill="#FF5F01" d="M235.618,58.087c0-9.638-4.449-18.246-11.412-23.887c-6.963,5.641-11.379,14.249-11.379,23.887
				c0,9.639,4.448,18.247,11.379,23.888C231.169,76.333,235.618,67.726,235.618,58.087z"/>
			<g>
				<g>
					<path fill="#FFFFFF" d="M199.771,52.575c-1.966,0-3.449,0.613-3.449,0.613l-0.419,2.45c0,0,1.225-0.516,3.095-0.516
						c1.064,0,1.837,0.128,1.837,0.967c0,0.516-0.097,0.709-0.097,0.709s-0.838-0.065-1.225-0.065c-2.45,0-5.061,1.064-5.061,4.224
						c0,2.514,1.708,3.062,2.74,3.062c1.999,0,2.87-1.289,2.934-1.321l-0.097,1.097h2.514l1.128-7.833
						C203.704,52.672,200.803,52.575,199.771,52.575z M198.385,61.666c-0.871,0-1.128-0.677-1.128-1.064
						c0-0.773,0.419-1.708,2.514-1.708c0.484,0,0.548,0.064,0.613,0.064C200.449,59.441,200.094,61.666,198.385,61.666z"/>
				</g>
			</g>
			<g>
				<g>
					<path fill="#FFFFFF" d="M208.83,55.186c0.387,0,1.935,0.129,1.935,0.129l0.354-2.514c0,0-1-0.226-2.644-0.226
						c-2.095,0-4.255,0.838-4.255,3.708c0,3.256,3.578,2.934,3.578,4.319c0,0.903-1,1-1.773,1c-1.322,0-2.515-0.452-2.547-0.452
						l-0.387,2.483c0.064,0.032,0.806,0.354,3.191,0.354c0.645,0,4.32,0.162,4.32-3.61c0-3.546-3.385-2.838-3.385-4.256
						C207.282,55.412,207.83,55.186,208.83,55.186z"/>
				</g>
			</g>
			<g>
				<g>
					<path fill="#FFFFFF" d="M214.826,55.508h1.515l0.355-2.675h-1.418l0.29-1.677h-2.837c-0.064,0.063-1.676,9.38-1.676,10.509
						c0,1.675,0.935,2.418,2.257,2.418c1.031,0,1.837-0.291,2.127-0.387l0.355-2.418c-0.193,0-0.484,0.096-0.742,0.096
						c-1,0-1.096-0.517-1.031-0.934L214.826,55.508z"/>
				</g>
			</g>
			<g>
				<g>
					<polygon fill="#FFFFFF" points="191.003,50.286 188.199,58.604 188.038,50.286 183.879,50.286 181.59,63.857 184.362,63.857 
						186.071,53.639 186.329,63.857 188.295,63.857 191.97,53.639 190.326,63.857 193.259,63.857 195.516,50.286 					"/>
				</g>
			</g>
			<g>
				<g>
					<path fill="#FFFFFF" d="M245.966,52.575c-1.966,0-3.448,0.613-3.448,0.613l-0.42,2.45c0,0,1.229-0.516,3.096-0.516
						c1.063,0,1.836,0.128,1.836,0.967c0,0.516-0.096,0.709-0.096,0.709s-0.838-0.065-1.226-0.065c-2.45,0-5.062,1.064-5.062,4.224
						c0,2.514,1.709,3.062,2.742,3.062c1.993,0,2.864-1.289,2.932-1.321l-0.096,1.097h2.516l1.129-7.833
						C249.898,52.672,246.998,52.575,245.966,52.575z M244.58,61.666c-0.87,0-1.128-0.677-1.128-1.064
						c0-0.773,0.419-1.708,2.514-1.708c0.483,0,0.548,0.064,0.613,0.064C246.643,59.441,246.289,61.666,244.58,61.666z"/>
				</g>
			</g>
			<g>
				<g>
					<path fill="#FFFFFF" d="M266.533,62.601c-0.064-0.129-0.193-0.258-0.322-0.322s-0.291-0.097-0.419-0.097
						s-0.29,0.032-0.418,0.097s-0.259,0.193-0.322,0.322c-0.063,0.127-0.128,0.29-0.128,0.418c0,0.129,0.031,0.29,0.128,0.419
						c0.063,0.128,0.194,0.258,0.322,0.323c0.128,0.063,0.29,0.127,0.418,0.127c0.161,0,0.29-0.033,0.419-0.127
						c0.129-0.065,0.258-0.195,0.322-0.323c0.064-0.129,0.129-0.29,0.129-0.419C266.662,62.891,266.63,62.762,266.533,62.601z
						 M266.438,63.406c-0.063,0.129-0.162,0.193-0.26,0.258c-0.128,0.064-0.225,0.097-0.354,0.097s-0.258-0.033-0.355-0.097
						c-0.127-0.064-0.193-0.161-0.258-0.258c-0.064-0.128-0.096-0.226-0.096-0.354c0-0.128,0.031-0.258,0.096-0.354
						c0.064-0.129,0.162-0.194,0.258-0.258c0.131-0.064,0.229-0.096,0.355-0.096c0.129,0,0.226,0.032,0.354,0.096
						c0.129,0.064,0.194,0.162,0.26,0.258c0.063,0.129,0.101,0.226,0.101,0.354C266.533,63.181,266.501,63.278,266.438,63.406z"/>
				</g>
			</g>
			<g>
				<g>
					<path fill="#FFFFFF" d="M266.082,63.342c-0.064-0.097-0.098-0.161-0.129-0.193c-0.033-0.033-0.033-0.033-0.064-0.033
						c0.064,0,0.129-0.032,0.193-0.097c0.031-0.033,0.064-0.096,0.064-0.161c0-0.032,0-0.097-0.033-0.129
						c-0.031-0.032-0.063-0.064-0.127-0.097c-0.032-0.032-0.129-0.032-0.229-0.032h-0.319v0.935h0.162V63.15h0.096
						c0.063,0,0.099,0,0.131,0.032c0.029,0.032,0.096,0.096,0.158,0.226l0.063,0.162h0.162L266.082,63.342z M265.76,62.987h-0.195
						v-0.29h0.162c0.064,0,0.127,0,0.162,0c0.032,0,0.031,0.032,0.063,0.063c0.032,0.032,0.032,0.032,0.032,0.064
						c0,0.032-0.032,0.064-0.032,0.096C265.889,62.987,265.855,62.987,265.76,62.987z"/>
				</g>
			</g>
			<g>
				<g>
					<path fill="#FFFFFF" d="M255.67,52.704c-1.289,0-2.225,1.741-2.225,1.741l0.258-1.612h-2.645l-1.772,11.057h2.935
						c0.838-4.707,0.998-8.542,2.965-7.833c0.354-1.837,0.676-2.547,1.063-3.288C256.218,52.736,256.023,52.704,255.67,52.704z"/>
				</g>
			</g>
			<g>
				<g>
					<path fill="#FFFFFF" d="M263.02,50.318l-0.607,3.804c0,0-1.063-1.483-2.74-1.483c-2.607,0-4.805,3.159-4.805,6.77
						c0,2.321,1.158,4.61,3.548,4.61c1.708,0,2.646-1.193,2.646-1.193l-0.133,1.031h2.772l2.188-13.54L263.02,50.318L263.02,50.318z
						 M259.409,61.247c-1.032,0-1.517-0.87-1.517-2.224c0-2.225,1-3.675,2.258-3.675c1.029,0,1.547,0.709,1.547,2.354
						C261.697,59.248,260.924,61.247,259.409,61.247z"/>
				</g>
			</g>
			<g>
				<g>
					<path fill="#FFFFFF" d="M225.044,59.28c0,0,0.387-1.837,0.387-2.611c0-1.87-0.935-4.159-4.062-4.159
						c-2.869,0-4.997,3.095-4.997,6.576c0,4.029,2.643,4.997,4.932,4.997c2.096,0,2.998-0.484,2.998-0.484l0.516-2.741
						c0,0-1.58,0.709-3.03,0.709c-3.063,0-2.515-2.289-2.515-2.289L225.044,59.28L225.044,59.28z M221.37,55.058
						c1.612,0,1.322,1.805,1.322,1.966h-3.159C219.5,56.831,219.79,55.058,221.37,55.058z"/>
				</g>
			</g>
			<g>
				<g>
					<path fill="#FFFFFF" d="M238.391,52.897c1.451,0,2.611,0.806,2.611,0.806l0.45-3.031c0,0-1.742-0.709-3.224-0.709
						c-3.287,0-6.479,2.869-6.479,8.221c0,3.546,1.742,5.899,5.124,5.899c0.968,0,2.482-0.387,2.482-0.387l0.517-3.095
						c0,0-1.384,0.71-2.353,0.71c-2.031,0-2.838-1.548-2.838-3.192C234.715,54.735,236.456,52.897,238.391,52.897z"/>
				</g>
			</g>
			<g>
				<g>
					<path fill="#FFFFFF" d="M231.717,52.704c-1.29,0-2.224,1.741-2.224,1.741l0.258-1.612h-2.642l-1.774,11.057h2.935
						c0.838-4.707,0.998-8.542,2.965-7.833c0.354-1.837,0.682-2.547,1.063-3.32C232.266,52.736,232.104,52.704,231.717,52.704z"/>
				</g>
			</g>
		</g>
	</g>
	<g>
		<path fill="#92DBEF" d="M142.336,93.393c0,3.998-3.223,7.221-7.221,7.221H27.221c-3.998,0-7.221-3.223-7.221-7.221v-69.92
			c0-3.997,3.224-7.221,7.221-7.221h107.862c3.998,0,7.221,3.224,7.221,7.221v69.921L142.336,93.393L142.336,93.393z"/>
		<g>
			<path fill="#263B80" d="M99.43,32.402c-2.676-3.062-7.672-4.609-14.539-4.609H65.743c-1.161,0-2.289,1.161-2.675,2.289
				l-7.673,50.16c0,1.161,0.773,1.902,1.515,1.902h11.863l3.062-18.761v0.773c0.387-1.161,1.548-2.289,2.676-2.289h5.738
				c11.121,0,19.535-4.61,22.21-17.247v-1.128c-0.387,0-0.387,0,0,0C102.879,38.527,102.105,35.464,99.43,32.402"/>
			<path fill="#232C65" d="M102.493,44.652v-1.161c0-0.032,0-0.064,0-0.096c-0.677-0.484-1.322-0.806-1.806-1.032
				c-2.321-0.967-4.707-1.128-5.802-1.16l0,0h-5.577l0,0H77.605c-1.999,0.064-2.546,1.676-2.675,2.386l-3.063,19.825v0.484v0.29
				c0.386-1.161,1.547-2.289,2.675-2.289h5.738C91.403,61.898,99.816,57.288,102.493,44.652z"/>
			<path fill="#139AD6" d="M106.264,48.262c-0.87-2.386-2.385-3.9-3.739-4.868c0,0.032,0,0.064,0,0.097v1.161
				C99.85,57.288,91.436,61.898,80.314,61.898h-5.738c-1.16,0-2.289,1.16-2.675,2.289v-0.29c-0.033,0.096-0.097,0.193-0.129,0.29
				l-2.16,13.185l-0.774,4.802l0,0l-0.87,5.352c0,0.773,0.387,1.515,1.515,1.515h9.542c1.934,0,2.514-1.483,2.708-2.288l0.097-0.516
				l0,0l1.837-11.379c0,0,0.226-2.677,2.869-2.677h0.967c9.575,0,17.247-3.835,19.148-15.312
				C107.134,53.71,107.103,50.68,106.264,48.262z"/>
		</g>
	</g>
	<g>
		<g>
			<path fill="#00B5E5" d="M133.78,113.927c3.703,0,6.716,3.013,6.716,6.716v68.944c0,3.704-3.013,6.718-6.716,6.718H29.019
				c-3.704,0-6.717-3.014-6.717-6.718v-68.944c0-3.703,3.013-6.716,6.717-6.716H133.78 M133.78,112.59H29.019
				c-4.448,0-8.054,3.605-8.054,8.053v68.944c0,4.447,3.605,8.054,8.054,8.054H133.78c4.447,0,8.054-3.604,8.054-8.054v-68.944
				C141.833,116.195,138.227,112.59,133.78,112.59L133.78,112.59z"/>
		</g>
	</g>
	<g>
		<g>
			<path fill="#00B5E5" d="M133.78,113.927c3.703,0,6.716,3.013,6.716,6.716v68.944c0,3.704-3.013,6.718-6.716,6.718H29.019
				c-3.704,0-6.717-3.014-6.717-6.718v-68.944c0-3.703,3.013-6.716,6.717-6.716H133.78 M133.78,112.59H29.019
				c-4.448,0-8.054,3.605-8.054,8.053v68.944c0,4.447,3.605,8.054,8.054,8.054H133.78c4.447,0,8.054-3.604,8.054-8.054v-68.944
				C141.833,116.195,138.227,112.59,133.78,112.59L133.78,112.59z"/>
		</g>
	</g>
	<g>
		<g>
			<path fill="#00AFD8" d="M34.894,173.255v-10.358h-3.04v-3.207h9.776v3.207h-3.039v10.358H34.894L34.894,173.255z"/>
			<path fill="#00AFD8" d="M43.438,173.255v-13.565h3.864c1.514,0,2.569,0.068,3.165,0.209c0.596,0.141,1.11,0.373,1.542,0.699
				c0.488,0.369,0.864,0.844,1.126,1.418c0.262,0.572,0.394,1.207,0.394,1.899c0,1.05-0.258,1.903-0.774,2.562
				c-0.516,0.659-1.269,1.098-2.256,1.313l3.697,5.467h-4.18l-3.113-5.312v5.312L43.438,173.255L43.438,173.255z M46.904,166.102
				h0.686c0.797,0,1.379-0.136,1.747-0.406c0.368-0.27,0.551-0.696,0.551-1.277c0-0.684-0.171-1.163-0.514-1.451
				c-0.343-0.283-0.919-0.431-1.729-0.431h-0.741V166.102z"/>
			<path fill="#00AFD8" d="M54.011,173.255l4.681-13.565h4.633l4.689,13.565h-3.679l-0.686-2.427h-5.254l-0.705,2.427H54.011z
				 M59.192,168.188h3.679l-1.38-4.477c-0.043-0.137-0.102-0.355-0.177-0.658c-0.074-0.303-0.17-0.691-0.287-1.167
				c-0.08,0.333-0.159,0.651-0.236,0.954c-0.077,0.305-0.156,0.594-0.237,0.871L59.192,168.188z"/>
			<path fill="#00AFD8" d="M69.311,173.255v-13.565h3.567l5.125,6.979c0.098,0.144,0.261,0.429,0.486,0.856
				c0.226,0.43,0.474,0.938,0.746,1.533c-0.074-0.563-0.128-1.063-0.162-1.502c-0.035-0.438-0.052-0.828-0.052-1.168v-6.699h3.549
				v13.564h-3.549l-5.124-7.004c-0.106-0.145-0.272-0.429-0.497-0.857c-0.226-0.431-0.471-0.935-0.737-1.517
				c0.074,0.567,0.128,1.073,0.163,1.513c0.033,0.438,0.05,0.826,0.05,1.168v6.697L69.311,173.255L69.311,173.255z"/>
			<path fill="#00AFD8" d="M86.084,168.872c0.551,0.624,1.093,1.092,1.627,1.399c0.535,0.31,1.067,0.463,1.599,0.463
				c0.494,0,0.9-0.131,1.219-0.397c0.317-0.267,0.477-0.603,0.477-1.01c0-0.451-0.138-0.8-0.413-1.043
				c-0.275-0.244-0.898-0.496-1.868-0.755c-1.328-0.359-2.268-0.825-2.817-1.4c-0.55-0.572-0.825-1.361-0.825-2.363
				c0-1.296,0.434-2.354,1.302-3.174c0.868-0.818,1.994-1.228,3.378-1.228c0.747,0,1.457,0.1,2.126,0.301
				c0.671,0.201,1.305,0.506,1.905,0.913l-1.158,2.66c-0.42-0.358-0.852-0.629-1.293-0.813c-0.442-0.183-0.879-0.272-1.312-0.272
				c-0.444,0-0.806,0.105-1.084,0.32c-0.278,0.215-0.417,0.484-0.417,0.817c0,0.34,0.123,0.61,0.367,0.813
				c0.243,0.205,0.715,0.397,1.413,0.584l0.167,0.047c1.507,0.406,2.499,0.854,2.975,1.346c0.32,0.333,0.565,0.73,0.732,1.199
				c0.167,0.468,0.25,0.982,0.25,1.554c0,1.438-0.472,2.599-1.418,3.471c-0.945,0.873-2.206,1.313-3.78,1.313
				c-0.946,0-1.807-0.161-2.582-0.482c-0.775-0.32-1.521-0.824-2.238-1.51L86.084,168.872z"/>
			<path fill="#00AFD8" d="M96.509,173.255v-13.565h8.313v2.977h-4.707v2.354h4.438v2.908h-4.438v5.328L96.509,173.255
				L96.509,173.255z"/>
			<path fill="#00AFD8" d="M106.833,173.255v-13.565h8.313v2.977h-4.708v2.354h4.439v2.908h-4.439v2.289h4.708v3.039
				L106.833,173.255L106.833,173.255z"/>
			<path fill="#00AFD8" d="M117.591,173.255v-13.565h3.865c1.513,0,2.568,0.068,3.165,0.209c0.596,0.141,1.111,0.373,1.542,0.699
				c0.489,0.369,0.864,0.844,1.127,1.418c0.263,0.572,0.393,1.207,0.393,1.899c0,1.05-0.257,1.903-0.772,2.562
				c-0.518,0.658-1.269,1.098-2.257,1.313l3.698,5.467h-4.18l-3.114-5.312v5.312L117.591,173.255L117.591,173.255z M121.059,166.102
				h0.686c0.797,0,1.379-0.136,1.746-0.406c0.367-0.271,0.551-0.696,0.551-1.277c0-0.684-0.171-1.163-0.515-1.451
				c-0.342-0.283-0.918-0.431-1.728-0.431h-0.74V166.102L121.059,166.102z"/>
		</g>
		<g>
			<path fill="#006E90" d="M74.26,137.633l2.463,9.316c0.117,0.419,0.224,0.857,0.322,1.312c0.097,0.455,0.2,0.979,0.307,1.566
				c0.135-0.696,0.249-1.271,0.342-1.72c0.093-0.453,0.185-0.838,0.274-1.158l2.302-9.316h5.395l-5.542,19.598H75.17l-2.423-8.364
				c-0.088-0.298-0.235-0.87-0.442-1.729c-0.088-0.384-0.16-0.683-0.214-0.896c-0.044,0.186-0.107,0.45-0.187,0.788
				c-0.206,0.865-0.362,1.479-0.469,1.835l-2.383,8.366h-4.965l-5.528-19.6h5.394l2.25,9.369c0.107,0.48,0.212,0.965,0.314,1.445
				c0.103,0.479,0.199,0.978,0.288,1.484c0.08-0.375,0.167-0.769,0.261-1.18c0.093-0.41,0.234-0.994,0.422-1.753l2.463-9.369
				L74.26,137.633L74.26,137.633z"/>
			<path fill="#006E90" d="M87.646,157.229v-19.597h5.395v19.597H87.646z"/>
			<path fill="#006E90" d="M97.35,157.229v-19.597h5.583c2.186,0,3.709,0.101,4.571,0.302c0.86,0.2,1.604,0.536,2.228,1.01
				c0.706,0.535,1.248,1.222,1.627,2.051s0.569,1.742,0.569,2.742c0,1.52-0.373,2.75-1.118,3.701
				c-0.746,0.949-1.833,1.582-3.26,1.896l5.341,7.896h-6.036l-4.499-7.67v7.67H97.35V157.229z M102.356,146.896h0.991
				c1.151,0,1.992-0.196,2.524-0.59c0.53-0.395,0.795-1.01,0.795-1.849c0-0.979-0.247-1.683-0.743-2.097
				c-0.495-0.414-1.328-0.621-2.497-0.621h-1.071L102.356,146.896L102.356,146.896z"/>
			<path fill="#006E90" d="M114.925,157.229v-19.597h12.007v4.298h-6.8v3.398h6.412v4.204h-6.412v3.306h6.8v4.391H114.925z"/>
		</g>
		
			<linearGradient id="SVGID_1_" gradientUnits="userSpaceOnUse" x1="-133.9839" y1="1183.4297" x2="-109.5352" y2="1183.4297" gradientTransform="matrix(1 0 0 1 166 -1044)">
			<stop  offset="0" style="stop-color:#41E700;stop-opacity:0"/>
			<stop  offset="0.7362" style="stop-color:#3ACD00"/>
			<stop  offset="0.7811" style="stop-color:#36BE00"/>
			<stop  offset="0.9265" style="stop-color:#299100"/>
			<stop  offset="1" style="stop-color:#248000"/>
		</linearGradient>
		<rect x="32.016" y="137.489" fill="url(#SVGID_1_)" width="24.449" height="3.881"/>
		
			<linearGradient id="SVGID_2_" gradientUnits="userSpaceOnUse" x1="-133.9839" y1="1190.9619" x2="-109.5352" y2="1190.9619" gradientTransform="matrix(1 0 0 1 166 -1044)">
			<stop  offset="0" style="stop-color:#41E700;stop-opacity:0"/>
			<stop  offset="0.7362" style="stop-color:#3ACD00"/>
			<stop  offset="0.7811" style="stop-color:#36BE00"/>
			<stop  offset="0.9265" style="stop-color:#299100"/>
			<stop  offset="1" style="stop-color:#248000"/>
		</linearGradient>
		<rect x="32.016" y="145.021" fill="url(#SVGID_2_)" width="24.449" height="3.881"/>
		
			<linearGradient id="SVGID_3_" gradientUnits="userSpaceOnUse" x1="-133.9839" y1="1199.1787" x2="-109.5352" y2="1199.1787" gradientTransform="matrix(1 0 0 1 166 -1044)">
			<stop  offset="0" style="stop-color:#41E700;stop-opacity:0"/>
			<stop  offset="0.7362" style="stop-color:#3ACD00"/>
			<stop  offset="0.7811" style="stop-color:#36BE00"/>
			<stop  offset="0.9265" style="stop-color:#299100"/>
			<stop  offset="1" style="stop-color:#248000"/>
		</linearGradient>
		<rect x="32.016" y="153.238" fill="url(#SVGID_3_)" width="24.449" height="3.881"/>
	</g>
	<g>
		<path fill="#FFFFFF" d="M381.998,175.031v-3.666c0-0.328,0-0.945-0.074-1.297c-0.148-0.021-0.412-0.037-0.865-0.037h-1.529v4.998
			h-7.33v-5.957c-1.152,0.811-2.828,1.354-5.251,1.354h-2.116v4.604h-9.268l-3.155-3.542l-3.313,3.542h-15.9v-17.72h16.125
			l3.156,3.541l3.313-3.541h11.354c2.086,0,3.799,0.48,5.058,1.377v-1.377h9.546c1.648,0,3.395,0.071,4.975,0.932
			c0.2,0.109,0.393,0.227,0.57,0.354v-1.283h14.977v1.207c1.058-0.746,2.472-1.211,4.271-1.211h8.564v1.248
			c1.06-0.764,2.476-1.246,4.271-1.246h8.566v6.939h-1.006c0.009,0.008,0.136,0.118,0.136,0.118l0.094,0.108
			c0.984,1.146,1.463,2.532,1.463,4.239c0,3.953-2.688,6.313-7.194,6.313h-8.367v-1.082c-1.164,0.701-2.674,1.076-4.471,1.076
			h-6.329v0.006l-13.032,0.002H381.998L381.998,175.031z M357.596,166.627v-0.82l-0.379,0.398L357.596,166.627z M339.072,151.412
			v-3.375l-1.504,3.375h-5.438l-1.51-3.385v3.385h-9.994l-1.271-3.039h-4.197l-1.271,3.039h-7.895l7.595-17.721h7.535l2.271,5.26
			v-5.26h8.568l2.971,6.412l2.77-6.412l30.027,0.002c1.797,0,3.351,0,4.875,0.83l0.117,0.068c0.195,0.124,0.381,0.254,0.555,0.389
			v-1.289h7.33v2.17c0.007-0.006,0.014-0.012,0.02-0.02c1.275-1.406,3.455-2.152,6.413-2.152h12.104l2.16,5.095v-5.095h8.225
			l2.651,4.365v-4.365h7.332l0.002,17.723h-7.837l-3.041-5.069v5.069h-9.993l-1.271-3.039h-4.199l-1.272,3.039h-5.15
			c-1.205,0-4.191-0.205-6.139-2.08v2.08h-12.727l0.004-4.094c0.004-0.229,0.008-0.603-0.02-0.862
			c-0.174-0.021-0.456-0.041-0.922-0.041h-1.527v4.999L339.072,151.412z M385.93,144.373c0.088,0.021,0.367,0.095,0.813,0.095h0.16
			l1.678-3.841h-1.541c-0.747,0-0.979,0.096-1.152,0.227c-0.063,0.104-0.277,0.547-0.277,1.692
			C385.605,143.646,385.805,144.158,385.93,144.373z"/>
		<path fill="#FFFFFF" d="M426.626,168.717c0,2.938-1.863,4.313-5.194,4.313h-6.369v-2.941h6.369c0.588,0,1.078-0.098,1.275-0.293
			c0.194-0.196,0.391-0.489,0.391-0.882s-0.193-0.784-0.391-0.979c-0.2-0.196-0.589-0.295-1.18-0.295
			c-3.037-0.099-6.859,0.099-6.859-4.216c0-1.96,1.273-4.114,4.705-4.114h6.566v2.938h-6.078c-0.588,0-0.979,0-1.271,0.194
			c-0.295,0.295-0.49,0.589-0.49,1.078c0,0.492,0.295,0.785,0.688,0.979c0.393,0.099,0.785,0.195,1.273,0.195h1.764
			c1.861,0,3.038,0.396,3.822,1.081C426.233,166.464,426.626,167.348,426.626,168.717z M412.808,165.777
			c-0.78-0.688-1.958-1.079-3.821-1.079h-1.764c-0.488,0-0.883-0.099-1.272-0.195c-0.395-0.198-0.688-0.489-0.688-0.979
			c0-0.489,0.1-0.783,0.49-1.08c0.294-0.194,0.687-0.194,1.272-0.194h6.073v-2.938h-6.563c-3.527,0-4.704,2.154-4.704,4.114
			c0,4.312,3.821,4.113,6.861,4.216c0.587,0,0.978,0.096,1.175,0.295c0.195,0.193,0.395,0.586,0.395,0.979s-0.197,0.686-0.395,0.882
			c-0.293,0.194-0.688,0.292-1.273,0.292h-6.37v2.938h6.37c3.332,0,5.194-1.373,5.194-4.312
			C413.787,167.348,413.396,166.464,412.808,165.777L412.808,165.777z M400.265,170.188h-7.739v-2.742h7.545V164.7h-7.545v-2.55
			h7.739v-2.84h-10.977v13.719h10.977V170.188L400.265,170.188z M385.762,159.998c-1.08-0.587-2.354-0.688-4.019-0.688h-7.546
			v13.719h3.33v-4.998h3.529c1.176,0,1.859,0.099,2.354,0.588c0.588,0.688,0.588,1.861,0.588,2.746v1.666h3.232v-2.646
			c0-1.273-0.098-1.863-0.488-2.549c-0.295-0.393-0.883-0.883-1.666-1.175c0.881-0.293,2.354-1.47,2.354-3.627
			C387.428,161.466,386.839,160.584,385.762,159.998z M367.141,159.311h-10.483l-4.216,4.508l-4.019-4.508h-13.229v13.721h13.033
			l4.215-4.51l4.02,4.51h6.37v-4.604h4.114c2.844,0,5.687-0.784,5.687-4.604C372.629,160.095,369.689,159.311,367.141,159.311
			L367.141,159.311z M383.115,164.995c-0.49,0.194-0.979,0.194-1.571,0.194l-4.019,0.099v-3.138h4.019c0.588,0,1.179,0,1.571,0.295
			c0.394,0.195,0.684,0.587,0.684,1.177C383.799,164.21,383.508,164.698,383.115,164.995z M367.141,165.682h-4.312v-3.529h4.312
			c1.178,0,1.961,0.49,1.961,1.666C369.102,164.995,368.316,165.682,367.141,165.682z M354.498,166.169l5.097-5.389v11.073
			L354.498,166.169z M346.563,170.188h-8.135v-2.742h7.252V164.7h-7.252v-2.55h8.232l3.625,4.021L346.563,170.188L346.563,170.188z
			 M417.512,149.412h-4.704l-6.174-10.29v10.29h-6.662l-1.271-3.039h-6.861l-1.271,3.039h-3.82c-1.568,0-3.625-0.393-4.799-1.568
			c-1.081-1.176-1.668-2.746-1.668-5.193c0-2.062,0.293-3.922,1.762-5.394c0.98-1.077,2.746-1.567,4.998-1.567h3.134v2.938h-3.134
			c-1.176,0-1.862,0.197-2.551,0.785c-0.588,0.588-0.881,1.666-0.881,3.134c0,1.471,0.291,2.551,0.881,3.236
			c0.49,0.49,1.375,0.686,2.254,0.686h1.471l4.704-10.777h4.902l5.482,12.938v-12.938h5.1l5.776,9.508v-9.508h3.332V149.412
			L417.512,149.412L417.512,149.412z M378.605,135.691h-3.33v13.721h3.33V135.691L378.605,135.691z M371.648,136.281
			c-1.08-0.588-2.254-0.588-3.92-0.588h-7.549v13.721h3.234v-4.999h3.527c1.177,0,1.961,0.099,2.449,0.587
			c0.586,0.688,0.486,1.864,0.486,2.646v1.764h3.332v-2.744c0-1.176-0.096-1.766-0.587-2.45c-0.294-0.395-0.884-0.883-1.569-1.176
			c0.883-0.394,2.354-1.471,2.354-3.627C373.414,137.85,372.727,136.967,371.648,136.281L371.648,136.281z M357.831,146.57h-7.644
			v-2.743h7.545v-2.845h-7.545v-2.448h7.644v-2.843h-10.976v13.721h10.976V146.57L357.831,146.57z M344.404,135.691h-5.389
			l-4.021,9.311l-4.313-9.311h-5.291v12.938l-5.586-12.938h-4.902l-5.881,13.721h3.529l1.271-3.039h6.859l1.271,3.039h6.663v-10.78
			l4.808,10.78h2.844l4.801-10.78v10.78h3.334v-13.721H344.404L344.404,135.691z M397.521,143.436l-2.256-5.391l-2.255,5.391
			H397.521z M369.102,141.277c-0.488,0.295-0.979,0.295-1.666,0.295h-4.02v-3.038h4.02c0.586,0,1.271,0,1.666,0.196
			c0.392,0.293,0.586,0.687,0.586,1.272C369.688,140.592,369.493,141.083,369.102,141.277z M315.006,143.436l2.254-5.391
			l2.256,5.391H315.006z"/>
	</g>
	<g>
		<path fill="#0077A6" d="M426.626,168.717c0,2.938-1.863,4.313-5.194,4.313h-6.369v-2.941h6.369c0.588,0,1.078-0.098,1.275-0.293
			c0.194-0.196,0.391-0.489,0.391-0.882s-0.193-0.784-0.391-0.979c-0.2-0.196-0.589-0.295-1.18-0.295
			c-3.037-0.099-6.859,0.099-6.859-4.216c0-1.96,1.273-4.114,4.705-4.114h6.566v2.938h-6.078c-0.588,0-0.979,0-1.271,0.194
			c-0.295,0.295-0.49,0.589-0.49,1.078c0,0.492,0.295,0.785,0.688,0.979c0.393,0.099,0.785,0.195,1.273,0.195h1.764
			c1.861,0,3.038,0.396,3.822,1.081C426.233,166.464,426.626,167.348,426.626,168.717z M412.808,165.777
			c-0.78-0.688-1.958-1.079-3.821-1.079h-1.764c-0.488,0-0.883-0.099-1.272-0.195c-0.395-0.198-0.688-0.489-0.688-0.979
			c0-0.489,0.1-0.783,0.49-1.08c0.294-0.194,0.687-0.194,1.272-0.194h6.073v-2.938h-6.563c-3.527,0-4.704,2.154-4.704,4.114
			c0,4.312,3.821,4.113,6.861,4.216c0.587,0,0.978,0.096,1.175,0.295c0.195,0.193,0.395,0.586,0.395,0.979s-0.197,0.686-0.395,0.882
			c-0.293,0.194-0.688,0.292-1.273,0.292h-6.37v2.938h6.37c3.332,0,5.194-1.373,5.194-4.312
			C413.787,167.348,413.396,166.464,412.808,165.777L412.808,165.777z M400.265,170.188h-7.739v-2.742h7.545V164.7h-7.545v-2.55
			h7.739v-2.84h-10.977v13.719h10.977V170.188L400.265,170.188z M385.762,159.998c-1.08-0.587-2.354-0.688-4.019-0.688h-7.546
			v13.719h3.33v-4.998h3.529c1.176,0,1.859,0.099,2.354,0.588c0.588,0.688,0.588,1.861,0.588,2.746v1.666h3.232v-2.646
			c0-1.273-0.098-1.863-0.488-2.549c-0.295-0.393-0.883-0.883-1.666-1.175c0.881-0.293,2.354-1.47,2.354-3.627
			C387.428,161.466,386.839,160.584,385.762,159.998z M367.141,159.311h-10.483l-4.216,4.508l-4.019-4.508h-13.229v13.721h13.033
			l4.215-4.51l4.02,4.51h6.37v-4.604h4.114c2.844,0,5.687-0.784,5.687-4.604C372.629,160.095,369.689,159.311,367.141,159.311
			L367.141,159.311z M383.115,164.995c-0.49,0.194-0.979,0.194-1.571,0.194l-4.019,0.099v-3.138h4.019c0.588,0,1.179,0,1.571,0.295
			c0.394,0.195,0.684,0.587,0.684,1.177C383.799,164.21,383.508,164.698,383.115,164.995z M367.141,165.682h-4.312v-3.529h4.312
			c1.178,0,1.961,0.49,1.961,1.666C369.102,164.995,368.316,165.682,367.141,165.682z M354.498,166.169l5.097-5.389v11.073
			L354.498,166.169z M346.563,170.188h-8.135v-2.742h7.252V164.7h-7.252v-2.55h8.232l3.625,4.021L346.563,170.188L346.563,170.188z
			 M417.512,149.412h-4.704l-6.174-10.29v10.29h-6.662l-1.271-3.039h-6.861l-1.271,3.039h-3.82c-1.568,0-3.625-0.393-4.799-1.568
			c-1.081-1.176-1.668-2.746-1.668-5.193c0-2.062,0.293-3.922,1.762-5.394c0.98-1.077,2.746-1.567,4.998-1.567h3.134v2.938h-3.134
			c-1.176,0-1.862,0.197-2.551,0.785c-0.588,0.588-0.881,1.666-0.881,3.134c0,1.471,0.291,2.551,0.881,3.236
			c0.49,0.49,1.375,0.686,2.254,0.686h1.471l4.704-10.777h4.902l5.482,12.938v-12.938h5.1l5.776,9.508v-9.508h3.332V149.412
			L417.512,149.412L417.512,149.412z M378.605,135.691h-3.33v13.721h3.33V135.691L378.605,135.691z M371.648,136.281
			c-1.08-0.588-2.254-0.588-3.92-0.588h-7.549v13.721h3.234v-4.999h3.527c1.177,0,1.961,0.099,2.449,0.587
			c0.586,0.688,0.486,1.864,0.486,2.646v1.764h3.332v-2.744c0-1.176-0.096-1.766-0.587-2.45c-0.294-0.395-0.884-0.883-1.569-1.176
			c0.883-0.394,2.354-1.471,2.354-3.627C373.414,137.85,372.727,136.967,371.648,136.281L371.648,136.281z M357.831,146.57h-7.644
			v-2.743h7.545v-2.845h-7.545v-2.448h7.644v-2.843h-10.976v13.721h10.976V146.57L357.831,146.57z M344.404,135.691h-5.389
			l-4.021,9.311l-4.313-9.311h-5.291v12.938l-5.586-12.938h-4.902l-5.881,13.721h3.529l1.271-3.039h6.859l1.271,3.039h6.663v-10.78
			l4.808,10.78h2.844l4.801-10.78v10.78h3.334v-13.721H344.404L344.404,135.691z M397.521,143.436l-2.256-5.391l-2.255,5.391
			H397.521z M369.102,141.277c-0.488,0.295-0.979,0.295-1.666,0.295h-4.02v-3.038h4.02c0.586,0,1.271,0,1.666,0.196
			c0.392,0.293,0.586,0.687,0.586,1.272C369.688,140.592,369.493,141.083,369.102,141.277z M315.006,143.436l2.254-5.391
			l2.256,5.391H315.006z"/>
	</g>
	<g>
		<g>
			<path fill="#EF7D00" d="M423.412,18.353c3.467,0,6.286,2.819,6.286,6.286v67.526c0,3.466-2.819,6.286-6.286,6.286H310.391
				c-3.467,0-6.285-2.82-6.285-6.286V24.639c0-3.466,2.818-6.286,6.285-6.286H423.412 M423.412,17.102H310.391
				c-4.162,0-7.537,3.375-7.537,7.537v67.526c0,4.163,3.375,7.537,7.537,7.537h113.021c4.163,0,7.537-3.374,7.537-7.537V24.639
				C430.949,20.477,427.575,17.102,423.412,17.102L423.412,17.102z"/>
		</g>
		<g>
			<path fill="#EF7D00" d="M430.092,94.875V64.433c0,0-34.185,24.119-96.794,34.921h89.951
				C427.093,99.236,429.336,97.984,430.092,94.875z"/>
			<path fill="#E12723" d="M418.081,89.46"/>
			
				<radialGradient id="SVGID_4_" cx="51.5503" cy="341.8887" r="9.1869" gradientTransform="matrix(1 0 0 -1 318.416 398.082)" gradientUnits="userSpaceOnUse">
				<stop  offset="0.0056" style="stop-color:#FFF2E8"/>
				<stop  offset="0.0961" style="stop-color:#FEEDDF"/>
				<stop  offset="0.2438" style="stop-color:#FDE1C7"/>
				<stop  offset="0.4303" style="stop-color:#FACD9F"/>
				<stop  offset="0.6484" style="stop-color:#F6B168"/>
				<stop  offset="0.8901" style="stop-color:#F08E22"/>
				<stop  offset="1" style="stop-color:#EE7D00"/>
			</radialGradient>
			<path fill="url(#SVGID_4_)" d="M369.979,47.112c-5.136,0-9.303,4.013-9.303,8.964c0,5.265,3.986,9.2,9.303,9.2
				c5.187,0,9.278-3.987,9.278-9.096C379.258,51.101,375.191,47.112,369.979,47.112z"/>
			<path fill="#05171D" d="M317.168,47.439h-5.002v17.444h4.977c2.64,0,4.547-0.625,6.224-2.013c1.985-1.647,3.163-4.132,3.163-6.7
				C326.529,51.02,322.684,47.439,317.168,47.439z M321.145,60.541c-1.074,0.97-2.459,1.389-4.66,1.389h-0.914V50.393h0.914
				c2.201,0,3.531,0.393,4.66,1.412c1.179,1.046,1.879,2.667,1.879,4.34C323.023,57.821,322.32,59.499,321.145,60.541z"/>
			<rect x="328.1" y="47.439" fill="#05171D" width="3.399" height="17.444"/>
			<path fill="#05171D" d="M339.82,54.131c-2.043-0.757-2.646-1.257-2.646-2.195c0-1.099,1.07-1.936,2.537-1.936
				c1.021,0,1.854,0.418,2.75,1.409l1.774-2.324c-1.465-1.285-3.217-1.937-5.129-1.937c-3.084,0-5.438,2.145-5.438,4.994
				c0,2.408,1.1,3.637,4.29,4.791c1.335,0.469,2.015,0.781,2.354,0.994c0.68,0.445,1.021,1.07,1.021,1.802
				c0,1.415-1.126,2.459-2.646,2.459c-1.621,0-2.928-0.81-3.713-2.327l-2.194,2.121c1.565,2.298,3.448,3.322,6.042,3.322
				c3.529,0,6.014-2.357,6.014-5.73C344.84,56.801,343.693,55.545,339.82,54.131z"/>
			<path fill="#05171D" d="M345.913,56.17c0,5.132,4.028,9.106,9.21,9.106c1.465,0,2.72-0.289,4.264-1.019v-4.003
				c-1.361,1.361-2.563,1.909-4.107,1.909c-3.428,0-5.859-2.485-5.859-6.018c0-3.346,2.512-5.989,5.705-5.989
				c1.619,0,2.852,0.575,4.266,1.961v-4.004c-1.49-0.756-2.724-1.068-4.188-1.068C350.047,47.046,345.913,51.101,345.913,56.17z"/>
			<polygon fill="#05171D" points="386.956,59.157 382.301,47.439 378.585,47.439 385.991,65.329 387.82,65.329 395.355,47.439 
				391.667,47.439 			"/>
			<polygon fill="#05171D" points="396.901,64.883 406.553,64.883 406.553,61.93 400.301,61.93 400.301,57.219 406.313,57.219 
				406.313,54.265 400.301,54.265 400.301,50.393 406.553,50.393 406.553,47.439 396.901,47.439 			"/>
			<path fill="#05171D" d="M420.021,52.587c0-3.268-2.247-5.147-6.175-5.147h-5.049v17.443h3.404v-7.01h0.444l4.705,7.01h4.188
				l-5.497-7.348C418.61,57.011,420.021,55.258,420.021,52.587z M413.193,55.468h-0.99v-5.285h1.044
				c2.123,0,3.274,0.892,3.274,2.588C416.521,54.523,415.37,55.468,413.193,55.468z"/>
			<path fill="#1D1D1B" d="M422.42,48.739c0-0.306-0.204-0.472-0.578-0.472h-0.496v1.536h0.365v-0.597l0.43,0.597h0.456
				l-0.511-0.635C422.301,49.111,422.42,48.953,422.42,48.739z M421.778,48.948h-0.067v-0.4h0.071c0.182,0,0.271,0.066,0.271,0.197
				C422.056,48.879,421.959,48.948,421.778,48.948z"/>
			<path fill="#1D1D1B" d="M421.915,47.688c-0.745,0-1.341,0.599-1.341,1.343c0,0.744,0.6,1.342,1.341,1.342
				c0.729,0,1.325-0.604,1.325-1.342C423.24,48.295,422.645,47.688,421.915,47.688z M421.914,50.133
				c-0.597,0-1.076-0.491-1.076-1.099c0-0.613,0.479-1.101,1.076-1.101c0.578,0,1.056,0.497,1.056,1.101
				S422.492,50.133,421.914,50.133z"/>
		</g>
	</g>
</g>
</svg>
