<?xml version="1.0" encoding="utf-8"?>
<!-- Generator: Adobe Illustrator 25.0.0, SVG Export Plug-In . SVG Version: 6.00 Build 0)  -->
<svg version="1.0" xmlns="http://www.w3.org/2000/svg" xmlns:xlink="http://www.w3.org/1999/xlink" x="0px" y="0px"
	 viewBox="0 0 30 30" style="enable-background:new 0 0 30 30;" xml:space="preserve">
<style type="text/css">
	.st0{fill:#FFFFFF;}
	.st1{fill:none;stroke:#046489;stroke-miterlimit:10;}
	.st2{opacity:0.35;fill:#CCCCCC;}
	.st3{fill:#046489;}
	.st4{opacity:0.22;fill:#028202;}
	.st5{opacity:0.2;fill:#FF0000;}
	.st6{fill:#028202;}
	.st7{fill:#FF0000;}
	.st8{fill:none;stroke:#FFFFFF;stroke-miterlimit:10;}
	.st9{fill:#FF7B00;}
	.st10{fill:#231F20;}
	.st11{fill:#DBDCDD;}
	.st12{fill:#24B700;}
	.st13{opacity:0.22;fill:#FFFFFF;}
	.st14{fill:none;stroke:#FFFFFF;stroke-width:0.5;stroke-miterlimit:10;}
	.st15{fill:#8C1622;}
	.st16{fill:#8D1622;}
	.st17{fill:url(#SVGID_1_);}
	.st18{fill:url(#SVGID_2_);}
	.st19{fill:#FF4751;}
	.st20{fill:url(#SVGID_3_);}
	.st21{fill:url(#SVGID_4_);}
	.st22{fill:#FD4233;}
	.st23{fill:#FF402F;}
	.st24{fill:#007732;}
	.st25{fill:#FF5A29;}
</style>
<g id="Layer_1">
</g>
<g id="Layer_2">
</g>
<g id="Layer_3">
	<g id="Pdf_1_">
		<g>
			<g>
				<g>
					<path class="st22" d="M24.4,29.6H5.6c-1.3,0-2.3-1.1-2.3-2.3V2.8c0-1.3,1.1-2.3,2.3-2.3h9.6c0.6,0,1.2,0.2,1.7,0.7l9.2,9.2
						c0.4,0.4,0.7,1,0.7,1.7v15.2C26.7,28.5,25.7,29.6,24.4,29.6z M5.6,1.4C4.8,1.4,4.2,2,4.2,2.8v24.4c0,0.8,0.6,1.4,1.4,1.4h18.8
						c0.8,0,1.4-0.6,1.4-1.4V12c0-0.4-0.2-0.7-0.4-1l-9.2-9.2c-0.3-0.3-0.6-0.4-1-0.4H5.6z"/>
				</g>
			</g>
			<g>
				<g>
					<path class="st23" d="M22.3,18.8c0-0.1-0.1-0.3-0.2-0.4c-0.3-0.3-0.9-0.4-1.9-0.5c-0.7,0-1.5,0.1-2.3,0.2
						c-0.4-0.2-0.8-0.5-1.1-0.7c-0.8-0.8-1.5-1.8-2-3c0-0.1,0.1-0.2,0.1-0.3c0,0,0.5-2.6,0.3-3.5c0-0.1,0-0.2-0.1-0.3l0-0.1
						c-0.1-0.3-0.4-0.6-0.8-0.6l-0.2,0h0c-0.4,0-0.8,0.2-0.9,0.6c-0.3,1,0,2.6,0.5,4.6l-0.1,0.3c-0.4,0.9-0.9,1.9-1.3,2.7l-0.1,0.1
						c-0.4,0.9-0.8,1.6-1.2,2.2l-0.4,0.2c0,0-0.7,0.4-0.8,0.4c-1.3,0.8-2.1,1.6-2.3,2.3c0,0.2,0,0.5,0.2,0.6l0.4,0.2
						C8.4,23.9,8.6,24,8.7,24c0.9,0,2-1.1,3.4-3.7c1.7-0.5,3.6-1,5.3-1.2c1.3,0.7,2.8,1.2,3.8,1.2c0.2,0,0.3,0,0.5,0
						c0.2-0.1,0.3-0.2,0.4-0.3C22.3,19.6,22.4,19.2,22.3,18.8z M8.5,23.3c0.2-0.5,0.8-1.4,1.8-2.1c0.1,0,0.2-0.2,0.3-0.3
						C9.7,22.5,9,23.1,8.5,23.3z M14.3,10.1c0.3,0,0.5,0.7,0.5,1.4c0,0.7-0.1,1.2-0.3,1.5c-0.2-0.5-0.2-1.4-0.2-1.9
						C14.2,11.1,14.1,10.1,14.3,10.1z M12.6,19.5c0.2-0.4,0.4-0.7,0.6-1.2c0.5-1,0.9-1.8,1.1-2.4c0.5,0.9,1.1,1.7,1.8,2.3
						c0.1,0.1,0.2,0.2,0.3,0.2C15,18.7,13.7,19.1,12.6,19.5z M21.8,19.4c-0.1,0.1-0.3,0.1-0.5,0.1c-0.5,0-1.2-0.2-2.1-0.6
						c0.4,0,0.7,0,1,0c0.5,0,0.7,0,1.2,0.1C21.9,19.1,21.9,19.4,21.8,19.4z"/>
				</g>
			</g>
		</g>
	</g>
</g>
</svg>
