<?xml version="1.0" encoding="utf-8"?>
<!-- Generator: Adobe Illustrator 25.0.0, SVG Export Plug-In . SVG Version: 6.00 Build 0)  -->
<svg version="1.1" id="Layer_1" xmlns="http://www.w3.org/2000/svg" xmlns:xlink="http://www.w3.org/1999/xlink" x="0px" y="0px"
	 viewBox="0 0 100 30" style="enable-background:new 0 0 100 30;" xml:space="preserve">
<style type="text/css">
	.st0{fill:#8C1622;}
	.st1{fill:#8D1622;}
	.st2{fill:url(#SVGID_1_);}
	.st3{fill:#FF4751;}
	.st4{fill:#FFFFFF;}
</style>
<g id="Layer_1_1_">
</g>
<g id="Layer_2_1_">
</g>
<g>
	<g id="Layer_3">
		<g>
			<g>
				<path class="st0" d="M2.8,21.9V25l6.1-6.1H5.8C4.2,18.9,2.8,20.3,2.8,21.9z"/>
				<g>
					<path class="st1" d="M98,21.8v3.1l-6.1-6.1H95C96.7,18.8,98,20.1,98,21.8z"/>
					<g>
						
							<linearGradient id="SVGID_1_" gradientUnits="userSpaceOnUse" x1="-4888.54" y1="1943.8002" x2="-4793.3398" y2="1943.8002" gradientTransform="matrix(-1 1.516477e-03 1.516477e-03 1 -4793.4849 -1923.2722)">
							<stop  offset="0" style="stop-color:#D4171E"/>
							<stop  offset="4.746955e-02" style="stop-color:#CD101A"/>
							<stop  offset="0.1614" style="stop-color:#C10414"/>
							<stop  offset="0.2774" style="stop-color:#BD0012"/>
							<stop  offset="0.6597" style="stop-color:#BF0012"/>
							<stop  offset="0.7977" style="stop-color:#C60012"/>
							<stop  offset="0.8803" style="stop-color:#CF0011"/>
							<stop  offset="0.9633" style="stop-color:#FF3B45"/>
							<stop  offset="1" style="stop-color:#FF4041"/>
						</linearGradient>
						<path class="st2" d="M5,16.5L14.4,7c1.4-1.4,3.4-2.3,5.4-2.3l60.9-0.1c2,0,4,0.8,5.4,2.2l9.6,9.6c1.4,1.4,2.2,3.2,2.2,5.2
							c-0.1-1.6-1.4-2.9-3-2.9h-3.1l-83,0.1H5.7c-1.7,0-3,1.4-3,3l0,0C2.8,19.9,3.6,17.9,5,16.5z"/>
						<path class="st3" d="M2.8,21.6L2.8,21.6C2.8,21.6,2.8,21.5,2.8,21.6c0-0.2,0-0.2,0-0.3c0.2-1.6,1.4-3.2,3-3.2h3.1l83-0.1H95
							c1.6,0,3,2.1,3,3.7c-0.1-1.6-1.4-2.9-3-2.9h-3.1l-83,0.1H5.8c-1.7,0-3,1.4-3,3l0,0C2.8,21.8,2.8,21.6,2.8,21.6
							C2.8,21.5,2.8,21.6,2.8,21.6z"/>
					</g>
				</g>
			</g>
		</g>
	</g>
</g>
<g>
	<path class="st4" d="M18,12v3.5h-1.1V7.3h2.4c0.8,0,1.4,0.2,1.8,0.6c0.4,0.4,0.6,1,0.6,1.7c0,0.4-0.1,0.8-0.3,1.1
		c-0.2,0.3-0.5,0.6-0.9,0.7c0.4,0.1,0.7,0.4,0.9,0.7c0.2,0.3,0.3,0.7,0.3,1.2v0.7c0,0.3,0,0.5,0.1,0.7c0,0.2,0.1,0.4,0.3,0.5v0.1
		h-1.2c-0.1-0.1-0.2-0.3-0.3-0.6c0-0.3-0.1-0.5-0.1-0.8v-0.7c0-0.5-0.1-0.8-0.3-1.1c-0.2-0.3-0.5-0.4-0.9-0.4H18z M18,11.1h1.2
		c0.5,0,0.8-0.1,1.1-0.4s0.3-0.6,0.3-1.1c0-0.5-0.1-0.8-0.3-1.1c-0.2-0.3-0.6-0.4-1-0.4H18V11.1z"/>
	<path class="st4" d="M25.4,15.6c-0.8,0-1.4-0.3-1.8-0.8c-0.4-0.6-0.6-1.3-0.6-2.2v-0.3c0-0.9,0.2-1.6,0.6-2.2
		c0.4-0.6,1-0.9,1.7-0.9c0.7,0,1.2,0.2,1.6,0.7c0.4,0.5,0.5,1.2,0.5,2v0.6h-3.3c0,0.6,0.1,1.1,0.3,1.5c0.2,0.4,0.6,0.6,1,0.6
		c0.3,0,0.6,0,0.8-0.1c0.2-0.1,0.5-0.2,0.7-0.4l0.4,0.7c-0.2,0.2-0.5,0.4-0.8,0.5S25.8,15.6,25.4,15.6z M25.2,10.2
		c-0.3,0-0.6,0.2-0.8,0.5c-0.2,0.3-0.3,0.7-0.4,1.2h2.2v-0.1c0-0.5-0.1-0.8-0.2-1.1C25.8,10.3,25.6,10.2,25.2,10.2z"/>
	<path class="st4" d="M30.5,14.8c0.3,0,0.5-0.1,0.7-0.3c0.2-0.2,0.3-0.5,0.3-0.9h1l0,0c0,0.6-0.2,1.1-0.6,1.5
		c-0.4,0.4-0.9,0.6-1.5,0.6c-0.8,0-1.3-0.3-1.7-0.9c-0.4-0.6-0.6-1.3-0.6-2.2v-0.2c0-0.9,0.2-1.6,0.6-2.2s1-0.9,1.7-0.9
		c0.6,0,1.1,0.2,1.5,0.6c0.4,0.4,0.6,0.9,0.6,1.6l0,0h-1c0-0.4-0.1-0.7-0.3-1c-0.2-0.3-0.4-0.4-0.7-0.4c-0.4,0-0.7,0.2-0.9,0.6
		c-0.2,0.4-0.3,0.9-0.3,1.6v0.2c0,0.6,0.1,1.2,0.3,1.6S30.1,14.8,30.5,14.8z"/>
	<path class="st4" d="M33.4,12.4c0-0.9,0.2-1.7,0.6-2.2s1-0.9,1.8-0.9c0.8,0,1.3,0.3,1.8,0.9c0.4,0.6,0.6,1.3,0.6,2.2v0.2
		c0,0.9-0.2,1.7-0.6,2.2c-0.4,0.6-1,0.9-1.8,0.9c-0.8,0-1.4-0.3-1.8-0.9c-0.4-0.6-0.6-1.3-0.6-2.2V12.4z M34.6,12.5
		c0,0.7,0.1,1.2,0.3,1.6c0.2,0.4,0.5,0.6,1,0.6c0.4,0,0.7-0.2,0.9-0.6c0.2-0.4,0.3-0.9,0.3-1.6v-0.2c0-0.6-0.1-1.2-0.3-1.6
		c-0.2-0.4-0.5-0.6-1-0.6s-0.7,0.2-0.9,0.6s-0.3,1-0.3,1.6V12.5z"/>
	<path class="st4" d="M40.4,9.4l0.1,0.8c0.2-0.3,0.4-0.5,0.6-0.7c0.3-0.2,0.6-0.2,0.9-0.2c0.3,0,0.6,0.1,0.9,0.3
		c0.2,0.2,0.4,0.5,0.6,0.9c0.2-0.4,0.4-0.6,0.6-0.8c0.3-0.2,0.6-0.3,1-0.3c0.5,0,0.9,0.2,1.3,0.6c0.3,0.4,0.5,1.1,0.5,2v3.6h-1.2
		v-3.6c0-0.6-0.1-1.1-0.2-1.3c-0.2-0.3-0.4-0.4-0.7-0.4c-0.3,0-0.5,0.1-0.7,0.3c-0.2,0.2-0.3,0.5-0.4,0.8c0,0.1,0,0.1,0,0.2
		c0,0.1,0,0.1,0,0.2v3.8h-1.1v-3.6c0-0.6-0.1-1.1-0.2-1.3s-0.4-0.4-0.7-0.4c-0.2,0-0.5,0.1-0.6,0.2c-0.2,0.1-0.3,0.3-0.4,0.6v4.6
		h-1.2V9.4H40.4z"/>
	<path class="st4" d="M49.2,9.4l0.1,0.8c0.2-0.3,0.4-0.5,0.6-0.7c0.3-0.2,0.6-0.2,0.9-0.2c0.3,0,0.6,0.1,0.9,0.3
		c0.2,0.2,0.4,0.5,0.6,0.9c0.2-0.4,0.4-0.6,0.6-0.8c0.3-0.2,0.6-0.3,1-0.3c0.5,0,0.9,0.2,1.3,0.6c0.3,0.4,0.5,1.1,0.5,2v3.6h-1.2
		v-3.6c0-0.6-0.1-1.1-0.2-1.3c-0.2-0.3-0.4-0.4-0.7-0.4c-0.3,0-0.5,0.1-0.7,0.3c-0.2,0.2-0.3,0.5-0.4,0.8c0,0.1,0,0.1,0,0.2
		c0,0.1,0,0.1,0,0.2v3.8h-1.1v-3.6c0-0.6-0.1-1.1-0.2-1.3s-0.4-0.4-0.7-0.4c-0.2,0-0.5,0.1-0.6,0.2c-0.2,0.1-0.3,0.3-0.4,0.6v4.6
		h-1.2V9.4H49.2z"/>
	<path class="st4" d="M59.1,15.6c-0.8,0-1.4-0.3-1.8-0.8c-0.4-0.6-0.6-1.3-0.6-2.2v-0.3c0-0.9,0.2-1.6,0.6-2.2
		c0.4-0.6,1-0.9,1.7-0.9c0.7,0,1.2,0.2,1.6,0.7c0.4,0.5,0.5,1.2,0.5,2v0.6h-3.3c0,0.6,0.1,1.1,0.3,1.5c0.2,0.4,0.6,0.6,1,0.6
		c0.3,0,0.6,0,0.8-0.1c0.2-0.1,0.5-0.2,0.7-0.4l0.4,0.7c-0.2,0.2-0.5,0.4-0.8,0.5C59.9,15.6,59.5,15.6,59.1,15.6z M59,10.2
		c-0.3,0-0.6,0.2-0.8,0.5c-0.2,0.3-0.3,0.7-0.4,1.2H60v-0.1c0-0.5-0.1-0.8-0.2-1.1C59.6,10.3,59.3,10.2,59,10.2z"/>
	<path class="st4" d="M63.2,9.4l0.1,0.9c0.2-0.3,0.4-0.6,0.7-0.8c0.3-0.2,0.6-0.3,0.9-0.3c0.5,0,1,0.2,1.3,0.6
		c0.3,0.4,0.5,1,0.5,1.9v3.8h-1.1v-3.8c0-0.6-0.1-1-0.2-1.2s-0.4-0.4-0.7-0.4c-0.3,0-0.5,0.1-0.7,0.2s-0.3,0.3-0.5,0.6v4.6h-1.2V9.4
		H63.2z"/>
	<path class="st4" d="M67.6,12.5c0-1,0.2-1.8,0.5-2.4c0.4-0.6,0.9-0.9,1.5-0.9c0.3,0,0.6,0.1,0.8,0.2s0.4,0.3,0.6,0.6V6.7h1.1v8.8
		h-1l-0.1-0.7c-0.2,0.3-0.4,0.5-0.6,0.6c-0.2,0.1-0.5,0.2-0.8,0.2c-0.6,0-1.1-0.3-1.5-0.8c-0.4-0.5-0.5-1.3-0.5-2.2V12.5z
		 M68.8,12.7c0,0.6,0.1,1.2,0.3,1.5c0.2,0.4,0.5,0.6,0.9,0.6c0.3,0,0.5-0.1,0.7-0.2c0.2-0.1,0.3-0.3,0.4-0.6v-3
		c-0.1-0.3-0.3-0.5-0.4-0.6c-0.2-0.1-0.4-0.2-0.6-0.2c-0.4,0-0.7,0.2-0.9,0.7c-0.2,0.4-0.3,1-0.3,1.7V12.7z"/>
	<path class="st4" d="M75.8,15.6c-0.8,0-1.4-0.3-1.8-0.8c-0.4-0.6-0.6-1.3-0.6-2.2v-0.3c0-0.9,0.2-1.6,0.6-2.2
		c0.4-0.6,1-0.9,1.7-0.9c0.7,0,1.2,0.2,1.6,0.7c0.4,0.5,0.5,1.2,0.5,2v0.6h-3.3c0,0.6,0.1,1.1,0.3,1.5c0.2,0.4,0.6,0.6,1,0.6
		c0.3,0,0.6,0,0.8-0.1c0.2-0.1,0.5-0.2,0.7-0.4l0.4,0.7c-0.2,0.2-0.5,0.4-0.8,0.5S76.2,15.6,75.8,15.6z M75.6,10.2
		c-0.3,0-0.6,0.2-0.8,0.5c-0.2,0.3-0.3,0.7-0.4,1.2h2.2v-0.1c0-0.5-0.1-0.8-0.2-1.1S76,10.2,75.6,10.2z"/>
	<path class="st4" d="M78.6,12.5c0-1,0.2-1.8,0.5-2.4c0.4-0.6,0.9-0.9,1.5-0.9c0.3,0,0.6,0.1,0.8,0.2S81.9,9.8,82,10V6.7h1.1v8.8h-1
		l-0.1-0.7c-0.2,0.3-0.4,0.5-0.6,0.6c-0.2,0.1-0.5,0.2-0.8,0.2c-0.6,0-1.1-0.3-1.5-0.8c-0.4-0.5-0.5-1.3-0.5-2.2V12.5z M79.8,12.7
		c0,0.6,0.1,1.2,0.3,1.5c0.2,0.4,0.5,0.6,0.9,0.6c0.3,0,0.5-0.1,0.7-0.2c0.2-0.1,0.3-0.3,0.4-0.6v-3c-0.1-0.3-0.3-0.5-0.4-0.6
		c-0.2-0.1-0.4-0.2-0.6-0.2c-0.4,0-0.7,0.2-0.9,0.7c-0.2,0.4-0.3,1-0.3,1.7V12.7z"/>
</g>
</svg>
