<?xml version="1.0" encoding="utf-8"?>
<!-- Generator: Adobe Illustrator 25.0.0, SVG Export Plug-In . SVG Version: 6.00 Build 0)  -->
<svg version="1.0" xmlns="http://www.w3.org/2000/svg" xmlns:xlink="http://www.w3.org/1999/xlink" x="0px" y="0px"
	 viewBox="0 0 30 30" style="enable-background:new 0 0 30 30;" xml:space="preserve">
<style type="text/css">
	.st0{fill:#FFFFFF;}
	.st1{fill:none;stroke:#046489;stroke-miterlimit:10;}
	.st2{opacity:0.35;fill:#CCCCCC;}
	.st3{fill:#046489;}
	.st4{opacity:0.22;fill:#028202;}
	.st5{opacity:0.2;fill:#FF0000;}
	.st6{fill:#028202;}
	.st7{fill:#FF0000;}
	.st8{fill:none;stroke:#FFFFFF;stroke-miterlimit:10;}
	.st9{fill:#FF7B00;}
	.st10{fill:#231F20;}
	.st11{fill:#DBDCDD;}
	.st12{fill:#24B700;}
	.st13{opacity:0.22;fill:#FFFFFF;}
	.st14{fill:none;stroke:#FFFFFF;stroke-width:0.5;stroke-miterlimit:10;}
	.st15{fill:#8C1622;}
	.st16{fill:#8D1622;}
	.st17{fill:url(#SVGID_1_);}
	.st18{fill:url(#SVGID_2_);}
	.st19{fill:#FF4751;}
	.st20{fill:url(#SVGID_3_);}
	.st21{fill:url(#SVGID_4_);}
	.st22{fill:#FD4233;}
	.st23{fill:#FF402F;}
	.st24{fill:#007732;}
	.st25{fill:#FF5A29;}
</style>
<g id="Layer_1">
</g>
<g id="Layer_2">
</g>
<g id="Layer_3">
	<g>
		<path class="st7" d="M13.1,15c-0.5-0.6-1.1-1.1-1.6-1.7c-0.9-1-1.8-1.9-2.7-2.9c-0.4-0.4-0.6-1-0.5-1.6c0.1-0.3,0.2-0.6,0.5-0.9
			c0.4-0.4,0.9-0.4,1.3-0.2c0.3,0.1,0.7,0.3,0.9,0.6c1.3,1.3,2.5,2.6,3.7,4c0.1,0.1,0.2,0.2,0.2,0.3c0.6-0.7,1.3-1.4,1.9-2.1
			c0.7-0.8,1.4-1.5,2.2-2.2c0.2-0.2,0.5-0.4,0.8-0.5c0.8-0.3,1.5,0.1,1.7,0.9c0.1,0.5,0.1,1.1-0.3,1.5c-0.8,0.9-1.6,1.7-2.3,2.6
			c-0.6,0.7-1.3,1.4-2,2C17,14.9,17,14.9,16.9,15c0.4,0.4,0.8,0.9,1.2,1.3c0.9,0.9,1.8,1.8,2.7,2.8c0.2,0.3,0.5,0.5,0.7,0.8
			c0.4,0.6,0.3,1.4-0.1,1.9c-0.3,0.4-0.8,0.6-1.3,0.4c-0.4-0.1-0.7-0.3-1-0.6c-1.3-1.4-2.6-2.8-3.9-4.1c-0.1-0.1-0.1-0.1-0.2-0.2
			c-0.4,0.4-0.7,0.9-1.1,1.3c-1,1-1.9,2-2.9,3c-0.4,0.4-0.8,0.6-1.3,0.7c-0.3,0-0.6-0.1-0.8-0.3c-0.6-0.5-0.7-1.5-0.2-2.2
			c0.5-0.7,1.1-1.3,1.7-2c0.8-0.9,1.7-1.7,2.5-2.6C12.9,15.2,13,15.1,13.1,15z"/>
	</g>
</g>
</svg>
